<?xml version="1.0" ?><!-- Created with Inkscape (http://www.inkscape.org/) --><svg xmlns:inkscape="http://www.inkscape.org/namespaces/inkscape" xmlns:sodipodi="http://sodipodi.sourceforge.net/DTD/sodipodi-0.dtd" xmlns:xlink="http://www.w3.org/1999/xlink" xmlns="http://www.w3.org/2000/svg" xmlns:svg="http://www.w3.org/2000/svg" inkscape:version="1.3.1 (9b9bdc1480, 2023-11-25, custom)" sodipodi:docname="ModX.svg" id="svg5" version="1.1" viewBox="0 0 10.16 128.5" height="128.5mm" width="10.16mm" xml:space="preserve"><sodipodi:namedview id="namedview7" pagecolor="#ffffff" bordercolor="#000000" borderopacity="0.25" inkscape:showpageshadow="2" inkscape:pageopacity="0.0" inkscape:pagecheckerboard="0" inkscape:deskcolor="#d1d1d1" inkscape:document-units="mm" showgrid="true" showguides="true" inkscape:zoom="16.000002" inkscape:cx="0" inkscape:cy="112.12499" inkscape:window-width="1850" inkscape:window-height="1016" inkscape:window-x="0" inkscape:window-y="0" inkscape:window-maximized="1" inkscape:current-layer="svg5"><sodipodi:guide position="65.087496,58.650009" orientation="-1,0" id="guide190" inkscape:locked="false" inkscape:label="" inkscape:color="rgb(0,134,229)"/><sodipodi:guide position="-28.376561,122.7453" orientation="0,-1" id="guide5395" inkscape:locked="false"/><sodipodi:guide position="19.711457,15.500001" orientation="0,1" id="guide22798" inkscape:locked="false" inkscape:label="" inkscape:color="rgb(0,134,229)"/><sodipodi:guide position="-19.597537,103" orientation="0,1" id="guide2676" inkscape:locked="false" inkscape:label="" inkscape:color="rgb(0,134,229)"/><inkscape:grid type="xygrid" id="grid2678" originy="25.500002" units="mm" spacingx="2.5400001" spacingy="23.000001" originx="0" visible="true"/></sodipodi:namedview><defs id="defs2"><linearGradient id="linearGradient7378"><stop style="stop-color:#bd91df;stop-opacity:1;" offset="0" id="stop12941"/><stop style="stop-color:#28c6ff;stop-opacity:1;" offset="1" id="stop12943"/></linearGradient><rect x="-362.74576" y="242.83466" width="272.94321" height="175.77255" id="rect2576"/><rect x="0" y="456.79095" width="76.799995" height="28.878334" id="rect405"/><linearGradient inkscape:collect="always" id="linearGradient1445"><stop style="stop-color:#e0e8f3;stop-opacity:1;" offset="0" id="stop1441"/><stop style="stop-color:#e0e8f3;stop-opacity:0;" offset="1" id="stop1443"/></linearGradient><rect x="7.0710678" y="69.296463" width="26.162951" height="19.091883" id="rect292"/><rect x="7.0710678" y="69.296463" width="26.162951" height="19.091883" id="rect374"/><linearGradient inkscape:collect="always" xlink:href="#linearGradient1445" id="linearGradient1451" x1="2.9572134" y1="5.5931401" x2="17.362785" y2="5.5931401" gradientUnits="userSpaceOnUse"/><rect x="-362.74576" y="242.83466" width="272.94321" height="175.77255" id="rect725"/><rect x="-362.74576" y="242.83466" width="272.94321" height="175.77255" id="rect806"/><rect x="-362.74576" y="242.83466" width="272.94321" height="175.77255" id="rect872"/><mask maskUnits="userSpaceOnUse" id="mask12356-9"><path style="fill:#ff00ff;stroke:#fe5aff;stroke-width:0.102442;stroke-linejoin:bevel;stroke-dasharray:none;stroke-opacity:1;paint-order:stroke fill markers" d="m 4.2467972,120.10164 1e-7,-40.771484 H 16.337802 v 40.771484 z" id="path12358-1" inkscape:label="mask"/></mask><mask maskUnits="userSpaceOnUse" id="mask12412-7"><path style="fill:#ff00ff;stroke:#fe5aff;stroke-width:0.102442;stroke-linejoin:bevel;stroke-dasharray:none;stroke-opacity:1;paint-order:stroke fill markers" d="m 4.2467972,120.10164 1e-7,-40.771484 H 16.337802 v 40.771484 z" id="path12414-0" inkscape:label="mask"/></mask><mask maskUnits="userSpaceOnUse" id="mask12412-8"><path style="fill:#ff00ff;stroke:#fe5aff;stroke-width:0.102442;stroke-linejoin:bevel;stroke-dasharray:none;stroke-opacity:1;paint-order:stroke fill markers" d="m 4.2467972,120.10164 1e-7,-40.771484 H 16.337802 v 40.771484 z" id="path12414-9" inkscape:label="mask"/></mask><mask maskUnits="userSpaceOnUse" id="mask12352-9"><path style="fill:#ff00ff;stroke:#fe5aff;stroke-width:0.102442;stroke-linejoin:bevel;stroke-dasharray:none;stroke-opacity:1;paint-order:stroke fill markers" d="m 4.2467972,120.10164 1e-7,-40.771484 H 16.337802 v 40.771484 z" id="path12354-1" inkscape:label="mask"/></mask><mask maskUnits="userSpaceOnUse" id="mask12428-3"><path style="fill:#ff00ff;stroke:#fe5aff;stroke-width:0.102442;stroke-linejoin:bevel;stroke-dasharray:none;stroke-opacity:1;paint-order:stroke fill markers" d="m 4.2467972,120.10164 1e-7,-40.771484 H 16.337802 v 40.771484 z" id="path12430-2" inkscape:label="mask"/></mask><mask maskUnits="userSpaceOnUse" id="mask12428-6"><path style="fill:#ff00ff;stroke:#fe5aff;stroke-width:0.102442;stroke-linejoin:bevel;stroke-dasharray:none;stroke-opacity:1;paint-order:stroke fill markers" d="m 4.2467972,120.10164 1e-7,-40.771484 H 16.337802 v 40.771484 z" id="path12430-5" inkscape:label="mask"/></mask><clipPath clipPathUnits="userSpaceOnUse" id="clipPath4444"><path style="display:inline;fill:#ff00ff;stroke:#fe5aff;stroke-width:0.102442;stroke-linejoin:bevel;stroke-dasharray:none;stroke-opacity:1;paint-order:stroke fill markers" d="m 4.2467972,120.10164 1e-7,-40.771484 H 16.337802 v 40.771484 z" id="path4446" inkscape:label="clip"/></clipPath><linearGradient inkscape:collect="always" xlink:href="#linearGradient5347" id="linearGradient744-8" gradientUnits="userSpaceOnUse" x1="-333.70743" y1="244.44972" x2="-333.70743" y2="264.52359"/><linearGradient inkscape:collect="always" id="linearGradient5347"><stop style="stop-color:#10ccd2;stop-opacity:1;" offset="0" id="stop5343"/><stop style="stop-color:#cd25cd;stop-opacity:1;" offset="1" id="stop5345"/></linearGradient><rect x="-362.74576" y="242.83466" width="60.787731" height="29.019567" id="rect2576-0"/><rect x="-362.74576" y="242.83466" width="60.787731" height="29.019567" id="rect7641"/><linearGradient inkscape:collect="always" xlink:href="#linearGradient5347" id="linearGradient344" gradientUnits="userSpaceOnUse" x1="-333.70743" y1="244.44972" x2="-333.70743" y2="264.52359"/><linearGradient inkscape:collect="always" xlink:href="#linearGradient5347" id="linearGradient670" gradientUnits="userSpaceOnUse" x1="-333.70743" y1="244.44972" x2="-333.70743" y2="264.52359"/><linearGradient inkscape:collect="always" xlink:href="#linearGradient5347" id="linearGradient672" gradientUnits="userSpaceOnUse" x1="-333.70743" y1="244.44972" x2="-333.70743" y2="264.52359"/><linearGradient inkscape:collect="always" xlink:href="#linearGradient5347" id="linearGradient674" gradientUnits="userSpaceOnUse" x1="-333.70743" y1="244.44972" x2="-333.70743" y2="264.52359"/><linearGradient inkscape:collect="always" xlink:href="#linearGradient5347" id="linearGradient676" gradientUnits="userSpaceOnUse" x1="-333.70743" y1="244.44972" x2="-333.70743" y2="264.52359"/><linearGradient inkscape:collect="always" xlink:href="#linearGradient5347" id="linearGradient678" gradientUnits="userSpaceOnUse" x1="-333.70743" y1="244.44972" x2="-333.70743" y2="264.52359"/><linearGradient inkscape:collect="always" xlink:href="#linearGradient5347" id="linearGradient680" gradientUnits="userSpaceOnUse" x1="-333.70743" y1="244.44972" x2="-333.70743" y2="264.52359"/><linearGradient id="linearGradient5269" inkscape:swatch="solid"><stop style="stop-color:#bc9051;stop-opacity:1;" offset="0" id="stop5267"/></linearGradient><inkscape:path-effect effect="bspline" id="path-effect28295" is_visible="true" lpeversion="1" weight="33.333333" steps="2" helper_size="0" apply_no_weight="true" apply_with_weight="true" only_selected="false"/><inkscape:path-effect effect="bspline" id="path-effect28279" is_visible="true" lpeversion="1" weight="33.333333" steps="2" helper_size="0" apply_no_weight="true" apply_with_weight="true" only_selected="false"/><inkscape:path-effect effect="bspline" id="path-effect27181" is_visible="true" lpeversion="1" weight="33.333333" steps="2" helper_size="0" apply_no_weight="true" apply_with_weight="true" only_selected="false"/><inkscape:path-effect effect="bspline" id="path-effect27171" is_visible="true" lpeversion="1" weight="33.333333" steps="2" helper_size="0" apply_no_weight="true" apply_with_weight="true" only_selected="false"/><inkscape:path-effect effect="bspline" id="path-effect27161" is_visible="true" lpeversion="1" weight="33.333333" steps="2" helper_size="0" apply_no_weight="true" apply_with_weight="true" only_selected="false"/><inkscape:path-effect effect="bspline" id="path-effect27151" is_visible="true" lpeversion="1" weight="33.333333" steps="2" helper_size="0" apply_no_weight="true" apply_with_weight="true" only_selected="false"/><inkscape:path-effect effect="bspline" id="path-effect27141" is_visible="true" lpeversion="1" weight="33.333333" steps="2" helper_size="0" apply_no_weight="true" apply_with_weight="true" only_selected="false"/><inkscape:path-effect effect="bspline" id="path-effect27131" is_visible="true" lpeversion="1" weight="33.333333" steps="2" helper_size="0" apply_no_weight="true" apply_with_weight="true" only_selected="false"/><inkscape:path-effect effect="bspline" id="path-effect16779" is_visible="true" lpeversion="1" weight="33.333333" steps="2" helper_size="0" apply_no_weight="true" apply_with_weight="true" only_selected="false"/><inkscape:path-effect effect="bspline" id="path-effect16767" is_visible="true" lpeversion="1" weight="33.333333" steps="2" helper_size="0" apply_no_weight="true" apply_with_weight="true" only_selected="false"/><inkscape:path-effect effect="bspline" id="path-effect16755" is_visible="true" lpeversion="1" weight="33.333333" steps="2" helper_size="0" apply_no_weight="true" apply_with_weight="true" only_selected="false"/><inkscape:path-effect effect="bspline" id="path-effect16729" is_visible="true" lpeversion="1" weight="33.333333" steps="2" helper_size="0" apply_no_weight="true" apply_with_weight="true" only_selected="false"/><inkscape:path-effect effect="bspline" id="path-effect16719" is_visible="true" lpeversion="1" weight="33.333333" steps="2" helper_size="0" apply_no_weight="true" apply_with_weight="true" only_selected="false"/><inkscape:path-effect effect="bspline" id="path-effect16493" is_visible="true" lpeversion="1" weight="33.333333" steps="2" helper_size="0" apply_no_weight="true" apply_with_weight="true" only_selected="false"/><inkscape:path-effect effect="bspline" id="path-effect15691" is_visible="true" lpeversion="1" weight="33.333333" steps="2" helper_size="0" apply_no_weight="true" apply_with_weight="true" only_selected="false"/><inkscape:path-effect effect="bspline" id="path-effect15681" is_visible="true" lpeversion="1" weight="33.333333" steps="2" helper_size="0" apply_no_weight="true" apply_with_weight="true" only_selected="false"/><inkscape:path-effect effect="bspline" id="path-effect15671" is_visible="true" lpeversion="1" weight="33.333333" steps="2" helper_size="0" apply_no_weight="true" apply_with_weight="true" only_selected="false"/><inkscape:path-effect effect="bspline" id="path-effect15661" is_visible="true" lpeversion="1" weight="33.333333" steps="2" helper_size="0" apply_no_weight="true" apply_with_weight="true" only_selected="false"/><inkscape:path-effect effect="bspline" id="path-effect15651" is_visible="true" lpeversion="1" weight="33.333333" steps="2" helper_size="0" apply_no_weight="true" apply_with_weight="true" only_selected="false"/><inkscape:path-effect effect="bspline" id="path-effect15587" is_visible="true" lpeversion="1" weight="33.333333" steps="2" helper_size="0" apply_no_weight="true" apply_with_weight="true" only_selected="false"/><rect x="-362.74576" y="242.83466" width="272.94321" height="175.77255" id="rect2576-04"/><rect x="0" y="456.79095" width="76.799995" height="28.878334" id="rect405-5"/><rect x="7.0710678" y="69.296463" width="26.162951" height="19.091883" id="rect292-8"/><rect x="7.0710678" y="69.296463" width="26.162951" height="19.091883" id="rect374-4"/><rect x="-362.74576" y="242.83466" width="272.94321" height="175.77255" id="rect725-7"/><rect x="-362.74576" y="242.83466" width="272.94321" height="175.77255" id="rect806-05"/><rect x="-362.74576" y="242.83466" width="272.94321" height="175.77255" id="rect872-7"/><mask maskUnits="userSpaceOnUse" id="mask12356-9-69"><path style="fill:#ff00ff;stroke:#fe5aff;stroke-width:0.102442;stroke-linejoin:bevel;stroke-dasharray:none;stroke-opacity:1;paint-order:stroke fill markers" d="m 4.2467972,120.10164 1e-7,-40.771484 H 16.337802 v 40.771484 z" id="path12358-1-5" inkscape:label="mask"/></mask><mask maskUnits="userSpaceOnUse" id="mask12412-7-21"><path style="fill:#ff00ff;stroke:#fe5aff;stroke-width:0.102442;stroke-linejoin:bevel;stroke-dasharray:none;stroke-opacity:1;paint-order:stroke fill markers" d="m 4.2467972,120.10164 1e-7,-40.771484 H 16.337802 v 40.771484 z" id="path12414-0-7" inkscape:label="mask"/></mask><mask maskUnits="userSpaceOnUse" id="mask12412-8-2"><path style="fill:#ff00ff;stroke:#fe5aff;stroke-width:0.102442;stroke-linejoin:bevel;stroke-dasharray:none;stroke-opacity:1;paint-order:stroke fill markers" d="m 4.2467972,120.10164 1e-7,-40.771484 H 16.337802 v 40.771484 z" id="path12414-9-2" inkscape:label="mask"/></mask><mask maskUnits="userSpaceOnUse" id="mask12352-9-2"><path style="fill:#ff00ff;stroke:#fe5aff;stroke-width:0.102442;stroke-linejoin:bevel;stroke-dasharray:none;stroke-opacity:1;paint-order:stroke fill markers" d="m 4.2467972,120.10164 1e-7,-40.771484 H 16.337802 v 40.771484 z" id="path12354-1-5" inkscape:label="mask"/></mask><mask maskUnits="userSpaceOnUse" id="mask12428-3-7"><path style="fill:#ff00ff;stroke:#fe5aff;stroke-width:0.102442;stroke-linejoin:bevel;stroke-dasharray:none;stroke-opacity:1;paint-order:stroke fill markers" d="m 4.2467972,120.10164 1e-7,-40.771484 H 16.337802 v 40.771484 z" id="path12430-2-19" inkscape:label="mask"/></mask><mask maskUnits="userSpaceOnUse" id="mask12428-6-9"><path style="fill:#ff00ff;stroke:#fe5aff;stroke-width:0.102442;stroke-linejoin:bevel;stroke-dasharray:none;stroke-opacity:1;paint-order:stroke fill markers" d="m 4.2467972,120.10164 1e-7,-40.771484 H 16.337802 v 40.771484 z" id="path12430-5-2" inkscape:label="mask"/></mask><clipPath clipPathUnits="userSpaceOnUse" id="clipPath4444-0"><path style="display:inline;fill:#ff00ff;stroke:#fe5aff;stroke-width:0.102442;stroke-linejoin:bevel;stroke-dasharray:none;stroke-opacity:1;paint-order:stroke fill markers" d="m 4.2467972,120.10164 1e-7,-40.771484 H 16.337802 v 40.771484 z" id="path4446-4" inkscape:label="clip"/></clipPath><rect x="-362.74576" y="242.83466" width="272.94321" height="175.77255" id="rect30022"/><rect x="-362.74576" y="242.83466" width="272.94321" height="175.77255" id="rect2576-2"/><rect x="0" y="456.79095" width="76.799995" height="28.878334" id="rect405-8"/><rect x="7.0710678" y="69.296463" width="26.162951" height="19.091883" id="rect292-9"/><rect x="7.0710678" y="69.296463" width="26.162951" height="19.091883" id="rect374-2"/><rect x="-362.74576" y="242.83466" width="272.94321" height="175.77255" id="rect725-6"/><rect x="-362.74576" y="242.83466" width="272.94321" height="175.77255" id="rect806-0"/><rect x="-362.74576" y="242.83466" width="272.94321" height="175.77255" id="rect872-1"/><mask maskUnits="userSpaceOnUse" id="mask12356-9-6"><path style="fill:#ff00ff;stroke:#fe5aff;stroke-width:0.102442;stroke-linejoin:bevel;stroke-dasharray:none;stroke-opacity:1;paint-order:stroke fill markers" d="m 4.2467972,120.10164 1e-7,-40.771484 H 16.337802 v 40.771484 z" id="path12358-1-9" inkscape:label="mask"/></mask><mask maskUnits="userSpaceOnUse" id="mask12412-7-2"><path style="fill:#ff00ff;stroke:#fe5aff;stroke-width:0.102442;stroke-linejoin:bevel;stroke-dasharray:none;stroke-opacity:1;paint-order:stroke fill markers" d="m 4.2467972,120.10164 1e-7,-40.771484 H 16.337802 v 40.771484 z" id="path12414-0-3" inkscape:label="mask"/></mask><mask maskUnits="userSpaceOnUse" id="mask12412-8-4"><path style="fill:#ff00ff;stroke:#fe5aff;stroke-width:0.102442;stroke-linejoin:bevel;stroke-dasharray:none;stroke-opacity:1;paint-order:stroke fill markers" d="m 4.2467972,120.10164 1e-7,-40.771484 H 16.337802 v 40.771484 z" id="path12414-9-9" inkscape:label="mask"/></mask><mask maskUnits="userSpaceOnUse" id="mask12352-9-9"><path style="fill:#ff00ff;stroke:#fe5aff;stroke-width:0.102442;stroke-linejoin:bevel;stroke-dasharray:none;stroke-opacity:1;paint-order:stroke fill markers" d="m 4.2467972,120.10164 1e-7,-40.771484 H 16.337802 v 40.771484 z" id="path12354-1-9" inkscape:label="mask"/></mask><mask maskUnits="userSpaceOnUse" id="mask12428-3-6"><path style="fill:#ff00ff;stroke:#fe5aff;stroke-width:0.102442;stroke-linejoin:bevel;stroke-dasharray:none;stroke-opacity:1;paint-order:stroke fill markers" d="m 4.2467972,120.10164 1e-7,-40.771484 H 16.337802 v 40.771484 z" id="path12430-2-1" inkscape:label="mask"/></mask><mask maskUnits="userSpaceOnUse" id="mask12428-6-2"><path style="fill:#ff00ff;stroke:#fe5aff;stroke-width:0.102442;stroke-linejoin:bevel;stroke-dasharray:none;stroke-opacity:1;paint-order:stroke fill markers" d="m 4.2467972,120.10164 1e-7,-40.771484 H 16.337802 v 40.771484 z" id="path12430-5-8" inkscape:label="mask"/></mask><clipPath clipPathUnits="userSpaceOnUse" id="clipPath4444-4"><path style="display:inline;fill:#ff00ff;stroke:#fe5aff;stroke-width:0.102442;stroke-linejoin:bevel;stroke-dasharray:none;stroke-opacity:1;paint-order:stroke fill markers" d="m 4.2467972,120.10164 1e-7,-40.771484 H 16.337802 v 40.771484 z" id="path4446-9" inkscape:label="clip"/></clipPath><rect x="-362.74576" y="242.83466" width="60.787731" height="29.019567" id="rect2576-0-6"/><rect x="-362.74576" y="242.83466" width="60.787731" height="29.019567" id="rect2835"/><rect x="-362.74576" y="242.83466" width="60.787731" height="29.019567" id="rect12331"/><rect x="-362.74576" y="242.83466" width="60.787731" height="29.019567" id="rect12359"/><inkscape:path-effect effect="bspline" id="path-effect15587-8" is_visible="true" lpeversion="1" weight="33.333333" steps="2" helper_size="0" apply_no_weight="true" apply_with_weight="true" only_selected="false"/><inkscape:path-effect effect="bspline" id="path-effect15651-0" is_visible="true" lpeversion="1" weight="33.333333" steps="2" helper_size="0" apply_no_weight="true" apply_with_weight="true" only_selected="false"/><inkscape:path-effect effect="bspline" id="path-effect15661-3" is_visible="true" lpeversion="1" weight="33.333333" steps="2" helper_size="0" apply_no_weight="true" apply_with_weight="true" only_selected="false"/><inkscape:path-effect effect="bspline" id="path-effect15671-9" is_visible="true" lpeversion="1" weight="33.333333" steps="2" helper_size="0" apply_no_weight="true" apply_with_weight="true" only_selected="false"/><inkscape:path-effect effect="bspline" id="path-effect15681-3" is_visible="true" lpeversion="1" weight="33.333333" steps="2" helper_size="0" apply_no_weight="true" apply_with_weight="true" only_selected="false"/><inkscape:path-effect effect="bspline" id="path-effect15691-1" is_visible="true" lpeversion="1" weight="33.333333" steps="2" helper_size="0" apply_no_weight="true" apply_with_weight="true" only_selected="false"/><rect x="7.0710678" y="69.296463" width="26.162951" height="19.091883" id="rect292-5"/><rect x="7.0710678" y="69.296463" width="26.162951" height="19.091883" id="rect374-5"/><inkscape:path-effect effect="bspline" id="path-effect28295-3" is_visible="true" lpeversion="1" weight="33.333333" steps="2" helper_size="0" apply_no_weight="true" apply_with_weight="true" only_selected="false"/><inkscape:path-effect effect="bspline" id="path-effect28279-0" is_visible="true" lpeversion="1" weight="33.333333" steps="2" helper_size="0" apply_no_weight="true" apply_with_weight="true" only_selected="false"/><inkscape:path-effect effect="bspline" id="path-effect27181-5" is_visible="true" lpeversion="1" weight="33.333333" steps="2" helper_size="0" apply_no_weight="true" apply_with_weight="true" only_selected="false"/><inkscape:path-effect effect="bspline" id="path-effect27171-7" is_visible="true" lpeversion="1" weight="33.333333" steps="2" helper_size="0" apply_no_weight="true" apply_with_weight="true" only_selected="false"/><inkscape:path-effect effect="bspline" id="path-effect27161-0" is_visible="true" lpeversion="1" weight="33.333333" steps="2" helper_size="0" apply_no_weight="true" apply_with_weight="true" only_selected="false"/><inkscape:path-effect effect="bspline" id="path-effect27151-2" is_visible="true" lpeversion="1" weight="33.333333" steps="2" helper_size="0" apply_no_weight="true" apply_with_weight="true" only_selected="false"/><inkscape:path-effect effect="bspline" id="path-effect27141-7" is_visible="true" lpeversion="1" weight="33.333333" steps="2" helper_size="0" apply_no_weight="true" apply_with_weight="true" only_selected="false"/><inkscape:path-effect effect="bspline" id="path-effect27131-8" is_visible="true" lpeversion="1" weight="33.333333" steps="2" helper_size="0" apply_no_weight="true" apply_with_weight="true" only_selected="false"/><inkscape:path-effect effect="bspline" id="path-effect16779-0" is_visible="true" lpeversion="1" weight="33.333333" steps="2" helper_size="0" apply_no_weight="true" apply_with_weight="true" only_selected="false"/><inkscape:path-effect effect="bspline" id="path-effect16767-8" is_visible="true" lpeversion="1" weight="33.333333" steps="2" helper_size="0" apply_no_weight="true" apply_with_weight="true" only_selected="false"/><inkscape:path-effect effect="bspline" id="path-effect16755-6" is_visible="true" lpeversion="1" weight="33.333333" steps="2" helper_size="0" apply_no_weight="true" apply_with_weight="true" only_selected="false"/><inkscape:path-effect effect="bspline" id="path-effect16729-5" is_visible="true" lpeversion="1" weight="33.333333" steps="2" helper_size="0" apply_no_weight="true" apply_with_weight="true" only_selected="false"/><inkscape:path-effect effect="bspline" id="path-effect16719-7" is_visible="true" lpeversion="1" weight="33.333333" steps="2" helper_size="0" apply_no_weight="true" apply_with_weight="true" only_selected="false"/><inkscape:path-effect effect="bspline" id="path-effect16493-7" is_visible="true" lpeversion="1" weight="33.333333" steps="2" helper_size="0" apply_no_weight="true" apply_with_weight="true" only_selected="false"/><inkscape:path-effect effect="bspline" id="path-effect15691-5" is_visible="true" lpeversion="1" weight="33.333333" steps="2" helper_size="0" apply_no_weight="true" apply_with_weight="true" only_selected="false"/><inkscape:path-effect effect="bspline" id="path-effect15681-38" is_visible="true" lpeversion="1" weight="33.333333" steps="2" helper_size="0" apply_no_weight="true" apply_with_weight="true" only_selected="false"/><inkscape:path-effect effect="bspline" id="path-effect15671-1" is_visible="true" lpeversion="1" weight="33.333333" steps="2" helper_size="0" apply_no_weight="true" apply_with_weight="true" only_selected="false"/><inkscape:path-effect effect="bspline" id="path-effect15661-7" is_visible="true" lpeversion="1" weight="33.333333" steps="2" helper_size="0" apply_no_weight="true" apply_with_weight="true" only_selected="false"/><inkscape:path-effect effect="bspline" id="path-effect15651-1" is_visible="true" lpeversion="1" weight="33.333333" steps="2" helper_size="0" apply_no_weight="true" apply_with_weight="true" only_selected="false"/><inkscape:path-effect effect="bspline" id="path-effect15587-85" is_visible="true" lpeversion="1" weight="33.333333" steps="2" helper_size="0" apply_no_weight="true" apply_with_weight="true" only_selected="false"/><rect x="-362.74576" y="242.83466" width="272.94321" height="175.77255" id="rect2576-02"/><rect x="0" y="456.79095" width="76.799995" height="28.878334" id="rect405-55"/><rect x="7.0710678" y="69.296463" width="26.162951" height="19.091883" id="rect292-4"/><rect x="7.0710678" y="69.296463" width="26.162951" height="19.091883" id="rect374-6"/><rect x="-362.74576" y="242.83466" width="272.94321" height="175.77255" id="rect725-0"/><rect x="-362.74576" y="242.83466" width="272.94321" height="175.77255" id="rect806-8"/><rect x="-362.74576" y="242.83466" width="272.94321" height="175.77255" id="rect872-3"/><mask maskUnits="userSpaceOnUse" id="mask12356-9-0"><path style="fill:#ff00ff;stroke:#fe5aff;stroke-width:0.102442;stroke-linejoin:bevel;stroke-dasharray:none;stroke-opacity:1;paint-order:stroke fill markers" d="m 4.2467972,120.10164 1e-7,-40.771484 H 16.337802 v 40.771484 z" id="path12358-1-95" inkscape:label="mask"/></mask><mask maskUnits="userSpaceOnUse" id="mask12412-7-0"><path style="fill:#ff00ff;stroke:#fe5aff;stroke-width:0.102442;stroke-linejoin:bevel;stroke-dasharray:none;stroke-opacity:1;paint-order:stroke fill markers" d="m 4.2467972,120.10164 1e-7,-40.771484 H 16.337802 v 40.771484 z" id="path12414-0-37" inkscape:label="mask"/></mask><mask maskUnits="userSpaceOnUse" id="mask12412-8-3"><path style="fill:#ff00ff;stroke:#fe5aff;stroke-width:0.102442;stroke-linejoin:bevel;stroke-dasharray:none;stroke-opacity:1;paint-order:stroke fill markers" d="m 4.2467972,120.10164 1e-7,-40.771484 H 16.337802 v 40.771484 z" id="path12414-9-99" inkscape:label="mask"/></mask><mask maskUnits="userSpaceOnUse" id="mask12352-9-1"><path style="fill:#ff00ff;stroke:#fe5aff;stroke-width:0.102442;stroke-linejoin:bevel;stroke-dasharray:none;stroke-opacity:1;paint-order:stroke fill markers" d="m 4.2467972,120.10164 1e-7,-40.771484 H 16.337802 v 40.771484 z" id="path12354-1-8" inkscape:label="mask"/></mask><mask maskUnits="userSpaceOnUse" id="mask12428-3-3"><path style="fill:#ff00ff;stroke:#fe5aff;stroke-width:0.102442;stroke-linejoin:bevel;stroke-dasharray:none;stroke-opacity:1;paint-order:stroke fill markers" d="m 4.2467972,120.10164 1e-7,-40.771484 H 16.337802 v 40.771484 z" id="path12430-2-2" inkscape:label="mask"/></mask><mask maskUnits="userSpaceOnUse" id="mask12428-6-94"><path style="fill:#ff00ff;stroke:#fe5aff;stroke-width:0.102442;stroke-linejoin:bevel;stroke-dasharray:none;stroke-opacity:1;paint-order:stroke fill markers" d="m 4.2467972,120.10164 1e-7,-40.771484 H 16.337802 v 40.771484 z" id="path12430-5-7" inkscape:label="mask"/></mask><clipPath clipPathUnits="userSpaceOnUse" id="clipPath4444-5"><path style="display:inline;fill:#ff00ff;stroke:#fe5aff;stroke-width:0.102442;stroke-linejoin:bevel;stroke-dasharray:none;stroke-opacity:1;paint-order:stroke fill markers" d="m 4.2467972,120.10164 1e-7,-40.771484 H 16.337802 v 40.771484 z" id="path4446-6" inkscape:label="clip"/></clipPath><rect x="-362.74576" y="242.83466" width="272.94321" height="175.77255" id="rect30022-2"/><rect x="-362.74576" y="242.83466" width="272.94321" height="175.77255" id="rect2576-2-0"/><rect x="0" y="456.79095" width="76.799995" height="28.878334" id="rect405-8-1"/><rect x="7.0710678" y="69.296463" width="26.162951" height="19.091883" id="rect292-9-0"/><rect x="7.0710678" y="69.296463" width="26.162951" height="19.091883" id="rect374-2-3"/><rect x="-362.74576" y="242.83466" width="272.94321" height="175.77255" id="rect725-6-1"/><rect x="-362.74576" y="242.83466" width="272.94321" height="175.77255" id="rect806-0-4"/><rect x="-362.74576" y="242.83466" width="272.94321" height="175.77255" id="rect872-1-0"/><mask maskUnits="userSpaceOnUse" id="mask12356-9-6-9"><path style="fill:#ff00ff;stroke:#fe5aff;stroke-width:0.102442;stroke-linejoin:bevel;stroke-dasharray:none;stroke-opacity:1;paint-order:stroke fill markers" d="m 4.2467972,120.10164 1e-7,-40.771484 H 16.337802 v 40.771484 z" id="path12358-1-9-4" inkscape:label="mask"/></mask><mask maskUnits="userSpaceOnUse" id="mask12412-7-2-9"><path style="fill:#ff00ff;stroke:#fe5aff;stroke-width:0.102442;stroke-linejoin:bevel;stroke-dasharray:none;stroke-opacity:1;paint-order:stroke fill markers" d="m 4.2467972,120.10164 1e-7,-40.771484 H 16.337802 v 40.771484 z" id="path12414-0-3-4" inkscape:label="mask"/></mask><mask maskUnits="userSpaceOnUse" id="mask12412-8-4-5"><path style="fill:#ff00ff;stroke:#fe5aff;stroke-width:0.102442;stroke-linejoin:bevel;stroke-dasharray:none;stroke-opacity:1;paint-order:stroke fill markers" d="m 4.2467972,120.10164 1e-7,-40.771484 H 16.337802 v 40.771484 z" id="path12414-9-9-3" inkscape:label="mask"/></mask><mask maskUnits="userSpaceOnUse" id="mask12352-9-9-0"><path style="fill:#ff00ff;stroke:#fe5aff;stroke-width:0.102442;stroke-linejoin:bevel;stroke-dasharray:none;stroke-opacity:1;paint-order:stroke fill markers" d="m 4.2467972,120.10164 1e-7,-40.771484 H 16.337802 v 40.771484 z" id="path12354-1-9-4" inkscape:label="mask"/></mask><mask maskUnits="userSpaceOnUse" id="mask12428-3-6-8"><path style="fill:#ff00ff;stroke:#fe5aff;stroke-width:0.102442;stroke-linejoin:bevel;stroke-dasharray:none;stroke-opacity:1;paint-order:stroke fill markers" d="m 4.2467972,120.10164 1e-7,-40.771484 H 16.337802 v 40.771484 z" id="path12430-2-1-5" inkscape:label="mask"/></mask><mask maskUnits="userSpaceOnUse" id="mask12428-6-2-7"><path style="fill:#ff00ff;stroke:#fe5aff;stroke-width:0.102442;stroke-linejoin:bevel;stroke-dasharray:none;stroke-opacity:1;paint-order:stroke fill markers" d="m 4.2467972,120.10164 1e-7,-40.771484 H 16.337802 v 40.771484 z" id="path12430-5-8-1" inkscape:label="mask"/></mask><clipPath clipPathUnits="userSpaceOnUse" id="clipPath4444-4-2"><path style="display:inline;fill:#ff00ff;stroke:#fe5aff;stroke-width:0.102442;stroke-linejoin:bevel;stroke-dasharray:none;stroke-opacity:1;paint-order:stroke fill markers" d="m 4.2467972,120.10164 1e-7,-40.771484 H 16.337802 v 40.771484 z" id="path4446-9-2" inkscape:label="clip"/></clipPath><rect x="-362.74576" y="242.83466" width="60.787731" height="29.019567" id="rect2576-0-2"/><rect x="-362.74576" y="242.83466" width="60.787731" height="29.019567" id="rect2835-9"/><rect x="-362.74576" y="242.83466" width="60.787731" height="29.019567" id="rect12331-6"/><rect x="-362.74576" y="242.83466" width="60.787731" height="29.019567" id="rect12359-3"/><inkscape:path-effect effect="bspline" id="path-effect15587-8-6" is_visible="true" lpeversion="1" weight="33.333333" steps="2" helper_size="0" apply_no_weight="true" apply_with_weight="true" only_selected="false"/><inkscape:path-effect effect="bspline" id="path-effect15651-0-9" is_visible="true" lpeversion="1" weight="33.333333" steps="2" helper_size="0" apply_no_weight="true" apply_with_weight="true" only_selected="false"/><inkscape:path-effect effect="bspline" id="path-effect15661-3-0" is_visible="true" lpeversion="1" weight="33.333333" steps="2" helper_size="0" apply_no_weight="true" apply_with_weight="true" only_selected="false"/><inkscape:path-effect effect="bspline" id="path-effect15671-9-0" is_visible="true" lpeversion="1" weight="33.333333" steps="2" helper_size="0" apply_no_weight="true" apply_with_weight="true" only_selected="false"/><inkscape:path-effect effect="bspline" id="path-effect15681-3-5" is_visible="true" lpeversion="1" weight="33.333333" steps="2" helper_size="0" apply_no_weight="true" apply_with_weight="true" only_selected="false"/><inkscape:path-effect effect="bspline" id="path-effect15691-1-3" is_visible="true" lpeversion="1" weight="33.333333" steps="2" helper_size="0" apply_no_weight="true" apply_with_weight="true" only_selected="false"/><rect x="-362.74576" y="242.83466" width="60.787731" height="29.019567" id="rect2"/></defs><g inkscape:groupmode="layer" id="g372" inkscape:label="l1" style="display:inline;fill:#e9afaf"><rect style="display:inline;opacity:1;fill:#222222;fill-opacity:1;stroke:none;stroke-width:0.263069" id="rect338" width="10.16" height="128.5" x="-2.9143354e-16" y="-2.7755576e-17" inkscape:label="background"/><g id="g1475" inkscape:label="Title" transform="rotate(180,4.8741281,4.0836875)" style="display:inline"><text xml:space="preserve" style="font-weight:900;font-size:4.58611px;font-family:Orbitron;-inkscape-font-specification:'Orbitron Heavy';display:inline;fill:#FFFFFE;fill-opacity:1;stroke:#222222;stroke-width:0.921;stroke-linecap:round;stroke-linejoin:bevel;stroke-dasharray:none;stroke-opacity:1;paint-order:stroke markers fill;stop-color:#000000" x="-5.8546314" y="6.238256" id="text1" inkscape:label="MOD TXT" transform="rotate(-90)"><tspan sodipodi:role="line" id="tspan1" style="font-size:4.58611px;fill:#FFFFFE;fill-opacity:1;stroke:#222222;stroke-width:0.921;stroke-dasharray:none;stroke-opacity:1" x="-5.8546314" y="6.238256">MOD</tspan></text><g id="text1483" inkscape:label="X TXT" transform="rotate(-90,-0.31086402,0.31086402)"><path style="color:#000000;-inkscape-font-specification:'Orbitron Heavy';fill:#222222;stroke-linecap:round;stroke-linejoin:bevel;-inkscape-stroke:none;paint-order:stroke markers fill" d="M 6.2128906,1.8535156 5.7519531,2.3144531 V 2.4492188 L 5.8613281,2.7480469 6.1542969,3.0898438 5.8554687,3.4550781 5.7519531,3.7460938 v 0.1367187 l 0.4609375,0.4589844 h 0.4238281 l 0.3574219,-0.1679688 0.027344,-0.033203 0.027344,0.033203 0.3554688,0.1679688 H 7.8300781 L 8.2910156,3.8828125 V 3.7460938 L 8.1855469,3.4550781 7.8886719,3.0898438 8.1796875,2.7480469 8.2910156,2.4492188 V 2.3144531 L 7.8300781,1.8535156 H 7.4023437 L 7.0488281,2.0175781 7.0195312,2.0527344 6.9882812,2.015625 6.6367187,1.8535156 Z" id="path5"/><path style="color:#000000;-inkscape-font-specification:'Orbitron Heavy';fill:#FFFFFE;stroke-linecap:round;stroke-linejoin:bevel;-inkscape-stroke:none;paint-order:stroke markers fill" d="m 6.2125133,3.8821952 v 0 -0.1352065 L 6.7533393,3.0844769 6.2125133,2.4490064 V 2.3137999 H 6.6370617 L 7.0210481,2.7680937 7.4023305,2.3137999 H 7.829583 V 2.4490064 L 7.288757,3.0844769 7.829583,3.7469887 V 3.8821952 H 7.4050346 L 7.0210481,3.4116766 6.6370617,3.8821952 Z" id="path6"/></g><g id="text3" inkscape:label="MOD" transform="rotate(-90,4.5225929,4.6365085)" style="display:inline"><path style="color:#000000;-inkscape-font-specification:'Orbitron Heavy';fill:#222222;stroke-linecap:round;stroke-linejoin:bevel;-inkscape-stroke:none;paint-order:stroke markers fill" d="M 3.5605469,2.5898438 3.1015625,3.0507813 V 6.3515625 L 3.5605469,6.8125 H 4.2714844 L 4.7324219,6.3515625 V 5.4003906 L 5.0625,5.7910156 H 5.7675781 L 6.0917969,5.4042969 V 6.3515625 L 6.5507812,6.8125 H 7.2675781 L 7.6679687,6.4121094 C 7.7466859,6.4988647 7.8136003,6.5991076 7.9140625,6.6582031 8.0860382,6.7593651 8.2872822,6.8125 8.4863281,6.8125 h 1.9453129 c 0.199045,0 0.400842,-0.054311 0.572265,-0.1582031 0.09445,-0.05619 0.155248,-0.1515501 0.230469,-0.2324219 L 11.623047,6.8125 h 2.619141 c 0.199601,0 0.403332,-0.053895 0.576171,-0.1582031 h 0.002 C 14.984394,6.5564067 15.124974,6.4141964 15.222656,6.25 15.327229,6.0784496 15.386719,5.8746447 15.386719,5.6738281 V 3.7285156 c 0,-0.2012835 -0.05827,-0.4057409 -0.166016,-0.578125 -0.09881,-0.1651493 -0.240412,-0.3067458 -0.40625,-0.4042968 -0.172041,-0.1028318 -0.374094,-0.15625 -0.572265,-0.15625 h -2.619141 l -0.388672,0.390625 C 11.158935,2.899444 11.098642,2.804251 11.003906,2.7480469 10.832483,2.6441543 10.630686,2.5898438 10.431641,2.5898438 H 8.4863281 c -0.1990459,0 -0.4002899,0.055088 -0.5722656,0.15625 C 7.813362,2.8053293 7.7468105,2.9051712 7.6679687,2.9921875 L 7.2675781,2.5898438 H 6.5292969 L 6.1757812,2.7558594 5.4140625,3.6679688 4.6484375,2.7539063 4.2949219,2.5898438 Z m 7.8417971,0.5527343 0.0078,0.013672 c -0.0014,-0.0024 -0.0044,-0.00347 -0.0059,-0.00586 -0.0014,-0.00231 -4.93e-4,-0.00552 -0.002,-0.00781 z M 4.0214844,3.5117188 h 0.058594 L 4.421875,3.9199219 4.0214844,4.0664062 Z m 2.7226562,0 h 0.0625 V 4.0625 L 6.40625,3.9160156 Z m 5.3398434,0 h 0.03906 l -0.03906,0.039063 z M 8.9785156,4.2265625 H 9.9296875 V 5.1757812 H 8.9785156 Z m 3.8125004,0 h 0.955078 v 0.9492187 h -0.955078 z m -7.2949223,0.453125 -0.083984,0.099609 -0.082031,-0.097656 z m 6.5878903,1.171875 0.04102,0.041016 h -0.04102 z" id="path3"/><path style="color:#000000;-inkscape-font-specification:'Orbitron Heavy';fill:#FFFFFE;stroke-linecap:round;stroke-linejoin:bevel;-inkscape-stroke:none;paint-order:stroke markers fill" d="M 3.561292,6.3524995 V 3.0505002 h 0.7337776 l 1.1190109,1.334558 1.1144247,-1.334558 H 7.266869 V 6.3524995 H 6.5514358 V 4.1374083 L 5.4140805,5.4948969 4.2721391,4.1419944 v 2.2105051 z m 4.9254801,0 q -0.1834444,0 -0.3393722,-0.091722 Q 7.9914722,6.1690551 7.89975,6.0131273 7.8080278,5.8571996 7.8080278,5.6737552 V 3.7292445 q 0,-0.1880305 0.091722,-0.3393721 0.091722,-0.1559278 0.2476499,-0.24765 0.1559278,-0.091722 0.3393722,-0.091722 h 1.9445111 q 0.183444,0 0.334786,0.091722 0.155928,0.091722 0.24765,0.24765 0.09631,0.1513416 0.09631,0.3393721 v 1.9445107 q 0,0.1834444 -0.09631,0.3393721 -0.09172,0.1559278 -0.24765,0.24765 -0.151342,0.091722 -0.334786,0.091722 z m 0.032103,-0.7154332 h 1.8711329 q 0,0 0,0 0,0 0,0 V 3.7659334 q 0,0 0,0 0,0 0,0 H 8.5188749 q 0,0 0,0 0,0 0,0 z M 11.623668,6.3524995 V 3.0505002 h 2.618669 q 0.18803,0 0.339372,0.091722 0.155928,0.091722 0.24765,0.24765 0.09631,0.1513416 0.09631,0.3393721 V 5.673755 q 0,0.1834444 -0.09631,0.3393721 -0.09172,0.1559278 -0.24765,0.24765 -0.151342,0.091722 -0.339372,0.091722 z m 0.706261,-0.7154332 h 1.875719 q 0,0 0,0 0,0 0,0 V 3.7659334 q 0,0 0,0 0,0 0,0 h -1.875719 q 0,0 0,0 0,0 0,0 z" id="path4"/></g></g></g><g id="g8978" transform="translate(0,34.546287)" inkscape:label="glide"><path style="display:inline;fill:none;stroke:#777777;stroke-width:0.505964;stroke-linejoin:bevel;stroke-dasharray:none;stroke-opacity:1;paint-order:stroke fill markers;stop-color:#000000" d="M 0,30.206695 H 5.08" id="path8960"/><text xml:space="preserve" style="font-style:normal;font-variant:normal;font-weight:500;font-stretch:normal;font-size:2.46944px;font-family:Orbitron;-inkscape-font-specification:'Orbitron Medium';text-align:center;text-anchor:middle;display:inline;fill:#fefefe;stroke:#000000;stroke-width:0.370417;stroke-linecap:square;paint-order:stroke fill markers;stop-color:#000000" x="5.052835" y="25.384182" id="text8976" inkscape:label="glide"><tspan sodipodi:role="line" id="tspan8974" style="font-size:2.46944px;fill:#ffffff;fill-opacity:1;stroke:none;stroke-width:0.370417" x="5.052835" y="25.384182">glide</tspan></text><path style="font-weight:500;font-size:2.46944px;font-family:Orbitron;-inkscape-font-specification:'Orbitron Medium';text-align:center;text-anchor:middle;fill:#ffffff;stroke-width:0.370417;stroke-linecap:square;paint-order:stroke fill markers" d="m 2.232742,25.949684 v 0 -0.269169 h 0.8766512 q 0.024694,0 0.04198,-0.01976 0.019756,-0.01729 0.019756,-0.04198 V 25.384182 H 2.3018863 q -0.08643,0 -0.1605136,-0.04198 -0.074083,-0.04445 -0.1185331,-0.118533 -0.041981,-0.07408 -0.041981,-0.160513 v -0.790221 q 0,-0.0889 0.04445,-0.160514 0.04445,-0.07161 0.1160637,-0.116063 0.074083,-0.04445 0.1605136,-0.04445 h 0.8149152 q 0.0889,0 0.1605136,0.04445 0.074083,0.04445 0.1160637,0.116063 0.04445,0.07161 0.04445,0.160514 v 1.355723 q 0,0.0889 -0.04445,0.160513 -0.04198,0.07408 -0.1160637,0.116064 -0.071614,0.04445 -0.1605136,0.04445 z m 0.076553,-0.832202 h 0.8000986 q 0.024694,0 0.04198,-0.01729 0.019756,-0.01975 0.019756,-0.04445 v -0.775404 q 0,-0.02469 -0.019756,-0.04198 -0.017286,-0.01976 -0.04198,-0.01976 h -0.800099 q -0.024694,0 -0.04445,0.01976 -0.017286,0.01729 -0.017286,0.04198 v 0.775404 q 0,0.0247 0.017286,0.04445 0.019756,0.01729 0.04445,0.01729 z m 1.7063797,0.2667 q -0.0889,0 -0.1605136,-0.04445 -0.071614,-0.04445 -0.1160637,-0.116064 -0.04445,-0.07161 -0.04445,-0.160513 v -1.580442 h 0.2666995 v 1.573033 q 0,0.0247 0.017286,0.04445 0.019756,0.01729 0.04445,0.01729 h 0.2592912 v 0.2667 H 4.0156743 Z m 0.4840061,0 v 0 -1.432275 h 0.2666995 v 1.432275 z m 0,-1.634769 v 0 -0.2667 h 0.2666995 v 0.2667 z m 0.8000974,1.634769 q -0.0889,0 -0.162983,-0.04198 -0.071614,-0.04445 -0.1160637,-0.118533 -0.041981,-0.07408 -0.041981,-0.160513 v -0.790221 q 0,-0.0889 0.041981,-0.160514 0.04445,-0.07161 0.1160637,-0.116063 0.074083,-0.04445 0.162983,-0.04445 h 0.8692429 v -0.469194 h 0.2666995 v 1.901469 H 5.2997778 Z m 0.00988,-0.2667 h 0.8000986 q 0.024694,0 0.04198,-0.01729 0.017286,-0.01975 0.017286,-0.04445 v -0.775404 q 0,-0.02469 -0.017286,-0.04198 -0.017286,-0.01976 -0.04198,-0.01976 H 5.3096556 q -0.024694,0 -0.04445,0.01976 -0.017286,0.01729 -0.017286,0.04198 v 0.775404 q 0,0.0247 0.017286,0.04445 0.019755,0.01729 0.04445,0.01729 z m 1.6545198,0.2667 q -0.0889,0 -0.1605136,-0.04445 -0.071614,-0.04445 -0.1160637,-0.116064 -0.04445,-0.07161 -0.04445,-0.160513 v -0.790221 q 0,-0.0889 0.04445,-0.160514 0.04445,-0.07161 0.1160637,-0.116063 0.071614,-0.04445 0.1605136,-0.04445 h 0.8149152 q 0.0889,0 0.1605136,0.04445 0.074083,0.04198 0.1160637,0.116063 0.04445,0.07408 0.04445,0.160514 v 0.52846 H 6.9098477 v 0.254352 q 0,0.0247 0.017286,0.04445 0.019755,0.01729 0.04445,0.01729 h 1.1285341 v 0.2667 H 6.9641754 Z M 6.90985,24.551981 h 0.9211011 v -0.271639 q 0,-0.02469 -0.017286,-0.04198 -0.017286,-0.01976 -0.04198,-0.01976 H 6.9715837 q -0.024694,0 -0.04445,0.01976 -0.017286,0.01729 -0.017286,0.04198 z" id="text9" inkscape:label="glide" aria-label="glide"/></g><g id="g9" transform="translate(-0.08100007,11.077097)" inkscape:label="reps"><path style="display:inline;fill:none;stroke:#777777;stroke-width:0.505964;stroke-linejoin:bevel;stroke-dasharray:none;stroke-opacity:1;paint-order:stroke fill markers;stop-color:#000000" d="M 0.08100007,30.675885 H 5.1610001" id="path8"/><text xml:space="preserve" style="font-style:normal;font-variant:normal;font-weight:500;font-stretch:normal;font-size:2.46944px;font-family:Orbitron;-inkscape-font-specification:'Orbitron Medium';text-align:center;text-anchor:middle;display:inline;fill:#fefefe;stroke:#000000;stroke-width:0.370417;stroke-linecap:square;paint-order:stroke fill markers;stop-color:#000000" x="5.052835" y="25.384182" id="text8" inkscape:label="reps"><tspan sodipodi:role="line" id="tspan8" style="font-size:2.46944px;fill:#ffffff;fill-opacity:1;stroke:none;stroke-width:0.370417" x="5.052835" y="25.384182">reps.</tspan></text><path style="font-weight:500;font-size:2.46944px;font-family:Orbitron;-inkscape-font-specification:'Orbitron Medium';text-align:center;text-anchor:middle;fill:#ffffff;stroke-width:0.370417;stroke-linecap:square;paint-order:stroke fill markers" d="m 1.7363854,25.384182 v 0 -1.111248 q 0,-0.0889 0.04445,-0.160514 0.04445,-0.07161 0.1160637,-0.116063 0.074083,-0.04445 0.1605136,-0.04445 h 0.8000985 v 0.266699 H 2.0648209 q -0.024694,0 -0.04445,0.01976 -0.017286,0.01729 -0.017286,0.04198 v 1.10384 z m 1.605131,0 q -0.0889,0 -0.1605136,-0.04445 -0.071614,-0.04445 -0.1160636,-0.116064 -0.04445,-0.07161 -0.04445,-0.160513 v -0.790221 q 0,-0.0889 0.04445,-0.160514 0.04445,-0.07161 0.1160636,-0.116063 0.071614,-0.04445 0.1605136,-0.04445 h 0.8149152 q 0.0889,0 0.1605136,0.04445 0.074083,0.04198 0.1160637,0.116063 0.04445,0.07408 0.04445,0.160514 v 0.52846 H 3.2871887 v 0.254352 q 0,0.0247 0.017286,0.04445 0.019756,0.01729 0.04445,0.01729 h 1.1285341 v 0.2667 H 3.3415164 Z m -0.054328,-0.832201 h 0.9211012 v -0.271639 q 0,-0.02469 -0.017286,-0.04198 -0.017286,-0.01976 -0.041981,-0.01976 H 3.3489247 q -0.024694,0 -0.04445,0.01976 -0.017286,0.01729 -0.017286,0.04198 z m 1.4495598,1.400172 v 0 -2.000246 h 1.1359424 q 0.0889,0 0.1605136,0.04445 0.074083,0.04445 0.1160637,0.116063 0.04445,0.07161 0.04445,0.160514 v 0.790221 q 0,0.0889 -0.04445,0.160513 -0.041981,0.07161 -0.1160637,0.116064 -0.071614,0.04445 -0.1605136,0.04445 H 5.003448 v 0.567971 z M 5.065184,25.117482 h 0.8000986 q 0.024694,0 0.041981,-0.01729 0.019756,-0.01975 0.019756,-0.04445 v -0.775404 q 0,-0.02469 -0.019756,-0.04198 -0.017286,-0.01976 -0.041981,-0.01976 H 5.065184 q -0.024694,0 -0.04445,0.01976 -0.017286,0.01729 -0.017286,0.04198 v 0.775404 q 0,0.0247 0.017286,0.04445 0.019755,0.01729 0.04445,0.01729 z m 1.6322956,0.2667 q -0.0889,0 -0.1605136,-0.04445 -0.071614,-0.04445 -0.1160637,-0.116064 -0.04445,-0.07161 -0.04445,-0.160513 v -0.03704 h 0.2666995 v 0.02963 q 0,0.0247 0.017286,0.04445 0.019755,0.01729 0.04445,0.01729 h 0.8000986 q 0.024694,0 0.041981,-0.01729 0.017286,-0.01975 0.017286,-0.04445 V 24.86313 q 0,-0.02469 -0.017286,-0.04198 -0.017286,-0.01976 -0.041981,-0.01976 H 6.6974796 q -0.0889,0 -0.1605136,-0.04198 -0.071614,-0.04445 -0.1160637,-0.116064 -0.04445,-0.07408 -0.04445,-0.162983 V 24.27293 q 0,-0.0889 0.04445,-0.160514 0.04445,-0.07161 0.1160637,-0.116063 0.071614,-0.04445 0.1605136,-0.04445 h 0.8149152 q 0.0889,0 0.1605136,0.04445 0.074083,0.04445 0.1160637,0.116063 0.04445,0.07161 0.04445,0.160514 v 0.03704 H 7.564253 v -0.02963 q 0,-0.02469 -0.017286,-0.04198 Q 7.529681,24.2186 7.504986,24.2186 H 6.7048879 q -0.024694,0 -0.04445,0.01976 -0.017286,0.01729 -0.017286,0.04198 v 0.192617 q 0,0.02469 0.017286,0.04445 0.019755,0.01729 0.04445,0.01729 h 0.8075069 q 0.0889,0 0.1605136,0.04445 0.074083,0.04198 0.1160637,0.116063 0.04445,0.07161 0.04445,0.160514 v 0.207433 q 0,0.0889 -0.04445,0.160513 -0.04198,0.07161 -0.1160637,0.116064 -0.071614,0.04445 -0.1605136,0.04445 H 6.6974796 Z m 1.3878226,0 v 0 -0.2667 h 0.2666995 v 0.2667 z" id="path9" inkscape:label="reps" aria-label="reps."/></g><g id="g6901" inkscape:label="rnd." transform="translate(-0.08100007)"><path style="display:inline;fill:none;stroke:#777777;stroke-width:0.506;stroke-linejoin:bevel;stroke-dasharray:none;stroke-opacity:1;paint-order:stroke fill markers;stop-color:#000000" d="M 0.08100007,30.253 H 5.1610001" id="path1377"/><text xml:space="preserve" style="font-style:normal;font-variant:normal;font-weight:500;font-stretch:normal;font-size:2.46944px;font-family:Orbitron;-inkscape-font-specification:'Orbitron Medium';text-align:center;text-anchor:middle;display:inline;fill:#fefefe;stroke:#000000;stroke-width:0.370417;stroke-linecap:square;paint-order:stroke fill markers;stop-color:#000000" x="5.0861712" y="25.430407" id="text6" inkscape:label="rnd"><tspan sodipodi:role="line" id="tspan6" style="font-size:2.46944px;fill:#ffffff;fill-opacity:1;stroke:none;stroke-width:0.370417" x="5.0861712" y="25.430407">rnd.</tspan></text><path style="-inkscape-font-specification:'Orbitron Medium';fill:#ffffff;stroke-width:0.370417;stroke-linecap:square;paint-order:stroke fill markers" d="m 2.6117972,25.430407 v 0 -1.111248 q 0,-0.0889 0.04445,-0.160514 0.04445,-0.07161 0.1160636,-0.116064 0.074083,-0.04445 0.1605136,-0.04445 H 3.732923 v 0.2667 H 2.9402328 q -0.024694,0 -0.04445,0.01975 -0.017286,0.01729 -0.017286,0.04198 v 1.10384 z m 1.2989212,0 v 0 -1.432276 h 1.1359424 q 0.0889,0 0.1605136,0.04445 0.074083,0.04445 0.1160637,0.116064 0.04445,0.07161 0.04445,0.160514 v 1.111248 H 5.1009885 v -1.10384 q 0,-0.0247 -0.019756,-0.04198 -0.017286,-0.01975 -0.04198,-0.01975 H 4.2391539 q -0.024694,0 -0.04445,0.01975 -0.017286,0.01729 -0.017286,0.04198 v 1.10384 z m 1.9632026,0 q -0.0889,0 -0.162983,-0.04198 -0.071614,-0.04445 -0.1160637,-0.118533 -0.041981,-0.07408 -0.041981,-0.160514 v -0.79022 q 0,-0.0889 0.041981,-0.160514 0.04445,-0.07161 0.1160637,-0.116064 0.074083,-0.04445 0.162983,-0.04445 h 0.8692429 v -0.469193 h 0.2666995 v 1.901469 H 5.873921 Z m 0.00988,-0.2667 h 0.8000985 q 0.024694,0 0.041981,-0.01729 0.017286,-0.01976 0.017286,-0.04445 v -0.775404 q 0,-0.0247 -0.017286,-0.04198 -0.017286,-0.01975 -0.041981,-0.01975 H 5.8837988 q -0.024694,0 -0.04445,0.01975 -0.017286,0.01729 -0.017286,0.04198 v 0.775404 q 0,0.02469 0.017286,0.04445 0.019755,0.01729 0.04445,0.01729 z m 1.3927636,0.2667 v 0 -0.2667 h 0.2666995 v 0.2667 z" id="text7" inkscape:label="rnd" aria-label="rnd."/></g><g id="g1" inkscape:label="fluff" style="display:none"><g aria-label="SiM" transform="matrix(0,0.26458333,-0.26458333,0,72.849508,208.64804)" id="text7639" style="font-weight:900;font-size:21.3333px;font-family:Orbitron;-inkscape-font-specification:'Orbitron Heavy';text-align:center;white-space:pre;display:inline;fill:url(#linearGradient744-8);stroke:#feeeff;stroke-width:3.64724;stroke-linecap:round;stroke-linejoin:round;paint-order:stroke fill markers" inkscape:label="SiM PTH"><g id="path374" style="fill:url(#linearGradient672)"><path style="color:#000000;-inkscape-font-specification:'Orbitron Heavy';fill:#feeeff;stroke:none;stroke-linecap:butt;stroke-linejoin:miter;-inkscape-stroke:none" d="m -349.2168,247.16602 c -0.87282,0 -1.75097,0.23679 -2.5039,0.67968 -0.73411,0.43184 -1.35515,1.05616 -1.78907,1.78907 -0.45368,0.7533 -0.6875,1.63818 -0.6875,2.51367 v 3.02929 c 0,0.87964 0.23087,1.76377 0.67774,2.52344 a 1.8238023,1.8238023 0 0 0 0.0137,0.0215 c 0.16655,0.27479 0.46376,0.43166 0.67969,0.66992 a 1.8238023,1.8238023 0 0 0 -1.3711,1.37109 v 1.42969 c 0,0.87283 0.23483,1.75097 0.67774,2.50391 0.43419,0.73811 1.06071,1.36463 1.79883,1.79882 0.75293,0.4429 1.63108,0.67774 2.5039,0.67774 h 9.04493 c 0.86867,0 1.74586,-0.238 2.49218,-0.6875 0.7273,-0.4306 1.34397,-1.04857 1.77539,-1.77539 0.45981,-0.75185 0.71485,-1.63642 0.71485,-2.51758 v -3.0293 c 0,-0.88427 -0.25495,-1.7767 -0.72657,-2.52929 -0.16276,-0.27212 -0.45486,-0.42884 -0.66601,-0.66602 a 1.8238023,1.8238023 0 0 0 1.39258,-1.39258 v -1.42773 c 0,-0.88427 -0.25496,-1.7767 -0.72657,-2.5293 -0.43149,-0.72139 -1.04208,-1.33781 -1.76562,-1.76562 -0.74597,-0.44887 -1.62219,-0.6875 -2.49023,-0.6875 z m 9.22071,3.69531 c 0.15312,0.0206 0.30196,0.0331 0.4375,0.11523 a 1.8238023,1.8238023 0 0 0 0.0195,0.0117 c 0.22899,0.1347 0.37115,0.27687 0.50586,0.50586 a 1.8238023,1.8238023 0 0 0 0.0332,0.0547 c 0.0393,0.0618 0.0303,0.14486 0.0547,0.20508 h -0.15821 a 1.8238023,1.8238023 0 0 0 -0.89257,-0.89258 z m -9.45118,0.0137 a 1.8238023,1.8238023 0 0 0 -1.04492,1.04492 c 0.0244,-0.13868 0.0344,-0.28906 0.10547,-0.40625 a 1.8238023,1.8238023 0 0 0 0.0117,-0.0195 c 0.1347,-0.22899 0.27491,-0.37116 0.50391,-0.50586 0.13878,-0.0816 0.28282,-0.0887 0.42382,-0.11328 z m 11.75782,2.98633 0.0215,0.0117 c -0.004,-0.002 -0.01,-0.001 -0.0137,-0.004 -0.003,-0.002 -0.005,-0.006 -0.008,-0.008 z m -12.80274,1.54297 a 1.8238023,1.8238023 0 0 0 1.04492,1.04492 c -0.14087,-0.0246 -0.28514,-0.0317 -0.42382,-0.11328 -0.23629,-0.139 -0.37598,-0.285 -0.50586,-0.4961 -0.0774,-0.13365 -0.0911,-0.28629 -0.11524,-0.43554 z m 10.49414,1.4707 c 0.1543,0.0204 0.30321,0.0346 0.43946,0.11719 a 1.8238023,1.8238023 0 0 0 0.0195,0.0137 c 0.22899,0.1347 0.37115,0.27491 0.50586,0.50391 a 1.8238023,1.8238023 0 0 0 0.0332,0.0547 c 0.0813,0.1278 0.0942,0.27369 0.11523,0.42383 a 1.8238023,1.8238023 0 0 0 -1.11328,-1.11328 z m 1.10938,4.49609 c -0.0209,0.14932 -0.0319,0.29064 -0.125,0.44141 a 1.8238023,1.8238023 0 0 0 -0.0195,0.0352 c -0.13471,0.22899 -0.27687,0.3692 -0.50586,0.5039 a 1.8238023,1.8238023 0 0 0 -0.0195,0.0117 c -0.13614,0.0825 -0.28533,0.0968 -0.43946,0.11719 a 1.8238023,1.8238023 0 0 0 1.10938,-1.10938 z m -11.55664,0.2168 h 0.12109 a 1.8238023,1.8238023 0 0 0 0.87695,0.87695 c -0.14087,-0.0246 -0.28514,-0.0317 -0.42382,-0.11328 -0.229,-0.1347 -0.36921,-0.27491 -0.50391,-0.5039 -0.05,-0.0851 -0.0428,-0.17898 -0.0703,-0.25977 z" id="path383"/><path style="color:#000000;-inkscape-font-specification:'Orbitron Heavy';fill:url(#linearGradient670);stroke:none;stroke-linecap:butt;stroke-linejoin:miter;-inkscape-stroke:none" d="m -349.2165,264.35037 q -0.85333,0 -1.57866,-0.42666 -0.72533,-0.42667 -1.152,-1.152 -0.42667,-0.72533 -0.42667,-1.57867 v -1.42933 h 3.30666 v 1.25867 q 0,0 0,0 0,0 0,0 h 8.70399 q 0,0 0,0 0,0 0,0 v -2.688 q 0,0 0,0 0,0 0,0 h -8.85332 q -0.85333,0 -1.57866,-0.42666 -0.72533,-0.42667 -1.152,-1.13067 -0.42667,-0.72533 -0.42667,-1.6 v -3.02933 q 0,-0.87466 0.42667,-1.57866 0.42667,-0.72533 1.152,-1.152 0.72533,-0.42666 1.57866,-0.42666 h 9.04532 q 0.85333,0 1.55733,0.42666 0.72533,0.42667 1.152,1.152 0.448,0.704 0.448,1.57866 v 1.42934 h -3.34933 v -1.25867 q 0,0 0,0 0,0 0,0 h -8.70399 q 0,0 0,0 0,0 0,0 v 2.688 q 0,0 0,0 0,0 0,0 h 8.89599 q 0.85333,0 1.55733,0.42666 0.72533,0.42667 1.152,1.152 0.448,0.704 0.448,1.57867 v 3.02932 q 0,0.85334 -0.448,1.57867 -0.42667,0.72533 -1.152,1.152 -0.704,0.42666 -1.55733,0.42666 z" id="path385"/></g><g id="path376" style="fill:url(#linearGradient676)"><path style="color:#000000;-inkscape-font-specification:'Orbitron Heavy';fill:#feeeff;stroke:none;stroke-linecap:butt;stroke-linejoin:miter;-inkscape-stroke:none" d="m -334.75195,246.09961 a 1.8238023,1.8238023 0 0 0 -1.82422,1.82422 v 3.28515 a 1.8238023,1.8238023 0 0 0 0.38476,0.38477 1.8238023,1.8238023 0 0 0 -0.38476,0.38281 v 12.37305 a 1.8238023,1.8238023 0 0 0 1.82422,1.82422 h 3.26367 a 1.8238023,1.8238023 0 0 0 1.82422,-1.82422 v -12.37305 a 1.8238023,1.8238023 0 0 0 -0.38477,-0.38281 1.8238023,1.8238023 0 0 0 0.38477,-0.38477 v -3.28515 a 1.8238023,1.8238023 0 0 0 -1.82422,-1.82422 z" id="path389"/><path style="color:#000000;-inkscape-font-specification:'Orbitron Heavy';fill:url(#linearGradient674);stroke:none;stroke-linecap:butt;stroke-linejoin:miter;-inkscape-stroke:none" d="m -334.75254,264.35037 v 0 -12.37331 h 3.264 v 12.37331 z m 0,-13.14131 v 0 -3.28533 h 3.264 v 3.28533 z" id="path391"/></g><g id="path378" style="fill:url(#linearGradient680)"><path style="color:#000000;-inkscape-font-specification:'Orbitron Heavy';fill:#feeeff;stroke:none;stroke-linecap:butt;stroke-linejoin:miter;-inkscape-stroke:none" d="m -329.78125,247.16602 a 1.8238023,1.8238023 0 0 0 -1.82422,1.82421 v 15.35938 a 1.8238023,1.8238023 0 0 0 1.82422,1.82422 h 3.30664 a 1.8238023,1.8238023 0 0 0 1.82227,-1.82422 v -5.29492 l 2.0957,2.48242 a 1.8238023,1.8238023 0 0 0 2.79102,-0.006 l 2.07031,-2.4707 v 5.28906 a 1.8238023,1.8238023 0 0 0 1.82226,1.82422 h 3.32813 a 1.8238023,1.8238023 0 0 0 1.82422,-1.82422 v -15.35938 a 1.8238023,1.8238023 0 0 0 -1.82422,-1.82421 h -3.4336 a 1.8238023,1.8238023 0 0 0 -1.40039,0.65625 l -3.78711,4.53515 -3.80468,-4.53906 a 1.8238023,1.8238023 0 0 0 -1.39844,-0.65234 z m 1.82227,3.64843 h 0.74023 l 1.62891,1.94141 a 1.8238023,1.8238023 0 0 0 -2.36914,0.82617 z m 12.83203,0 h 0.75781 v 2.77539 a 1.8238023,1.8238023 0 0 0 -2.35547,-0.86132 z m -6.75,5.87305 a 1.8238023,1.8238023 0 0 0 1.40234,0.0117 l -0.69336,0.82812 z" id="path395"/><path style="color:#000000;-inkscape-font-specification:'Orbitron Heavy';fill:url(#linearGradient678);stroke:none;stroke-linecap:butt;stroke-linejoin:miter;-inkscape-stroke:none" d="M -329.78188,264.35037 V 248.9904 h 3.41333 l 5.20532,6.20799 5.184,-6.20799 h 3.43466 v 15.35997 h -3.328 v -10.30398 l -5.29066,6.31466 -5.31199,-6.29333 v 10.28265 z" id="path397"/></g></g><text xml:space="preserve" transform="matrix(0,0.26458333,-0.26458333,0,72.849594,208.64804)" id="text2574-8" style="font-weight:900;font-size:21.3333px;font-family:Orbitron;-inkscape-font-specification:'Orbitron Heavy';text-align:center;white-space:pre;shape-inside:url(#rect2576-0);shape-padding:1.65062;display:inline;fill:url(#linearGradient344);fill-opacity:1;stroke:#feeeff;stroke-width:3.64724;stroke-linecap:round;stroke-linejoin:round;stroke-opacity:1;paint-order:stroke fill markers" inkscape:label="SiM TEXT" x="19.914627" y="0"><tspan x="-353.5258" y="264.35037" id="tspan2">SiM</tspan></text></g><g id="g3" inkscape:label="boring" style="display:inline"><text xml:space="preserve" transform="matrix(0,0.26458333,-0.26458333,0,72.849597,208.64804)" id="text2" style="font-weight:900;font-size:21.3333px;font-family:Orbitron;-inkscape-font-specification:'Orbitron Heavy';text-align:center;white-space:pre;shape-inside:url(#rect2);shape-padding:1.65062;display:inline;fill:#000000;fill-opacity:1;stroke:#9a9a9a;stroke-width:3.64724;stroke-linecap:round;stroke-linejoin:round;stroke-opacity:1;paint-order:stroke fill markers" inkscape:label="SiM TEXT" x="19.914627" y="0"><tspan x="-353.36581" y="264.35037" id="tspan3">SIM</tspan></text><g id="text5" inkscape:label="SiM TEXT" transform="matrix(0,0.26458333,-0.26458333,0,72.849597,208.64804)"><path style="color:#000000;-inkscape-font-specification:'Orbitron Heavy';fill:#9a9a9a;stroke-linecap:round;stroke-linejoin:round;-inkscape-stroke:none;paint-order:stroke fill markers" d="m -349.05664,247.16602 c -0.87282,0 -1.75097,0.23679 -2.50391,0.67968 -0.7349,0.43231 -1.35704,1.05708 -1.79101,1.79102 -0.45302,0.75294 -0.68555,1.63687 -0.68555,2.51172 v 3.02929 c 0,0.87963 0.23088,1.76377 0.67774,2.52344 a 1.8238023,1.8238023 0 0 0 0.0117,0.0215 c 0.1667,0.27504 0.46548,0.43148 0.68164,0.66992 a 1.8238023,1.8238023 0 0 0 -1.37109,1.37109 v 1.42969 c 0,0.87282 0.23484,1.75097 0.67774,2.50391 0.43418,0.73811 1.06071,1.36463 1.79882,1.79882 0.75294,0.4429 1.63109,0.67774 2.50391,0.67774 h 9.04492 c 0.86868,0 1.74586,-0.23799 2.49219,-0.6875 0.36726,-0.21743 0.59478,-0.59363 0.89648,-0.89649 a 1.8238023,1.8238023 0 0 0 1.58203,1.58399 h 3.26368 a 1.8238023,1.8238023 0 0 0 0.91797,-0.91797 1.8238023,1.8238023 0 0 0 0.91796,0.91797 h 3.30664 a 1.8238023,1.8238023 0 0 0 1.82227,-1.82422 v -5.29492 l 2.0957,2.48242 a 1.8238023,1.8238023 0 0 0 2.79102,-0.006 l 2.07031,-2.4707 v 5.28906 a 1.8238023,1.8238023 0 0 0 1.82227,1.82422 h 3.32812 a 1.8238023,1.8238023 0 0 0 1.82422,-1.82422 V 248.9901 a 1.8238023,1.8238023 0 0 0 -1.82422,-1.82421 h -3.43359 a 1.8238023,1.8238023 0 0 0 -1.40039,0.65625 l -3.78711,4.53515 -3.80469,-4.53906 a 1.8238023,1.8238023 0 0 0 -1.39844,-0.65234 h -3.41211 a 1.8238023,1.8238023 0 0 0 -0.91796,0.91796 1.8238023,1.8238023 0 0 0 -0.91797,-0.91796 h -3.26368 A 1.8238023,1.8238023 0 0 0 -336.625,248.75 c -0.30187,-0.30269 -0.52911,-0.67926 -0.89648,-0.89648 -0.74598,-0.44888 -1.62219,-0.6875 -2.49024,-0.6875 z m 13.29297,2.42382 0.0332,0.0547 c -0.006,-0.0104 -0.0192,-0.015 -0.0254,-0.0254 -0.005,-0.009 -0.002,-0.0207 -0.008,-0.0293 z m 7.64453,1.22461 h 0.74023 l 1.62891,1.94141 a 1.8238023,1.8238023 0 0 0 -2.36914,0.82617 z m 12.83203,0 h 0.75977 v 2.77735 a 1.8238023,1.8238023 0 0 0 -2.35743,-0.86328 z m -24.54883,0.0469 c 0.15313,0.0206 0.30198,0.0331 0.4375,0.11523 a 1.8238023,1.8238023 0 0 0 0.0195,0.0117 c 0.229,0.1347 0.37117,0.27688 0.50586,0.50586 a 1.8238023,1.8238023 0 0 0 0.0332,0.0547 c 0.0393,0.0618 0.0303,0.14486 0.0547,0.20508 h -0.1582 a 1.8238023,1.8238023 0 0 0 -0.89258,-0.89258 z m -9.45117,0.0137 a 1.8238023,1.8238023 0 0 0 -1.04492,1.04492 c 0.0244,-0.1386 0.0325,-0.28911 0.10351,-0.40625 a 1.8238023,1.8238023 0 0 0 0.0137,-0.0195 c 0.1347,-0.22899 0.27491,-0.37116 0.5039,-0.50586 0.13879,-0.0816 0.28282,-0.0887 0.42383,-0.11328 z m 11.75781,2.98633 0.0215,0.0117 c -0.004,-0.002 -0.01,-10e-4 -0.0137,-0.004 -0.003,-0.002 -0.005,-0.006 -0.008,-0.008 z m -12.80273,1.54297 a 1.8238023,1.8238023 0 0 0 1.04492,1.04492 c -0.14087,-0.0246 -0.28514,-0.0317 -0.42383,-0.11328 -0.23492,-0.1382 -0.37656,-0.2831 -0.50586,-0.49219 -0.0786,-0.13495 -0.0909,-0.28895 -0.11523,-0.43945 z m 14.56836,0.20117 0.0332,0.0547 c -0.006,-0.0104 -0.0192,-0.015 -0.0254,-0.0254 -0.005,-0.009 -0.002,-0.0207 -0.008,-0.0293 z m 13.72656,1.08203 a 1.8238023,1.8238023 0 0 0 1.40234,0.0117 l -0.69335,0.82812 z m -17.80078,0.1875 c 0.1543,0.0204 0.30321,0.0346 0.43945,0.11719 a 1.8238023,1.8238023 0 0 0 0.0195,0.0137 c 0.229,0.1347 0.37117,0.27493 0.50586,0.50391 a 1.8238023,1.8238023 0 0 0 0.0332,0.0547 c 0.0813,0.1278 0.0942,0.27369 0.11523,0.42383 a 1.8238023,1.8238023 0 0 0 -1.11328,-1.11328 z m 1.10937,4.49609 c -0.0209,0.14932 -0.0319,0.29064 -0.125,0.44141 a 1.8238023,1.8238023 0 0 0 -0.0195,0.0352 c -0.13469,0.22898 -0.27686,0.3692 -0.50586,0.5039 a 1.8238023,1.8238023 0 0 0 -0.0195,0.0117 c -0.13613,0.0825 -0.28533,0.0968 -0.43945,0.11719 a 1.8238023,1.8238023 0 0 0 1.10937,-1.10938 z m -11.55664,0.2168 h 0.1211 a 1.8238023,1.8238023 0 0 0 0.87695,0.87695 c -0.14087,-0.0246 -0.28514,-0.0317 -0.42383,-0.11328 -0.22899,-0.1347 -0.3692,-0.27491 -0.5039,-0.5039 -0.05,-0.0851 -0.0428,-0.17898 -0.0703,-0.25977 z m 14.55469,2.10938 -0.0195,0.0332 c 0.004,-0.006 0.002,-0.0137 0.006,-0.0195 0.003,-0.006 0.0104,-0.008 0.0137,-0.0137 z" id="path5-7"/><path style="color:#000000;-inkscape-font-specification:'Orbitron Heavy';fill:#000000;stroke-linecap:round;stroke-linejoin:round;-inkscape-stroke:none;paint-order:stroke fill markers" d="m -349.05649,264.35037 q -0.85333,0 -1.57866,-0.42666 -0.72533,-0.42667 -1.152,-1.152 -0.42666,-0.72533 -0.42666,-1.57867 v -1.42933 h 3.30666 v 1.25867 q 0,0 0,0 0,0 0,0 h 8.70398 q 0,0 0,0 0,0 0,0 v -2.688 q 0,0 0,0 0,0 0,0 h -8.85332 q -0.85333,0 -1.57866,-0.42666 -0.72533,-0.42667 -1.152,-1.13067 -0.42666,-0.72533 -0.42666,-1.6 v -3.02933 q 0,-0.87466 0.42666,-1.57866 0.42667,-0.72533 1.152,-1.152 0.72533,-0.42666 1.57866,-0.42666 h 9.04532 q 0.85334,0 1.55733,0.42666 0.72534,0.42667 1.152,1.152 0.448,0.704 0.448,1.57866 v 1.42934 h -3.34933 v -1.25867 q 0,0 0,0 0,0 0,0 h -8.70398 q 0,0 0,0 0,0 0,0 v 2.688 q 0,0 0,0 0,0 0,0 h 8.89598 q 0.85334,0 1.55733,0.42666 0.72534,0.42667 1.152,1.152 0.448,0.704 0.448,1.57867 v 3.02932 q 0,0.85334 -0.448,1.57867 -0.42666,0.72533 -1.152,1.152 -0.70399,0.42666 -1.55733,0.42666 z m 14.01596,0 V 248.9904 h 3.264 v 15.35997 z m 5.09864,0 V 248.9904 h 3.41332 l 5.20533,6.20799 5.18399,-6.20799 h 3.43466 v 15.35997 h -3.32799 v -10.30398 l -5.29066,6.31466 -5.31199,-6.29333 v 10.28265 z" id="path6-0"/></g></g><g id="g7" transform="translate(-0.08100007,47.077477)" inkscape:label="glide dur"><path style="-inkscape-font-specification:'Orbitron Medium';fill:#ffffff;stroke-width:0.370417;stroke-linecap:square;paint-order:stroke fill markers" d="m 2.8827376,25.384182 q -0.0889,0 -0.1629831,-0.04198 -0.071614,-0.04445 -0.1160637,-0.118533 -0.04198,-0.07408 -0.04198,-0.160513 v -0.790221 q 0,-0.0889 0.04198,-0.160514 0.04445,-0.07161 0.1160637,-0.116063 0.074083,-0.04445 0.1629831,-0.04445 H 3.7519804 V 23.482713 H 4.01868 v 1.901469 z m 0.00988,-0.2667 h 0.8000986 q 0.024694,0 0.04198,-0.01729 0.017286,-0.01975 0.017286,-0.04445 v -0.775404 q 0,-0.02469 -0.017286,-0.04198 -0.017286,-0.01976 -0.04198,-0.01976 H 2.8926153 q -0.024694,0 -0.04445,0.01976 -0.017286,0.01729 -0.017286,0.04198 v 0.775404 q 0,0.0247 0.017286,0.04445 0.019756,0.01729 0.04445,0.01729 z m 1.6527186,0.2667 q -0.0889,0 -0.162983,-0.04445 -0.071614,-0.04445 -0.1160637,-0.116064 -0.041981,-0.07161 -0.041981,-0.160513 V 23.951907 H 4.491008 v 1.103839 q 0,0.0247 0.017286,0.04445 0.019756,0.01729 0.04445,0.01729 h 0.8000986 q 0.024694,0 0.041981,-0.01729 0.019755,-0.01975 0.019755,-0.04445 v -1.103839 h 0.2666995 v 1.111248 q 0,0.0889 -0.04445,0.160513 -0.041981,0.07161 -0.1160637,0.116064 -0.071614,0.04445 -0.1605136,0.04445 H 4.5453339 Z m 1.3927636,0 v 0 -1.111248 q 0,-0.0889 0.04445,-0.160514 0.04445,-0.07161 0.1160637,-0.116063 0.074083,-0.04445 0.1605136,-0.04445 h 0.8000985 v 0.266699 H 6.266533 q -0.024694,0 -0.04445,0.01976 -0.017286,0.01729 -0.017286,0.04198 v 1.10384 z m 1.2502658,0 v 0 -0.2667 h 0.2666996 v 0.2667 z" id="text4" inkscape:label="dur" aria-label="dur."/><text xml:space="preserve" style="font-style:normal;font-variant:normal;font-weight:500;font-stretch:normal;font-size:2.46944px;font-family:Orbitron;-inkscape-font-specification:'Orbitron Medium';text-align:center;text-anchor:middle;display:inline;fill:#fefefe;stroke:#000000;stroke-width:0.370417;stroke-linecap:square;paint-order:stroke fill markers;stop-color:#000000" x="5.052835" y="25.384182" id="text12" inkscape:label="dur"><tspan sodipodi:role="line" id="tspan11" style="font-size:2.46944px;fill:#ffffff;fill-opacity:1;stroke:none;stroke-width:0.370417" x="5.052835" y="25.384182">dur.</tspan></text></g><g id="g11" transform="translate(-0.08100007,24.077287)" inkscape:label="rep dur"><text xml:space="preserve" style="font-style:normal;font-variant:normal;font-weight:500;font-stretch:normal;font-size:2.46944px;font-family:Orbitron;-inkscape-font-specification:'Orbitron Medium';text-align:center;text-anchor:middle;display:inline;fill:#fefefe;stroke:#000000;stroke-width:0.370417;stroke-linecap:square;paint-order:stroke fill markers;stop-color:#000000" x="5.052835" y="25.384182" id="text11" inkscape:label="dur."><tspan sodipodi:role="line" id="tspan10" style="font-size:2.46944px;fill:#ffffff;fill-opacity:1;stroke:none;stroke-width:0.370417" x="5.052835" y="25.384182">dur.</tspan></text><path style="-inkscape-font-specification:'Orbitron Medium';fill:#ffffff;stroke-width:0.370417;stroke-linecap:square;paint-order:stroke fill markers" d="m 2.8827376,25.384182 q -0.0889,0 -0.1629831,-0.04198 -0.071614,-0.04445 -0.1160637,-0.118533 -0.04198,-0.07408 -0.04198,-0.160513 v -0.790221 q 0,-0.0889 0.04198,-0.160514 0.04445,-0.07161 0.1160637,-0.116063 0.074083,-0.04445 0.1629831,-0.04445 H 3.7519804 V 23.482713 H 4.01868 v 1.901469 z m 0.00988,-0.2667 h 0.8000986 q 0.024694,0 0.04198,-0.01729 0.017286,-0.01975 0.017286,-0.04445 v -0.775404 q 0,-0.02469 -0.017286,-0.04198 -0.017286,-0.01976 -0.04198,-0.01976 H 2.8926153 q -0.024694,0 -0.04445,0.01976 -0.017286,0.01729 -0.017286,0.04198 v 0.775404 q 0,0.0247 0.017286,0.04445 0.019756,0.01729 0.04445,0.01729 z m 1.6527186,0.2667 q -0.0889,0 -0.162983,-0.04445 -0.071614,-0.04445 -0.1160637,-0.116064 -0.041981,-0.07161 -0.041981,-0.160513 V 23.951907 H 4.491008 v 1.103839 q 0,0.0247 0.017286,0.04445 0.019756,0.01729 0.04445,0.01729 h 0.8000986 q 0.024694,0 0.041981,-0.01729 0.019755,-0.01975 0.019755,-0.04445 v -1.103839 h 0.2666995 v 1.111248 q 0,0.0889 -0.04445,0.160513 -0.041981,0.07161 -0.1160637,0.116064 -0.071614,0.04445 -0.1605136,0.04445 H 4.5453339 Z m 1.3927636,0 v 0 -1.111248 q 0,-0.0889 0.04445,-0.160514 0.04445,-0.07161 0.1160637,-0.116063 0.074083,-0.04445 0.1605136,-0.04445 h 0.8000985 v 0.266699 H 6.266533 q -0.024694,0 -0.04445,0.01976 -0.017286,0.01729 -0.017286,0.04198 v 1.10384 z m 1.2502658,0 v 0 -0.2667 h 0.2666996 v 0.2667 z" id="path11" inkscape:label="dur." aria-label="dur."/></g><g id="g13" transform="translate(-0.08100007,58.577477)" inkscape:label="glide shape"><text xml:space="preserve" style="font-style:normal;font-variant:normal;font-weight:500;font-stretch:normal;font-size:2.46944px;font-family:Orbitron;-inkscape-font-specification:'Orbitron Medium';text-align:center;text-anchor:middle;display:inline;fill:#fefefe;stroke:#000000;stroke-width:0.370417;stroke-linecap:square;paint-order:stroke fill markers;stop-color:#000000" x="5.052835" y="25.384182" id="text13" inkscape:label="shape"><tspan sodipodi:role="line" id="tspan12" style="font-size:2.46944px;fill:#ffffff;fill-opacity:1;stroke:none;stroke-width:0.370417" x="5.052835" y="25.384182">shape</tspan></text><path style="-inkscape-font-specification:'Orbitron Medium';fill:#ffffff;stroke-width:0.370417;stroke-linecap:square;paint-order:stroke fill markers" d="m 1.2854928,25.384182 q -0.0889,0 -0.1605136,-0.04445 -0.071614,-0.04445 -0.1160636,-0.116064 -0.0444499,-0.07161 -0.0444499,-0.160513 v -0.03704 h 0.2666995 v 0.02963 q 0,0.0247 0.017286,0.04445 0.019756,0.01729 0.04445,0.01729 h 0.8000985 q 0.024694,0 0.041981,-0.01729 0.017286,-0.01975 0.017286,-0.04445 V 24.86313 q 0,-0.02469 -0.017286,-0.04198 -0.017286,-0.01976 -0.041981,-0.01976 H 1.2854928 q -0.0889,0 -0.1605136,-0.04198 Q 1.0533652,24.71496 1.0089156,24.643346 0.9644657,24.569266 0.9644657,24.480363 V 24.27293 q 0,-0.0889 0.0444499,-0.160514 0.04445,-0.07161 0.1160636,-0.116063 0.071614,-0.04445 0.1605136,-0.04445 H 2.100408 q 0.0889,0 0.1605136,0.04445 0.074083,0.04445 0.1160637,0.116063 0.04445,0.07161 0.04445,0.160514 v 0.03704 h -0.269169 v -0.02963 q 0,-0.02469 -0.017286,-0.04198 Q 2.1176943,24.2186 2.0929993,24.2186 H 1.2929012 q -0.024694,0 -0.04445,0.01976 -0.017286,0.01729 -0.017286,0.04198 v 0.192617 q 0,0.02469 0.017286,0.04445 0.019756,0.01729 0.04445,0.01729 H 2.100408 q 0.0889,0 0.1605136,0.04445 0.074083,0.04198 0.1160637,0.116063 0.04445,0.07161 0.04445,0.160514 v 0.207433 q 0,0.0889 -0.04445,0.160513 -0.04198,0.07161 -0.1160637,0.116064 -0.071614,0.04445 -0.1605136,0.04445 H 1.2854928 Z m 1.3878226,0 v 0 -1.901469 H 2.940015 v 0.469194 h 0.8692428 q 0.08643,0 0.1580442,0.04445 0.074083,0.04445 0.1185331,0.116063 0.04445,0.07161 0.04445,0.160514 v 1.111248 H 3.8635855 v -1.10384 q 0,-0.02469 -0.019756,-0.04198 -0.017286,-0.01976 -0.041981,-0.01976 H 3.001751 q -0.024694,0 -0.04445,0.01976 -0.017286,0.01729 -0.017286,0.04198 v 1.10384 z m 1.9735147,0 q -0.0889,0 -0.162983,-0.04445 -0.071614,-0.04445 -0.1160637,-0.116064 -0.041981,-0.07161 -0.041981,-0.160513 v -0.52846 H 5.513603 v -0.254353 q 0,-0.02469 -0.017286,-0.04198 -0.017286,-0.01976 -0.041981,-0.01976 H 4.3258029 v -0.266699 h 1.1359424 q 0.0889,0 0.1605136,0.04445 0.074083,0.04198 0.1160637,0.116063 0.04445,0.07408 0.04445,0.160514 v 1.111248 z m 0.00741,-0.2667 H 5.5136035 V 24.784108 H 4.5925024 v 0.271638 q 0,0.0247 0.017286,0.04445 0.019756,0.01729 0.04445,0.01729 z m 1.3902905,0.834671 v 0 -2.000246 H 7.180473 q 0.0889,0 0.1605136,0.04445 0.074083,0.04445 0.1160636,0.116063 0.04445,0.07161 0.04445,0.160514 v 0.790221 q 0,0.0889 -0.04445,0.160513 -0.04198,0.07161 -0.1160636,0.116064 -0.071614,0.04445 -0.1605136,0.04445 H 6.3112284 v 0.567971 z m 0.3284355,-0.834671 h 0.8000985 q 0.024694,0 0.041981,-0.01729 0.019756,-0.01975 0.019756,-0.04445 v -0.775404 q 0,-0.02469 -0.019756,-0.04198 -0.017286,-0.01976 -0.041981,-0.01976 H 6.3729644 q -0.024694,0 -0.04445,0.01976 -0.017286,0.01729 -0.017286,0.04198 v 0.775404 q 0,0.0247 0.017286,0.04445 0.019756,0.01729 0.04445,0.01729 z m 1.6248904,0.2667 q -0.0889,0 -0.1605136,-0.04445 -0.071614,-0.04445 -0.1160636,-0.116064 -0.04445,-0.07161 -0.04445,-0.160513 v -0.790221 q 0,-0.0889 0.04445,-0.160514 0.04445,-0.07161 0.1160636,-0.116063 0.071614,-0.04445 0.1605136,-0.04445 H 8.81277 q 0.0889,0 0.1605136,0.04445 0.074083,0.04198 0.1160637,0.116063 0.04445,0.07408 0.04445,0.160514 v 0.52846 h -1.19027 v 0.254352 q 0,0.0247 0.017286,0.04445 0.019756,0.01729 0.04445,0.01729 h 1.128534 v 0.2667 H 7.9978548 Z m -0.054328,-0.832201 h 0.9211011 v -0.271639 q 0,-0.02469 -0.017286,-0.04198 -0.017286,-0.01976 -0.04198,-0.01976 H 8.0052632 q -0.024694,0 -0.04445,0.01976 -0.017286,0.01729 -0.017286,0.04198 z" id="text14" inkscape:label="shape" aria-label="shape"/></g><g id="g10" transform="translate(-19.641484,4.1935876)" inkscape:label="curves" style="display:inline;fill:#e9afaf"><path style="fill:none;stroke:#ffffff;stroke-width:0.25;stroke-dasharray:none;stroke-opacity:1" id="path9-6" transform="scale(-1,1)" sodipodi:type="arc" sodipodi:cx="-28.233768" sodipodi:cy="85.166412" sodipodi:rx="1.268" sodipodi:ry="1.2680513" sodipodi:start="0" sodipodi:end="1.5707963" sodipodi:arc-type="arc" d="m -26.965768,85.166412 a 1.268,1.2680513 0 0 1 -1.268,1.268052" sodipodi:open="true"/><path style="fill:none;stroke:#ffffff;stroke-width:0.25;stroke-dasharray:none;stroke-opacity:1" id="path10" sodipodi:type="arc" sodipodi:cx="21.2092" sodipodi:cy="85.166412" sodipodi:rx="1.268" sodipodi:ry="1.2680513" sodipodi:start="0" sodipodi:end="1.5707963" sodipodi:arc-type="arc" d="m 22.4772,85.166412 a 1.268,1.2680513 0 0 1 -1.268,1.268052" sodipodi:open="true"/></g></svg>