<?xml version="1.0" ?><!-- Created with Inkscape (http://www.inkscape.org/) --><svg xmlns:inkscape="http://www.inkscape.org/namespaces/inkscape" xmlns:sodipodi="http://sodipodi.sourceforge.net/DTD/sodipodi-0.dtd" xmlns:xlink="http://www.w3.org/1999/xlink" xmlns="http://www.w3.org/2000/svg" xmlns:svg="http://www.w3.org/2000/svg" inkscape:version="1.3.1 (9b9bdc1480, 2023-11-25, custom)" sodipodi:docname="Tie.svg" id="svg5" version="1.1" viewBox="0 0 10.16 128.5" height="128.5mm" width="10.16mm" xml:space="preserve"><sodipodi:namedview id="namedview7" pagecolor="#ffffff" bordercolor="#000000" borderopacity="0.25" inkscape:showpageshadow="2" inkscape:pageopacity="0.0" inkscape:pagecheckerboard="0" inkscape:deskcolor="#d1d1d1" inkscape:document-units="mm" showgrid="true" showguides="true" inkscape:zoom="2.8284275" inkscape:cx="-31.112694" inkscape:cy="284.61044" inkscape:window-width="2490" inkscape:window-height="1376" inkscape:window-x="0" inkscape:window-y="0" inkscape:window-maximized="1" inkscape:current-layer="g10"><inkscape:grid type="xygrid" id="grid23806" spacingx="5.0800001" spacingy="10" units="mm" dotted="true" originx="0" originy="0" visible="true"/><sodipodi:guide position="8.9958328,8.0319128" orientation="0,-1" id="guide803" inkscape:locked="false"/><sodipodi:guide position="10.16,92.999999" orientation="0,1" id="guide628" inkscape:locked="false" inkscape:label="" inkscape:color="rgb(0,134,229)"/><sodipodi:guide position="32.742183,77.999999" orientation="0,1" id="guide691" inkscape:locked="false" inkscape:label="" inkscape:color="rgb(0,134,229)"/><sodipodi:guide position="30.479999,62.999999" orientation="0,1" id="guide693" inkscape:locked="false" inkscape:label="" inkscape:color="rgb(0,134,229)"/></sodipodi:namedview><defs id="defs2"><linearGradient id="linearGradient5269" inkscape:swatch="solid"><stop style="stop-color:#bc9051;stop-opacity:1;" offset="0" id="stop5267"/></linearGradient><inkscape:path-effect effect="bspline" id="path-effect28295" is_visible="true" lpeversion="1" weight="33.333333" steps="2" helper_size="0" apply_no_weight="true" apply_with_weight="true" only_selected="false"/><inkscape:path-effect effect="bspline" id="path-effect28279" is_visible="true" lpeversion="1" weight="33.333333" steps="2" helper_size="0" apply_no_weight="true" apply_with_weight="true" only_selected="false"/><inkscape:path-effect effect="bspline" id="path-effect27181" is_visible="true" lpeversion="1" weight="33.333333" steps="2" helper_size="0" apply_no_weight="true" apply_with_weight="true" only_selected="false"/><inkscape:path-effect effect="bspline" id="path-effect27171" is_visible="true" lpeversion="1" weight="33.333333" steps="2" helper_size="0" apply_no_weight="true" apply_with_weight="true" only_selected="false"/><inkscape:path-effect effect="bspline" id="path-effect27161" is_visible="true" lpeversion="1" weight="33.333333" steps="2" helper_size="0" apply_no_weight="true" apply_with_weight="true" only_selected="false"/><inkscape:path-effect effect="bspline" id="path-effect27151" is_visible="true" lpeversion="1" weight="33.333333" steps="2" helper_size="0" apply_no_weight="true" apply_with_weight="true" only_selected="false"/><inkscape:path-effect effect="bspline" id="path-effect27141" is_visible="true" lpeversion="1" weight="33.333333" steps="2" helper_size="0" apply_no_weight="true" apply_with_weight="true" only_selected="false"/><inkscape:path-effect effect="bspline" id="path-effect27131" is_visible="true" lpeversion="1" weight="33.333333" steps="2" helper_size="0" apply_no_weight="true" apply_with_weight="true" only_selected="false"/><inkscape:path-effect effect="bspline" id="path-effect16779" is_visible="true" lpeversion="1" weight="33.333333" steps="2" helper_size="0" apply_no_weight="true" apply_with_weight="true" only_selected="false"/><inkscape:path-effect effect="bspline" id="path-effect16767" is_visible="true" lpeversion="1" weight="33.333333" steps="2" helper_size="0" apply_no_weight="true" apply_with_weight="true" only_selected="false"/><inkscape:path-effect effect="bspline" id="path-effect16755" is_visible="true" lpeversion="1" weight="33.333333" steps="2" helper_size="0" apply_no_weight="true" apply_with_weight="true" only_selected="false"/><inkscape:path-effect effect="bspline" id="path-effect16729" is_visible="true" lpeversion="1" weight="33.333333" steps="2" helper_size="0" apply_no_weight="true" apply_with_weight="true" only_selected="false"/><inkscape:path-effect effect="bspline" id="path-effect16719" is_visible="true" lpeversion="1" weight="33.333333" steps="2" helper_size="0" apply_no_weight="true" apply_with_weight="true" only_selected="false"/><inkscape:path-effect effect="bspline" id="path-effect16493" is_visible="true" lpeversion="1" weight="33.333333" steps="2" helper_size="0" apply_no_weight="true" apply_with_weight="true" only_selected="false"/><inkscape:path-effect effect="bspline" id="path-effect15691" is_visible="true" lpeversion="1" weight="33.333333" steps="2" helper_size="0" apply_no_weight="true" apply_with_weight="true" only_selected="false"/><inkscape:path-effect effect="bspline" id="path-effect15681" is_visible="true" lpeversion="1" weight="33.333333" steps="2" helper_size="0" apply_no_weight="true" apply_with_weight="true" only_selected="false"/><inkscape:path-effect effect="bspline" id="path-effect15671" is_visible="true" lpeversion="1" weight="33.333333" steps="2" helper_size="0" apply_no_weight="true" apply_with_weight="true" only_selected="false"/><inkscape:path-effect effect="bspline" id="path-effect15661" is_visible="true" lpeversion="1" weight="33.333333" steps="2" helper_size="0" apply_no_weight="true" apply_with_weight="true" only_selected="false"/><inkscape:path-effect effect="bspline" id="path-effect15651" is_visible="true" lpeversion="1" weight="33.333333" steps="2" helper_size="0" apply_no_weight="true" apply_with_weight="true" only_selected="false"/><inkscape:path-effect effect="bspline" id="path-effect15587" is_visible="true" lpeversion="1" weight="33.333333" steps="2" helper_size="0" apply_no_weight="true" apply_with_weight="true" only_selected="false"/><linearGradient id="linearGradient7378"><stop style="stop-color:#bd91df;stop-opacity:1;" offset="0" id="stop12941"/><stop style="stop-color:#28c6ff;stop-opacity:1;" offset="1" id="stop12943"/></linearGradient><rect x="-362.74576" y="242.83466" width="272.94321" height="175.77255" id="rect2576"/><rect x="0" y="456.79095" width="76.799995" height="28.878334" id="rect405"/><linearGradient inkscape:collect="always" id="linearGradient1445"><stop style="stop-color:#e0e8f3;stop-opacity:1;" offset="0" id="stop1441"/><stop style="stop-color:#e0e8f3;stop-opacity:0;" offset="1" id="stop1443"/></linearGradient><rect x="7.0710678" y="69.296463" width="26.162951" height="19.091883" id="rect292"/><rect x="7.0710678" y="69.296463" width="26.162951" height="19.091883" id="rect374"/><linearGradient inkscape:collect="always" xlink:href="#linearGradient1445" id="linearGradient1451" x1="2.9572134" y1="5.5931401" x2="17.362785" y2="5.5931401" gradientUnits="userSpaceOnUse"/><rect x="-362.74576" y="242.83466" width="272.94321" height="175.77255" id="rect725"/><rect x="-362.74576" y="242.83466" width="272.94321" height="175.77255" id="rect806"/><rect x="-362.74576" y="242.83466" width="272.94321" height="175.77255" id="rect872"/><mask maskUnits="userSpaceOnUse" id="mask12356-9"><path style="fill:#ff00ff;stroke:#fe5aff;stroke-width:0.102442;stroke-linejoin:bevel;stroke-dasharray:none;stroke-opacity:1;paint-order:stroke fill markers" d="m 4.2467972,120.10164 1e-7,-40.771484 H 16.337802 v 40.771484 z" id="path12358-1" inkscape:label="mask"/></mask><mask maskUnits="userSpaceOnUse" id="mask12412-7"><path style="fill:#ff00ff;stroke:#fe5aff;stroke-width:0.102442;stroke-linejoin:bevel;stroke-dasharray:none;stroke-opacity:1;paint-order:stroke fill markers" d="m 4.2467972,120.10164 1e-7,-40.771484 H 16.337802 v 40.771484 z" id="path12414-0" inkscape:label="mask"/></mask><mask maskUnits="userSpaceOnUse" id="mask12412-8"><path style="fill:#ff00ff;stroke:#fe5aff;stroke-width:0.102442;stroke-linejoin:bevel;stroke-dasharray:none;stroke-opacity:1;paint-order:stroke fill markers" d="m 4.2467972,120.10164 1e-7,-40.771484 H 16.337802 v 40.771484 z" id="path12414-9" inkscape:label="mask"/></mask><mask maskUnits="userSpaceOnUse" id="mask12352-9"><path style="fill:#ff00ff;stroke:#fe5aff;stroke-width:0.102442;stroke-linejoin:bevel;stroke-dasharray:none;stroke-opacity:1;paint-order:stroke fill markers" d="m 4.2467972,120.10164 1e-7,-40.771484 H 16.337802 v 40.771484 z" id="path12354-1" inkscape:label="mask"/></mask><mask maskUnits="userSpaceOnUse" id="mask12428-3"><path style="fill:#ff00ff;stroke:#fe5aff;stroke-width:0.102442;stroke-linejoin:bevel;stroke-dasharray:none;stroke-opacity:1;paint-order:stroke fill markers" d="m 4.2467972,120.10164 1e-7,-40.771484 H 16.337802 v 40.771484 z" id="path12430-2" inkscape:label="mask"/></mask><mask maskUnits="userSpaceOnUse" id="mask12428-6"><path style="fill:#ff00ff;stroke:#fe5aff;stroke-width:0.102442;stroke-linejoin:bevel;stroke-dasharray:none;stroke-opacity:1;paint-order:stroke fill markers" d="m 4.2467972,120.10164 1e-7,-40.771484 H 16.337802 v 40.771484 z" id="path12430-5" inkscape:label="mask"/></mask><clipPath clipPathUnits="userSpaceOnUse" id="clipPath4444"><path style="display:inline;fill:#ff00ff;stroke:#fe5aff;stroke-width:0.102442;stroke-linejoin:bevel;stroke-dasharray:none;stroke-opacity:1;paint-order:stroke fill markers" d="m 4.2467972,120.10164 1e-7,-40.771484 H 16.337802 v 40.771484 z" id="path4446" inkscape:label="clip"/></clipPath><rect x="-362.74576" y="242.83466" width="272.94321" height="175.77255" id="rect30022"/><rect x="-362.74576" y="242.83466" width="272.94321" height="175.77255" id="rect2576-2"/><rect x="0" y="456.79095" width="76.799995" height="28.878334" id="rect405-8"/><rect x="7.0710678" y="69.296463" width="26.162951" height="19.091883" id="rect292-9"/><rect x="7.0710678" y="69.296463" width="26.162951" height="19.091883" id="rect374-2"/><rect x="-362.74576" y="242.83466" width="272.94321" height="175.77255" id="rect725-6"/><rect x="-362.74576" y="242.83466" width="272.94321" height="175.77255" id="rect806-0"/><rect x="-362.74576" y="242.83466" width="272.94321" height="175.77255" id="rect872-1"/><mask maskUnits="userSpaceOnUse" id="mask12356-9-6"><path style="fill:#ff00ff;stroke:#fe5aff;stroke-width:0.102442;stroke-linejoin:bevel;stroke-dasharray:none;stroke-opacity:1;paint-order:stroke fill markers" d="m 4.2467972,120.10164 1e-7,-40.771484 H 16.337802 v 40.771484 z" id="path12358-1-9" inkscape:label="mask"/></mask><mask maskUnits="userSpaceOnUse" id="mask12412-7-2"><path style="fill:#ff00ff;stroke:#fe5aff;stroke-width:0.102442;stroke-linejoin:bevel;stroke-dasharray:none;stroke-opacity:1;paint-order:stroke fill markers" d="m 4.2467972,120.10164 1e-7,-40.771484 H 16.337802 v 40.771484 z" id="path12414-0-3" inkscape:label="mask"/></mask><mask maskUnits="userSpaceOnUse" id="mask12412-8-4"><path style="fill:#ff00ff;stroke:#fe5aff;stroke-width:0.102442;stroke-linejoin:bevel;stroke-dasharray:none;stroke-opacity:1;paint-order:stroke fill markers" d="m 4.2467972,120.10164 1e-7,-40.771484 H 16.337802 v 40.771484 z" id="path12414-9-9" inkscape:label="mask"/></mask><mask maskUnits="userSpaceOnUse" id="mask12352-9-9"><path style="fill:#ff00ff;stroke:#fe5aff;stroke-width:0.102442;stroke-linejoin:bevel;stroke-dasharray:none;stroke-opacity:1;paint-order:stroke fill markers" d="m 4.2467972,120.10164 1e-7,-40.771484 H 16.337802 v 40.771484 z" id="path12354-1-9" inkscape:label="mask"/></mask><mask maskUnits="userSpaceOnUse" id="mask12428-3-6"><path style="fill:#ff00ff;stroke:#fe5aff;stroke-width:0.102442;stroke-linejoin:bevel;stroke-dasharray:none;stroke-opacity:1;paint-order:stroke fill markers" d="m 4.2467972,120.10164 1e-7,-40.771484 H 16.337802 v 40.771484 z" id="path12430-2-1" inkscape:label="mask"/></mask><mask maskUnits="userSpaceOnUse" id="mask12428-6-2"><path style="fill:#ff00ff;stroke:#fe5aff;stroke-width:0.102442;stroke-linejoin:bevel;stroke-dasharray:none;stroke-opacity:1;paint-order:stroke fill markers" d="m 4.2467972,120.10164 1e-7,-40.771484 H 16.337802 v 40.771484 z" id="path12430-5-8" inkscape:label="mask"/></mask><clipPath clipPathUnits="userSpaceOnUse" id="clipPath4444-4"><path style="display:inline;fill:#ff00ff;stroke:#fe5aff;stroke-width:0.102442;stroke-linejoin:bevel;stroke-dasharray:none;stroke-opacity:1;paint-order:stroke fill markers" d="m 4.2467972,120.10164 1e-7,-40.771484 H 16.337802 v 40.771484 z" id="path4446-9" inkscape:label="clip"/></clipPath><linearGradient inkscape:collect="always" id="linearGradient5347"><stop style="stop-color:#10ccd2;stop-opacity:1;" offset="0" id="stop5343"/><stop style="stop-color:#cd25cd;stop-opacity:1;" offset="1" id="stop5345"/></linearGradient><rect x="-362.74576" y="242.83466" width="60.787731" height="29.019567" id="rect2576-0"/><rect x="-362.74576" y="242.83466" width="60.787731" height="29.019567" id="rect2835"/><rect x="-362.74576" y="242.83466" width="60.787731" height="29.019567" id="rect12331"/><rect x="-362.74576" y="242.83466" width="60.787731" height="29.019567" id="rect12359"/><linearGradient inkscape:collect="always" xlink:href="#linearGradient5347" id="linearGradient440" gradientUnits="userSpaceOnUse" x1="-333.70743" y1="244.44972" x2="-333.70743" y2="264.52359"/><linearGradient inkscape:collect="always" xlink:href="#linearGradient5347" id="linearGradient442" gradientUnits="userSpaceOnUse" x1="-333.70743" y1="244.44972" x2="-333.70743" y2="264.52359"/><linearGradient inkscape:collect="always" xlink:href="#linearGradient5347" id="linearGradient444" gradientUnits="userSpaceOnUse" x1="-333.70743" y1="244.44972" x2="-333.70743" y2="264.52359"/><linearGradient inkscape:collect="always" xlink:href="#linearGradient5347" id="linearGradient446" gradientUnits="userSpaceOnUse" x1="-333.70743" y1="244.44972" x2="-333.70743" y2="264.52359"/><linearGradient inkscape:collect="always" xlink:href="#linearGradient5347" id="linearGradient448" gradientUnits="userSpaceOnUse" x1="-333.70743" y1="244.44972" x2="-333.70743" y2="264.52359"/><linearGradient inkscape:collect="always" xlink:href="#linearGradient5347" id="linearGradient450" gradientUnits="userSpaceOnUse" x1="-333.70743" y1="244.44972" x2="-333.70743" y2="264.52359"/><linearGradient inkscape:collect="always" xlink:href="#linearGradient5347" id="linearGradient452" gradientUnits="userSpaceOnUse" x1="-333.70743" y1="244.44972" x2="-333.70743" y2="264.52359"/><linearGradient inkscape:collect="always" xlink:href="#linearGradient5347" id="linearGradient454" gradientUnits="userSpaceOnUse" x1="-333.70743" y1="244.44972" x2="-333.70743" y2="264.52359"/><linearGradient inkscape:collect="always" xlink:href="#linearGradient5347" id="linearGradient456" gradientUnits="userSpaceOnUse" x1="-333.70743" y1="244.44972" x2="-333.70743" y2="264.52359"/><linearGradient inkscape:collect="always" xlink:href="#linearGradient5347" id="linearGradient458" gradientUnits="userSpaceOnUse" x1="-333.70743" y1="244.44972" x2="-333.70743" y2="264.52359"/><linearGradient inkscape:collect="always" xlink:href="#linearGradient5347" id="linearGradient460" gradientUnits="userSpaceOnUse" x1="-333.70743" y1="244.44972" x2="-333.70743" y2="264.52359"/><linearGradient inkscape:collect="always" xlink:href="#linearGradient5347" id="linearGradient462" gradientUnits="userSpaceOnUse" x1="-333.70743" y1="244.44972" x2="-333.70743" y2="264.52359"/><linearGradient inkscape:collect="always" xlink:href="#linearGradient5347" id="linearGradient464" gradientUnits="userSpaceOnUse" x1="-333.70743" y1="244.44972" x2="-333.70743" y2="264.52359"/><linearGradient inkscape:collect="always" xlink:href="#linearGradient5347" id="linearGradient466" gradientUnits="userSpaceOnUse" x1="-333.70743" y1="244.44972" x2="-333.70743" y2="264.52359"/><linearGradient inkscape:collect="always" xlink:href="#linearGradient5347" id="linearGradient468" gradientUnits="userSpaceOnUse" x1="-333.70743" y1="244.44972" x2="-333.70743" y2="264.52359"/><inkscape:path-effect effect="bspline" id="path-effect15587-8" is_visible="true" lpeversion="1" weight="33.333333" steps="2" helper_size="0" apply_no_weight="true" apply_with_weight="true" only_selected="false"/><inkscape:path-effect effect="bspline" id="path-effect15651-0" is_visible="true" lpeversion="1" weight="33.333333" steps="2" helper_size="0" apply_no_weight="true" apply_with_weight="true" only_selected="false"/><inkscape:path-effect effect="bspline" id="path-effect15661-3" is_visible="true" lpeversion="1" weight="33.333333" steps="2" helper_size="0" apply_no_weight="true" apply_with_weight="true" only_selected="false"/><inkscape:path-effect effect="bspline" id="path-effect15671-9" is_visible="true" lpeversion="1" weight="33.333333" steps="2" helper_size="0" apply_no_weight="true" apply_with_weight="true" only_selected="false"/><inkscape:path-effect effect="bspline" id="path-effect15681-3" is_visible="true" lpeversion="1" weight="33.333333" steps="2" helper_size="0" apply_no_weight="true" apply_with_weight="true" only_selected="false"/><inkscape:path-effect effect="bspline" id="path-effect15691-1" is_visible="true" lpeversion="1" weight="33.333333" steps="2" helper_size="0" apply_no_weight="true" apply_with_weight="true" only_selected="false"/><clipPath id="clip89"><rect y="0" x="0" width="18" height="19" id="rect4864"/></clipPath><clipPath id="clip90"><path inkscape:connector-curvature="0" d="m 0.898438,0.128906 h 16.25 v 17.882813 h -16.25 z m 0,0" id="path4861"/></clipPath><mask id="mask44"><g style="filter:url(#alpha)" id="g4858" transform="matrix(0.26458333,0,0,0.26458333,89.358789,128.57765)"><rect x="0" y="0" width="3052.8701" height="3351.5" style="fill:#000000;fill-opacity:0.14999402;stroke:none" id="rect4856"/></g></mask><filter id="alpha" filterUnits="objectBoundingBox" x="0" y="0" width="1" height="1"><feColorMatrix type="matrix" in="SourceGraphic" values="0 0 0 0 1 0 0 0 0 1 0 0 0 0 1 0 0 0 1 0" id="feColorMatrix4149"/></filter><clipPath id="clipPath17821"><rect y="0" x="0" width="18" height="19" id="rect17819"/></clipPath><clipPath id="clipPath17825"><path inkscape:connector-curvature="0" d="m 0.898438,0.128906 h 16.25 v 17.882813 h -16.25 z m 0,0" id="path17823"/></clipPath><clipPath id="clip87"><rect y="0" x="0" width="24" height="26" id="rect4848"/></clipPath><clipPath id="clip88"><path inkscape:connector-curvature="0" d="m 0.683594,0.921875 h 22.679687 v 24.9375 H 0.683594 Z m 0,0" id="path4845"/></clipPath><mask id="mask43"><g style="filter:url(#alpha)" id="g4842" transform="matrix(0.26458333,0,0,0.26458333,89.358789,128.57765)"><rect x="0" y="0" width="3052.8701" height="3351.5" style="fill:#000000;fill-opacity:0.14999402;stroke:none" id="rect4840"/></g></mask><filter id="filter17836" filterUnits="objectBoundingBox" x="0" y="0" width="1" height="1"><feColorMatrix type="matrix" in="SourceGraphic" values="0 0 0 0 1 0 0 0 0 1 0 0 0 0 1 0 0 0 1 0" id="feColorMatrix17834"/></filter><clipPath id="clipPath17840"><rect y="0" x="0" width="24" height="26" id="rect17838"/></clipPath><clipPath id="clipPath17844"><path inkscape:connector-curvature="0" d="m 0.683594,0.921875 h 22.679687 v 24.9375 H 0.683594 Z m 0,0" id="path17842"/></clipPath><rect x="-362.74576" y="242.83466" width="60.787731" height="29.019567" id="rect2"/></defs><rect style="display:inline;opacity:1;fill:#222222;fill-opacity:1;stroke-width:0.263069" id="rect338" width="10.16" height="128.5" x="1.7763568e-15" y="0" inkscape:label="background"/><g id="g2377" inkscape:label="LOGO" style="display:inline;fill:#e9afaf" transform="rotate(90,11.66818,117.11306)"><g aria-label="SiM" transform="matrix(0.26458333,0,0,0.26458333,103.20316,55.931732)" id="text2574-8" style="font-weight:900;font-size:21.3333px;font-family:Orbitron;-inkscape-font-specification:'Orbitron Heavy';text-align:center;white-space:pre;fill:url(#linearGradient452);stroke:#feeeff;stroke-width:3.64724;stroke-linecap:round;stroke-linejoin:round;paint-order:stroke fill markers" inkscape:label="SiM PATH"><g id="path2837" style="fill:url(#linearGradient442)"><path style="color:#000000;-inkscape-font-specification:'Orbitron Heavy';fill:#feeeff;stroke:none;stroke-linecap:butt;stroke-linejoin:miter;-inkscape-stroke:none" d="m -349.2168,247.16602 c -0.87282,0 -1.75097,0.23679 -2.5039,0.67968 -0.73411,0.43184 -1.35515,1.05616 -1.78907,1.78907 -0.45368,0.7533 -0.6875,1.63818 -0.6875,2.51367 v 3.02929 c 0,0.87964 0.23087,1.76377 0.67774,2.52344 a 1.8238023,1.8238023 0 0 0 0.0137,0.0215 c 0.16655,0.27479 0.46376,0.43166 0.67969,0.66992 a 1.8238023,1.8238023 0 0 0 -1.3711,1.37109 v 1.42969 c 0,0.87283 0.23483,1.75097 0.67774,2.50391 0.43419,0.73811 1.06071,1.36463 1.79883,1.79882 0.75293,0.4429 1.63108,0.67774 2.5039,0.67774 h 9.04493 c 0.86867,0 1.74586,-0.238 2.49218,-0.6875 0.7273,-0.4306 1.34397,-1.04857 1.77539,-1.77539 0.45981,-0.75185 0.71485,-1.63642 0.71485,-2.51758 v -3.0293 c 0,-0.88427 -0.25495,-1.7767 -0.72657,-2.52929 -0.16276,-0.27212 -0.45486,-0.42884 -0.66601,-0.66602 a 1.8238023,1.8238023 0 0 0 1.39258,-1.39258 v -1.42773 c 0,-0.88427 -0.25496,-1.7767 -0.72657,-2.5293 -0.43149,-0.72139 -1.04208,-1.33781 -1.76562,-1.76562 -0.74597,-0.44887 -1.62219,-0.6875 -2.49023,-0.6875 z m 9.22071,3.69531 c 0.15312,0.0206 0.30196,0.0331 0.4375,0.11523 a 1.8238023,1.8238023 0 0 0 0.0195,0.0117 c 0.22899,0.1347 0.37115,0.27687 0.50586,0.50586 a 1.8238023,1.8238023 0 0 0 0.0332,0.0547 c 0.0393,0.0618 0.0303,0.14486 0.0547,0.20508 h -0.15821 a 1.8238023,1.8238023 0 0 0 -0.89257,-0.89258 z m -9.45118,0.0137 a 1.8238023,1.8238023 0 0 0 -1.04492,1.04492 c 0.0244,-0.13868 0.0344,-0.28906 0.10547,-0.40625 a 1.8238023,1.8238023 0 0 0 0.0117,-0.0195 c 0.1347,-0.22899 0.27491,-0.37116 0.50391,-0.50586 0.13878,-0.0816 0.28282,-0.0887 0.42382,-0.11328 z m 11.75782,2.98633 0.0215,0.0117 c -0.004,-0.002 -0.01,-0.001 -0.0137,-0.004 -0.003,-0.002 -0.005,-0.006 -0.008,-0.008 z m -12.80274,1.54297 a 1.8238023,1.8238023 0 0 0 1.04492,1.04492 c -0.14087,-0.0246 -0.28514,-0.0317 -0.42382,-0.11328 -0.23629,-0.139 -0.37598,-0.285 -0.50586,-0.4961 -0.0774,-0.13365 -0.0911,-0.28629 -0.11524,-0.43554 z m 10.49414,1.4707 c 0.1543,0.0204 0.30321,0.0346 0.43946,0.11719 a 1.8238023,1.8238023 0 0 0 0.0195,0.0137 c 0.22899,0.1347 0.37115,0.27491 0.50586,0.50391 a 1.8238023,1.8238023 0 0 0 0.0332,0.0547 c 0.0813,0.1278 0.0942,0.27369 0.11523,0.42383 a 1.8238023,1.8238023 0 0 0 -1.11328,-1.11328 z m 1.10938,4.49609 c -0.0209,0.14932 -0.0319,0.29064 -0.125,0.44141 a 1.8238023,1.8238023 0 0 0 -0.0195,0.0352 c -0.13471,0.22899 -0.27687,0.3692 -0.50586,0.5039 a 1.8238023,1.8238023 0 0 0 -0.0195,0.0117 c -0.13614,0.0825 -0.28533,0.0968 -0.43946,0.11719 a 1.8238023,1.8238023 0 0 0 1.10938,-1.10938 z m -11.55664,0.2168 h 0.12109 a 1.8238023,1.8238023 0 0 0 0.87695,0.87695 c -0.14087,-0.0246 -0.28514,-0.0317 -0.42382,-0.11328 -0.229,-0.1347 -0.36921,-0.27491 -0.50391,-0.5039 -0.05,-0.0851 -0.0428,-0.17898 -0.0703,-0.25977 z" id="path2846"/><path style="color:#000000;-inkscape-font-specification:'Orbitron Heavy';fill:url(#linearGradient440);stroke:none;stroke-linecap:butt;stroke-linejoin:miter;-inkscape-stroke:none" d="m -349.2165,264.35037 q -0.85333,0 -1.57866,-0.42666 -0.72533,-0.42667 -1.152,-1.152 -0.42667,-0.72533 -0.42667,-1.57867 v -1.42933 h 3.30666 v 1.25867 q 0,0 0,0 0,0 0,0 h 8.70399 q 0,0 0,0 0,0 0,0 v -2.688 q 0,0 0,0 0,0 0,0 h -8.85332 q -0.85333,0 -1.57866,-0.42666 -0.72533,-0.42667 -1.152,-1.13067 -0.42667,-0.72533 -0.42667,-1.6 v -3.02933 q 0,-0.87466 0.42667,-1.57866 0.42667,-0.72533 1.152,-1.152 0.72533,-0.42666 1.57866,-0.42666 h 9.04532 q 0.85333,0 1.55733,0.42666 0.72533,0.42667 1.152,1.152 0.448,0.704 0.448,1.57866 v 1.42934 h -3.34933 v -1.25867 q 0,0 0,0 0,0 0,0 h -8.70399 q 0,0 0,0 0,0 0,0 v 2.688 q 0,0 0,0 0,0 0,0 h 8.89599 q 0.85333,0 1.55733,0.42666 0.72533,0.42667 1.152,1.152 0.448,0.704 0.448,1.57867 v 3.02932 q 0,0.85334 -0.448,1.57867 -0.42667,0.72533 -1.152,1.152 -0.704,0.42666 -1.55733,0.42666 z" id="path2848"/></g><g id="path2839" style="fill:url(#linearGradient446)"><path style="color:#000000;-inkscape-font-specification:'Orbitron Heavy';fill:#feeeff;stroke:none;stroke-linecap:butt;stroke-linejoin:miter;-inkscape-stroke:none" d="m -334.75195,246.09961 a 1.8238023,1.8238023 0 0 0 -1.82422,1.82422 v 3.28515 a 1.8238023,1.8238023 0 0 0 0.38476,0.38477 1.8238023,1.8238023 0 0 0 -0.38476,0.38281 v 12.37305 a 1.8238023,1.8238023 0 0 0 1.82422,1.82422 h 3.26367 a 1.8238023,1.8238023 0 0 0 1.82422,-1.82422 v -12.37305 a 1.8238023,1.8238023 0 0 0 -0.38477,-0.38281 1.8238023,1.8238023 0 0 0 0.38477,-0.38477 v -3.28515 a 1.8238023,1.8238023 0 0 0 -1.82422,-1.82422 z" id="path2852"/><path style="color:#000000;-inkscape-font-specification:'Orbitron Heavy';fill:url(#linearGradient444);stroke:none;stroke-linecap:butt;stroke-linejoin:miter;-inkscape-stroke:none" d="m -334.75254,264.35037 v 0 -12.37331 h 3.264 v 12.37331 z m 0,-13.14131 v 0 -3.28533 h 3.264 v 3.28533 z" id="path2854"/></g><g id="path2841" style="fill:url(#linearGradient450)"><path style="color:#000000;-inkscape-font-specification:'Orbitron Heavy';fill:#feeeff;stroke:none;stroke-linecap:butt;stroke-linejoin:miter;-inkscape-stroke:none" d="m -329.78125,247.16602 a 1.8238023,1.8238023 0 0 0 -1.82422,1.82421 v 15.35938 a 1.8238023,1.8238023 0 0 0 1.82422,1.82422 h 3.30664 a 1.8238023,1.8238023 0 0 0 1.82227,-1.82422 v -5.29492 l 2.0957,2.48242 a 1.8238023,1.8238023 0 0 0 2.79102,-0.006 l 2.07031,-2.4707 v 5.28906 a 1.8238023,1.8238023 0 0 0 1.82226,1.82422 h 3.32813 a 1.8238023,1.8238023 0 0 0 1.82422,-1.82422 v -15.35938 a 1.8238023,1.8238023 0 0 0 -1.82422,-1.82421 h -3.4336 a 1.8238023,1.8238023 0 0 0 -1.40039,0.65625 l -3.78711,4.53515 -3.80468,-4.53906 a 1.8238023,1.8238023 0 0 0 -1.39844,-0.65234 z m 1.82227,3.64843 h 0.74023 l 1.62891,1.94141 a 1.8238023,1.8238023 0 0 0 -2.36914,0.82617 z m 12.83203,0 h 0.75781 v 2.77539 a 1.8238023,1.8238023 0 0 0 -2.35547,-0.86132 z m -6.75,5.87305 a 1.8238023,1.8238023 0 0 0 1.40234,0.0117 l -0.69336,0.82812 z" id="path2858"/><path style="color:#000000;-inkscape-font-specification:'Orbitron Heavy';fill:url(#linearGradient448);stroke:none;stroke-linecap:butt;stroke-linejoin:miter;-inkscape-stroke:none" d="M -329.78188,264.35037 V 248.9904 h 3.41333 l 5.20532,6.20799 5.184,-6.20799 h 3.43466 v 15.35997 h -3.328 v -10.30398 l -5.29066,6.31466 -5.31199,-6.29333 v 10.28265 z" id="path2860"/></g></g><text xml:space="preserve" transform="matrix(0.26458333,0,0,0.26458333,103.20316,55.958131)" id="text2833" style="font-weight:900;font-size:21.3333px;font-family:Orbitron;-inkscape-font-specification:'Orbitron Heavy';text-align:center;white-space:pre;shape-inside:url(#rect2835);shape-padding:1.65062;display:none;fill:url(#linearGradient454);fill-opacity:1;stroke:#feeeff;stroke-width:3.64724;stroke-linecap:round;stroke-linejoin:round;stroke-opacity:1;paint-order:stroke fill markers" inkscape:label="SiM TEXT" x="19.914627" y="0"/></g><g id="g1" transform="rotate(-90,18.459324,117.21044)" style="display:none;fill:#e9afaf" inkscape:label="flut"><path style="display:inline;fill:#cccccc;stroke:#bbbbbb;stroke-width:0.506;stroke-linejoin:bevel;stroke-opacity:1;paint-order:stroke fill markers;stop-color:#000000" d="m 23.198505,100.20738 v 7.42722" id="path1122" sodipodi:nodetypes="cc"/><path style="display:inline;fill:none;stroke:#bbbbbb;stroke-width:0.506;stroke-linejoin:bevel;stroke-opacity:1;paint-order:stroke fill markers;stop-color:#000000" d="m 26.433465,100.20738 v 1.29977 c -1.107411,0.008 -1.005875,-0.85318 -1.005875,6.12745" id="path11" sodipodi:nodetypes="ccc"/><path style="display:inline;fill:none;stroke:#fefefe;stroke-width:0.506;stroke-linejoin:bevel;stroke-opacity:1;paint-order:stroke fill markers;stop-color:#000000" d="m 24.689263,101.14014 -0.01165,0.89828 h 1.788898 v 1.0521 h -1.788898 l 0.006,4.54408" id="path1124" sodipodi:nodetypes="cccccc"/><path style="display:inline;fill:none;stroke:#cccccc;stroke-width:0.506;stroke-linejoin:bevel;paint-order:stroke fill markers;stop-color:#000000" d="m 23.942355,100.7564 -0.01569,2.93552 -0.0087,-0.17836 c 1.436246,0.73408 0.165732,1.98238 2.238759,2.63527 0.654622,0.20617 0.573174,1.25534 0.574274,1.48456" id="path1126" sodipodi:nodetypes="cccsc"/><path style="display:inline;fill:#ffffff;fill-opacity:1;stroke:#ffffff;stroke-width:0.506;stroke-linejoin:round;stroke-opacity:1;paint-order:stroke fill markers;stop-color:#000000" d="m 22.945505,107.3816 h 4.682238" id="path3658" sodipodi:nodetypes="cc"/></g><g inkscape:groupmode="layer" id="g372" inkscape:label="Text" style="display:inline;fill:#e9afaf"><g id="g2750" inkscape:label="INOUTTEXT" transform="translate(-19.630356,-17.148367)" style="display:inline"><text xml:space="preserve" style="font-style:normal;font-variant:normal;font-weight:500;font-stretch:normal;font-size:2.46944px;font-family:Orbitron;-inkscape-font-specification:'Orbitron Medium';fill:#ffffff;fill-opacity:1;stroke:none;stroke-width:0.520999;stroke-linecap:square;stroke-linejoin:bevel;stroke-dasharray:none;stroke-opacity:1;paint-order:stroke fill markers;stop-color:#000000" x="21.667072" y="49.632549" id="text2740" inkscape:label="gate"><tspan sodipodi:role="line" id="tspan2738" style="font-style:normal;font-variant:normal;font-weight:500;font-stretch:normal;font-size:2.46944px;font-family:Orbitron;-inkscape-font-specification:'Orbitron Medium';stroke-width:0.521" x="21.667072" y="49.632549">gate</tspan></text><text xml:space="preserve" style="font-style:normal;font-variant:normal;font-weight:500;font-stretch:normal;font-size:2.46944px;font-family:Orbitron;-inkscape-font-specification:'Orbitron Medium';fill:#ffffff;fill-opacity:1;stroke:none;stroke-width:0.520999;stroke-linecap:square;stroke-linejoin:bevel;stroke-dasharray:none;stroke-opacity:1;paint-order:stroke fill markers;stop-color:#000000" x="20.8929" y="38.132549" id="text2748" inkscape:label="voct"><tspan id="tspan2746" style="font-style:normal;font-variant:normal;font-weight:500;font-stretch:normal;font-size:2.46944px;font-family:Orbitron;-inkscape-font-specification:'Orbitron Medium';stroke-width:0.521" x="20.8929" y="38.132549" sodipodi:role="line">v/oct</tspan></text><path style="font-weight:500;font-size:2.46944px;font-family:Orbitron;-inkscape-font-specification:'Orbitron Medium';fill:#ffffff;stroke-width:0.521;stroke-linecap:square;stroke-linejoin:bevel;paint-order:stroke fill markers" d="m 21.73498,38.132553 v 0 l -0.790221,-1.432275 h 0.30868 l 0.61489,1.131003 0.614891,-1.131003 h 0.30868 l -0.790221,1.432275 z m 1.123592,0 v 0 -0.306211 l 1.197679,-1.459439 0.06174,-0.01235 v 0.301272 l -1.197679,1.461908 z m 1.71873,0 q -0.0889,0 -0.160513,-0.04445 -0.07161,-0.04445 -0.116064,-0.116064 -0.04445,-0.07161 -0.04445,-0.160513 v -0.790221 q 0,-0.0889 0.04445,-0.160514 0.04445,-0.07161 0.116064,-0.116063 0.07161,-0.04445 0.160513,-0.04445 h 0.814915 q 0.0889,0 0.160514,0.04445 0.07408,0.04198 0.116064,0.116063 0.04445,0.07408 0.04445,0.160514 v 0.790221 q 0,0.0889 -0.04445,0.160513 -0.04198,0.07161 -0.116064,0.116064 -0.07161,0.04445 -0.160514,0.04445 z m 0.0074,-0.2667 H 25.3848 q 0.02469,0 0.04198,-0.01729 0.01729,-0.01975 0.01729,-0.04445 v -0.775404 q 0,-0.02469 -0.01729,-0.04198 -0.01729,-0.01976 -0.04198,-0.01976 h -0.800098 q -0.02469,0 -0.04445,0.01976 -0.01729,0.01729 -0.01729,0.04198 v 0.775404 q 0,0.0247 0.01729,0.04445 0.01975,0.01729 0.04445,0.01729 z m 1.701442,0.2667 q -0.0889,0 -0.160513,-0.04445 -0.07161,-0.04445 -0.116064,-0.116064 -0.04445,-0.07161 -0.04445,-0.160513 v -0.790221 q 0,-0.0889 0.04445,-0.160514 0.04445,-0.07161 0.116064,-0.116063 0.07161,-0.04445 0.160513,-0.04445 h 1.131004 v 0.266699 h -1.123595 q -0.0247,0 -0.04445,0.01976 -0.01729,0.01729 -0.01729,0.04198 v 0.775404 q 0,0.0247 0.01729,0.04445 0.01975,0.01729 0.04445,0.01729 h 1.128534 v 0.2667 h -1.135943 z m 1.656991,0 q -0.0889,0 -0.162983,-0.04445 -0.07161,-0.04445 -0.116064,-0.116064 -0.04198,-0.07161 -0.04198,-0.160513 V 36.24837 h 0.2667 v 0.451908 h 0.587726 v 0.266699 h -0.587726 v 0.83714 q 0,0.0247 0.01729,0.04445 0.01975,0.01729 0.04445,0.01729 h 0.52599 v 0.2667 h -0.533399 z" id="text4" inkscape:label="voct" aria-label="v/oct"/><path style="font-weight:500;font-size:2.46944px;font-family:Orbitron;-inkscape-font-specification:'Orbitron Medium';fill:#ffffff;stroke-width:0.521;stroke-linecap:square;stroke-linejoin:bevel;paint-order:stroke fill markers" d="m 22.020202,50.198052 v 0 -0.269169 h 0.876651 q 0.0247,0 0.04198,-0.01976 0.01975,-0.01729 0.01975,-0.04198 V 49.63255 h -0.869242 q -0.08643,0 -0.160514,-0.04198 -0.07408,-0.04445 -0.118533,-0.118533 -0.04198,-0.07408 -0.04198,-0.160514 v -0.790221 q 0,-0.0889 0.04445,-0.160513 0.04445,-0.07161 0.116064,-0.116064 0.07408,-0.04445 0.160514,-0.04445 h 0.814915 q 0.0889,0 0.160513,0.04445 0.07408,0.04445 0.116064,0.116064 0.04445,0.07161 0.04445,0.160513 v 1.355723 q 0,0.0889 -0.04445,0.160513 -0.04198,0.07408 -0.116064,0.116064 -0.07161,0.04445 -0.160513,0.04445 z m 0.07655,-0.832201 h 0.800098 q 0.0247,0 0.04198,-0.01729 0.01975,-0.01976 0.01975,-0.04445 v -0.775404 q 0,-0.0247 -0.01975,-0.04198 -0.01729,-0.01976 -0.04198,-0.01976 h -0.800098 q -0.0247,0 -0.04445,0.01976 -0.01729,0.01729 -0.01729,0.04198 v 0.775404 q 0,0.02469 0.01729,0.04445 0.01975,0.01729 0.04445,0.01729 z m 1.659458,0.266699 q -0.0889,0 -0.162983,-0.04445 -0.07161,-0.04445 -0.116064,-0.116063 -0.04198,-0.07161 -0.04198,-0.160514 v -0.52846 h 1.187801 v -0.254352 q 0,-0.0247 -0.01729,-0.04198 -0.01729,-0.01976 -0.04198,-0.01976 h -1.128535 v -0.2667 h 1.135943 q 0.0889,0 0.160513,0.04445 0.07408,0.04198 0.116064,0.116064 0.04445,0.07408 0.04445,0.160513 v 1.111248 z m 0.0074,-0.266699 h 0.859365 v -0.333375 h -0.921101 v 0.271639 q 0,0.02469 0.01729,0.04445 0.01976,0.01729 0.04445,0.01729 z m 1.708848,0.266699 q -0.0889,0 -0.162983,-0.04445 -0.07161,-0.04445 -0.116064,-0.116063 -0.04198,-0.07161 -0.04198,-0.160514 v -1.563156 h 0.2667 v 0.451908 h 0.587726 v 0.2667 h -0.587726 v 0.83714 q 0,0.02469 0.01729,0.04445 0.01975,0.01729 0.04445,0.01729 h 0.52599 v 0.266699 h -0.533399 z m 1.044572,0 q -0.0889,0 -0.160514,-0.04445 -0.07161,-0.04445 -0.116063,-0.116063 -0.04445,-0.07161 -0.04445,-0.160514 v -0.790221 q 0,-0.0889 0.04445,-0.160513 0.04445,-0.07161 0.116063,-0.116064 0.07161,-0.04445 0.160514,-0.04445 h 0.814915 q 0.0889,0 0.160514,0.04445 0.07408,0.04198 0.116063,0.116064 0.04445,0.07408 0.04445,0.160513 v 0.52846 h -1.19027 v 0.254353 q 0,0.02469 0.01729,0.04445 0.01976,0.01729 0.04445,0.01729 h 1.128534 v 0.266699 H 26.517034 Z M 26.4627,48.800349 h 0.921101 v -0.271638 q 0,-0.0247 -0.01729,-0.04198 -0.01729,-0.01976 -0.04198,-0.01976 h -0.800099 q -0.02469,0 -0.04445,0.01976 -0.01729,0.01729 -0.01729,0.04198 z" id="text5" inkscape:label="gate" aria-label="gate"/><path style="display:inline;fill:#ffffff;font-weight:500;font-size:2.46944px;font-family:Orbitron;-inkscape-font-specification:'Orbitron Medium';stroke-width:0.521;stroke-linecap:square;stroke-linejoin:bevel;paint-order:stroke fill markers" d="m 22.019907,115.19805 v 0 -0.26916 h 0.876651 q 0.02469,0 0.04198,-0.0198 0.01976,-0.0173 0.01976,-0.042 v -0.2346 h -0.869243 q -0.08643,0 -0.160514,-0.042 -0.07408,-0.0444 -0.118533,-0.11853 -0.04198,-0.0741 -0.04198,-0.16051 v -0.79022 q 0,-0.0889 0.04445,-0.16052 0.04445,-0.0716 0.116063,-0.11606 0.07408,-0.0444 0.160514,-0.0444 h 0.814915 q 0.0889,0 0.160514,0.0444 0.07408,0.0444 0.116063,0.11606 0.04445,0.0716 0.04445,0.16052 v 1.35572 q 0,0.0889 -0.04445,0.16051 -0.04198,0.0741 -0.116063,0.11606 -0.07161,0.0444 -0.160514,0.0444 z m 0.07655,-0.8322 h 0.800099 q 0.02469,0 0.04198,-0.0173 0.01976,-0.0198 0.01976,-0.0444 v -0.77541 q 0,-0.0247 -0.01976,-0.042 -0.01729,-0.0197 -0.04198,-0.0197 h -0.800099 q -0.02469,0 -0.04445,0.0197 -0.01729,0.0173 -0.01729,0.042 v 0.77541 q 0,0.0247 0.01729,0.0444 0.01976,0.0173 0.04445,0.0173 z m 1.659458,0.2667 q -0.0889,0 -0.162983,-0.0444 -0.07161,-0.0444 -0.116064,-0.11606 -0.04198,-0.0716 -0.04198,-0.16051 v -0.52846 h 1.1878 v -0.25436 q 0,-0.0247 -0.01729,-0.042 -0.01729,-0.0197 -0.04198,-0.0197 H 23.43489 v -0.2667 h 1.135942 q 0.0889,0 0.160514,0.0444 0.07408,0.042 0.116064,0.11606 0.04445,0.0741 0.04445,0.16052 v 1.11124 z m 0.0074,-0.2667 h 0.859365 v -0.33337 h -0.921101 v 0.27164 q 0,0.0247 0.01729,0.0444 0.01976,0.0173 0.04445,0.0173 z m 1.708849,0.2667 q -0.0889,0 -0.162983,-0.0444 -0.07161,-0.0444 -0.116064,-0.11606 -0.04198,-0.0716 -0.04198,-0.16051 v -1.56316 h 0.2667 v 0.45191 h 0.587727 v 0.2667 h -0.587727 v 0.83714 q 0,0.0247 0.01729,0.0444 0.01975,0.0173 0.04445,0.0173 h 0.525991 v 0.2667 h -0.533399 z m 1.044571,0 q -0.0889,0 -0.160513,-0.0444 -0.07161,-0.0444 -0.116064,-0.11606 -0.04445,-0.0716 -0.04445,-0.16051 v -0.79022 q 0,-0.0889 0.04445,-0.16052 0.04445,-0.0716 0.116064,-0.11606 0.07161,-0.0444 0.160513,-0.0444 h 0.814915 q 0.0889,0 0.160514,0.0444 0.07408,0.042 0.116064,0.11606 0.04445,0.0741 0.04445,0.16052 v 0.52846 h -1.190271 v 0.25435 q 0,0.0247 0.01729,0.0444 0.01975,0.0173 0.04445,0.0173 h 1.128535 v 0.2667 h -1.135943 z m -0.05433,-0.8322 h 0.921102 v -0.27164 q 0,-0.0247 -0.01729,-0.042 -0.01729,-0.0197 -0.04198,-0.0197 h -0.800099 q -0.02469,0 -0.04445,0.0197 -0.01729,0.0173 -0.01729,0.042 z" id="text17" inkscape:label="gate (out" aria-label="gate"/><text xml:space="preserve" style="font-style:normal;font-variant:normal;font-weight:500;font-stretch:normal;font-size:2.46944px;font-family:Orbitron;-inkscape-font-specification:'Orbitron Medium';display:inline;fill:#ffffff;fill-opacity:1;stroke:none;stroke-width:0.520999;stroke-linecap:square;stroke-linejoin:bevel;stroke-dasharray:none;stroke-opacity:1;paint-order:stroke fill markers;stop-color:#000000" x="21.666777" y="114.63255" id="text16" inkscape:label="gate (out"><tspan id="tspan15" style="font-style:normal;font-variant:normal;font-weight:500;font-stretch:normal;font-size:2.46944px;font-family:Orbitron;-inkscape-font-specification:'Orbitron Medium';stroke-width:0.521" x="21.666777" y="114.63255" sodipodi:role="line">gate</tspan></text><path style="font-weight:500;font-size:2.46944px;font-family:Orbitron;-inkscape-font-specification:'Orbitron Medium';fill:#ffffff;stroke-width:0.521;stroke-linecap:square;stroke-linejoin:bevel;paint-order:stroke fill markers" d="m 21.734684,103.13255 v 0 l -0.790221,-1.43227 h 0.30868 l 0.614891,1.131 0.61489,-1.131 h 0.30868 l -0.790221,1.43227 z m 1.123593,0 v 0 -0.30621 l 1.197678,-1.45944 0.06174,-0.0123 v 0.30127 l -1.197678,1.46191 z m 1.71873,0 q -0.0889,0 -0.160514,-0.0444 -0.07161,-0.0444 -0.116064,-0.11606 -0.04445,-0.0716 -0.04445,-0.16051 v -0.79022 q 0,-0.0889 0.04445,-0.16052 0.04445,-0.0716 0.116064,-0.11606 0.07161,-0.0444 0.160514,-0.0444 h 0.814915 q 0.0889,0 0.160513,0.0444 0.07408,0.042 0.116064,0.11606 0.04445,0.0741 0.04445,0.16052 v 0.79022 q 0,0.0889 -0.04445,0.16051 -0.04198,0.0716 -0.116064,0.11606 -0.07161,0.0444 -0.160513,0.0444 h -0.814915 z m 0.0074,-0.2667 h 0.800099 q 0.02469,0 0.04198,-0.0173 0.01729,-0.0198 0.01729,-0.0444 v -0.77541 q 0,-0.0247 -0.01729,-0.042 -0.01729,-0.0197 -0.04198,-0.0197 h -0.800099 q -0.02469,0 -0.04445,0.0197 -0.01729,0.0173 -0.01729,0.042 v 0.77541 q 0,0.0247 0.01729,0.0444 0.01976,0.0173 0.04445,0.0173 z m 1.701443,0.2667 q -0.0889,0 -0.160514,-0.0444 -0.07161,-0.0444 -0.116064,-0.11606 -0.04445,-0.0716 -0.04445,-0.16051 v -0.79022 q 0,-0.0889 0.04445,-0.16052 0.04445,-0.0716 0.116064,-0.11606 0.07161,-0.0444 0.160514,-0.0444 h 1.131003 v 0.2667 h -1.123595 q -0.02469,0 -0.04445,0.0197 -0.01729,0.0173 -0.01729,0.042 v 0.77541 q 0,0.0247 0.01729,0.0444 0.01976,0.0173 0.04445,0.0173 H 27.4218 v 0.2667 h -1.135942 z m 1.656991,0 q -0.0889,0 -0.162983,-0.0444 -0.07161,-0.0444 -0.116064,-0.11606 -0.04198,-0.0716 -0.04198,-0.16051 v -1.56316 h 0.2667 v 0.45191 h 0.587727 v 0.2667 h -0.587727 v 0.83714 q 0,0.0247 0.01729,0.0444 0.01975,0.0173 0.04445,0.0173 h 0.525991 v 0.2667 h -0.533399 z" id="text15" inkscape:label="v/oct" aria-label="v/oct"/><text xml:space="preserve" style="font-style:normal;font-variant:normal;font-weight:500;font-stretch:normal;font-size:2.46944px;font-family:Orbitron;-inkscape-font-specification:'Orbitron Medium';fill:#ffffff;fill-opacity:1;stroke:none;stroke-width:0.520999;stroke-linecap:square;stroke-linejoin:bevel;stroke-dasharray:none;stroke-opacity:1;paint-order:stroke fill markers;stop-color:#000000" x="20.892605" y="103.13255" id="text6" inkscape:label="v/oct"><tspan id="tspan3" style="font-style:normal;font-variant:normal;font-weight:500;font-stretch:normal;font-size:2.46944px;font-family:Orbitron;-inkscape-font-specification:'Orbitron Medium';stroke-width:0.521" x="20.892605" y="103.13255" sodipodi:role="line">v/oct</tspan></text><g id="g2" inkscape:label="duration"><text xml:space="preserve" style="font-style:normal;font-variant:normal;font-weight:500;font-stretch:normal;font-size:2.46944px;font-family:Orbitron;-inkscape-font-specification:'Orbitron Medium';fill:#ffffff;fill-opacity:1;stroke:none;stroke-width:0.520999;stroke-linecap:square;stroke-linejoin:bevel;stroke-dasharray:none;stroke-opacity:1;paint-order:stroke fill markers;stop-color:#000000" x="22.207582" y="61.149837" id="text2" inkscape:label="SLEWTIME"><tspan id="tspan1" style="font-style:normal;font-variant:normal;font-weight:500;font-stretch:normal;font-size:2.46944px;font-family:Orbitron;-inkscape-font-specification:'Orbitron Medium';stroke-width:0.521" x="22.207582" y="61.149837" sodipodi:role="line">dur.</tspan></text><path style="font-weight:500;font-size:2.46944px;font-family:Orbitron;-inkscape-font-specification:'Orbitron Medium';fill:#ffffff;stroke-width:0.521;stroke-linecap:square;stroke-linejoin:bevel;paint-order:stroke fill markers" d="m 22.585407,61.149837 q -0.0889,0 -0.162983,-0.04198 -0.07161,-0.04445 -0.116064,-0.118533 -0.04198,-0.07408 -0.04198,-0.160514 v -0.79022 q 0,-0.0889 0.04198,-0.160514 0.04445,-0.07161 0.116064,-0.116064 0.07408,-0.04445 0.162983,-0.04445 h 0.869243 v -0.469193 h 0.266699 v 1.901468 z m 0.0099,-0.266699 h 0.800098 q 0.0247,0 0.04198,-0.01729 0.01729,-0.01976 0.01729,-0.04445 v -0.775404 q 0,-0.02469 -0.01729,-0.04198 -0.01729,-0.01975 -0.04198,-0.01975 h -0.800098 q -0.0247,0 -0.04445,0.01975 -0.01729,0.01729 -0.01729,0.04198 v 0.775404 q 0,0.02469 0.01729,0.04445 0.01975,0.01729 0.04445,0.01729 z m 1.652054,0.266699 q -0.0889,0 -0.162983,-0.04445 -0.07161,-0.04445 -0.116064,-0.116064 -0.04198,-0.07161 -0.04198,-0.160514 v -1.111248 h 0.266699 v 1.10384 q 0,0.02469 0.01729,0.04445 0.01976,0.01729 0.04445,0.01729 h 0.800099 q 0.02469,0 0.04198,-0.01729 0.01976,-0.01976 0.01976,-0.04445 v -1.10384 h 0.266699 v 1.111248 q 0,0.0889 -0.04445,0.160514 -0.04198,0.07161 -0.116063,0.116064 -0.07161,0.04445 -0.160514,0.04445 h -0.814915 z m 1.392763,0 v 0 -1.111247 q 0,-0.0889 0.04445,-0.160514 0.04445,-0.07161 0.116064,-0.116064 0.07408,-0.04445 0.160514,-0.04445 h 0.800098 v 0.2667 h -0.79269 q -0.02469,0 -0.04445,0.01975 -0.01729,0.01729 -0.01729,0.04198 v 1.103839 z m 1.249532,0 v 0 -0.266699 h 0.266699 v 0.266699 z" id="text3" inkscape:label="SLEWTIME" aria-label="dur."/><path style="display:inline;fill:#bbbbbb;fill-opacity:1;stroke:#cccccc;stroke-width:5;stroke-linecap:butt;stroke-linejoin:bevel;stroke-dasharray:none;stroke-opacity:1;paint-order:stroke fill markers;stop-color:#000000" d="m 24.706256,67.704292 0.0041,5.547936" id="path8958-3" sodipodi:nodetypes="cc" inkscape:label="block"/><path style="display:inline;fill:none;stroke:#cccccc;stroke-width:0.505964;stroke-linejoin:bevel;stroke-dasharray:none;stroke-opacity:1;paint-order:stroke fill markers;stop-color:#000000" d="m 19.628306,73.001349 h 5.08" id="path8960" inkscape:label="line"/></g><g id="g4" inkscape:label="shape"><g id="g10" transform="translate(-0.01112826,0.52916667)" inkscape:label="curves"><path style="fill:none;stroke:#ffffff;stroke-width:0.25;stroke-dasharray:none;stroke-opacity:1" id="path9" transform="scale(-1,1)" sodipodi:type="arc" sodipodi:cx="-28.233768" sodipodi:cy="85.166412" sodipodi:rx="1.268" sodipodi:ry="1.2680513" sodipodi:start="0" sodipodi:end="1.5707963" sodipodi:arc-type="arc" d="m -26.965768,85.166412 a 1.268,1.2680513 0 0 1 -1.268,1.268052" sodipodi:open="true"/><path style="fill:none;stroke:#ffffff;stroke-width:0.25;stroke-dasharray:none;stroke-opacity:1" id="path10" sodipodi:type="arc" sodipodi:cx="21.2092" sodipodi:cy="85.166412" sodipodi:rx="1.268" sodipodi:ry="1.2680513" sodipodi:start="0" sodipodi:end="1.5707963" sodipodi:arc-type="arc" d="m 22.4772,85.166412 a 1.268,1.2680513 0 0 1 -1.268,1.268052" sodipodi:open="true"/></g><g id="g5" inkscape:label="shape text" style="display:inline;fill:#e9afaf"><text xml:space="preserve" style="font-style:normal;font-variant:normal;font-weight:500;font-stretch:normal;font-size:2.46944px;font-family:Orbitron;-inkscape-font-specification:'Orbitron Medium';fill:#ffffff;fill-opacity:1;stroke:none;stroke-width:0.520999;stroke-linecap:square;stroke-linejoin:bevel;stroke-dasharray:none;stroke-opacity:1;paint-order:stroke fill markers;stop-color:#000000" x="20.507376" y="80.649834" id="text8" inkscape:label="SHAPE"><tspan id="tspan2" style="font-style:normal;font-variant:normal;font-weight:500;font-stretch:normal;font-size:2.46944px;font-family:Orbitron;-inkscape-font-specification:'Orbitron Medium';stroke-width:0.521" x="20.507376" y="80.649834" sodipodi:role="line">shape</tspan></text><path style="font-weight:500;font-size:2.46944px;font-family:Orbitron;-inkscape-font-specification:'Orbitron Medium';fill:#ffffff;stroke-width:0.521;stroke-linecap:square;stroke-linejoin:bevel;paint-order:stroke fill markers" d="m 20.946936,80.649834 q -0.0889,0 -0.160514,-0.04445 -0.07161,-0.04445 -0.116063,-0.116064 -0.04445,-0.07161 -0.04445,-0.160514 v -0.03704 h 0.266699 v 0.02963 q 0,0.02469 0.01729,0.04445 0.01976,0.01729 0.04445,0.01729 h 0.800099 q 0.02469,0 0.04198,-0.01729 0.01729,-0.01976 0.01729,-0.04445 V 80.12878 q 0,-0.02469 -0.01729,-0.04198 -0.01729,-0.01975 -0.04198,-0.01975 H 20.94694 q -0.0889,0 -0.160514,-0.04198 -0.07161,-0.04445 -0.116063,-0.116063 -0.04445,-0.07408 -0.04445,-0.162983 v -0.207433 q 0,-0.0889 0.04445,-0.160514 0.04445,-0.07161 0.116063,-0.116064 0.07161,-0.04445 0.160514,-0.04445 h 0.814915 q 0.0889,0 0.160514,0.04445 0.07408,0.04445 0.116064,0.116064 0.04445,0.07161 0.04445,0.160514 v 0.03704 h -0.269169 v -0.02963 q 0,-0.02469 -0.01729,-0.04198 -0.01729,-0.01976 -0.04198,-0.01976 h -0.800099 q -0.02469,0 -0.04445,0.01976 -0.01729,0.01729 -0.01729,0.04198 v 0.192616 q 0,0.0247 0.01729,0.04445 0.01976,0.01729 0.04445,0.01729 h 0.807507 q 0.0889,0 0.160514,0.04445 0.07408,0.04198 0.116064,0.116064 0.04445,0.07161 0.04445,0.160514 v 0.207432 q 0,0.0889 -0.04445,0.160514 -0.04198,0.07161 -0.116064,0.116064 -0.07161,0.04445 -0.160514,0.04445 h -0.814915 z m 1.387823,0 v 0 -1.901469 h 0.266699 v 0.469193 h 0.869243 q 0.08643,0 0.158044,0.04445 0.07408,0.04445 0.118533,0.116064 0.04445,0.07161 0.04445,0.160514 v 1.111248 h -0.266699 v -1.10384 q 0,-0.02469 -0.01976,-0.04198 -0.01729,-0.01976 -0.04198,-0.01976 H 22.66319 q -0.02469,0 -0.04445,0.01976 -0.01729,0.01729 -0.01729,0.04198 v 1.10384 z m 1.973076,0 q -0.0889,0 -0.162983,-0.04445 -0.07161,-0.04445 -0.116063,-0.116064 -0.04198,-0.07161 -0.04198,-0.160514 v -0.52846 h 1.187801 v -0.254352 q 0,-0.02469 -0.01729,-0.04198 -0.01729,-0.01976 -0.04198,-0.01976 h -1.128534 v -0.2667 h 1.135943 q 0.0889,0 0.160513,0.04445 0.07408,0.04198 0.116064,0.116064 0.04445,0.07408 0.04445,0.160514 v 1.111248 z m 0.0074,-0.2667 H 25.1746 V 80.04976 h -0.921101 v 0.271638 q 0,0.02469 0.01729,0.04445 0.01975,0.01729 0.04445,0.01729 z m 1.39029,0.834671 v 0 -2.000247 h 1.135943 q 0.0889,0 0.160513,0.04445 0.07408,0.04445 0.116064,0.116064 0.04445,0.07161 0.04445,0.160514 v 0.79022 q 0,0.0889 -0.04445,0.160514 -0.04198,0.07161 -0.116064,0.116064 -0.07161,0.04445 -0.160513,0.04445 h -0.869243 v 0.567971 z m 0.328436,-0.834671 h 0.800098 q 0.0247,0 0.04198,-0.01729 0.01975,-0.01976 0.01975,-0.04445 V 79.54599 q 0,-0.02469 -0.01975,-0.04198 -0.01729,-0.01976 -0.04198,-0.01976 H 26.03397 q -0.0247,0 -0.04445,0.01976 -0.01729,0.01729 -0.01729,0.04198 v 0.775404 q 0,0.02469 0.01729,0.04445 0.01975,0.01729 0.04445,0.01729 z m 1.62489,0.2667 q -0.0889,0 -0.160513,-0.04445 -0.07161,-0.04445 -0.116064,-0.116064 -0.04445,-0.07161 -0.04445,-0.160514 v -0.79022 q 0,-0.0889 0.04445,-0.160514 0.04445,-0.07161 0.116064,-0.116064 0.07161,-0.04445 0.160513,-0.04445 h 0.814915 q 0.0889,0 0.160514,0.04445 0.07408,0.04198 0.116064,0.116064 0.04445,0.07408 0.04445,0.160514 v 0.52846 h -1.19027 v 0.254352 q 0,0.02469 0.01729,0.04445 0.01975,0.01729 0.04445,0.01729 h 1.128534 v 0.2667 H 27.65886 Z m -0.05433,-0.832202 h 0.921101 v -0.271638 q 0,-0.02469 -0.01729,-0.04198 -0.01729,-0.01976 -0.04198,-0.01976 h -0.800098 q -0.0247,0 -0.04445,0.01976 -0.01729,0.01729 -0.01729,0.04198 z" id="text9" inkscape:label="SHAPE" aria-label="shape"/></g></g><text xml:space="preserve" style="font-style:normal;font-variant:normal;font-weight:500;font-stretch:normal;font-size:2.46944px;font-family:Orbitron;-inkscape-font-specification:'Orbitron Medium';display:inline;fill:#ffffff;fill-opacity:1;stroke:none;stroke-width:0.520999;stroke-linecap:square;stroke-linejoin:bevel;stroke-dasharray:none;stroke-opacity:1;paint-order:stroke fill markers;stop-color:#000000" x="20.461695" y="91.549843" id="text10" inkscape:label="ACTIVE"><tspan id="tspan4" style="font-style:normal;font-variant:normal;font-weight:500;font-stretch:normal;font-size:2.46944px;font-family:Orbitron;-inkscape-font-specification:'Orbitron Medium';stroke-width:0.521" x="20.461695" y="91.549843" sodipodi:role="line">active</tspan></text><path style="font-weight:500;font-size:2.46944px;font-family:Orbitron;-inkscape-font-specification:'Orbitron Medium';fill:#ffffff;stroke-width:0.521;stroke-linecap:square;stroke-linejoin:bevel;paint-order:stroke fill markers" d="m 20.911133,91.549837 q -0.0889,0 -0.162983,-0.0444 -0.07161,-0.0444 -0.116064,-0.11606 -0.04198,-0.0716 -0.04198,-0.16051 v -0.52846 h 1.1878 v -0.25436 q 0,-0.0247 -0.01729,-0.042 -0.01729,-0.0197 -0.04198,-0.0197 h -1.128534 v -0.2667 h 1.135942 q 0.0889,0 0.160514,0.0444 0.07408,0.042 0.116063,0.11606 0.04445,0.0741 0.04445,0.16052 v 1.11124 z m 0.0074,-0.2667 h 0.859365 v -0.33337 h -0.921101 v 0.27164 q 0,0.0247 0.01729,0.0444 0.01976,0.0173 0.04445,0.0173 z m 1.656988,0.2667 q -0.0889,0 -0.160514,-0.0444 -0.07161,-0.0444 -0.116064,-0.11606 -0.04445,-0.0716 -0.04445,-0.16051 v -0.79022 q 0,-0.0889 0.04445,-0.16052 0.04445,-0.0716 0.116064,-0.11606 0.07161,-0.0444 0.160514,-0.0444 h 1.131003 v 0.2667 h -1.123595 q -0.02469,0 -0.04445,0.0197 -0.01729,0.0173 -0.01729,0.042 v 0.77541 q 0,0.0247 0.01729,0.0444 0.01976,0.0173 0.04445,0.0173 h 1.128534 v 0.2667 h -1.135942 z m 1.656991,0 q -0.0889,0 -0.162983,-0.0444 -0.07161,-0.0444 -0.116064,-0.11606 -0.04198,-0.0716 -0.04198,-0.16051 v -1.56316 h 0.266699 v 0.45191 h 0.587727 v 0.2667 h -0.587727 v 0.83714 q 0,0.0247 0.01729,0.0444 0.01976,0.0173 0.04445,0.0173 h 0.525991 v 0.2667 H 24.23252 Z m 0.733417,0 v 0 -1.43227 h 0.2667 v 1.43227 z m 0,-1.63477 v 0 -0.2667 h 0.2667 v 0.2667 z m 1.247067,1.63477 v 0 l -0.790221,-1.43227 h 0.30868 l 0.61489,1.131 0.614891,-1.131 h 0.30868 l -0.790221,1.43227 z m 1.48166,0 q -0.0889,0 -0.160514,-0.0444 -0.07161,-0.0444 -0.116064,-0.11606 -0.04445,-0.0716 -0.04445,-0.16051 v -0.79022 q 0,-0.0889 0.04445,-0.16052 0.04445,-0.0716 0.116064,-0.11606 0.07161,-0.0444 0.160514,-0.0444 h 0.814915 q 0.0889,0 0.160513,0.0444 0.07408,0.042 0.116064,0.11606 0.04445,0.0741 0.04445,0.16052 v 0.52846 h -1.19027 v 0.25435 q 0,0.0247 0.01729,0.0444 0.01976,0.0173 0.04445,0.0173 h 1.128534 v 0.2667 H 27.69466 Z m -0.05433,-0.8322 h 0.921101 v -0.27164 q 0,-0.0247 -0.01729,-0.042 -0.01729,-0.0197 -0.04198,-0.0197 h -0.800098 q -0.02469,0 -0.04445,0.0197 -0.01729,0.0173 -0.01729,0.042 z" id="text12" inkscape:label="ACTIVE" aria-label="active"/></g></g><g id="g2323" inkscape:label="Title" style="display:inline;fill:#e9afaf" transform="rotate(90,5.8056253,3.9794534)"><g id="text13" inkscape:label="LEGATO TXT"><path style="color:#000000;-inkscape-font-specification:'Orbitron Heavy';fill:#888888;stroke-linecap:round;stroke-linejoin:bevel;-inkscape-stroke:none;paint-order:stroke markers fill" d="M 4.7148437,2.59375 4.2539062,3.0546875 v 0.7148438 l 0.4609375,0.4609374 h 0.8339844 v 2.125 L 6.0078125,6.8164062 H 6.7246094 L 7.1835937,6.3554687 v -2.125 h 0.6015625 v 2.125 l 0.4609376,0.4609375 h 0.7011718 l 0.2011719,-0.203125 0.203125,0.203125 H 12.402344 L 12.861328,6.3554687 V 5.640625 L 12.402344,5.1796875 H 12.291016 L 12.408203,5.0625 V 4.3476562 L 12.291016,4.2304687 h 0.111328 L 12.861328,3.7695313 V 3.0546875 L 12.402344,2.59375 H 9.3515625 L 9.1484375,2.796875 8.9472656,2.59375 H 8.2460938 L 8.1328125,2.7070313 8.0175781,2.59375 Z M 6.2128906,3.5136719 H 6.5195312 L 6.3671875,3.6679688 Z m 3.5996094,0 h 0.054687 L 9.8125,3.5683594 Z m 0,1.0351562 0.15625,0.15625 -0.15625,0.15625 z m 0,1.2929688 0.052734,0.052734 H 9.8125 Z" id="path13"/><path style="color:#000000;-inkscape-font-specification:'Orbitron Heavy';fill:#FFFFFE;stroke-linecap:round;stroke-linejoin:bevel;-inkscape-stroke:none;paint-order:stroke markers fill" d="m 6.0084202,6.355906 v 0 -2.5865661 H 4.7151372 V 3.0539067 H 8.0171365 V 3.7693399 H 6.7238534 V 6.355906 Z m 2.2380166,0 V 3.0539067 H 8.9481116 V 6.355906 Z m 1.1052471,0 V 3.0539067 h 3.0497631 v 0.7154332 h -2.329744 v 0.5778499 h 1.875719 V 5.062623 h -1.875719 v 0.5778498 h 2.329744 V 6.355906 Z" id="path14"/></g></g><g id="g12357" inkscape:label="fluff" style="display:none" transform="rotate(90,11.66818,116.98077)"><g aria-label="SiM" transform="matrix(0.26458333,0,0,0.26458333,103.20316,55.958131)" id="g12351" style="font-weight:900;font-size:21.3333px;font-family:Orbitron;-inkscape-font-specification:'Orbitron Heavy';text-align:center;white-space:pre;display:inline;fill:url(#linearGradient468);stroke:#feeeff;stroke-width:3.64724;stroke-linecap:round;stroke-linejoin:round;paint-order:stroke fill markers" inkscape:label="SiM PATH"><g id="g12337" style="fill:url(#linearGradient458)"><path style="color:#000000;-inkscape-font-specification:'Orbitron Heavy';fill:#feeeff;stroke:none;stroke-linecap:butt;stroke-linejoin:miter;-inkscape-stroke:none" d="m -349.2168,247.16602 c -0.87282,0 -1.75097,0.23679 -2.5039,0.67968 -0.73411,0.43184 -1.35515,1.05616 -1.78907,1.78907 -0.45368,0.7533 -0.6875,1.63818 -0.6875,2.51367 v 3.02929 c 0,0.87964 0.23087,1.76377 0.67774,2.52344 a 1.8238023,1.8238023 0 0 0 0.0137,0.0215 c 0.16655,0.27479 0.46376,0.43166 0.67969,0.66992 a 1.8238023,1.8238023 0 0 0 -1.3711,1.37109 v 1.42969 c 0,0.87283 0.23483,1.75097 0.67774,2.50391 0.43419,0.73811 1.06071,1.36463 1.79883,1.79882 0.75293,0.4429 1.63108,0.67774 2.5039,0.67774 h 9.04493 c 0.86867,0 1.74586,-0.238 2.49218,-0.6875 0.7273,-0.4306 1.34397,-1.04857 1.77539,-1.77539 0.45981,-0.75185 0.71485,-1.63642 0.71485,-2.51758 v -3.0293 c 0,-0.88427 -0.25495,-1.7767 -0.72657,-2.52929 -0.16276,-0.27212 -0.45486,-0.42884 -0.66601,-0.66602 a 1.8238023,1.8238023 0 0 0 1.39258,-1.39258 v -1.42773 c 0,-0.88427 -0.25496,-1.7767 -0.72657,-2.5293 -0.43149,-0.72139 -1.04208,-1.33781 -1.76562,-1.76562 -0.74597,-0.44887 -1.62219,-0.6875 -2.49023,-0.6875 z m 9.22071,3.69531 c 0.15312,0.0206 0.30196,0.0331 0.4375,0.11523 a 1.8238023,1.8238023 0 0 0 0.0195,0.0117 c 0.22899,0.1347 0.37115,0.27687 0.50586,0.50586 a 1.8238023,1.8238023 0 0 0 0.0332,0.0547 c 0.0393,0.0618 0.0303,0.14486 0.0547,0.20508 h -0.15821 a 1.8238023,1.8238023 0 0 0 -0.89257,-0.89258 z m -9.45118,0.0137 a 1.8238023,1.8238023 0 0 0 -1.04492,1.04492 c 0.0244,-0.13868 0.0344,-0.28906 0.10547,-0.40625 a 1.8238023,1.8238023 0 0 0 0.0117,-0.0195 c 0.1347,-0.22899 0.27491,-0.37116 0.50391,-0.50586 0.13878,-0.0816 0.28282,-0.0887 0.42382,-0.11328 z m 11.75782,2.98633 0.0215,0.0117 c -0.004,-0.002 -0.01,-0.001 -0.0137,-0.004 -0.003,-0.002 -0.005,-0.006 -0.008,-0.008 z m -12.80274,1.54297 a 1.8238023,1.8238023 0 0 0 1.04492,1.04492 c -0.14087,-0.0246 -0.28514,-0.0317 -0.42382,-0.11328 -0.23629,-0.139 -0.37598,-0.285 -0.50586,-0.4961 -0.0774,-0.13365 -0.0911,-0.28629 -0.11524,-0.43554 z m 10.49414,1.4707 c 0.1543,0.0204 0.30321,0.0346 0.43946,0.11719 a 1.8238023,1.8238023 0 0 0 0.0195,0.0137 c 0.22899,0.1347 0.37115,0.27491 0.50586,0.50391 a 1.8238023,1.8238023 0 0 0 0.0332,0.0547 c 0.0813,0.1278 0.0942,0.27369 0.11523,0.42383 a 1.8238023,1.8238023 0 0 0 -1.11328,-1.11328 z m 1.10938,4.49609 c -0.0209,0.14932 -0.0319,0.29064 -0.125,0.44141 a 1.8238023,1.8238023 0 0 0 -0.0195,0.0352 c -0.13471,0.22899 -0.27687,0.3692 -0.50586,0.5039 a 1.8238023,1.8238023 0 0 0 -0.0195,0.0117 c -0.13614,0.0825 -0.28533,0.0968 -0.43946,0.11719 a 1.8238023,1.8238023 0 0 0 1.10938,-1.10938 z m -11.55664,0.2168 h 0.12109 a 1.8238023,1.8238023 0 0 0 0.87695,0.87695 c -0.14087,-0.0246 -0.28514,-0.0317 -0.42382,-0.11328 -0.229,-0.1347 -0.36921,-0.27491 -0.50391,-0.5039 -0.05,-0.0851 -0.0428,-0.17898 -0.0703,-0.25977 z" id="path12333"/><path style="color:#000000;-inkscape-font-specification:'Orbitron Heavy';fill:url(#linearGradient456);stroke:none;stroke-linecap:butt;stroke-linejoin:miter;-inkscape-stroke:none" d="m -349.2165,264.35037 q -0.85333,0 -1.57866,-0.42666 -0.72533,-0.42667 -1.152,-1.152 -0.42667,-0.72533 -0.42667,-1.57867 v -1.42933 h 3.30666 v 1.25867 q 0,0 0,0 0,0 0,0 h 8.70399 q 0,0 0,0 0,0 0,0 v -2.688 q 0,0 0,0 0,0 0,0 h -8.85332 q -0.85333,0 -1.57866,-0.42666 -0.72533,-0.42667 -1.152,-1.13067 -0.42667,-0.72533 -0.42667,-1.6 v -3.02933 q 0,-0.87466 0.42667,-1.57866 0.42667,-0.72533 1.152,-1.152 0.72533,-0.42666 1.57866,-0.42666 h 9.04532 q 0.85333,0 1.55733,0.42666 0.72533,0.42667 1.152,1.152 0.448,0.704 0.448,1.57866 v 1.42934 h -3.34933 v -1.25867 q 0,0 0,0 0,0 0,0 h -8.70399 q 0,0 0,0 0,0 0,0 v 2.688 q 0,0 0,0 0,0 0,0 h 8.89599 q 0.85333,0 1.55733,0.42666 0.72533,0.42667 1.152,1.152 0.448,0.704 0.448,1.57867 v 3.02932 q 0,0.85334 -0.448,1.57867 -0.42667,0.72533 -1.152,1.152 -0.704,0.42666 -1.55733,0.42666 z" id="path12335"/></g><g id="g12343" style="fill:url(#linearGradient462)"><path style="color:#000000;-inkscape-font-specification:'Orbitron Heavy';fill:#feeeff;stroke:none;stroke-linecap:butt;stroke-linejoin:miter;-inkscape-stroke:none" d="m -334.75195,246.09961 a 1.8238023,1.8238023 0 0 0 -1.82422,1.82422 v 3.28515 a 1.8238023,1.8238023 0 0 0 0.38476,0.38477 1.8238023,1.8238023 0 0 0 -0.38476,0.38281 v 12.37305 a 1.8238023,1.8238023 0 0 0 1.82422,1.82422 h 3.26367 a 1.8238023,1.8238023 0 0 0 1.82422,-1.82422 v -12.37305 a 1.8238023,1.8238023 0 0 0 -0.38477,-0.38281 1.8238023,1.8238023 0 0 0 0.38477,-0.38477 v -3.28515 a 1.8238023,1.8238023 0 0 0 -1.82422,-1.82422 z" id="path12339"/><path style="color:#000000;-inkscape-font-specification:'Orbitron Heavy';fill:url(#linearGradient460);stroke:none;stroke-linecap:butt;stroke-linejoin:miter;-inkscape-stroke:none" d="m -334.75254,264.35037 v 0 -12.37331 h 3.264 v 12.37331 z m 0,-13.14131 v 0 -3.28533 h 3.264 v 3.28533 z" id="path12341"/></g><g id="g12349" style="fill:url(#linearGradient466)"><path style="color:#000000;-inkscape-font-specification:'Orbitron Heavy';fill:#feeeff;stroke:none;stroke-linecap:butt;stroke-linejoin:miter;-inkscape-stroke:none" d="m -329.78125,247.16602 a 1.8238023,1.8238023 0 0 0 -1.82422,1.82421 v 15.35938 a 1.8238023,1.8238023 0 0 0 1.82422,1.82422 h 3.30664 a 1.8238023,1.8238023 0 0 0 1.82227,-1.82422 v -5.29492 l 2.0957,2.48242 a 1.8238023,1.8238023 0 0 0 2.79102,-0.006 l 2.07031,-2.4707 v 5.28906 a 1.8238023,1.8238023 0 0 0 1.82226,1.82422 h 3.32813 a 1.8238023,1.8238023 0 0 0 1.82422,-1.82422 v -15.35938 a 1.8238023,1.8238023 0 0 0 -1.82422,-1.82421 h -3.4336 a 1.8238023,1.8238023 0 0 0 -1.40039,0.65625 l -3.78711,4.53515 -3.80468,-4.53906 a 1.8238023,1.8238023 0 0 0 -1.39844,-0.65234 z m 1.82227,3.64843 h 0.74023 l 1.62891,1.94141 a 1.8238023,1.8238023 0 0 0 -2.36914,0.82617 z m 12.83203,0 h 0.75781 v 2.77539 a 1.8238023,1.8238023 0 0 0 -2.35547,-0.86132 z m -6.75,5.87305 a 1.8238023,1.8238023 0 0 0 1.40234,0.0117 l -0.69336,0.82812 z" id="path12345"/><path style="color:#000000;-inkscape-font-specification:'Orbitron Heavy';fill:url(#linearGradient464);stroke:none;stroke-linecap:butt;stroke-linejoin:miter;-inkscape-stroke:none" d="M -329.78188,264.35037 V 248.9904 h 3.41333 l 5.20532,6.20799 5.184,-6.20799 h 3.43466 v 15.35997 h -3.328 v -10.30398 l -5.29066,6.31466 -5.31199,-6.29333 v 10.28265 z" id="path12347"/></g></g></g><g id="g3" inkscape:label="boring" style="display:inline"><text xml:space="preserve" transform="matrix(0,0.26458333,-0.26458333,0,72.849597,208.64804)" id="text2-2" style="font-weight:900;font-size:21.3333px;font-family:Orbitron;-inkscape-font-specification:'Orbitron Heavy';text-align:center;white-space:pre;shape-inside:url(#rect2);shape-padding:1.65062;display:inline;fill:#000000;fill-opacity:1;stroke:#9a9a9a;stroke-width:3.64724;stroke-linecap:round;stroke-linejoin:round;stroke-opacity:1;paint-order:stroke fill markers" inkscape:label="SiM TEXT" x="19.914627" y="0"><tspan x="-353.36581" y="264.35037" id="tspan5">SIM</tspan></text><g id="text5-1" inkscape:label="SiM TEXT" transform="matrix(0,0.26458333,-0.26458333,0,72.849597,208.64804)"><path style="color:#000000;-inkscape-font-specification:'Orbitron Heavy';fill:#9a9a9a;stroke-linecap:round;stroke-linejoin:round;-inkscape-stroke:none;paint-order:stroke fill markers" d="m -349.05664,247.16602 c -0.87282,0 -1.75097,0.23679 -2.50391,0.67968 -0.7349,0.43231 -1.35704,1.05708 -1.79101,1.79102 -0.45302,0.75294 -0.68555,1.63687 -0.68555,2.51172 v 3.02929 c 0,0.87963 0.23088,1.76377 0.67774,2.52344 a 1.8238023,1.8238023 0 0 0 0.0117,0.0215 c 0.1667,0.27504 0.46548,0.43148 0.68164,0.66992 a 1.8238023,1.8238023 0 0 0 -1.37109,1.37109 v 1.42969 c 0,0.87282 0.23484,1.75097 0.67774,2.50391 0.43418,0.73811 1.06071,1.36463 1.79882,1.79882 0.75294,0.4429 1.63109,0.67774 2.50391,0.67774 h 9.04492 c 0.86868,0 1.74586,-0.23799 2.49219,-0.6875 0.36726,-0.21743 0.59478,-0.59363 0.89648,-0.89649 a 1.8238023,1.8238023 0 0 0 1.58203,1.58399 h 3.26368 a 1.8238023,1.8238023 0 0 0 0.91797,-0.91797 1.8238023,1.8238023 0 0 0 0.91796,0.91797 h 3.30664 a 1.8238023,1.8238023 0 0 0 1.82227,-1.82422 v -5.29492 l 2.0957,2.48242 a 1.8238023,1.8238023 0 0 0 2.79102,-0.006 l 2.07031,-2.4707 v 5.28906 a 1.8238023,1.8238023 0 0 0 1.82227,1.82422 h 3.32812 a 1.8238023,1.8238023 0 0 0 1.82422,-1.82422 V 248.9901 a 1.8238023,1.8238023 0 0 0 -1.82422,-1.82421 h -3.43359 a 1.8238023,1.8238023 0 0 0 -1.40039,0.65625 l -3.78711,4.53515 -3.80469,-4.53906 a 1.8238023,1.8238023 0 0 0 -1.39844,-0.65234 h -3.41211 a 1.8238023,1.8238023 0 0 0 -0.91796,0.91796 1.8238023,1.8238023 0 0 0 -0.91797,-0.91796 h -3.26368 A 1.8238023,1.8238023 0 0 0 -336.625,248.75 c -0.30187,-0.30269 -0.52911,-0.67926 -0.89648,-0.89648 -0.74598,-0.44888 -1.62219,-0.6875 -2.49024,-0.6875 z m 13.29297,2.42382 0.0332,0.0547 c -0.006,-0.0104 -0.0192,-0.015 -0.0254,-0.0254 -0.005,-0.009 -0.002,-0.0207 -0.008,-0.0293 z m 7.64453,1.22461 h 0.74023 l 1.62891,1.94141 a 1.8238023,1.8238023 0 0 0 -2.36914,0.82617 z m 12.83203,0 h 0.75977 v 2.77735 a 1.8238023,1.8238023 0 0 0 -2.35743,-0.86328 z m -24.54883,0.0469 c 0.15313,0.0206 0.30198,0.0331 0.4375,0.11523 a 1.8238023,1.8238023 0 0 0 0.0195,0.0117 c 0.229,0.1347 0.37117,0.27688 0.50586,0.50586 a 1.8238023,1.8238023 0 0 0 0.0332,0.0547 c 0.0393,0.0618 0.0303,0.14486 0.0547,0.20508 h -0.1582 a 1.8238023,1.8238023 0 0 0 -0.89258,-0.89258 z m -9.45117,0.0137 a 1.8238023,1.8238023 0 0 0 -1.04492,1.04492 c 0.0244,-0.1386 0.0325,-0.28911 0.10351,-0.40625 a 1.8238023,1.8238023 0 0 0 0.0137,-0.0195 c 0.1347,-0.22899 0.27491,-0.37116 0.5039,-0.50586 0.13879,-0.0816 0.28282,-0.0887 0.42383,-0.11328 z m 11.75781,2.98633 0.0215,0.0117 c -0.004,-0.002 -0.01,-10e-4 -0.0137,-0.004 -0.003,-0.002 -0.005,-0.006 -0.008,-0.008 z m -12.80273,1.54297 a 1.8238023,1.8238023 0 0 0 1.04492,1.04492 c -0.14087,-0.0246 -0.28514,-0.0317 -0.42383,-0.11328 -0.23492,-0.1382 -0.37656,-0.2831 -0.50586,-0.49219 -0.0786,-0.13495 -0.0909,-0.28895 -0.11523,-0.43945 z m 14.56836,0.20117 0.0332,0.0547 c -0.006,-0.0104 -0.0192,-0.015 -0.0254,-0.0254 -0.005,-0.009 -0.002,-0.0207 -0.008,-0.0293 z m 13.72656,1.08203 a 1.8238023,1.8238023 0 0 0 1.40234,0.0117 l -0.69335,0.82812 z m -17.80078,0.1875 c 0.1543,0.0204 0.30321,0.0346 0.43945,0.11719 a 1.8238023,1.8238023 0 0 0 0.0195,0.0137 c 0.229,0.1347 0.37117,0.27493 0.50586,0.50391 a 1.8238023,1.8238023 0 0 0 0.0332,0.0547 c 0.0813,0.1278 0.0942,0.27369 0.11523,0.42383 a 1.8238023,1.8238023 0 0 0 -1.11328,-1.11328 z m 1.10937,4.49609 c -0.0209,0.14932 -0.0319,0.29064 -0.125,0.44141 a 1.8238023,1.8238023 0 0 0 -0.0195,0.0352 c -0.13469,0.22898 -0.27686,0.3692 -0.50586,0.5039 a 1.8238023,1.8238023 0 0 0 -0.0195,0.0117 c -0.13613,0.0825 -0.28533,0.0968 -0.43945,0.11719 a 1.8238023,1.8238023 0 0 0 1.10937,-1.10938 z m -11.55664,0.2168 h 0.1211 a 1.8238023,1.8238023 0 0 0 0.87695,0.87695 c -0.14087,-0.0246 -0.28514,-0.0317 -0.42383,-0.11328 -0.22899,-0.1347 -0.3692,-0.27491 -0.5039,-0.5039 -0.05,-0.0851 -0.0428,-0.17898 -0.0703,-0.25977 z m 14.55469,2.10938 -0.0195,0.0332 c 0.004,-0.006 0.002,-0.0137 0.006,-0.0195 0.003,-0.006 0.0104,-0.008 0.0137,-0.0137 z" id="path5"/><path style="color:#000000;-inkscape-font-specification:'Orbitron Heavy';fill:#000000;stroke-linecap:round;stroke-linejoin:round;-inkscape-stroke:none;paint-order:stroke fill markers" d="m -349.05649,264.35037 q -0.85333,0 -1.57866,-0.42666 -0.72533,-0.42667 -1.152,-1.152 -0.42666,-0.72533 -0.42666,-1.57867 v -1.42933 h 3.30666 v 1.25867 q 0,0 0,0 0,0 0,0 h 8.70398 q 0,0 0,0 0,0 0,0 v -2.688 q 0,0 0,0 0,0 0,0 h -8.85332 q -0.85333,0 -1.57866,-0.42666 -0.72533,-0.42667 -1.152,-1.13067 -0.42666,-0.72533 -0.42666,-1.6 v -3.02933 q 0,-0.87466 0.42666,-1.57866 0.42667,-0.72533 1.152,-1.152 0.72533,-0.42666 1.57866,-0.42666 h 9.04532 q 0.85334,0 1.55733,0.42666 0.72534,0.42667 1.152,1.152 0.448,0.704 0.448,1.57866 v 1.42934 h -3.34933 v -1.25867 q 0,0 0,0 0,0 0,0 h -8.70398 q 0,0 0,0 0,0 0,0 v 2.688 q 0,0 0,0 0,0 0,0 h 8.89598 q 0.85334,0 1.55733,0.42666 0.72534,0.42667 1.152,1.152 0.448,0.704 0.448,1.57867 v 3.02932 q 0,0.85334 -0.448,1.57867 -0.42666,0.72533 -1.152,1.152 -0.70399,0.42666 -1.55733,0.42666 z m 14.01596,0 V 248.9904 h 3.264 v 15.35997 z m 5.09864,0 V 248.9904 h 3.41332 l 5.20533,6.20799 5.18399,-6.20799 h 3.43466 v 15.35997 h -3.32799 v -10.30398 l -5.29066,6.31466 -5.31199,-6.29333 v 10.28265 z" id="path6"/></g></g><g id="g1851" inkscape:label="InOutLines" style="display:inline" transform="translate(0,-14.899999)"><path style="fill:none;stroke:#bbbbbb;stroke-width:0.505964;stroke-linejoin:bevel;stroke-dasharray:none;stroke-opacity:1;paint-order:stroke fill markers;stop-color:#000000" d="m 0,40.253155 5.0802865,-1.73e-4" id="path8325" sodipodi:nodetypes="cc"/><path style="fill:none;stroke:#bbbbbb;stroke-width:0.505964;stroke-linejoin:bevel;stroke-dasharray:none;stroke-opacity:1;paint-order:stroke fill markers;stop-color:#000000" d="m 0,51.747018 5.0802865,-1.73e-4" id="path3" sodipodi:nodetypes="cc"/><path style="fill:none;stroke:#fefefe;stroke-width:0.506;stroke-linejoin:bevel;stroke-dasharray:none;stroke-opacity:1;paint-order:stroke fill markers;stop-color:#000000" d="M 5.5464695,93.752982 10.16,93.753155" id="path4" sodipodi:nodetypes="cc"/><path style="fill:none;stroke:#fefefe;stroke-width:0.506;stroke-linejoin:bevel;stroke-dasharray:none;stroke-opacity:1;paint-order:stroke fill markers;stop-color:#000000" d="M 5.5464695,105.253 10.16,105.25317" id="path12" sodipodi:nodetypes="cc"/><path style="fill:none;stroke:#fefefe;stroke-width:0.506;stroke-linejoin:bevel;stroke-dasharray:none;stroke-opacity:1;paint-order:stroke fill markers;stop-color:#000000" d="M 5.5464693,116.753 10.16,116.75317" id="path15" sodipodi:nodetypes="cc"/></g></svg>