<?xml version="1.0" ?><!-- Created with Inkscape (http://www.inkscape.org/) --><svg xmlns:inkscape="http://www.inkscape.org/namespaces/inkscape" xmlns:sodipodi="http://sodipodi.sourceforge.net/DTD/sodipodi-0.dtd" xmlns:xlink="http://www.w3.org/1999/xlink" xmlns="http://www.w3.org/2000/svg" xmlns:svg="http://www.w3.org/2000/svg" inkscape:version="1.3.1 (9b9bdc1480, 2023-11-25, custom)" sodipodi:docname="Coerce6.svg" id="svg5" version="1.1" viewBox="0 0 30.48 128.5" height="128.5mm" width="30.48mm" xml:space="preserve"><sodipodi:namedview id="namedview7" pagecolor="#000001" bordercolor="#000000" borderopacity="0.25" inkscape:showpageshadow="2" inkscape:pageopacity="0.0" inkscape:pagecheckerboard="0" inkscape:deskcolor="#d1d1d1" inkscape:document-units="mm" showgrid="true" showguides="true" inkscape:zoom="2.8284275" inkscape:cx="175.00891" inkscape:cy="304.76298" inkscape:window-width="2490" inkscape:window-height="1376" inkscape:window-x="0" inkscape:window-y="0" inkscape:window-maximized="1" inkscape:current-layer="layer4"><inkscape:grid type="xygrid" id="grid23806" spacingx="5.0800001" spacingy="10" units="mm" dotted="true" originx="0" originy="0" visible="true"/><sodipodi:guide position="8.9958327,8.0319127" orientation="0,-1" id="guide803" inkscape:locked="false"/><sodipodi:guide position="59.663537,15.5" orientation="0,1" id="guide1" inkscape:locked="false" inkscape:label="" inkscape:color="rgb(0,134,229)"/></sodipodi:namedview><defs id="defs2"><inkscape:path-effect effect="bspline" id="path-effect2" is_visible="true" lpeversion="1" weight="33.333333" steps="2" helper_size="0" apply_no_weight="true" apply_with_weight="true" only_selected="false"/><linearGradient id="linearGradient5269" inkscape:swatch="solid"><stop style="stop-color:#bc9051;stop-opacity:1;" offset="0" id="stop5267"/></linearGradient><inkscape:path-effect effect="bspline" id="path-effect28295" is_visible="true" lpeversion="1" weight="33.333333" steps="2" helper_size="0" apply_no_weight="true" apply_with_weight="true" only_selected="false"/><inkscape:path-effect effect="bspline" id="path-effect28279" is_visible="true" lpeversion="1" weight="33.333333" steps="2" helper_size="0" apply_no_weight="true" apply_with_weight="true" only_selected="false"/><inkscape:path-effect effect="bspline" id="path-effect27181" is_visible="true" lpeversion="1" weight="33.333333" steps="2" helper_size="0" apply_no_weight="true" apply_with_weight="true" only_selected="false"/><inkscape:path-effect effect="bspline" id="path-effect27171" is_visible="true" lpeversion="1" weight="33.333333" steps="2" helper_size="0" apply_no_weight="true" apply_with_weight="true" only_selected="false"/><inkscape:path-effect effect="bspline" id="path-effect27161" is_visible="true" lpeversion="1" weight="33.333333" steps="2" helper_size="0" apply_no_weight="true" apply_with_weight="true" only_selected="false"/><inkscape:path-effect effect="bspline" id="path-effect27151" is_visible="true" lpeversion="1" weight="33.333333" steps="2" helper_size="0" apply_no_weight="true" apply_with_weight="true" only_selected="false"/><inkscape:path-effect effect="bspline" id="path-effect27141" is_visible="true" lpeversion="1" weight="33.333333" steps="2" helper_size="0" apply_no_weight="true" apply_with_weight="true" only_selected="false"/><inkscape:path-effect effect="bspline" id="path-effect27131" is_visible="true" lpeversion="1" weight="33.333333" steps="2" helper_size="0" apply_no_weight="true" apply_with_weight="true" only_selected="false"/><inkscape:path-effect effect="bspline" id="path-effect16779" is_visible="true" lpeversion="1" weight="33.333333" steps="2" helper_size="0" apply_no_weight="true" apply_with_weight="true" only_selected="false"/><inkscape:path-effect effect="bspline" id="path-effect16767" is_visible="true" lpeversion="1" weight="33.333333" steps="2" helper_size="0" apply_no_weight="true" apply_with_weight="true" only_selected="false"/><inkscape:path-effect effect="bspline" id="path-effect16755" is_visible="true" lpeversion="1" weight="33.333333" steps="2" helper_size="0" apply_no_weight="true" apply_with_weight="true" only_selected="false"/><inkscape:path-effect effect="bspline" id="path-effect16729" is_visible="true" lpeversion="1" weight="33.333333" steps="2" helper_size="0" apply_no_weight="true" apply_with_weight="true" only_selected="false"/><inkscape:path-effect effect="bspline" id="path-effect16719" is_visible="true" lpeversion="1" weight="33.333333" steps="2" helper_size="0" apply_no_weight="true" apply_with_weight="true" only_selected="false"/><inkscape:path-effect effect="bspline" id="path-effect16493" is_visible="true" lpeversion="1" weight="33.333333" steps="2" helper_size="0" apply_no_weight="true" apply_with_weight="true" only_selected="false"/><inkscape:path-effect effect="bspline" id="path-effect15691" is_visible="true" lpeversion="1" weight="33.333333" steps="2" helper_size="0" apply_no_weight="true" apply_with_weight="true" only_selected="false"/><inkscape:path-effect effect="bspline" id="path-effect15681" is_visible="true" lpeversion="1" weight="33.333333" steps="2" helper_size="0" apply_no_weight="true" apply_with_weight="true" only_selected="false"/><inkscape:path-effect effect="bspline" id="path-effect15671" is_visible="true" lpeversion="1" weight="33.333333" steps="2" helper_size="0" apply_no_weight="true" apply_with_weight="true" only_selected="false"/><inkscape:path-effect effect="bspline" id="path-effect15661" is_visible="true" lpeversion="1" weight="33.333333" steps="2" helper_size="0" apply_no_weight="true" apply_with_weight="true" only_selected="false"/><inkscape:path-effect effect="bspline" id="path-effect15651" is_visible="true" lpeversion="1" weight="33.333333" steps="2" helper_size="0" apply_no_weight="true" apply_with_weight="true" only_selected="false"/><inkscape:path-effect effect="bspline" id="path-effect15587" is_visible="true" lpeversion="1" weight="33.333333" steps="2" helper_size="0" apply_no_weight="true" apply_with_weight="true" only_selected="false"/><linearGradient id="linearGradient7378"><stop style="stop-color:#bd91df;stop-opacity:1;" offset="0" id="stop12941"/><stop style="stop-color:#28c6ff;stop-opacity:1;" offset="1" id="stop12943"/></linearGradient><rect x="-362.74576" y="242.83466" width="272.94321" height="175.77255" id="rect2576"/><rect x="0" y="456.79095" width="76.799995" height="28.878334" id="rect405"/><linearGradient inkscape:collect="always" id="linearGradient1445"><stop style="stop-color:#e0e8f3;stop-opacity:1;" offset="0" id="stop1441"/><stop style="stop-color:#e0e8f3;stop-opacity:0;" offset="1" id="stop1443"/></linearGradient><rect x="7.0710678" y="69.296463" width="26.162951" height="19.091883" id="rect292"/><rect x="7.0710678" y="69.296463" width="26.162951" height="19.091883" id="rect374"/><linearGradient inkscape:collect="always" xlink:href="#linearGradient1445" id="linearGradient1451" x1="2.9572134" y1="5.5931401" x2="17.362785" y2="5.5931401" gradientUnits="userSpaceOnUse"/><rect x="-362.74576" y="242.83466" width="272.94321" height="175.77255" id="rect725"/><rect x="-362.74576" y="242.83466" width="272.94321" height="175.77255" id="rect806"/><rect x="-362.74576" y="242.83466" width="272.94321" height="175.77255" id="rect872"/><mask maskUnits="userSpaceOnUse" id="mask12356-9"><path style="fill:#ff00ff;stroke:#fe5aff;stroke-width:0.102442;stroke-linejoin:bevel;stroke-dasharray:none;stroke-opacity:1;paint-order:stroke fill markers" d="m 4.2467972,120.10164 1e-7,-40.771484 H 16.337802 v 40.771484 z" id="path12358-1" inkscape:label="mask"/></mask><mask maskUnits="userSpaceOnUse" id="mask12412-7"><path style="fill:#ff00ff;stroke:#fe5aff;stroke-width:0.102442;stroke-linejoin:bevel;stroke-dasharray:none;stroke-opacity:1;paint-order:stroke fill markers" d="m 4.2467972,120.10164 1e-7,-40.771484 H 16.337802 v 40.771484 z" id="path12414-0" inkscape:label="mask"/></mask><mask maskUnits="userSpaceOnUse" id="mask12412-8"><path style="fill:#ff00ff;stroke:#fe5aff;stroke-width:0.102442;stroke-linejoin:bevel;stroke-dasharray:none;stroke-opacity:1;paint-order:stroke fill markers" d="m 4.2467972,120.10164 1e-7,-40.771484 H 16.337802 v 40.771484 z" id="path12414-9" inkscape:label="mask"/></mask><mask maskUnits="userSpaceOnUse" id="mask12352-9"><path style="fill:#ff00ff;stroke:#fe5aff;stroke-width:0.102442;stroke-linejoin:bevel;stroke-dasharray:none;stroke-opacity:1;paint-order:stroke fill markers" d="m 4.2467972,120.10164 1e-7,-40.771484 H 16.337802 v 40.771484 z" id="path12354-1" inkscape:label="mask"/></mask><mask maskUnits="userSpaceOnUse" id="mask12428-3"><path style="fill:#ff00ff;stroke:#fe5aff;stroke-width:0.102442;stroke-linejoin:bevel;stroke-dasharray:none;stroke-opacity:1;paint-order:stroke fill markers" d="m 4.2467972,120.10164 1e-7,-40.771484 H 16.337802 v 40.771484 z" id="path12430-2" inkscape:label="mask"/></mask><mask maskUnits="userSpaceOnUse" id="mask12428-6"><path style="fill:#ff00ff;stroke:#fe5aff;stroke-width:0.102442;stroke-linejoin:bevel;stroke-dasharray:none;stroke-opacity:1;paint-order:stroke fill markers" d="m 4.2467972,120.10164 1e-7,-40.771484 H 16.337802 v 40.771484 z" id="path12430-5" inkscape:label="mask"/></mask><clipPath clipPathUnits="userSpaceOnUse" id="clipPath4444"><path style="display:inline;fill:#ff00ff;stroke:#fe5aff;stroke-width:0.102442;stroke-linejoin:bevel;stroke-dasharray:none;stroke-opacity:1;paint-order:stroke fill markers" d="m 4.2467972,120.10164 1e-7,-40.771484 H 16.337802 v 40.771484 z" id="path4446" inkscape:label="clip"/></clipPath><rect x="-362.74576" y="242.83466" width="272.94321" height="175.77255" id="rect30022"/><rect x="-362.74576" y="242.83466" width="272.94321" height="175.77255" id="rect2576-2"/><rect x="0" y="456.79095" width="76.799995" height="28.878334" id="rect405-8"/><rect x="7.0710678" y="69.296463" width="26.162951" height="19.091883" id="rect292-9"/><rect x="7.0710678" y="69.296463" width="26.162951" height="19.091883" id="rect374-2"/><rect x="-362.74576" y="242.83466" width="272.94321" height="175.77255" id="rect725-6"/><rect x="-362.74576" y="242.83466" width="272.94321" height="175.77255" id="rect806-0"/><rect x="-362.74576" y="242.83466" width="272.94321" height="175.77255" id="rect872-1"/><mask maskUnits="userSpaceOnUse" id="mask12356-9-6"><path style="fill:#ff00ff;stroke:#fe5aff;stroke-width:0.102442;stroke-linejoin:bevel;stroke-dasharray:none;stroke-opacity:1;paint-order:stroke fill markers" d="m 4.2467972,120.10164 1e-7,-40.771484 H 16.337802 v 40.771484 z" id="path12358-1-9" inkscape:label="mask"/></mask><mask maskUnits="userSpaceOnUse" id="mask12412-7-2"><path style="fill:#ff00ff;stroke:#fe5aff;stroke-width:0.102442;stroke-linejoin:bevel;stroke-dasharray:none;stroke-opacity:1;paint-order:stroke fill markers" d="m 4.2467972,120.10164 1e-7,-40.771484 H 16.337802 v 40.771484 z" id="path12414-0-3" inkscape:label="mask"/></mask><mask maskUnits="userSpaceOnUse" id="mask12412-8-4"><path style="fill:#ff00ff;stroke:#fe5aff;stroke-width:0.102442;stroke-linejoin:bevel;stroke-dasharray:none;stroke-opacity:1;paint-order:stroke fill markers" d="m 4.2467972,120.10164 1e-7,-40.771484 H 16.337802 v 40.771484 z" id="path12414-9-9" inkscape:label="mask"/></mask><mask maskUnits="userSpaceOnUse" id="mask12352-9-9"><path style="fill:#ff00ff;stroke:#fe5aff;stroke-width:0.102442;stroke-linejoin:bevel;stroke-dasharray:none;stroke-opacity:1;paint-order:stroke fill markers" d="m 4.2467972,120.10164 1e-7,-40.771484 H 16.337802 v 40.771484 z" id="path12354-1-9" inkscape:label="mask"/></mask><mask maskUnits="userSpaceOnUse" id="mask12428-3-6"><path style="fill:#ff00ff;stroke:#fe5aff;stroke-width:0.102442;stroke-linejoin:bevel;stroke-dasharray:none;stroke-opacity:1;paint-order:stroke fill markers" d="m 4.2467972,120.10164 1e-7,-40.771484 H 16.337802 v 40.771484 z" id="path12430-2-1" inkscape:label="mask"/></mask><mask maskUnits="userSpaceOnUse" id="mask12428-6-2"><path style="fill:#ff00ff;stroke:#fe5aff;stroke-width:0.102442;stroke-linejoin:bevel;stroke-dasharray:none;stroke-opacity:1;paint-order:stroke fill markers" d="m 4.2467972,120.10164 1e-7,-40.771484 H 16.337802 v 40.771484 z" id="path12430-5-8" inkscape:label="mask"/></mask><clipPath clipPathUnits="userSpaceOnUse" id="clipPath4444-4"><path style="display:inline;fill:#ff00ff;stroke:#fe5aff;stroke-width:0.102442;stroke-linejoin:bevel;stroke-dasharray:none;stroke-opacity:1;paint-order:stroke fill markers" d="m 4.2467972,120.10164 1e-7,-40.771484 H 16.337802 v 40.771484 z" id="path4446-9" inkscape:label="clip"/></clipPath><linearGradient inkscape:collect="always" xlink:href="#linearGradient5347" id="linearGradient744" gradientUnits="userSpaceOnUse" x1="-333.70743" y1="244.44972" x2="-333.70743" y2="264.52359"/><linearGradient inkscape:collect="always" id="linearGradient5347"><stop style="stop-color:#10ccd2;stop-opacity:1;" offset="0" id="stop5343"/><stop style="stop-color:#cd25cd;stop-opacity:1;" offset="1" id="stop5345"/></linearGradient><rect x="-362.74576" y="242.83466" width="60.787731" height="29.019567" id="rect2576-0"/><rect x="-362.74576" y="242.83466" width="60.787731" height="29.019567" id="rect2835"/><rect x="-362.74576" y="242.83466" width="60.787731" height="29.019567" id="rect12331"/><rect x="-362.74576" y="242.83466" width="60.787731" height="29.019567" id="rect12359"/></defs><rect style="display:inline;opacity:1;fill:#bcbcbe;fill-opacity:1;stroke-width:0.455649" id="rect338" width="30.48" height="128.5" x="1.7763568e-15" y="0" inkscape:label="background"/><g inkscape:groupmode="layer" id="g372" inkscape:label="Text" style="display:inline;fill:#e9afaf"><g id="g2750" inkscape:label="INOUTPATH" transform="translate(-1.0583333)"><g aria-label="input" transform="rotate(-45)" id="text2740" style="font-weight:500;font-size:2.46944px;font-family:Orbitron;-inkscape-font-specification:'Orbitron Medium';fill:#000001;stroke-width:0.520999;stroke-linecap:square;stroke-linejoin:bevel;paint-order:stroke fill markers"><path d="m -14.827664,20.315441 v 0 -1.432275 h 0.2667 v 1.432275 z m 0,-1.634769 v 0 -0.2667 h 0.2667 v 0.2667 z" style="stroke-width:0.521" id="path714"/><path d="m -14.276812,20.315441 v 0 -1.432275 h 1.135942 q 0.0889,0 0.160514,0.04445 0.07408,0.04445 0.116063,0.116064 0.04445,0.07161 0.04445,0.160513 v 1.111248 h -0.266699 v -1.10384 q 0,-0.02469 -0.01976,-0.04198 -0.01729,-0.01976 -0.04198,-0.01976 h -0.800099 q -0.02469,0 -0.04445,0.01976 -0.01729,0.01729 -0.01729,0.04198 v 1.10384 z" style="stroke-width:0.521" id="path716"/><path d="m -12.5999,20.883412 v 0 -2.000246 h 1.135942 q 0.0889,0 0.160514,0.04445 0.07408,0.04445 0.116063,0.116064 0.04445,0.07161 0.04445,0.160513 v 0.790221 q 0,0.0889 -0.04445,0.160514 -0.04198,0.07161 -0.116063,0.116063 -0.07161,0.04445 -0.160514,0.04445 h -0.869243 v 0.567971 z m 0.328435,-0.83467 h 0.800099 q 0.02469,0 0.04198,-0.01729 0.01976,-0.01976 0.01976,-0.04445 v -0.775405 q 0,-0.02469 -0.01976,-0.04198 -0.01729,-0.01976 -0.04198,-0.01976 h -0.800099 q -0.02469,0 -0.04445,0.01976 -0.01729,0.01729 -0.01729,0.04198 v 0.775405 q 0,0.02469 0.01729,0.04445 0.01976,0.01729 0.04445,0.01729 z" style="stroke-width:0.521" id="path718"/><path d="m -10.641636,20.315441 q -0.0889,0 -0.162983,-0.04445 -0.07161,-0.04445 -0.116063,-0.116063 -0.04198,-0.07161 -0.04198,-0.160514 v -1.111248 h 0.2667 v 1.10384 q 0,0.02469 0.01729,0.04445 0.01975,0.01729 0.04445,0.01729 h 0.8000983 q 0.024694,0 0.041981,-0.01729 0.019756,-0.01976 0.019756,-0.04445 v -1.10384 h 0.2666996 v 1.111248 q 0,0.0889 -0.04445,0.160514 -0.04198,0.07161 -0.1160636,0.116063 -0.071614,0.04445 -0.1605136,0.04445 h -0.8149157 z" style="stroke-width:0.521" id="path720"/><path d="m -8.9714257,20.315441 q -0.0889,0 -0.162983,-0.04445 -0.071614,-0.04445 -0.1160637,-0.116063 -0.04198,-0.07161 -0.04198,-0.160514 v -1.563156 h 0.2666995 v 0.451908 h 0.5877267 v 0.266699 h -0.5877267 v 0.837141 q 0,0.02469 0.017286,0.04445 0.019756,0.01729 0.04445,0.01729 h 0.5259907 v 0.266699 h -0.5333991 z" style="stroke-width:0.521" id="path722"/></g><g aria-label="quantize" transform="rotate(-45)" id="text2744" style="font-weight:500;font-size:2.46944px;font-family:Orbitron;-inkscape-font-specification:'Orbitron Medium';fill:#000001;stroke-width:0.520999;stroke-linecap:square;stroke-linejoin:bevel;paint-order:stroke fill markers"><path d="m -7.775496,27.088611 v 0 -0.567972 h -0.8692428 q -0.0889,0 -0.1629831,-0.04198 -0.071614,-0.04445 -0.1160637,-0.118533 -0.04198,-0.07408 -0.04198,-0.160514 v -0.790221 q 0,-0.0889 0.04198,-0.160513 0.04445,-0.07161 0.1160637,-0.116064 0.074083,-0.04445 0.1629831,-0.04445 h 1.1359424 v 2.000247 z M -8.6348611,26.25394 h 0.8000986 q 0.024694,0 0.041981,-0.01729 0.017286,-0.01976 0.017286,-0.04445 V 25.4168 q 0,-0.02469 -0.017286,-0.04198 -0.017286,-0.01975 -0.041981,-0.01975 h -0.8000986 q -0.024694,0 -0.04445,0.01975 -0.017286,0.01729 -0.017286,0.04198 v 0.775404 q 0,0.02469 0.017286,0.04445 0.019756,0.01729 0.04445,0.01729 z" style="stroke-width:0.521" id="path735"/><path d="m -6.9780689,26.520639 q -0.0889,0 -0.1629831,-0.04445 -0.071614,-0.04445 -0.1160637,-0.116063 -0.04198,-0.07161 -0.04198,-0.160514 v -1.111248 h 0.2666995 v 1.10384 q 0,0.02469 0.017286,0.04445 0.019755,0.01729 0.04445,0.01729 h 0.8000985 q 0.024694,0 0.04198,-0.01729 0.019756,-0.01976 0.019756,-0.04445 v -1.10384 h 0.2666995 v 1.111248 q 0,0.0889 -0.04445,0.160514 -0.04198,0.07161 -0.1160637,0.116063 -0.071614,0.04445 -0.1605136,0.04445 h -0.8149151 z" style="stroke-width:0.521" id="path737"/><path d="m -5.2642784,26.520639 q -0.0889,0 -0.1629831,-0.04445 -0.071614,-0.04445 -0.1160636,-0.116063 -0.041981,-0.07161 -0.041981,-0.160514 v -0.52846 H -4.397505 V 25.4168 q 0,-0.02469 -0.017286,-0.04198 -0.017286,-0.01975 -0.04198,-0.01975 h -1.128534 v -0.2667 h 1.1359424 q 0.0889,0 0.1605136,0.04445 0.074083,0.04198 0.1160636,0.116064 0.04445,0.07408 0.04445,0.160513 v 1.111248 z m 0.00741,-0.266699 h 0.8593651 v -0.333374 h -0.9211011 v 0.271638 q 0,0.02469 0.017286,0.04445 0.019755,0.01729 0.04445,0.01729 z" style="stroke-width:0.521" id="path739"/><path d="m -3.8982073,26.520639 v 0 -1.432275 h 1.1359424 q 0.0889,0 0.1605136,0.04445 0.074083,0.04445 0.1160636,0.116064 0.04445,0.07161 0.04445,0.160513 v 1.111248 H -2.7079373 V 25.4168 q 0,-0.02469 -0.019755,-0.04198 -0.017286,-0.01975 -0.041981,-0.01975 h -0.8000985 q -0.024694,0 -0.04445,0.01975 -0.017286,0.01729 -0.017286,0.04198 v 1.103839 z" style="stroke-width:0.521" id="path741"/><path d="m -1.8609215,26.520639 q -0.0889,0 -0.162983,-0.04445 -0.071614,-0.04445 -0.1160637,-0.116063 -0.04198,-0.07161 -0.04198,-0.160514 v -1.563155 h 0.2666995 v 0.451907 h 0.5877267 v 0.2667 h -0.5877267 v 0.83714 q 0,0.02469 0.017286,0.04445 0.019755,0.01729 0.04445,0.01729 h 0.5259907 v 0.266699 h -0.533399 z" style="stroke-width:0.521" id="path743"/><path d="m -1.1270661,26.520639 v 0 -1.432275 h 0.26669955 v 1.432275 z m 0,-1.634769 v 0 -0.266699 h 0.26669955 v 0.266699 z" style="stroke-width:0.521" id="path745"/><path d="m -0.57971825,26.520639 v 0 -0.316088 l 1.10137023,-0.849487 h -1.10137023 v -0.2667 h 1.45696959 v 0.316089 l -1.10137023,0.849487 h 1.10137023 v 0.266699 z" style="stroke-width:0.521" id="path747"/><path d="m 1.3958345,26.520639 q -0.0889,0 -0.1605136,-0.04445 -0.071614,-0.04445 -0.1160637,-0.116063 -0.04445,-0.07161 -0.04445,-0.160514 v -0.790221 q 0,-0.0889 0.04445,-0.160513 0.04445,-0.07161 0.1160637,-0.116064 0.071614,-0.04445 0.1605136,-0.04445 h 0.8149152 q 0.0889,0 0.1605136,0.04445 0.074083,0.04198 0.1160637,0.116064 0.04445,0.07408 0.04445,0.160513 v 0.528461 H 1.3415068 v 0.254352 q 0,0.02469 0.017286,0.04445 0.019755,0.01729 0.04445,0.01729 h 1.1285341 v 0.266699 H 1.3958345 Z M 1.3415068,25.688438 H 2.262608 V 25.4168 q 0,-0.02469 -0.017286,-0.04198 -0.017286,-0.01975 -0.041981,-0.01975 H 1.4032428 q -0.024694,0 -0.04445,0.01975 -0.017286,0.01729 -0.017286,0.04198 z" style="stroke-width:0.521" id="path749"/></g><g aria-label="output" transform="rotate(-45)" id="text2748" style="font-weight:500;font-size:2.46944px;font-family:Orbitron;-inkscape-font-specification:'Orbitron Medium';fill:#000001;stroke-width:0.520999;stroke-linecap:square;stroke-linejoin:bevel;paint-order:stroke fill markers"><path d="m -0.41060732,34.411823 q -0.0888998,0 -0.16051359,-0.04445 -0.0716138,-0.04445 -0.11606368,-0.116063 -0.0444499,-0.07161 -0.0444499,-0.160514 v -0.790221 q 0,-0.0889 0.0444499,-0.160513 0.0444499,-0.07161 0.11606368,-0.116064 0.0716137,-0.04445 0.16051359,-0.04445 h 0.8149152 q 0.0888998,0 0.1605136,0.04445 0.0740832,0.04198 0.11606368,0.116064 0.0444499,0.07408 0.0444499,0.160513 v 0.790221 q 0,0.0889 -0.0444499,0.160514 -0.0419805,0.07161 -0.11606368,0.116063 -0.0716138,0.04445 -0.1605136,0.04445 h -0.8149152 z m 0.007408,-0.266699 h 0.80009856 q 0.0246944,0 0.0419805,-0.01729 0.0172861,-0.01976 0.0172861,-0.04445 v -0.775404 q 0,-0.02469 -0.0172861,-0.04198 -0.0172861,-0.01975 -0.0419805,-0.01975 H -0.403199 q -0.0246944,0 -0.0444499,0.01975 -0.0172861,0.01729 -0.0172861,0.04198 v 0.775404 q 0,0.02469 0.0172861,0.04445 0.0197555,0.01729 0.0444499,0.01729 z" style="stroke-width:0.521" id="path768"/><path d="m 1.2427805,34.411823 q -0.0889,0 -0.162983,-0.04445 -0.071614,-0.04445 -0.11606371,-0.116063 -0.0419805,-0.07161 -0.0419805,-0.160514 V 32.979548 H 1.1884528 v 1.10384 q 0,0.02469 0.017286,0.04445 0.019756,0.01729 0.04445,0.01729 h 0.8000986 q 0.024694,0 0.04198,-0.01729 0.019756,-0.01976 0.019756,-0.04445 v -1.10384 h 0.2666995 v 1.111248 q 0,0.0889 -0.04445,0.160514 -0.041981,0.07161 -0.1160637,0.116063 -0.071614,0.04445 -0.1605136,0.04445 H 1.2427805 Z" style="stroke-width:0.521" id="path770"/><path d="m 2.9129899,34.411823 q -0.0889,0 -0.162983,-0.04445 -0.071614,-0.04445 -0.1160637,-0.116063 -0.041981,-0.07161 -0.041981,-0.160514 v -1.563155 h 0.2666995 v 0.451907 H 3.446389 v 0.2667 H 2.8586622 v 0.83714 q 0,0.02469 0.017286,0.04445 0.019756,0.01729 0.04445,0.01729 H 3.446389 v 0.266699 H 2.9129899 Z" style="stroke-width:0.521" id="path772"/><path d="m 3.6439426,34.979794 v 0 -2.000246 H 4.779885 q 0.0889,0 0.1605136,0.04445 0.074083,0.04445 0.1160637,0.116064 0.04445,0.07161 0.04445,0.160513 v 0.790221 q 0,0.0889 -0.04445,0.160514 -0.04198,0.07161 -0.1160637,0.116063 -0.071614,0.04445 -0.1605136,0.04445 H 3.9106422 v 0.567971 z m 0.3284356,-0.83467 h 0.8000985 q 0.024694,0 0.04198,-0.01729 0.019756,-0.01976 0.019756,-0.04445 v -0.775404 q 0,-0.02469 -0.019756,-0.04198 -0.017286,-0.01975 -0.04198,-0.01975 H 3.9723782 q -0.024694,0 -0.04445,0.01975 -0.017286,0.01729 -0.017286,0.04198 v 0.775404 q 0,0.02469 0.017286,0.04445 0.019756,0.01729 0.04445,0.01729 z" style="stroke-width:0.521" id="path774"/><path d="m 5.602207,34.411823 q -0.0889,0 -0.162983,-0.04445 -0.071614,-0.04445 -0.1160637,-0.116063 -0.04198,-0.07161 -0.04198,-0.160514 v -1.111248 h 0.2666995 v 1.10384 q 0,0.02469 0.017286,0.04445 0.019756,0.01729 0.04445,0.01729 h 0.8000986 q 0.024694,0 0.041981,-0.01729 0.019755,-0.01976 0.019755,-0.04445 v -1.10384 h 0.2666995 v 1.111248 q 0,0.0889 -0.04445,0.160514 -0.041981,0.07161 -0.1160637,0.116063 -0.071614,0.04445 -0.1605136,0.04445 H 5.602207 Z" style="stroke-width:0.521" id="path776"/><path d="m 7.2724169,34.411823 q -0.0889,0 -0.162983,-0.04445 -0.071614,-0.04445 -0.1160637,-0.116063 -0.041981,-0.07161 -0.041981,-0.160514 v -1.563155 h 0.2666995 v 0.451907 h 0.5877267 v 0.2667 H 7.2180892 v 0.83714 q 0,0.02469 0.017286,0.04445 0.019755,0.01729 0.04445,0.01729 h 0.5259907 v 0.266699 h -0.533399 z" style="stroke-width:0.521" id="path778"/></g></g><g id="g712" inkscape:label="INOUTTEXT" transform="translate(-1.0583333)" style="display:inline"><text xml:space="preserve" style="font-style:normal;font-variant:normal;font-weight:500;font-stretch:normal;font-size:2.46944px;font-family:Orbitron;-inkscape-font-specification:'Orbitron Medium';fill:#000001;fill-opacity:1;stroke:none;stroke-width:0.520999;stroke-linecap:square;stroke-linejoin:bevel;stroke-dasharray:none;stroke-opacity:1;paint-order:stroke fill markers;stop-color:#000000" x="-14.956075" y="20.315441" id="text702" transform="rotate(-45)"><tspan sodipodi:role="line" id="tspan700" style="font-style:normal;font-variant:normal;font-weight:500;font-stretch:normal;font-size:2.46944px;font-family:Orbitron;-inkscape-font-specification:'Orbitron Medium';stroke-width:0.521" x="-14.956075" y="20.315441">input</tspan></text><text xml:space="preserve" style="font-style:normal;font-variant:normal;font-weight:500;font-stretch:normal;font-size:2.46944px;font-family:Orbitron;-inkscape-font-specification:'Orbitron Medium';fill:#000001;fill-opacity:1;stroke:none;stroke-width:0.520999;stroke-linecap:square;stroke-linejoin:bevel;stroke-dasharray:none;stroke-opacity:1;paint-order:stroke fill markers;stop-color:#000000" x="-9.0151548" y="26.520639" id="text706" transform="rotate(-45)"><tspan sodipodi:role="line" id="tspan704" style="font-style:normal;font-variant:normal;font-weight:500;font-stretch:normal;font-size:2.46944px;font-family:Orbitron;-inkscape-font-specification:'Orbitron Medium';stroke-width:0.521" x="-9.0151548" y="26.520639">quantize</tspan></text><text xml:space="preserve" style="font-style:normal;font-variant:normal;font-weight:500;font-stretch:normal;font-size:2.46944px;font-family:Orbitron;-inkscape-font-specification:'Orbitron Medium';fill:#000001;fill-opacity:1;stroke:none;stroke-width:0.520999;stroke-linecap:square;stroke-linejoin:bevel;stroke-dasharray:none;stroke-opacity:1;paint-order:stroke fill markers;stop-color:#000000" x="-0.85757595" y="34.411823" id="text710" transform="rotate(-45)"><tspan sodipodi:role="line" id="tspan708" style="font-style:normal;font-variant:normal;font-weight:500;font-stretch:normal;font-size:2.46944px;font-family:Orbitron;-inkscape-font-specification:'Orbitron Medium';stroke-width:0.521" x="-0.85757595" y="34.411823">output</tspan></text></g></g><g id="g2143" inkscape:label="Straight Lines" style="display:inline;fill:#e9afaf"><g id="g6004" inkscape:label="Flow Down Path" style="display:inline;fill:#000001;stroke:#000001;stroke-opacity:1;fill-opacity:1" transform="translate(-0.02753505,9.7498777)"><g id="g5990" transform="matrix(0,0.57492347,-0.57492347,0,55.484667,23.641112)" style="stroke:#000001;stroke-opacity:1;fill:#000001;fill-opacity:1"><path style="color:#000000;fill:#000001;stroke:#000001;stroke-linecap:round;stroke-linejoin:round;-inkscape-stroke:none;paint-order:stroke fill markers;stroke-opacity:1;fill-opacity:1" d="M 19.894531,69.744141 A 0.25549999,0.25549999 0 0 0 19.640625,70 0.25549999,0.25549999 0 0 0 19.894531,70.255859 0.25549999,0.25549999 0 0 0 20.150391,70 0.25549999,0.25549999 0 0 0 19.894531,69.744141 Z" id="path5980"/><g id="g5988" transform="translate(-0.24826805)" style="stroke:#000001;stroke-opacity:1;fill:#000001;fill-opacity:1"><g id="g5986" style="stroke:#000001;stroke-opacity:1;fill:#000001;fill-opacity:1"><path style="color:#000000;fill:#000001;fill-rule:evenodd;stroke:#000001;stroke-width:0.166033pt;-inkscape-stroke:none;stroke-opacity:1;fill-opacity:1" d="m 20.853167,69.999996 -1.436189,0.830167 v -1.660334 z" id="path5982"/><path style="color:#000000;fill:#000001;fill-rule:evenodd;stroke:#000001;-inkscape-stroke:none;stroke-opacity:1;fill-opacity:1" d="m 19.306641,68.978516 v 2.042968 L 21.074219,70 20.908203,69.904297 Z M 19.527344,69.361328 20.630859,70 19.527344,70.638672 Z" id="path5984"/></g></g></g><g id="g6002" transform="matrix(0,0.57492347,-0.57492347,0,55.484667,23.641112)" style="stroke:#000001;stroke-opacity:1;fill:#000001;fill-opacity:1"><path style="color:#000000;fill:#000001;stroke:#000001;stroke-linecap:round;stroke-linejoin:round;-inkscape-stroke:none;paint-order:stroke fill markers;stroke-opacity:1;fill-opacity:1" d="M 19.894531,69.744141 A 0.25549999,0.25549999 0 0 0 19.640625,70 0.25549999,0.25549999 0 0 0 19.894531,70.255859 0.25549999,0.25549999 0 0 0 20.150391,70 0.25549999,0.25549999 0 0 0 19.894531,69.744141 Z" id="path5992"/><g id="g6000" transform="translate(-0.24826805)" style="stroke:#000001;stroke-opacity:1;fill:#000001;fill-opacity:1"><g id="g5998" style="stroke:#000001;stroke-opacity:1;fill:#000001;fill-opacity:1"><path style="color:#000000;fill:#000001;fill-rule:evenodd;stroke:#000001;stroke-width:0.166033pt;-inkscape-stroke:none;stroke-opacity:1;fill-opacity:1" d="m 20.853167,69.999996 -1.436189,0.830167 v -1.660334 z" id="path5994"/><path style="color:#000000;fill:#000001;fill-rule:evenodd;stroke:#000001;-inkscape-stroke:none;stroke-opacity:1;fill-opacity:1" d="m 19.306641,68.978516 v 2.042968 L 21.074219,70 20.908203,69.904297 Z M 19.527344,69.361328 20.630859,70 19.527344,70.638672 Z" id="path5996"/></g></g></g><g id="g6046" transform="matrix(0,0.57492347,-0.57492347,0,55.484667,33.641113)" style="stroke:#000001;stroke-opacity:1;fill:#000001;fill-opacity:1"><path style="color:#000000;fill:#000001;stroke:#000001;stroke-linecap:round;stroke-linejoin:round;-inkscape-stroke:none;paint-order:stroke fill markers;stroke-opacity:1;fill-opacity:1" d="M 19.894531,69.744141 A 0.25549999,0.25549999 0 0 0 19.640625,70 0.25549999,0.25549999 0 0 0 19.894531,70.255859 0.25549999,0.25549999 0 0 0 20.150391,70 0.25549999,0.25549999 0 0 0 19.894531,69.744141 Z" id="path6036"/><g id="g6044" transform="translate(-0.24826805)" style="stroke:#000001;stroke-opacity:1;fill:#000001;fill-opacity:1"><g id="g6042" style="stroke:#000001;stroke-opacity:1;fill:#000001;fill-opacity:1"><path style="color:#000000;fill:#000001;fill-rule:evenodd;stroke:#000001;stroke-width:0.166033pt;-inkscape-stroke:none;stroke-opacity:1;fill-opacity:1" d="m 20.853167,69.999996 -1.436189,0.830167 v -1.660334 z" id="path6038"/><path style="color:#000000;fill:#000001;fill-rule:evenodd;stroke:#000001;-inkscape-stroke:none;stroke-opacity:1;fill-opacity:1" d="m 19.306641,68.978516 v 2.042968 L 21.074219,70 20.908203,69.904297 Z M 19.527344,69.361328 20.630859,70 19.527344,70.638672 Z" id="path6040"/></g></g></g><g id="g6076" transform="matrix(0,0.57492347,-0.57492347,0,55.484667,43.641108)" style="stroke:#000001;stroke-opacity:1;fill:#000001;fill-opacity:1"><path style="color:#000000;fill:#000001;stroke:#000001;stroke-linecap:round;stroke-linejoin:round;-inkscape-stroke:none;paint-order:stroke fill markers;stroke-opacity:1;fill-opacity:1" d="M 19.894531,69.744141 A 0.25549999,0.25549999 0 0 0 19.640625,70 0.25549999,0.25549999 0 0 0 19.894531,70.255859 0.25549999,0.25549999 0 0 0 20.150391,70 0.25549999,0.25549999 0 0 0 19.894531,69.744141 Z" id="path6066"/><g id="g6074" transform="translate(-0.24826805)" style="stroke:#000001;stroke-opacity:1;fill:#000001;fill-opacity:1"><g id="g6072" style="stroke:#000001;stroke-opacity:1;fill:#000001;fill-opacity:1"><path style="color:#000000;fill:#000001;fill-rule:evenodd;stroke:#000001;stroke-width:0.166033pt;-inkscape-stroke:none;stroke-opacity:1;fill-opacity:1" d="m 20.853167,69.999996 -1.436189,0.830167 v -1.660334 z" id="path6068"/><path style="color:#000000;fill:#000001;fill-rule:evenodd;stroke:#000001;-inkscape-stroke:none;stroke-opacity:1;fill-opacity:1" d="m 19.306641,68.978516 v 2.042968 L 21.074219,70 20.908203,69.904297 Z M 19.527344,69.361328 20.630859,70 19.527344,70.638672 Z" id="path6070"/></g></g></g><g id="g6106" transform="matrix(0,0.57492347,-0.57492347,0,55.484667,53.641115)" style="stroke:#000001;stroke-opacity:1;fill:#000001;fill-opacity:1"><path style="color:#000000;fill:#000001;stroke:#000001;stroke-linecap:round;stroke-linejoin:round;-inkscape-stroke:none;paint-order:stroke fill markers;stroke-opacity:1;fill-opacity:1" d="M 19.894531,69.744141 A 0.25549999,0.25549999 0 0 0 19.640625,70 0.25549999,0.25549999 0 0 0 19.894531,70.255859 0.25549999,0.25549999 0 0 0 20.150391,70 0.25549999,0.25549999 0 0 0 19.894531,69.744141 Z" id="path6096"/><g id="g6104" transform="translate(-0.24826805)" style="stroke:#000001;stroke-opacity:1;fill:#000001;fill-opacity:1"><g id="g6102" style="stroke:#000001;stroke-opacity:1;fill:#000001;fill-opacity:1"><path style="color:#000000;fill:#000001;fill-rule:evenodd;stroke:#000001;stroke-width:0.166033pt;-inkscape-stroke:none;stroke-opacity:1;fill-opacity:1" d="m 20.853167,69.999996 -1.436189,0.830167 v -1.660334 z" id="path6098"/><path style="color:#000000;fill:#000001;fill-rule:evenodd;stroke:#000001;-inkscape-stroke:none;stroke-opacity:1;fill-opacity:1" d="m 19.306641,68.978516 v 2.042968 L 21.074219,70 20.908203,69.904297 Z M 19.527344,69.361328 20.630859,70 19.527344,70.638672 Z" id="path6100"/></g></g></g><g id="g5950" transform="matrix(0,0.57492347,-0.57492347,0,55.512203,13.891234)" style="display:inline;fill:#000001;stroke:#000001;stroke-opacity:1;fill-opacity:1"><path style="color:#000000;fill:#000001;stroke:#000001;stroke-linecap:round;stroke-linejoin:round;-inkscape-stroke:none;paint-order:stroke fill markers;stroke-opacity:1;fill-opacity:1" d="M 19.894531,69.744141 A 0.25549999,0.25549999 0 0 0 19.640625,70 0.25549999,0.25549999 0 0 0 19.894531,70.255859 0.25549999,0.25549999 0 0 0 20.150391,70 0.25549999,0.25549999 0 0 0 19.894531,69.744141 Z" id="path5940"/><g id="g5948" transform="translate(-0.24826805)" style="stroke:#000001;stroke-opacity:1;fill:#000001;fill-opacity:1"><g id="g5946" style="stroke:#000001;stroke-opacity:1;fill:#000001;fill-opacity:1"><path style="color:#000000;fill:#000001;fill-rule:evenodd;stroke:#000001;stroke-width:0.166033pt;-inkscape-stroke:none;stroke-opacity:1;fill-opacity:1" d="m 20.853167,69.999996 -1.436189,0.830167 v -1.660334 z" id="path5942"/><path style="color:#000000;fill:#000001;fill-rule:evenodd;stroke:#000001;-inkscape-stroke:none;stroke-opacity:1;fill-opacity:1" d="m 19.306641,68.978516 v 2.042968 L 21.074219,70 20.908203,69.904297 Z M 19.527344,69.361328 20.630859,70 19.527344,70.638672 Z" id="path5944"/></g></g></g></g><g inkscape:groupmode="layer" id="g4859" inkscape:label="Flow LTR Path" style="fill:#777777;fill-opacity:1"><g id="path4839" style="fill:#777777;fill-opacity:1"><path style="color:#000000;fill:#777777;stroke-linecap:round;stroke-linejoin:round;-inkscape-stroke:none;paint-order:stroke fill markers;fill-opacity:1" d="M 9.9941406,29.744141 A 0.25549999,0.25549999 0 0 0 9.7382813,30 0.25549999,0.25549999 0 0 0 9.9941406,30.255859 0.25549999,0.25549999 0 0 0 10.25,30 0.25549999,0.25549999 0 0 0 9.9941406,29.744141 Z" id="path4873"/><g id="g4863" style="fill:#777777;fill-opacity:1"><g id="path4865" style="fill:#777777;fill-opacity:1"><path style="color:#000000;fill:#777777;fill-rule:evenodd;stroke-width:0.166033pt;-inkscape-stroke:none;fill-opacity:1" d="M 10.95253,30 9.5163406,30.830167 V 29.169833 Z" id="path4869"/><path style="color:#000000;fill:#777777;fill-rule:evenodd;-inkscape-stroke:none;fill-opacity:1" d="m 9.40625,28.978516 v 2.042968 L 11.173828,30 11.007813,29.904297 Z M 9.6269531,29.361328 10.730469,30 9.6269531,30.638672 Z" id="path4871"/></g></g></g><g id="path4841" style="fill:#777777;fill-opacity:1"><path style="color:#000000;fill:#777777;stroke-linecap:round;stroke-linejoin:round;-inkscape-stroke:none;paint-order:stroke fill markers;fill-opacity:1" d="M 19.894531,29.744141 A 0.25549999,0.25549999 0 0 0 19.640625,30 0.25549999,0.25549999 0 0 0 19.894531,30.255859 0.25549999,0.25549999 0 0 0 20.150391,30 0.25549999,0.25549999 0 0 0 19.894531,29.744141 Z" id="path4887"/><g id="g4877" style="fill:#777777;fill-opacity:1"><g id="path4879" style="fill:#777777;fill-opacity:1"><path style="color:#000000;fill:#777777;fill-rule:evenodd;stroke-width:0.166033pt;-inkscape-stroke:none;fill-opacity:1" d="m 20.853167,30 -1.436189,0.830167 v -1.660334 z" id="path4883"/><path style="color:#000000;fill:#777777;fill-rule:evenodd;-inkscape-stroke:none;fill-opacity:1" d="m 19.306641,28.978516 v 2.042968 L 21.074219,30 20.908203,29.904297 Z M 19.527344,29.361328 20.630859,30 19.527344,30.638672 Z" id="path4885"/></g></g></g><g id="path4843" style="fill:#777777;fill-opacity:1"><path style="color:#000000;fill:#777777;stroke-linecap:round;stroke-linejoin:round;-inkscape-stroke:none;paint-order:stroke fill markers;fill-opacity:1" d="M 9.9941406,39.744141 A 0.25549999,0.25549999 0 0 0 9.7382813,40 0.25549999,0.25549999 0 0 0 9.9941406,40.255859 0.25549999,0.25549999 0 0 0 10.25,40 0.25549999,0.25549999 0 0 0 9.9941406,39.744141 Z" id="path4901"/><g id="g4891" style="fill:#777777;fill-opacity:1"><g id="path4893" style="fill:#777777;fill-opacity:1"><path style="color:#000000;fill:#777777;fill-rule:evenodd;stroke-width:0.166033pt;-inkscape-stroke:none;fill-opacity:1" d="M 10.95253,39.999999 9.5163406,40.830166 V 39.169832 Z" id="path4897"/><path style="color:#000000;fill:#777777;fill-rule:evenodd;-inkscape-stroke:none;fill-opacity:1" d="m 9.40625,38.978516 v 2.042968 L 11.173828,40 11.007813,39.904297 Z M 9.6269531,39.361328 10.730469,40 9.6269531,40.638672 Z" id="path4899"/></g></g></g><g id="path4845" style="fill:#777777;fill-opacity:1"><path style="color:#000000;fill:#777777;stroke-linecap:round;stroke-linejoin:round;-inkscape-stroke:none;paint-order:stroke fill markers;fill-opacity:1" d="M 19.894531,39.744141 A 0.25549999,0.25549999 0 0 0 19.640625,40 0.25549999,0.25549999 0 0 0 19.894531,40.255859 0.25549999,0.25549999 0 0 0 20.150391,40 0.25549999,0.25549999 0 0 0 19.894531,39.744141 Z" id="path4915"/><g id="g4905" style="fill:#777777;fill-opacity:1"><g id="path4907" style="fill:#777777;fill-opacity:1"><path style="color:#000000;fill:#777777;fill-rule:evenodd;stroke-width:0.166033pt;-inkscape-stroke:none;fill-opacity:1" d="m 20.853167,39.999999 -1.436189,0.830167 v -1.660334 z" id="path4911"/><path style="color:#000000;fill:#777777;fill-rule:evenodd;-inkscape-stroke:none;fill-opacity:1" d="m 19.306641,38.978516 v 2.042968 L 21.074219,40 20.908203,39.904297 Z M 19.527344,39.361328 20.630859,40 19.527344,40.638672 Z" id="path4913"/></g></g></g><g id="path4847" style="fill:#777777;fill-opacity:1"><path style="color:#000000;fill:#777777;stroke-linecap:round;stroke-linejoin:round;-inkscape-stroke:none;paint-order:stroke fill markers;fill-opacity:1" d="M 9.9941406,49.744141 A 0.25549999,0.25549999 0 0 0 9.7382813,50 0.25549999,0.25549999 0 0 0 9.9941406,50.255859 0.25549999,0.25549999 0 0 0 10.25,50 0.25549999,0.25549999 0 0 0 9.9941406,49.744141 Z" id="path4929"/><g id="g4919" style="fill:#777777;fill-opacity:1"><g id="path4921" style="fill:#777777;fill-opacity:1"><path style="color:#000000;fill:#777777;fill-rule:evenodd;stroke-width:0.166033pt;-inkscape-stroke:none;fill-opacity:1" d="M 10.95253,49.999998 9.5163406,50.830165 V 49.169831 Z" id="path4925"/><path style="color:#000000;fill:#777777;fill-rule:evenodd;-inkscape-stroke:none;fill-opacity:1" d="m 9.40625,48.978516 v 2.042968 L 11.173828,50 11.007813,49.904297 Z M 9.6269531,49.361328 10.730469,50 9.6269531,50.638672 Z" id="path4927"/></g></g></g><g id="path4849" style="fill:#777777;fill-opacity:1"><path style="color:#000000;fill:#777777;stroke-linecap:round;stroke-linejoin:round;-inkscape-stroke:none;paint-order:stroke fill markers;fill-opacity:1" d="M 19.894531,49.744141 A 0.25549999,0.25549999 0 0 0 19.640625,50 0.25549999,0.25549999 0 0 0 19.894531,50.255859 0.25549999,0.25549999 0 0 0 20.150391,50 0.25549999,0.25549999 0 0 0 19.894531,49.744141 Z" id="path4943"/><g id="g4933" style="fill:#777777;fill-opacity:1"><g id="path4935" style="fill:#777777;fill-opacity:1"><path style="color:#000000;fill:#777777;fill-rule:evenodd;stroke-width:0.166033pt;-inkscape-stroke:none;fill-opacity:1" d="m 20.853167,49.999998 -1.436189,0.830167 v -1.660334 z" id="path4939"/><path style="color:#000000;fill:#777777;fill-rule:evenodd;-inkscape-stroke:none;fill-opacity:1" d="m 19.306641,48.978516 v 2.042968 L 21.074219,50 20.908203,49.904297 Z M 19.527344,49.361328 20.630859,50 19.527344,50.638672 Z" id="path4941"/></g></g></g><g id="path4851" style="fill:#777777;fill-opacity:1"><path style="color:#000000;fill:#777777;stroke-linecap:round;stroke-linejoin:round;-inkscape-stroke:none;paint-order:stroke fill markers;fill-opacity:1" d="M 9.9941406,59.744141 A 0.25549999,0.25549999 0 0 0 9.7382813,60 0.25549999,0.25549999 0 0 0 9.9941406,60.255859 0.25549999,0.25549999 0 0 0 10.25,60 0.25549999,0.25549999 0 0 0 9.9941406,59.744141 Z" id="path4957"/><g id="g4947" style="fill:#777777;fill-opacity:1"><g id="path4949" style="fill:#777777;fill-opacity:1"><path style="color:#000000;fill:#777777;fill-rule:evenodd;stroke-width:0.166033pt;-inkscape-stroke:none;fill-opacity:1" d="M 10.95253,59.999997 9.5163406,60.830164 V 59.16983 Z" id="path4953"/><path style="color:#000000;fill:#777777;fill-rule:evenodd;-inkscape-stroke:none;fill-opacity:1" d="m 9.40625,58.978516 v 2.042968 L 11.173828,60 11.007813,59.904297 Z M 9.6269531,59.361328 10.730469,60 9.6269531,60.638672 Z" id="path4955"/></g></g></g><g id="path4853" style="fill:#777777;fill-opacity:1"><path style="color:#000000;fill:#777777;stroke-linecap:round;stroke-linejoin:round;-inkscape-stroke:none;paint-order:stroke fill markers;fill-opacity:1" d="M 19.894531,59.744141 A 0.25549999,0.25549999 0 0 0 19.640625,60 0.25549999,0.25549999 0 0 0 19.894531,60.255859 0.25549999,0.25549999 0 0 0 20.150391,60 0.25549999,0.25549999 0 0 0 19.894531,59.744141 Z" id="path4971"/><g id="g4961" style="fill:#777777;fill-opacity:1"><g id="path4963" style="fill:#777777;fill-opacity:1"><path style="color:#000000;fill:#777777;fill-rule:evenodd;stroke-width:0.166033pt;-inkscape-stroke:none;fill-opacity:1" d="m 20.853167,59.999997 -1.436189,0.830167 V 59.16983 Z" id="path4967"/><path style="color:#000000;fill:#777777;fill-rule:evenodd;-inkscape-stroke:none;fill-opacity:1" d="m 19.306641,58.978516 v 2.042968 L 21.074219,60 20.908203,59.904297 Z M 19.527344,59.361328 20.630859,60 19.527344,60.638672 Z" id="path4969"/></g></g></g><g id="path4855" style="fill:#777777;fill-opacity:1"><path style="color:#000000;fill:#777777;stroke-linecap:round;stroke-linejoin:round;-inkscape-stroke:none;paint-order:stroke fill markers;fill-opacity:1" d="M 9.9941406,69.744141 A 0.25549999,0.25549999 0 0 0 9.7382813,70 0.25549999,0.25549999 0 0 0 9.9941406,70.255859 0.25549999,0.25549999 0 0 0 10.25,70 0.25549999,0.25549999 0 0 0 9.9941406,69.744141 Z" id="path4985"/><g id="g4975" style="fill:#777777;fill-opacity:1"><g id="path4977" style="fill:#777777;fill-opacity:1"><path style="color:#000000;fill:#777777;fill-rule:evenodd;stroke-width:0.166033pt;-inkscape-stroke:none;fill-opacity:1" d="M 10.95253,69.999996 9.5163406,70.830163 V 69.169829 Z" id="path4981"/><path style="color:#000000;fill:#777777;fill-rule:evenodd;-inkscape-stroke:none;fill-opacity:1" d="m 9.40625,68.978516 v 2.042968 L 11.173828,70 11.007813,69.904297 Z M 9.6269531,69.361328 10.730469,70 9.6269531,70.638672 Z" id="path4983"/></g></g></g><g id="g10094" transform="translate(-0.29589835,9.999998)" style="fill:#777777;fill-opacity:1"><path style="color:#000000;fill:#777777;stroke-linecap:round;stroke-linejoin:round;-inkscape-stroke:none;paint-order:stroke fill markers;fill-opacity:1" d="M 9.9941406,69.744141 A 0.25549999,0.25549999 0 0 0 9.7382813,70 0.25549999,0.25549999 0 0 0 9.9941406,70.255859 0.25549999,0.25549999 0 0 0 10.25,70 0.25549999,0.25549999 0 0 0 9.9941406,69.744141 Z" id="path10084"/><g id="g10092" style="fill:#777777;fill-opacity:1"><g id="g10090" style="fill:#777777;fill-opacity:1"><path style="color:#000000;fill:#777777;fill-rule:evenodd;stroke-width:0.166033pt;-inkscape-stroke:none;fill-opacity:1" d="M 10.95253,69.999996 9.5163406,70.830163 V 69.169829 Z" id="path10086"/><path style="color:#000000;fill:#777777;fill-rule:evenodd;-inkscape-stroke:none;fill-opacity:1" d="m 9.40625,68.978516 v 2.042968 L 11.173828,70 11.007813,69.904297 Z M 9.6269531,69.361328 10.730469,70 9.6269531,70.638672 Z" id="path10088"/></g></g></g><g id="g10858" transform="translate(-4.69e-4,19.999999)" style="fill:#777777;fill-opacity:1"><path style="color:#000000;fill:#777777;stroke-linecap:round;stroke-linejoin:round;-inkscape-stroke:none;paint-order:stroke fill markers;fill-opacity:1" d="M 19.894531,49.744141 A 0.25549999,0.25549999 0 0 0 19.640625,50 0.25549999,0.25549999 0 0 0 19.894531,50.255859 0.25549999,0.25549999 0 0 0 20.150391,50 0.25549999,0.25549999 0 0 0 19.894531,49.744141 Z" id="path10848"/><g id="g10856" style="fill:#777777;fill-opacity:1"><g id="g10854" style="fill:#777777;fill-opacity:1"><path style="color:#000000;fill:#777777;fill-rule:evenodd;stroke-width:0.166033pt;-inkscape-stroke:none;fill-opacity:1" d="m 20.853167,49.999998 -1.436189,0.830167 v -1.660334 z" id="path10850"/><path style="color:#000000;fill:#777777;fill-rule:evenodd;-inkscape-stroke:none;fill-opacity:1" d="m 19.306641,48.978516 v 2.042968 L 21.074219,50 20.908203,49.904297 Z M 19.527344,49.361328 20.630859,50 19.527344,50.638672 Z" id="path10852"/></g></g></g><g id="g10870" transform="translate(-0.04050775,19.999998)" style="fill:#777777;fill-opacity:1"><path style="color:#000000;fill:#777777;stroke-linecap:round;stroke-linejoin:round;-inkscape-stroke:none;paint-order:stroke fill markers;fill-opacity:1" d="M 19.894531,59.744141 A 0.25549999,0.25549999 0 0 0 19.640625,60 0.25549999,0.25549999 0 0 0 19.894531,60.255859 0.25549999,0.25549999 0 0 0 20.150391,60 0.25549999,0.25549999 0 0 0 19.894531,59.744141 Z" id="path10860"/><g id="g10868" style="fill:#777777;fill-opacity:1"><g id="g10866" style="fill:#777777;fill-opacity:1"><path style="color:#000000;fill:#777777;fill-rule:evenodd;stroke-width:0.166033pt;-inkscape-stroke:none;fill-opacity:1" d="m 20.853167,59.999997 -1.436189,0.830167 V 59.16983 Z" id="path10862"/><path style="color:#000000;fill:#777777;fill-rule:evenodd;-inkscape-stroke:none;fill-opacity:1" d="m 19.306641,58.978516 v 2.042968 L 21.074219,60 20.908203,59.904297 Z M 19.527344,59.361328 20.630859,60 19.527344,60.638672 Z" id="path10864"/></g></g></g></g><path style="fill:none;fill-opacity:1;stroke:#777777;stroke-width:0.520999;stroke-linecap:square;stroke-linejoin:bevel;stroke-dasharray:none;stroke-opacity:1;paint-order:stroke fill markers;stop-color:#000000" d="m 5.0799999,39.999999 c 6.8617911,0 13.5469311,0 20.3200001,0" id="path27149" inkscape:path-effect="#path-effect27151" inkscape:original-d="m 5.0799999,39.999999 c 6.8617911,0.160681 13.5469311,2.64e-4 20.3200001,0"/><path style="display:inline;fill:none;fill-opacity:1;stroke:#777777;stroke-width:0.520999;stroke-linecap:square;stroke-linejoin:bevel;stroke-dasharray:none;stroke-opacity:1;paint-order:stroke fill markers;stop-color:#000000" d="M 5.0799999,50 C 11.853598,50 18.626931,50 25.4,50" id="path27159" inkscape:path-effect="#path-effect27161" inkscape:original-d="M 5.0799999,50 C 11.853598,50.000264 18.626931,50.000264 25.4,50"/><path style="fill:none;fill-opacity:1;stroke:#777777;stroke-width:0.520999;stroke-linecap:square;stroke-linejoin:bevel;stroke-dasharray:none;stroke-opacity:1;paint-order:stroke fill markers;stop-color:#000000" d="m 5.0799999,59.999998 c 6.7735981,0 13.5469311,0 20.3200001,0" id="path27169" inkscape:path-effect="#path-effect27171" inkscape:original-d="m 5.0799999,59.999998 c 6.7735981,2.65e-4 13.5469311,2.65e-4 20.3200001,0"/><path style="fill:none;fill-opacity:1;stroke:#777777;stroke-width:0.520999;stroke-linecap:square;stroke-linejoin:bevel;stroke-dasharray:none;stroke-opacity:1;paint-order:stroke fill markers;stop-color:#000000" d="m 5.0799999,69.999999 c 6.7735981,0 13.5469311,0 20.3200001,0" id="path27179" inkscape:path-effect="#path-effect27181" inkscape:original-d="m 5.0799999,69.999999 c 6.7735981,2.65e-4 13.5469311,2.65e-4 20.3200001,0"/><path style="display:inline;fill:none;fill-opacity:1;stroke:#000001;stroke-width:0.601598;stroke-linecap:butt;stroke-linejoin:bevel;stroke-dasharray:none;stroke-opacity:1;paint-order:stroke fill markers;stop-color:#000000" d="m 15.24,30 c 0,16.666886 0,33.333552 0,49.999998" id="path28277" inkscape:path-effect="#path-effect28279" inkscape:original-d="m 15.24,30 c 0,16.666886 0,33.333552 0,49.999998" sodipodi:nodetypes="cc"/><path style="fill:none;fill-opacity:1;stroke:#777777;stroke-width:0.520999;stroke-linecap:square;stroke-linejoin:bevel;stroke-dasharray:none;stroke-opacity:1;paint-order:stroke fill markers;stop-color:#000000" d="M 5.0800003,30 C 11.853598,30 18.626931,30 25.4,30" id="path27139" inkscape:path-effect="#path-effect27141" inkscape:original-d="M 5.0800003,30 C 11.853598,30.000265 18.626931,30.000265 25.4,30"/><path style="fill:none;fill-opacity:1;stroke:#777777;stroke-width:0.520999;stroke-linecap:square;stroke-linejoin:bevel;stroke-dasharray:none;stroke-opacity:1;paint-order:stroke fill markers;stop-color:#000000" d="m 5.0799999,79.999998 c 6.7735981,0 13.5469311,0 20.3200001,0" id="path28293" inkscape:path-effect="#path-effect28295" inkscape:original-d="m 5.0799999,79.999998 c 6.7735981,2.64e-4 13.5469311,2.64e-4 20.3200001,0"/></g><g id="g2323" inkscape:label="Title" style="display:inline;fill:#e9afaf" transform="translate(-0.48656268)"><g id="g2165" inkscape:label="COERCE6PATH" transform="translate(0.52916667)"><g aria-label="COERCE" id="text1529" style="font-weight:900;font-size:4.58611px;font-family:Orbitron;-inkscape-font-specification:'Orbitron Heavy';fill:#000002;stroke:#c3c3c4;stroke-width:0.921;stroke-linecap:round;stroke-linejoin:bevel;paint-order:stroke markers fill" inkscape:label="CoerceTXT"><g id="path2177"><path style="color:#000000;-inkscape-font-specification:'Orbitron Heavy';fill:#c3c3c4;stroke:none;stroke-linecap:butt;stroke-linejoin:miter;-inkscape-stroke:none" d="m 3.7089844,2.59375 c -0.2002314,0 -0.4044487,0.052135 -0.578125,0.1542969 l -0.00391,0.00391 C 2.964391,2.8504754 2.8256074,2.9914855 2.7285156,3.1542969 c -3.299e-4,5.443e-4 3.289e-4,0.00141 0,0.00195 C 2.6242069,3.3290892 2.5703125,3.5328198 2.5703125,3.7324219 v 1.9453125 c 0,0.2002315 0.052134,0.4024955 0.1542969,0.5761718 l 0.00391,0.00586 c 0.097962,0.1616377 0.2368,0.3004752 0.3984375,0.3984375 l 0.00391,0.00195 c 0.1736763,0.1021624 0.3778936,0.1562501 0.578125,0.15625 H 6.3222656 L 6.7832031,6.3554687 V 5.640625 L 6.3222656,5.1796875 H 4.2011719 V 4.2304687 H 6.3222656 L 6.7832031,3.7695313 V 3.0546875 L 6.3222656,2.59375 Z" id="path2192"/><path style="color:#000000;-inkscape-font-specification:'Orbitron Heavy';stroke:none;stroke-linecap:butt;stroke-linejoin:miter;-inkscape-stroke:none" d="m 3.7086549,6.355906 q -0.1880305,0 -0.3439582,-0.091722 Q 3.213355,6.1724616 3.1216328,6.02112 3.0299106,5.8651922 3.0299106,5.6771617 V 3.732651 q 0,-0.1880305 0.091722,-0.3393721 0.091722,-0.1559278 0.2430639,-0.24765 0.1559277,-0.091722 0.3439582,-0.091722 h 2.614083 v 0.715433 H 3.8920993 q -0.073378,0 -0.1146527,0.036689 -0.036689,0.036689 -0.036689,0.1146527 v 1.5684497 q 0,0.073378 0.036689,0.1146528 0.041275,0.036689 0.1146527,0.036689 H 6.3227377 V 6.355906 Z" id="path2194"/></g><g id="path2179"><path style="color:#000000;-inkscape-font-specification:'Orbitron Heavy';fill:#c3c3c4;stroke:none;stroke-linecap:butt;stroke-linejoin:miter;-inkscape-stroke:none" d="m 7.46875,2.59375 c -0.1990459,0 -0.4002899,0.053135 -0.5722656,0.1542969 -0.1662415,0.097789 -0.309365,0.2405813 -0.4082032,0.40625 -3.298e-4,5.443e-4 3.289e-4,0.00141 0,0.00195 C 6.3839725,3.3290892 6.3300781,3.5328198 6.3300781,3.7324219 v 1.9453125 c 0,0.199046 0.053135,0.4002898 0.1542969,0.5722656 0.098961,0.1682344 0.2438751,0.3111947 0.4121094,0.4101562 0.1719757,0.101162 0.3732197,0.15625 0.5722656,0.15625 h 1.9453125 c 0.198415,0 0.3992332,-0.054952 0.5703125,-0.1582031 h 0.00195 c 0.1658869,-0.098416 0.3060909,-0.2402477 0.4042969,-0.40625 0.104564,-0.1715459 0.162109,-0.373411 0.162109,-0.5742187 V 3.7324219 c 0,-0.2012827 -0.05827,-0.4057411 -0.166015,-0.578125 C 10.288862,2.9907397 10.150113,2.8493956 9.9863281,2.7519531 9.8149045,2.6480603 9.6131084,2.59375 9.4140625,2.59375 Z M 7.9609375,4.2304687 H 8.9121094 V 5.1796875 H 7.9609375 Z" id="path2198"/><path style="color:#000000;-inkscape-font-specification:'Orbitron Heavy';stroke:none;stroke-linecap:butt;stroke-linejoin:miter;-inkscape-stroke:none" d="m 7.4692676,6.355906 q -0.1834444,0 -0.3393721,-0.091722 Q 6.9739677,6.1724616 6.8822455,6.0165339 6.7905233,5.8606061 6.7905233,5.6771617 V 3.732651 q 0,-0.1880305 0.091722,-0.3393721 0.091722,-0.1559278 0.24765,-0.24765 0.1559277,-0.091722 0.3393721,-0.091722 h 1.9445107 q 0.1834444,0 0.3347861,0.091722 0.1559277,0.091722 0.2476499,0.24765 0.096309,0.1513416 0.096309,0.3393721 v 1.9445107 q 0,0.1834444 -0.096309,0.3393722 Q 9.9044921,6.1724616 9.7485644,6.2641838 9.5972227,6.355906 9.4137783,6.355906 Z m 0.032103,-0.7154332 h 1.8711329 q 0,0 0,0 0,0 0,0 V 3.7693399 q 0,0 0,0 0,0 0,0 H 7.5013704 q 0,0 0,0 0,0 0,0 v 1.8711329 q 0,0 0,0 0,0 2e-7,0 z" id="path2200"/></g><g id="path2181"><path style="color:#000000;-inkscape-font-specification:'Orbitron Heavy';fill:#c3c3c4;stroke:none;stroke-linecap:butt;stroke-linejoin:miter;-inkscape-stroke:none" d="m 10.605469,2.59375 -0.458985,0.4609375 v 3.3007812 l 0.458985,0.4609375 H 13.65625 L 14.117188,6.3554687 V 5.640625 L 13.65625,5.1796875 H 13.544922 L 13.662109,5.0625 V 4.3476562 L 13.544922,4.2304687 H 13.65625 L 14.117188,3.7695313 V 3.0546875 L 13.65625,2.59375 Z m 0.460937,0.9199219 h 0.05469 l -0.05469,0.054687 z m 0,1.0351562 0.15625,0.15625 -0.15625,0.15625 z m 0,1.2929688 0.05274,0.052734 h -0.05274 z" id="path2204"/><path style="color:#000000;-inkscape-font-specification:'Orbitron Heavy';stroke:none;stroke-linecap:butt;stroke-linejoin:miter;-inkscape-stroke:none" d="M 10.606163,6.355906 V 3.0539067 h 3.049763 v 0.7154332 h -2.329744 v 0.5778499 h 1.875719 V 5.062623 h -1.875719 v 0.5778498 h 2.329744 V 6.355906 Z" id="path2206"/></g><g id="path2183"><path style="color:#000000;-inkscape-font-specification:'Orbitron Heavy';fill:#c3c3c4;stroke:none;stroke-linecap:butt;stroke-linejoin:miter;-inkscape-stroke:none" d="m 14.109375,2.5976563 -0.458984,0.4609375 v 3.2968749 l 0.458984,0.4609375 h 0.710938 L 15.28125,6.3554687 V 5.7324219 h 0.267578 l 0.771484,0.9199218 0.353516,0.1640625 h 0.734375 L 17.867187,6.3554687 V 6.1132812 L 17.757812,5.8144531 17.439453,5.4375 c 0.09738,-0.082492 0.202341,-0.1585386 0.267578,-0.2675781 0.106006,-0.1723136 0.166016,-0.3778228 0.166016,-0.5800782 V 3.7363281 c 0,-0.2022536 -0.06001,-0.4058123 -0.166016,-0.578125 C 17.608222,2.9930538 17.466619,2.8514573 17.300781,2.7539063 17.12874,2.6510737 16.926687,2.5976562 16.728516,2.5976563 Z m 0.460938,0.921875 h 0.03906 l -0.03906,0.039063 z m 0,1.2441406 L 14.71875,4.9140625 14.570313,5.0625 Z" id="path2210"/><path style="color:#000000;-inkscape-font-specification:'Orbitron Heavy';stroke:none;stroke-linecap:butt;stroke-linejoin:miter;-inkscape-stroke:none" d="M 16.67359,6.355906 15.715093,5.2139646 h 0.93098 l 0.761295,0.8988776 V 6.355906 Z m -2.563636,0 V 3.0584928 h 2.618669 q 0.188031,0 0.339372,0.091722 0.155928,0.091722 0.24765,0.24765 0.09631,0.1559277 0.09631,0.3393721 v 0.8530165 q 0,0.1834444 -0.09631,0.3393722 -0.09172,0.1559277 -0.24765,0.2476499 -0.151341,0.091722 -0.339372,0.091722 l -1.907822,0.00459 v 1.082322 z m 0.710847,-1.8023413 h 1.871133 q 0,0 0,0 0,0 0,0 V 3.7693399 q 0,0 0,0 0,0 0,0 h -1.871133 q 0,0 0,0 0,0 0,0 v 0.7842248 q 0,0 0,0 0,0 0,0 z" id="path2212"/></g><g id="path2185"><path style="color:#000000;-inkscape-font-specification:'Orbitron Heavy';fill:#c3c3c4;stroke:none;stroke-linecap:butt;stroke-linejoin:miter;-inkscape-stroke:none" d="m 18.572266,2.59375 c -0.200232,0 -0.404449,0.052135 -0.578125,0.1542969 l -0.0039,0.00391 c -0.162564,0.098523 -0.301346,0.2395294 -0.398437,0.4023438 -3.3e-4,5.443e-4 3.29e-4,0.00141 0,0.00195 -0.104306,0.1728389 -0.158203,0.3765715 -0.158203,0.5761719 v 1.9453125 c 0,0.2002313 0.05213,0.4024955 0.154297,0.5761718 l 0.0039,0.00586 c 0.09796,0.1616381 0.236799,0.3004752 0.398437,0.3984375 l 0.0039,0.00195 c 0.173676,0.1021621 0.377893,0.1562501 0.578125,0.15625 h 2.613281 L 21.646484,6.3554687 V 5.640625 L 21.185547,5.1796875 H 19.064453 V 4.2304687 h 2.121094 L 21.646484,3.7695313 V 3.0546875 L 21.185547,2.59375 Z" id="path2217"/><path style="color:#000000;-inkscape-font-specification:'Orbitron Heavy';stroke:none;stroke-linecap:butt;stroke-linejoin:miter;-inkscape-stroke:none" d="m 18.572243,6.355906 q -0.18803,0 -0.343958,-0.091722 Q 18.076943,6.1724616 17.985221,6.02112 17.893499,5.8651922 17.893499,5.6771617 V 3.732651 q 0,-0.1880305 0.09172,-0.3393721 0.09172,-0.1559278 0.243064,-0.24765 0.155928,-0.091722 0.343958,-0.091722 h 2.614083 v 0.7154332 h -2.430638 q -0.07338,0 -0.114653,0.036689 -0.03669,0.036689 -0.03669,0.1146527 v 1.5684497 q 0,0.073378 0.03669,0.1146528 0.04128,0.036689 0.114653,0.036689 h 2.430638 V 6.355906 Z" id="path2219"/></g><g id="path2187"><path style="color:#000000;-inkscape-font-specification:'Orbitron Heavy';fill:#c3c3c4;stroke:none;stroke-linecap:butt;stroke-linejoin:miter;-inkscape-stroke:none" d="m 21.671875,2.59375 -0.458984,0.4609375 v 3.3007812 l 0.458984,0.4609375 h 3.050781 L 25.183594,6.3554687 V 5.640625 L 24.722656,5.1796875 H 24.611328 L 24.728516,5.0625 V 4.3476562 L 24.611328,4.2304687 h 0.111328 L 25.183594,3.7695313 V 3.0546875 L 24.722656,2.59375 Z m 0.460937,0.9199219 h 0.05469 l -0.05469,0.054687 z m 0,1.0351562 0.15625,0.15625 -0.15625,0.15625 z m 0,1.2929688 0.05273,0.052734 h -0.05273 z" id="path2223"/><path style="color:#000000;-inkscape-font-specification:'Orbitron Heavy';stroke:none;stroke-linecap:butt;stroke-linejoin:miter;-inkscape-stroke:none" d="M 21.672456,6.355906 V 3.0539067 h 3.049763 v 0.7154332 h -2.329744 v 0.5778499 h 1.875719 V 5.062623 h -1.875719 v 0.5778498 h 2.329744 V 6.355906 Z" id="path2225"/></g></g><g aria-label="6" id="text2159" style="font-weight:900;font-size:2.70413px;font-family:Orbitron;-inkscape-font-specification:'Orbitron Heavy';fill:#000002;stroke:#c3c3c4;stroke-width:0.543054;stroke-linecap:round;stroke-linejoin:bevel;paint-order:stroke markers fill" inkscape:label="CoerceTXT"><g id="path2227"><path style="color:#000000;-inkscape-font-specification:'Orbitron Heavy';fill:#c3c3c4;stroke:none;stroke-linecap:butt;stroke-linejoin:miter;-inkscape-stroke:none" d="m 26.523437,1.3476562 c -0.115299,0 -0.232095,0.032625 -0.332031,0.091797 -0.09785,0.056335 -0.181842,0.1380244 -0.240234,0.234375 -0.06126,0.101077 -0.09375,0.2205283 -0.09375,0.3378907 v 1.1621093 c 0,0.11672 0.03312,0.2359001 0.09375,0.3359375 0.05776,0.095312 0.139064,0.1766127 0.234375,0.234375 0.101078,0.06126 0.220525,0.09375 0.33789,0.09375 h 1.123047 c 0.117364,0 0.236814,-0.032494 0.337891,-0.09375 0.09531,-0.057762 0.176613,-0.139064 0.234375,-0.234375 C 28.279376,3.4097283 28.3125,3.290548 28.3125,3.1738281 V 2.7636719 c 0,-0.1173624 -0.03249,-0.2368136 -0.09375,-0.3378906 -0.05839,-0.096353 -0.142385,-0.1780407 -0.240234,-0.234375 -0.02818,-0.016684 -0.06322,-0.013247 -0.09375,-0.025391 L 28.017578,2.0332031 V 1.6191406 L 27.746094,1.3476562 Z M 26.400391,2.5 l 0.08008,0.080078 -0.08008,0.080078 z" id="path2232"/><path style="color:#000000;-inkscape-font-specification:'Orbitron Heavy';stroke:none;stroke-linecap:butt;stroke-linejoin:miter;-inkscape-stroke:none" d="m 26.523821,3.5668936 q -0.108166,0 -0.197402,-0.054083 Q 26.237179,3.4587276 26.1831,3.3694917 26.12902,3.2802557 26.12902,3.1747943 V 2.0120189 q 0,-0.1081652 0.05408,-0.1974015 0.05408,-0.089236 0.143319,-0.1406148 0.08924,-0.054083 0.197402,-0.054083 h 1.222266 v 0.4137319 h -1.203338 q 0,0 0,0 0,0 0,0 v 0.3380162 q 0,0 0,0 0,0 0,0 h 1.103285 q 0.108166,0 0.197402,0.054083 0.08924,0.051378 0.143319,0.1406148 0.05408,0.089236 0.05408,0.1974015 v 0.4110277 q 0,0.1054611 -0.05408,0.1946974 -0.05408,0.089236 -0.143319,0.1433189 -0.08924,0.054083 -0.197402,0.054083 z m 0.01893,-0.4137319 h 1.084357 q 0,0 0,0 0,0 0,0 V 2.7881042 q 0,0 0,0 0,0 0,0 h -1.084357 v 0.3650575 q 0,0 0,0 0,0 0,0 z" id="path2234"/></g></g></g><g id="g2175" inkscape:label="COERCE6TXT" transform="translate(0.52916667)" style="display:none"><text xml:space="preserve" style="font-weight:900;font-size:4.58611px;font-family:Orbitron;-inkscape-font-specification:'Orbitron Heavy';display:inline;fill:#000002;fill-opacity:1;stroke:#c3c3c4;stroke-width:0.921;stroke-linecap:round;stroke-linejoin:bevel;stroke-dasharray:none;stroke-opacity:1;paint-order:stroke markers fill;stop-color:#000000" x="2.7730885" y="6.355906" id="text2169" inkscape:label="CoerceTXT"><tspan sodipodi:role="line" id="tspan2167" style="font-size:4.58611px;fill:#000002;fill-opacity:1;stroke:#c3c3c4;stroke-width:0.921;stroke-dasharray:none;stroke-opacity:1" x="2.7730885" y="6.355906">COERCE</tspan></text><text xml:space="preserve" style="font-weight:900;font-size:2.70413px;font-family:Orbitron;-inkscape-font-specification:'Orbitron Heavy';display:inline;fill:#000002;fill-opacity:1;stroke:#c3c3c4;stroke-width:0.543054;stroke-linecap:round;stroke-linejoin:bevel;stroke-dasharray:none;stroke-opacity:1;paint-order:stroke markers fill;stop-color:#000000" x="25.974882" y="3.5668936" id="text2173" inkscape:label="CoerceTXT"><tspan sodipodi:role="line" id="tspan2171" style="font-size:2.70413px;fill:#000002;fill-opacity:1;stroke:#c3c3c4;stroke-width:0.543054;stroke-dasharray:none;stroke-opacity:1" x="25.974882" y="3.5668936">6</tspan></text></g></g><g inkscape:groupmode="layer" id="layer4" inkscape:label="fluff" style="display:none"><g id="g2214" inkscape:label="Curves" style="display:inline;fill:#e9afaf"><path style="display:inline;fill:none;fill-opacity:1;stroke:#aaaaab;stroke-width:0.520999;stroke-linecap:square;stroke-linejoin:bevel;stroke-dasharray:none;stroke-opacity:1;paint-order:stroke fill markers;stop-color:#000000" d="m 3.3517368,101.97477 c 2.535899,0.57333 5.0714885,1.1466 6.9853172,0.904 1.913828,-0.24259 3.206122,-1.3009 4.498416,-2.35921" id="path15649" inkscape:path-effect="#path-effect15651" inkscape:original-d="m 3.3517368,101.97477 c 2.5358545,0.57353 5.0714447,1.14679 7.6067702,1.71979 1.292611,-1.05809 2.584906,-2.1164 3.876963,-3.175"/><path style="fill:none;fill-opacity:1;stroke:#020203;stroke-width:0.520999;stroke-linecap:square;stroke-linejoin:bevel;stroke-dasharray:none;stroke-opacity:1;paint-order:stroke fill markers;stop-color:#000000" d="m 4.3834246,94.459565 c 1.8022096,-0.13231 3.6041752,-0.264601 4.6403002,-1.047229 1.0361252,-0.782628 1.3066812,-2.21576 2.1544352,-1.995211 0.847754,0.22055 2.272379,2.094644 3.69681,3.968482" id="path15659" inkscape:path-effect="#path-effect15661" inkscape:original-d="m 4.3834246,94.459565 c 1.8022303,-0.132027 3.6041959,-0.264319 5.405897,-0.396875 0.2708314,-1.432925 0.5413884,-2.866057 0.8116854,-4.299479 1.424947,1.874433 2.849573,3.748527 4.273963,5.622396"/><path style="fill:none;fill-opacity:1;stroke:#777777;stroke-width:0.520999;stroke-linecap:square;stroke-linejoin:bevel;stroke-dasharray:none;stroke-opacity:1;paint-order:stroke fill markers;stop-color:#000000" d="m 4.2035664,87.246345 c 1.449807,3.770631 2.8994915,7.540944 4.6982486,9.42594 1.798757,1.884995 3.94636,1.884995 6.093741,1.884995" id="path15669" inkscape:path-effect="#path-effect15671" inkscape:original-d="m 4.2035664,87.246345 c 1.4499486,3.770577 2.8996327,7.54089 4.3490522,11.310935 2.1479534,2.64e-4 4.2955564,2.64e-4 6.4429374,0"/><path style="fill:none;fill-opacity:1;stroke:#aaaaab;stroke-width:0.520999;stroke-linecap:square;stroke-linejoin:bevel;stroke-dasharray:none;stroke-opacity:1;paint-order:stroke fill markers;stop-color:#000000" d="m 4.1045509,91.136495 c 2.2206579,-2.670619 4.441338,-5.341265 6.2971411,-4.625881 1.855803,0.715385 3.346531,4.816344 4.837174,8.917067" id="path15679" inkscape:path-effect="#path-effect15681" inkscape:original-d="m 4.1045509,91.136495 c 2.2209447,-2.670381 4.4416247,-5.341027 6.6620401,-8.011938 1.491053,4.101388 2.981781,8.202347 4.472275,12.303124" sodipodi:nodetypes="ccc"/><path style="display:inline;fill:none;fill-opacity:1;stroke:#777777;stroke-width:0.520999;stroke-linecap:square;stroke-linejoin:bevel;stroke-dasharray:none;stroke-opacity:1;paint-order:stroke fill markers;stop-color:#000000" d="m 3.5634382,111.67215 c 1.3411171,-0.39693 2.6820646,-0.7938 4.3073277,-0.95914 1.6252631,-0.16533 3.5346651,-0.0992 4.7784901,-0.73855 1.243826,-0.63937 1.822342,-1.98431 2.400924,-3.3294" id="path15585" inkscape:path-effect="#path-effect15587" inkscape:original-d="m 3.5634382,111.67215 c 1.341211,-0.39661 2.6821576,-0.79349 4.0228397,-1.19063 1.9097427,0.0664 3.8191441,0.13256 5.7283191,0.19844 0.578804,-1.34473 1.15732,-2.68967 1.735583,-4.0349"/><path style="fill:none;fill-opacity:1;stroke:#020203;stroke-width:0.520999;stroke-linecap:square;stroke-linejoin:bevel;stroke-dasharray:none;stroke-opacity:1;paint-order:stroke fill markers;stop-color:#000000" d="m 5.7384962,113 c 0.806443,-1.95167 1.6129228,-3.90343 3.1094185,-5.46744 1.4964953,-1.56401 3.6827893,-2.74008 5.8690323,-3.91612" id="path15689" inkscape:path-effect="#path-effect15691" inkscape:original-d="m 5.7384962,113 c 0.806444,-1.95167 1.6129226,-3.90343 2.4194401,-5.85528 2.1866447,-1.17585 4.3729387,-2.35192 6.5590107,-3.52828" sodipodi:nodetypes="ccc" transform="translate(0,-0.44908828)"/></g><g id="g2179" inkscape:label="Arrows" style="display:inline;fill:#e9afaf"><g id="g29664"><g id="path16717"><path style="color:#000000;fill:#000001;stroke-linecap:square;stroke-linejoin:bevel;-inkscape-stroke:none;paint-order:stroke fill markers" d="m 14.980469,93.183594 v 0.519531 h 0.259765 11.019532 0.259765 V 93.183594 H 26.259766 15.240234 Z" id="path29693"/><g id="g29571"><g id="path29573"><path style="color:#000000;fill:#000001;fill-rule:evenodd;stroke-width:0.2605pt;-inkscape-stroke:none" d="m 27.762975,93.443564 -2.253321,1.302498 v -2.604996 z" id="path29690"/><path style="color:#000000;fill:#000001;fill-rule:evenodd;-inkscape-stroke:none" d="m 25.335937,91.839844 v 3.207031 l 2.773438,-1.603516 -0.259766,-0.15039 z m 0.347657,0.601562 1.732422,1.001953 -1.732422,1.001953 z" id="path29687"/></g></g></g></g><g id="path16763"><path style="color:#000000;fill:#000001;stroke-linecap:square;stroke-linejoin:bevel;-inkscape-stroke:none;paint-order:stroke fill markers" d="m 14.964844,97.431641 v 0.490234 h 0.246094 9.820312 0.246094 V 97.431641 H 25.03125 15.210938 Z" id="path29707"/><g id="g29697"><g id="path29699"><path style="color:#000000;fill:#000001;fill-rule:evenodd;stroke-width:0.245907pt;-inkscape-stroke:none" d="m 26.450373,97.6769 -2.127095,1.229535 v -2.45907 z" id="path29703"/><path style="color:#000000;fill:#000001;fill-rule:evenodd;-inkscape-stroke:none" d="m 24.160156,96.164062 v 3.027344 l 2.617188,-1.513672 -0.244141,-0.142578 z m 0.326172,0.566407 1.636719,0.945312 -1.636719,0.947266 z" id="path29705"/></g></g></g><g id="path16775"><path style="color:#000000;fill:#000001;stroke-linecap:square;stroke-linejoin:bevel;-inkscape-stroke:none;paint-order:stroke fill markers" d="m 15.025391,106.28906 v 0.52149 h 0.261718 11.019532 0.259765 v -0.52149 H 26.306641 15.287109 Z" id="path29735"/><g id="g29725"><g id="path29727"><path style="color:#000000;fill:#000001;fill-rule:evenodd;stroke-width:0.2605pt;-inkscape-stroke:none" d="m 27.809747,106.55034 -2.253321,1.3025 v -2.605 z" id="path29731"/><path style="color:#000000;fill:#000001;fill-rule:evenodd;-inkscape-stroke:none" d="m 25.382812,104.94727 v 3.20703 l 2.773438,-1.60352 -0.259766,-0.15039 z m 0.347657,0.60156 1.732422,1.00195 -1.732422,1.00195 z" id="path29733"/></g></g></g><g id="g29962" transform="translate(3.8550784,6.5566404)" style="display:inline"><g id="g29960" transform="translate(-3.6950009,2.2583258)" style="display:inline"><path style="color:#000000;fill:#000001;stroke-linecap:square;stroke-linejoin:bevel;-inkscape-stroke:none;paint-order:stroke fill markers" d="m 14.980469,93.183594 v 0.519531 h 0.259765 11.019532 0.259765 V 93.183594 H 26.259766 15.240234 Z" id="path29950"/><g id="g29958"><g id="g29956"><path style="color:#000000;fill:#000001;fill-rule:evenodd;stroke-width:0.2605pt;-inkscape-stroke:none" d="m 27.762975,93.443564 -2.253321,1.302498 v -2.604996 z" id="path29952"/><path style="color:#000000;fill:#000001;fill-rule:evenodd;-inkscape-stroke:none" d="m 25.335937,91.839844 v 3.207031 l 2.773438,-1.603516 -0.259766,-0.15039 z m 0.347657,0.601562 1.732422,1.001953 -1.732422,1.001953 z" id="path29954"/></g></g></g></g></g><path style="display:inline;fill:none;fill-opacity:1;stroke:#000001;stroke-width:0.601598;stroke-linecap:square;stroke-linejoin:bevel;stroke-dasharray:none;stroke-opacity:1;paint-order:stroke fill markers;stop-color:#000000" d="m 15.24,30.561299 c 0,8.923533 0,17.846948 0,26.770245" id="path1" inkscape:path-effect="#path-effect2" inkscape:original-d="m 15.24,30.561299 c 0,8.923533 0,17.846948 0,26.770245" sodipodi:nodetypes="cc" transform="translate(0,49.479007)"/><g id="g12357" inkscape:label="LOGO" style="display:inline;fill:#e9afaf"><g aria-label="SiM" transform="matrix(0.26458333,0,0,0.26458333,103.20316,55.958131)" id="g12351" style="font-weight:900;font-size:21.3333px;font-family:Orbitron;-inkscape-font-specification:'Orbitron Heavy';text-align:center;white-space:pre;fill:url(#linearGradient744);stroke:#feeeff;stroke-width:3.64724;stroke-linecap:round;stroke-linejoin:round;paint-order:stroke fill markers" inkscape:label="SiM PATH"><g id="g12337"><path style="color:#000000;-inkscape-font-specification:'Orbitron Heavy';fill:#feeeff;stroke:none;stroke-linecap:butt;stroke-linejoin:miter;-inkscape-stroke:none" d="m -349.2168,247.16602 c -0.87282,0 -1.75097,0.23679 -2.5039,0.67968 -0.73411,0.43184 -1.35515,1.05616 -1.78907,1.78907 -0.45368,0.7533 -0.6875,1.63818 -0.6875,2.51367 v 3.02929 c 0,0.87964 0.23087,1.76377 0.67774,2.52344 a 1.8238023,1.8238023 0 0 0 0.0137,0.0215 c 0.16655,0.27479 0.46376,0.43166 0.67969,0.66992 a 1.8238023,1.8238023 0 0 0 -1.3711,1.37109 v 1.42969 c 0,0.87283 0.23483,1.75097 0.67774,2.50391 0.43419,0.73811 1.06071,1.36463 1.79883,1.79882 0.75293,0.4429 1.63108,0.67774 2.5039,0.67774 h 9.04493 c 0.86867,0 1.74586,-0.238 2.49218,-0.6875 0.7273,-0.4306 1.34397,-1.04857 1.77539,-1.77539 0.45981,-0.75185 0.71485,-1.63642 0.71485,-2.51758 v -3.0293 c 0,-0.88427 -0.25495,-1.7767 -0.72657,-2.52929 -0.16276,-0.27212 -0.45486,-0.42884 -0.66601,-0.66602 a 1.8238023,1.8238023 0 0 0 1.39258,-1.39258 v -1.42773 c 0,-0.88427 -0.25496,-1.7767 -0.72657,-2.5293 -0.43149,-0.72139 -1.04208,-1.33781 -1.76562,-1.76562 -0.74597,-0.44887 -1.62219,-0.6875 -2.49023,-0.6875 z m 9.22071,3.69531 c 0.15312,0.0206 0.30196,0.0331 0.4375,0.11523 a 1.8238023,1.8238023 0 0 0 0.0195,0.0117 c 0.22899,0.1347 0.37115,0.27687 0.50586,0.50586 a 1.8238023,1.8238023 0 0 0 0.0332,0.0547 c 0.0393,0.0618 0.0303,0.14486 0.0547,0.20508 h -0.15821 a 1.8238023,1.8238023 0 0 0 -0.89257,-0.89258 z m -9.45118,0.0137 a 1.8238023,1.8238023 0 0 0 -1.04492,1.04492 c 0.0244,-0.13868 0.0344,-0.28906 0.10547,-0.40625 a 1.8238023,1.8238023 0 0 0 0.0117,-0.0195 c 0.1347,-0.22899 0.27491,-0.37116 0.50391,-0.50586 0.13878,-0.0816 0.28282,-0.0887 0.42382,-0.11328 z m 11.75782,2.98633 0.0215,0.0117 c -0.004,-0.002 -0.01,-0.001 -0.0137,-0.004 -0.003,-0.002 -0.005,-0.006 -0.008,-0.008 z m -12.80274,1.54297 a 1.8238023,1.8238023 0 0 0 1.04492,1.04492 c -0.14087,-0.0246 -0.28514,-0.0317 -0.42382,-0.11328 -0.23629,-0.139 -0.37598,-0.285 -0.50586,-0.4961 -0.0774,-0.13365 -0.0911,-0.28629 -0.11524,-0.43554 z m 10.49414,1.4707 c 0.1543,0.0204 0.30321,0.0346 0.43946,0.11719 a 1.8238023,1.8238023 0 0 0 0.0195,0.0137 c 0.22899,0.1347 0.37115,0.27491 0.50586,0.50391 a 1.8238023,1.8238023 0 0 0 0.0332,0.0547 c 0.0813,0.1278 0.0942,0.27369 0.11523,0.42383 a 1.8238023,1.8238023 0 0 0 -1.11328,-1.11328 z m 1.10938,4.49609 c -0.0209,0.14932 -0.0319,0.29064 -0.125,0.44141 a 1.8238023,1.8238023 0 0 0 -0.0195,0.0352 c -0.13471,0.22899 -0.27687,0.3692 -0.50586,0.5039 a 1.8238023,1.8238023 0 0 0 -0.0195,0.0117 c -0.13614,0.0825 -0.28533,0.0968 -0.43946,0.11719 a 1.8238023,1.8238023 0 0 0 1.10938,-1.10938 z m -11.55664,0.2168 h 0.12109 a 1.8238023,1.8238023 0 0 0 0.87695,0.87695 c -0.14087,-0.0246 -0.28514,-0.0317 -0.42382,-0.11328 -0.229,-0.1347 -0.36921,-0.27491 -0.50391,-0.5039 -0.05,-0.0851 -0.0428,-0.17898 -0.0703,-0.25977 z" id="path12333"/><path style="color:#000000;-inkscape-font-specification:'Orbitron Heavy';stroke:none;stroke-linecap:butt;stroke-linejoin:miter;-inkscape-stroke:none" d="m -349.2165,264.35037 q -0.85333,0 -1.57866,-0.42666 -0.72533,-0.42667 -1.152,-1.152 -0.42667,-0.72533 -0.42667,-1.57867 v -1.42933 h 3.30666 v 1.25867 q 0,0 0,0 0,0 0,0 h 8.70399 q 0,0 0,0 0,0 0,0 v -2.688 q 0,0 0,0 0,0 0,0 h -8.85332 q -0.85333,0 -1.57866,-0.42666 -0.72533,-0.42667 -1.152,-1.13067 -0.42667,-0.72533 -0.42667,-1.6 v -3.02933 q 0,-0.87466 0.42667,-1.57866 0.42667,-0.72533 1.152,-1.152 0.72533,-0.42666 1.57866,-0.42666 h 9.04532 q 0.85333,0 1.55733,0.42666 0.72533,0.42667 1.152,1.152 0.448,0.704 0.448,1.57866 v 1.42934 h -3.34933 v -1.25867 q 0,0 0,0 0,0 0,0 h -8.70399 q 0,0 0,0 0,0 0,0 v 2.688 q 0,0 0,0 0,0 0,0 h 8.89599 q 0.85333,0 1.55733,0.42666 0.72533,0.42667 1.152,1.152 0.448,0.704 0.448,1.57867 v 3.02932 q 0,0.85334 -0.448,1.57867 -0.42667,0.72533 -1.152,1.152 -0.704,0.42666 -1.55733,0.42666 z" id="path12335"/></g><g id="g12343"><path style="color:#000000;-inkscape-font-specification:'Orbitron Heavy';fill:#feeeff;stroke:none;stroke-linecap:butt;stroke-linejoin:miter;-inkscape-stroke:none" d="m -334.75195,246.09961 a 1.8238023,1.8238023 0 0 0 -1.82422,1.82422 v 3.28515 a 1.8238023,1.8238023 0 0 0 0.38476,0.38477 1.8238023,1.8238023 0 0 0 -0.38476,0.38281 v 12.37305 a 1.8238023,1.8238023 0 0 0 1.82422,1.82422 h 3.26367 a 1.8238023,1.8238023 0 0 0 1.82422,-1.82422 v -12.37305 a 1.8238023,1.8238023 0 0 0 -0.38477,-0.38281 1.8238023,1.8238023 0 0 0 0.38477,-0.38477 v -3.28515 a 1.8238023,1.8238023 0 0 0 -1.82422,-1.82422 z" id="path12339"/><path style="color:#000000;-inkscape-font-specification:'Orbitron Heavy';stroke:none;stroke-linecap:butt;stroke-linejoin:miter;-inkscape-stroke:none" d="m -334.75254,264.35037 v 0 -12.37331 h 3.264 v 12.37331 z m 0,-13.14131 v 0 -3.28533 h 3.264 v 3.28533 z" id="path12341"/></g><g id="g12349"><path style="color:#000000;-inkscape-font-specification:'Orbitron Heavy';fill:#feeeff;stroke:none;stroke-linecap:butt;stroke-linejoin:miter;-inkscape-stroke:none" d="m -329.78125,247.16602 a 1.8238023,1.8238023 0 0 0 -1.82422,1.82421 v 15.35938 a 1.8238023,1.8238023 0 0 0 1.82422,1.82422 h 3.30664 a 1.8238023,1.8238023 0 0 0 1.82227,-1.82422 v -5.29492 l 2.0957,2.48242 a 1.8238023,1.8238023 0 0 0 2.79102,-0.006 l 2.07031,-2.4707 v 5.28906 a 1.8238023,1.8238023 0 0 0 1.82226,1.82422 h 3.32813 a 1.8238023,1.8238023 0 0 0 1.82422,-1.82422 v -15.35938 a 1.8238023,1.8238023 0 0 0 -1.82422,-1.82421 h -3.4336 a 1.8238023,1.8238023 0 0 0 -1.40039,0.65625 l -3.78711,4.53515 -3.80468,-4.53906 a 1.8238023,1.8238023 0 0 0 -1.39844,-0.65234 z m 1.82227,3.64843 h 0.74023 l 1.62891,1.94141 a 1.8238023,1.8238023 0 0 0 -2.36914,0.82617 z m 12.83203,0 h 0.75781 v 2.77539 a 1.8238023,1.8238023 0 0 0 -2.35547,-0.86132 z m -6.75,5.87305 a 1.8238023,1.8238023 0 0 0 1.40234,0.0117 l -0.69336,0.82812 z" id="path12345"/><path style="color:#000000;-inkscape-font-specification:'Orbitron Heavy';stroke:none;stroke-linecap:butt;stroke-linejoin:miter;-inkscape-stroke:none" d="M -329.78188,264.35037 V 248.9904 h 3.41333 l 5.20532,6.20799 5.184,-6.20799 h 3.43466 v 15.35997 h -3.328 v -10.30398 l -5.29066,6.31466 -5.31199,-6.29333 v 10.28265 z" id="path12347"/></g></g><text xml:space="preserve" transform="matrix(0.26458333,0,0,0.26458333,103.20316,55.958131)" id="text12355" style="font-weight:900;font-size:21.3333px;font-family:Orbitron;-inkscape-font-specification:'Orbitron Heavy';text-align:center;white-space:pre;shape-inside:url(#rect12359);shape-padding:1.65062;display:none;fill:url(#linearGradient744);fill-opacity:1;stroke:#feeeff;stroke-width:3.64724;stroke-linecap:round;stroke-linejoin:round;stroke-opacity:1;paint-order:stroke fill markers" inkscape:label="SiM TEXT" x="19.914627" y="0"/></g></g><g id="g2" inkscape:label="boring" style="display:inline" transform="translate(5.0799998)"><g id="text5-3" inkscape:label="SiM TEXT" transform="matrix(0.26458333,0,0,0.26458333,98.123108,55.958163)" style="display:inline;fill:#e9afaf"><path style="color:#000000;-inkscape-font-specification:'Orbitron Heavy';fill:#9a9a9a;stroke-linecap:round;stroke-linejoin:round;-inkscape-stroke:none;paint-order:stroke fill markers" d="m -349.05664,247.16602 c -0.87282,0 -1.75097,0.23679 -2.50391,0.67968 -0.7349,0.43231 -1.35704,1.05708 -1.79101,1.79102 -0.45302,0.75294 -0.68555,1.63687 -0.68555,2.51172 v 3.02929 c 0,0.87963 0.23088,1.76377 0.67774,2.52344 a 1.8238023,1.8238023 0 0 0 0.0117,0.0215 c 0.1667,0.27504 0.46548,0.43148 0.68164,0.66992 a 1.8238023,1.8238023 0 0 0 -1.37109,1.37109 v 1.42969 c 0,0.87282 0.23484,1.75097 0.67774,2.50391 0.43418,0.73811 1.06071,1.36463 1.79882,1.79882 0.75294,0.4429 1.63109,0.67774 2.50391,0.67774 h 9.04492 c 0.86868,0 1.74586,-0.23799 2.49219,-0.6875 0.36726,-0.21743 0.59478,-0.59363 0.89648,-0.89649 a 1.8238023,1.8238023 0 0 0 1.58203,1.58399 h 3.26368 a 1.8238023,1.8238023 0 0 0 0.91797,-0.91797 1.8238023,1.8238023 0 0 0 0.91796,0.91797 h 3.30664 a 1.8238023,1.8238023 0 0 0 1.82227,-1.82422 v -5.29492 l 2.0957,2.48242 a 1.8238023,1.8238023 0 0 0 2.79102,-0.006 l 2.07031,-2.4707 v 5.28906 a 1.8238023,1.8238023 0 0 0 1.82227,1.82422 h 3.32812 a 1.8238023,1.8238023 0 0 0 1.82422,-1.82422 V 248.9901 a 1.8238023,1.8238023 0 0 0 -1.82422,-1.82421 h -3.43359 a 1.8238023,1.8238023 0 0 0 -1.40039,0.65625 l -3.78711,4.53515 -3.80469,-4.53906 a 1.8238023,1.8238023 0 0 0 -1.39844,-0.65234 h -3.41211 a 1.8238023,1.8238023 0 0 0 -0.91796,0.91796 1.8238023,1.8238023 0 0 0 -0.91797,-0.91796 h -3.26368 A 1.8238023,1.8238023 0 0 0 -336.625,248.75 c -0.30187,-0.30269 -0.52911,-0.67926 -0.89648,-0.89648 -0.74598,-0.44888 -1.62219,-0.6875 -2.49024,-0.6875 z m 13.29297,2.42382 0.0332,0.0547 c -0.006,-0.0104 -0.0192,-0.015 -0.0254,-0.0254 -0.005,-0.009 -0.002,-0.0207 -0.008,-0.0293 z m 7.64453,1.22461 h 0.74023 l 1.62891,1.94141 a 1.8238023,1.8238023 0 0 0 -2.36914,0.82617 z m 12.83203,0 h 0.75977 v 2.77735 a 1.8238023,1.8238023 0 0 0 -2.35743,-0.86328 z m -24.54883,0.0469 c 0.15313,0.0206 0.30198,0.0331 0.4375,0.11523 a 1.8238023,1.8238023 0 0 0 0.0195,0.0117 c 0.229,0.1347 0.37117,0.27688 0.50586,0.50586 a 1.8238023,1.8238023 0 0 0 0.0332,0.0547 c 0.0393,0.0618 0.0303,0.14486 0.0547,0.20508 h -0.1582 a 1.8238023,1.8238023 0 0 0 -0.89258,-0.89258 z m -9.45117,0.0137 a 1.8238023,1.8238023 0 0 0 -1.04492,1.04492 c 0.0244,-0.1386 0.0325,-0.28911 0.10351,-0.40625 a 1.8238023,1.8238023 0 0 0 0.0137,-0.0195 c 0.1347,-0.22899 0.27491,-0.37116 0.5039,-0.50586 0.13879,-0.0816 0.28282,-0.0887 0.42383,-0.11328 z m 11.75781,2.98633 0.0215,0.0117 c -0.004,-0.002 -0.01,-10e-4 -0.0137,-0.004 -0.003,-0.002 -0.005,-0.006 -0.008,-0.008 z m -12.80273,1.54297 a 1.8238023,1.8238023 0 0 0 1.04492,1.04492 c -0.14087,-0.0246 -0.28514,-0.0317 -0.42383,-0.11328 -0.23492,-0.1382 -0.37656,-0.2831 -0.50586,-0.49219 -0.0786,-0.13495 -0.0909,-0.28895 -0.11523,-0.43945 z m 14.56836,0.20117 0.0332,0.0547 c -0.006,-0.0104 -0.0192,-0.015 -0.0254,-0.0254 -0.005,-0.009 -0.002,-0.0207 -0.008,-0.0293 z m 13.72656,1.08203 a 1.8238023,1.8238023 0 0 0 1.40234,0.0117 l -0.69335,0.82812 z m -17.80078,0.1875 c 0.1543,0.0204 0.30321,0.0346 0.43945,0.11719 a 1.8238023,1.8238023 0 0 0 0.0195,0.0137 c 0.229,0.1347 0.37117,0.27493 0.50586,0.50391 a 1.8238023,1.8238023 0 0 0 0.0332,0.0547 c 0.0813,0.1278 0.0942,0.27369 0.11523,0.42383 a 1.8238023,1.8238023 0 0 0 -1.11328,-1.11328 z m 1.10937,4.49609 c -0.0209,0.14932 -0.0319,0.29064 -0.125,0.44141 a 1.8238023,1.8238023 0 0 0 -0.0195,0.0352 c -0.13469,0.22898 -0.27686,0.3692 -0.50586,0.5039 a 1.8238023,1.8238023 0 0 0 -0.0195,0.0117 c -0.13613,0.0825 -0.28533,0.0968 -0.43945,0.11719 a 1.8238023,1.8238023 0 0 0 1.10937,-1.10938 z m -11.55664,0.2168 h 0.1211 a 1.8238023,1.8238023 0 0 0 0.87695,0.87695 c -0.14087,-0.0246 -0.28514,-0.0317 -0.42383,-0.11328 -0.22899,-0.1347 -0.3692,-0.27491 -0.5039,-0.5039 -0.05,-0.0851 -0.0428,-0.17898 -0.0703,-0.25977 z m 14.55469,2.10938 -0.0195,0.0332 c 0.004,-0.006 0.002,-0.0137 0.006,-0.0195 0.003,-0.006 0.0104,-0.008 0.0137,-0.0137 z" id="path5-6"/><path style="color:#000000;-inkscape-font-specification:'Orbitron Heavy';fill:#000000;stroke-linecap:round;stroke-linejoin:round;-inkscape-stroke:none;paint-order:stroke fill markers" d="m -349.05649,264.35037 q -0.85333,0 -1.57866,-0.42666 -0.72533,-0.42667 -1.152,-1.152 -0.42666,-0.72533 -0.42666,-1.57867 v -1.42933 h 3.30666 v 1.25867 q 0,0 0,0 0,0 0,0 h 8.70398 q 0,0 0,0 0,0 0,0 v -2.688 q 0,0 0,0 0,0 0,0 h -8.85332 q -0.85333,0 -1.57866,-0.42666 -0.72533,-0.42667 -1.152,-1.13067 -0.42666,-0.72533 -0.42666,-1.6 v -3.02933 q 0,-0.87466 0.42666,-1.57866 0.42667,-0.72533 1.152,-1.152 0.72533,-0.42666 1.57866,-0.42666 h 9.04532 q 0.85334,0 1.55733,0.42666 0.72534,0.42667 1.152,1.152 0.448,0.704 0.448,1.57866 v 1.42934 h -3.34933 v -1.25867 q 0,0 0,0 0,0 0,0 h -8.70398 q 0,0 0,0 0,0 0,0 v 2.688 q 0,0 0,0 0,0 0,0 h 8.89598 q 0.85334,0 1.55733,0.42666 0.72534,0.42667 1.152,1.152 0.448,0.704 0.448,1.57867 v 3.02932 q 0,0.85334 -0.448,1.57867 -0.42666,0.72533 -1.152,1.152 -0.70399,0.42666 -1.55733,0.42666 z m 14.01596,0 V 248.9904 h 3.264 v 15.35997 z m 5.09864,0 V 248.9904 h 3.41332 l 5.20533,6.20799 5.18399,-6.20799 h 3.43466 v 15.35997 h -3.32799 v -10.30398 l -5.29066,6.31466 -5.31199,-6.29333 v 10.28265 z" id="path6"/></g></g></svg>