<?xml version="1.0" ?><!-- Created with Inkscape (http://www.inkscape.org/) --><svg xmlns:inkscape="http://www.inkscape.org/namespaces/inkscape" xmlns:sodipodi="http://sodipodi.sourceforge.net/DTD/sodipodi-0.dtd" xmlns:xlink="http://www.w3.org/1999/xlink" xmlns="http://www.w3.org/2000/svg" xmlns:svg="http://www.w3.org/2000/svg" inkscape:version="1.3.1 (9b9bdc1480, 2023-11-25, custom)" sodipodi:docname="Coerce.svg" id="svg5" version="1.1" viewBox="0 0 10.16 128.5" height="128.5mm" width="10.16mm" xml:space="preserve"><sodipodi:namedview id="namedview7" pagecolor="#000001" bordercolor="#000000" borderopacity="0.25" inkscape:showpageshadow="2" inkscape:pageopacity="0.0" inkscape:pagecheckerboard="0" inkscape:deskcolor="#d1d1d1" inkscape:document-units="mm" showgrid="true" showguides="true" inkscape:zoom="4.0000004" inkscape:cx="-52.749995" inkscape:cy="321.74997" inkscape:window-width="2490" inkscape:window-height="1376" inkscape:window-x="0" inkscape:window-y="0" inkscape:window-maximized="1" inkscape:current-layer="layer3"><inkscape:grid type="xygrid" id="grid23806" spacingx="5.0800001" spacingy="10" units="mm" dotted="true" originx="0" originy="0" visible="true"/><sodipodi:guide position="8.9958328,8.0319128" orientation="0,-1" id="guide803" inkscape:locked="false"/><sodipodi:guide position="10.16,92.999999" orientation="0,1" id="guide628" inkscape:locked="false" inkscape:label="" inkscape:color="rgb(0,134,229)"/><sodipodi:guide position="32.742183,77.999999" orientation="0,1" id="guide691" inkscape:locked="false" inkscape:label="" inkscape:color="rgb(0,134,229)"/><sodipodi:guide position="30.479999,62.999999" orientation="0,1" id="guide693" inkscape:locked="false" inkscape:label="" inkscape:color="rgb(0,134,229)"/><sodipodi:guide position="-23.349478,15.500001" orientation="0,1" id="guide1" inkscape:locked="false" inkscape:label="" inkscape:color="rgb(0,134,229)"/></sodipodi:namedview><defs id="defs2"><linearGradient id="linearGradient5269" inkscape:swatch="solid"><stop style="stop-color:#bc9051;stop-opacity:1;" offset="0" id="stop5267"/></linearGradient><inkscape:path-effect effect="bspline" id="path-effect28295" is_visible="true" lpeversion="1" weight="33.333333" steps="2" helper_size="0" apply_no_weight="true" apply_with_weight="true" only_selected="false"/><inkscape:path-effect effect="bspline" id="path-effect28279" is_visible="true" lpeversion="1" weight="33.333333" steps="2" helper_size="0" apply_no_weight="true" apply_with_weight="true" only_selected="false"/><inkscape:path-effect effect="bspline" id="path-effect27181" is_visible="true" lpeversion="1" weight="33.333333" steps="2" helper_size="0" apply_no_weight="true" apply_with_weight="true" only_selected="false"/><inkscape:path-effect effect="bspline" id="path-effect27171" is_visible="true" lpeversion="1" weight="33.333333" steps="2" helper_size="0" apply_no_weight="true" apply_with_weight="true" only_selected="false"/><inkscape:path-effect effect="bspline" id="path-effect27161" is_visible="true" lpeversion="1" weight="33.333333" steps="2" helper_size="0" apply_no_weight="true" apply_with_weight="true" only_selected="false"/><inkscape:path-effect effect="bspline" id="path-effect27151" is_visible="true" lpeversion="1" weight="33.333333" steps="2" helper_size="0" apply_no_weight="true" apply_with_weight="true" only_selected="false"/><inkscape:path-effect effect="bspline" id="path-effect27141" is_visible="true" lpeversion="1" weight="33.333333" steps="2" helper_size="0" apply_no_weight="true" apply_with_weight="true" only_selected="false"/><inkscape:path-effect effect="bspline" id="path-effect27131" is_visible="true" lpeversion="1" weight="33.333333" steps="2" helper_size="0" apply_no_weight="true" apply_with_weight="true" only_selected="false"/><inkscape:path-effect effect="bspline" id="path-effect16779" is_visible="true" lpeversion="1" weight="33.333333" steps="2" helper_size="0" apply_no_weight="true" apply_with_weight="true" only_selected="false"/><inkscape:path-effect effect="bspline" id="path-effect16767" is_visible="true" lpeversion="1" weight="33.333333" steps="2" helper_size="0" apply_no_weight="true" apply_with_weight="true" only_selected="false"/><inkscape:path-effect effect="bspline" id="path-effect16755" is_visible="true" lpeversion="1" weight="33.333333" steps="2" helper_size="0" apply_no_weight="true" apply_with_weight="true" only_selected="false"/><inkscape:path-effect effect="bspline" id="path-effect16729" is_visible="true" lpeversion="1" weight="33.333333" steps="2" helper_size="0" apply_no_weight="true" apply_with_weight="true" only_selected="false"/><inkscape:path-effect effect="bspline" id="path-effect16719" is_visible="true" lpeversion="1" weight="33.333333" steps="2" helper_size="0" apply_no_weight="true" apply_with_weight="true" only_selected="false"/><inkscape:path-effect effect="bspline" id="path-effect16493" is_visible="true" lpeversion="1" weight="33.333333" steps="2" helper_size="0" apply_no_weight="true" apply_with_weight="true" only_selected="false"/><inkscape:path-effect effect="bspline" id="path-effect15691" is_visible="true" lpeversion="1" weight="33.333333" steps="2" helper_size="0" apply_no_weight="true" apply_with_weight="true" only_selected="false"/><inkscape:path-effect effect="bspline" id="path-effect15681" is_visible="true" lpeversion="1" weight="33.333333" steps="2" helper_size="0" apply_no_weight="true" apply_with_weight="true" only_selected="false"/><inkscape:path-effect effect="bspline" id="path-effect15671" is_visible="true" lpeversion="1" weight="33.333333" steps="2" helper_size="0" apply_no_weight="true" apply_with_weight="true" only_selected="false"/><inkscape:path-effect effect="bspline" id="path-effect15661" is_visible="true" lpeversion="1" weight="33.333333" steps="2" helper_size="0" apply_no_weight="true" apply_with_weight="true" only_selected="false"/><inkscape:path-effect effect="bspline" id="path-effect15651" is_visible="true" lpeversion="1" weight="33.333333" steps="2" helper_size="0" apply_no_weight="true" apply_with_weight="true" only_selected="false"/><inkscape:path-effect effect="bspline" id="path-effect15587" is_visible="true" lpeversion="1" weight="33.333333" steps="2" helper_size="0" apply_no_weight="true" apply_with_weight="true" only_selected="false"/><linearGradient id="linearGradient7378"><stop style="stop-color:#bd91df;stop-opacity:1;" offset="0" id="stop12941"/><stop style="stop-color:#28c6ff;stop-opacity:1;" offset="1" id="stop12943"/></linearGradient><rect x="-362.74576" y="242.83466" width="272.94321" height="175.77255" id="rect2576"/><rect x="0" y="456.79095" width="76.799995" height="28.878334" id="rect405"/><linearGradient inkscape:collect="always" id="linearGradient1445"><stop style="stop-color:#e0e8f3;stop-opacity:1;" offset="0" id="stop1441"/><stop style="stop-color:#e0e8f3;stop-opacity:0;" offset="1" id="stop1443"/></linearGradient><rect x="7.0710678" y="69.296463" width="26.162951" height="19.091883" id="rect292"/><rect x="7.0710678" y="69.296463" width="26.162951" height="19.091883" id="rect374"/><linearGradient inkscape:collect="always" xlink:href="#linearGradient1445" id="linearGradient1451" x1="2.9572134" y1="5.5931401" x2="17.362785" y2="5.5931401" gradientUnits="userSpaceOnUse"/><rect x="-362.74576" y="242.83466" width="272.94321" height="175.77255" id="rect725"/><rect x="-362.74576" y="242.83466" width="272.94321" height="175.77255" id="rect806"/><rect x="-362.74576" y="242.83466" width="272.94321" height="175.77255" id="rect872"/><mask maskUnits="userSpaceOnUse" id="mask12356-9"><path style="fill:#ff00ff;stroke:#fe5aff;stroke-width:0.102442;stroke-linejoin:bevel;stroke-dasharray:none;stroke-opacity:1;paint-order:stroke fill markers" d="m 4.2467972,120.10164 1e-7,-40.771484 H 16.337802 v 40.771484 z" id="path12358-1" inkscape:label="mask"/></mask><mask maskUnits="userSpaceOnUse" id="mask12412-7"><path style="fill:#ff00ff;stroke:#fe5aff;stroke-width:0.102442;stroke-linejoin:bevel;stroke-dasharray:none;stroke-opacity:1;paint-order:stroke fill markers" d="m 4.2467972,120.10164 1e-7,-40.771484 H 16.337802 v 40.771484 z" id="path12414-0" inkscape:label="mask"/></mask><mask maskUnits="userSpaceOnUse" id="mask12412-8"><path style="fill:#ff00ff;stroke:#fe5aff;stroke-width:0.102442;stroke-linejoin:bevel;stroke-dasharray:none;stroke-opacity:1;paint-order:stroke fill markers" d="m 4.2467972,120.10164 1e-7,-40.771484 H 16.337802 v 40.771484 z" id="path12414-9" inkscape:label="mask"/></mask><mask maskUnits="userSpaceOnUse" id="mask12352-9"><path style="fill:#ff00ff;stroke:#fe5aff;stroke-width:0.102442;stroke-linejoin:bevel;stroke-dasharray:none;stroke-opacity:1;paint-order:stroke fill markers" d="m 4.2467972,120.10164 1e-7,-40.771484 H 16.337802 v 40.771484 z" id="path12354-1" inkscape:label="mask"/></mask><mask maskUnits="userSpaceOnUse" id="mask12428-3"><path style="fill:#ff00ff;stroke:#fe5aff;stroke-width:0.102442;stroke-linejoin:bevel;stroke-dasharray:none;stroke-opacity:1;paint-order:stroke fill markers" d="m 4.2467972,120.10164 1e-7,-40.771484 H 16.337802 v 40.771484 z" id="path12430-2" inkscape:label="mask"/></mask><mask maskUnits="userSpaceOnUse" id="mask12428-6"><path style="fill:#ff00ff;stroke:#fe5aff;stroke-width:0.102442;stroke-linejoin:bevel;stroke-dasharray:none;stroke-opacity:1;paint-order:stroke fill markers" d="m 4.2467972,120.10164 1e-7,-40.771484 H 16.337802 v 40.771484 z" id="path12430-5" inkscape:label="mask"/></mask><clipPath clipPathUnits="userSpaceOnUse" id="clipPath4444"><path style="display:inline;fill:#ff00ff;stroke:#fe5aff;stroke-width:0.102442;stroke-linejoin:bevel;stroke-dasharray:none;stroke-opacity:1;paint-order:stroke fill markers" d="m 4.2467972,120.10164 1e-7,-40.771484 H 16.337802 v 40.771484 z" id="path4446" inkscape:label="clip"/></clipPath><rect x="-362.74576" y="242.83466" width="272.94321" height="175.77255" id="rect30022"/><rect x="-362.74576" y="242.83466" width="272.94321" height="175.77255" id="rect2576-2"/><rect x="0" y="456.79095" width="76.799995" height="28.878334" id="rect405-8"/><rect x="7.0710678" y="69.296463" width="26.162951" height="19.091883" id="rect292-9"/><rect x="7.0710678" y="69.296463" width="26.162951" height="19.091883" id="rect374-2"/><rect x="-362.74576" y="242.83466" width="272.94321" height="175.77255" id="rect725-6"/><rect x="-362.74576" y="242.83466" width="272.94321" height="175.77255" id="rect806-0"/><rect x="-362.74576" y="242.83466" width="272.94321" height="175.77255" id="rect872-1"/><mask maskUnits="userSpaceOnUse" id="mask12356-9-6"><path style="fill:#ff00ff;stroke:#fe5aff;stroke-width:0.102442;stroke-linejoin:bevel;stroke-dasharray:none;stroke-opacity:1;paint-order:stroke fill markers" d="m 4.2467972,120.10164 1e-7,-40.771484 H 16.337802 v 40.771484 z" id="path12358-1-9" inkscape:label="mask"/></mask><mask maskUnits="userSpaceOnUse" id="mask12412-7-2"><path style="fill:#ff00ff;stroke:#fe5aff;stroke-width:0.102442;stroke-linejoin:bevel;stroke-dasharray:none;stroke-opacity:1;paint-order:stroke fill markers" d="m 4.2467972,120.10164 1e-7,-40.771484 H 16.337802 v 40.771484 z" id="path12414-0-3" inkscape:label="mask"/></mask><mask maskUnits="userSpaceOnUse" id="mask12412-8-4"><path style="fill:#ff00ff;stroke:#fe5aff;stroke-width:0.102442;stroke-linejoin:bevel;stroke-dasharray:none;stroke-opacity:1;paint-order:stroke fill markers" d="m 4.2467972,120.10164 1e-7,-40.771484 H 16.337802 v 40.771484 z" id="path12414-9-9" inkscape:label="mask"/></mask><mask maskUnits="userSpaceOnUse" id="mask12352-9-9"><path style="fill:#ff00ff;stroke:#fe5aff;stroke-width:0.102442;stroke-linejoin:bevel;stroke-dasharray:none;stroke-opacity:1;paint-order:stroke fill markers" d="m 4.2467972,120.10164 1e-7,-40.771484 H 16.337802 v 40.771484 z" id="path12354-1-9" inkscape:label="mask"/></mask><mask maskUnits="userSpaceOnUse" id="mask12428-3-6"><path style="fill:#ff00ff;stroke:#fe5aff;stroke-width:0.102442;stroke-linejoin:bevel;stroke-dasharray:none;stroke-opacity:1;paint-order:stroke fill markers" d="m 4.2467972,120.10164 1e-7,-40.771484 H 16.337802 v 40.771484 z" id="path12430-2-1" inkscape:label="mask"/></mask><mask maskUnits="userSpaceOnUse" id="mask12428-6-2"><path style="fill:#ff00ff;stroke:#fe5aff;stroke-width:0.102442;stroke-linejoin:bevel;stroke-dasharray:none;stroke-opacity:1;paint-order:stroke fill markers" d="m 4.2467972,120.10164 1e-7,-40.771484 H 16.337802 v 40.771484 z" id="path12430-5-8" inkscape:label="mask"/></mask><clipPath clipPathUnits="userSpaceOnUse" id="clipPath4444-4"><path style="display:inline;fill:#ff00ff;stroke:#fe5aff;stroke-width:0.102442;stroke-linejoin:bevel;stroke-dasharray:none;stroke-opacity:1;paint-order:stroke fill markers" d="m 4.2467972,120.10164 1e-7,-40.771484 H 16.337802 v 40.771484 z" id="path4446-9" inkscape:label="clip"/></clipPath><linearGradient inkscape:collect="always" xlink:href="#linearGradient5347" id="linearGradient744" gradientUnits="userSpaceOnUse" x1="-333.70743" y1="244.44972" x2="-333.70743" y2="264.52359"/><linearGradient inkscape:collect="always" id="linearGradient5347"><stop style="stop-color:#10ccd2;stop-opacity:1;" offset="0" id="stop5343"/><stop style="stop-color:#cd25cd;stop-opacity:1;" offset="1" id="stop5345"/></linearGradient><rect x="-362.74576" y="242.83466" width="60.787731" height="29.019567" id="rect2576-0"/><rect x="-362.74576" y="242.83466" width="60.787731" height="29.019567" id="rect2835"/><rect x="-362.74576" y="242.83466" width="60.787731" height="29.019567" id="rect12331"/><rect x="-362.74576" y="242.83466" width="60.787731" height="29.019567" id="rect12359"/><linearGradient inkscape:collect="always" xlink:href="#linearGradient5347" id="linearGradient456" gradientUnits="userSpaceOnUse" x1="-333.70743" y1="244.44972" x2="-333.70743" y2="264.52359"/><linearGradient inkscape:collect="always" xlink:href="#linearGradient5347" id="linearGradient458" gradientUnits="userSpaceOnUse" x1="-333.70743" y1="244.44972" x2="-333.70743" y2="264.52359"/><linearGradient inkscape:collect="always" xlink:href="#linearGradient5347" id="linearGradient460" gradientUnits="userSpaceOnUse" x1="-333.70743" y1="244.44972" x2="-333.70743" y2="264.52359"/><linearGradient inkscape:collect="always" xlink:href="#linearGradient5347" id="linearGradient462" gradientUnits="userSpaceOnUse" x1="-333.70743" y1="244.44972" x2="-333.70743" y2="264.52359"/><linearGradient inkscape:collect="always" xlink:href="#linearGradient5347" id="linearGradient464" gradientUnits="userSpaceOnUse" x1="-333.70743" y1="244.44972" x2="-333.70743" y2="264.52359"/><linearGradient inkscape:collect="always" xlink:href="#linearGradient5347" id="linearGradient466" gradientUnits="userSpaceOnUse" x1="-333.70743" y1="244.44972" x2="-333.70743" y2="264.52359"/><linearGradient inkscape:collect="always" xlink:href="#linearGradient5347" id="linearGradient468" gradientUnits="userSpaceOnUse" x1="-333.70743" y1="244.44972" x2="-333.70743" y2="264.52359"/><inkscape:path-effect effect="bspline" id="path-effect15587-8" is_visible="true" lpeversion="1" weight="33.333333" steps="2" helper_size="0" apply_no_weight="true" apply_with_weight="true" only_selected="false"/><inkscape:path-effect effect="bspline" id="path-effect15651-0" is_visible="true" lpeversion="1" weight="33.333333" steps="2" helper_size="0" apply_no_weight="true" apply_with_weight="true" only_selected="false"/><inkscape:path-effect effect="bspline" id="path-effect15661-3" is_visible="true" lpeversion="1" weight="33.333333" steps="2" helper_size="0" apply_no_weight="true" apply_with_weight="true" only_selected="false"/><inkscape:path-effect effect="bspline" id="path-effect15671-9" is_visible="true" lpeversion="1" weight="33.333333" steps="2" helper_size="0" apply_no_weight="true" apply_with_weight="true" only_selected="false"/><inkscape:path-effect effect="bspline" id="path-effect15681-3" is_visible="true" lpeversion="1" weight="33.333333" steps="2" helper_size="0" apply_no_weight="true" apply_with_weight="true" only_selected="false"/><inkscape:path-effect effect="bspline" id="path-effect15691-1" is_visible="true" lpeversion="1" weight="33.333333" steps="2" helper_size="0" apply_no_weight="true" apply_with_weight="true" only_selected="false"/><rect x="-362.74576" y="242.83466" width="60.787731" height="29.019567" id="rect2"/></defs><rect style="display:inline;opacity:1;fill:#bcbcbe;fill-opacity:1;stroke-width:0.263069" id="rect338" width="10.16" height="128.5" x="1.7763568e-15" y="0" inkscape:label="background"/><g inkscape:groupmode="layer" id="g372" inkscape:label="Text" style="display:inline;fill:#e9afaf"><g id="g2750" inkscape:label="INOUTTEXT" transform="translate(-19.630356,-2.2483671)" style="display:inline"><text xml:space="preserve" style="font-style:normal;font-variant:normal;font-weight:500;font-stretch:normal;font-size:2.46944px;font-family:Orbitron;-inkscape-font-specification:'Orbitron Medium';fill:#000001;fill-opacity:1;stroke:none;stroke-width:0.520999;stroke-linecap:square;stroke-linejoin:bevel;stroke-dasharray:none;stroke-opacity:1;paint-order:stroke fill markers;stop-color:#000000" x="23.578035" y="37.748367" id="text2740" inkscape:label="text2740"><tspan sodipodi:role="line" id="tspan2738" style="font-style:normal;font-variant:normal;font-weight:500;font-stretch:normal;font-size:2.46944px;font-family:Orbitron;-inkscape-font-specification:'Orbitron Medium';stroke-width:0.521" x="23.578035" y="37.748367">in</tspan></text><text xml:space="preserve" style="font-style:normal;font-variant:normal;font-weight:500;font-stretch:normal;font-size:2.46944px;font-family:Orbitron;-inkscape-font-specification:'Orbitron Medium';fill:#000001;fill-opacity:1;stroke:none;stroke-width:0.520999;stroke-linecap:square;stroke-linejoin:bevel;stroke-dasharray:none;stroke-opacity:1;paint-order:stroke fill markers;stop-color:#000000" x="20.605213" y="52.712902" id="text2744"><tspan sodipodi:role="line" id="tspan2742" style="font-style:normal;font-variant:normal;font-weight:500;font-stretch:normal;font-size:2.46944px;font-family:Orbitron;-inkscape-font-specification:'Orbitron Medium';stroke-width:0.521" x="20.605213" y="52.712902">quant.</tspan></text><text xml:space="preserve" style="font-style:normal;font-variant:normal;font-weight:500;font-stretch:normal;font-size:2.46944px;font-family:Orbitron;-inkscape-font-specification:'Orbitron Medium';fill:#000001;fill-opacity:1;stroke:none;stroke-width:0.520999;stroke-linecap:square;stroke-linejoin:bevel;stroke-dasharray:none;stroke-opacity:1;paint-order:stroke fill markers;stop-color:#000000" x="22.495403" y="67.748367" id="text2748"><tspan id="tspan2746" style="font-style:normal;font-variant:normal;font-weight:500;font-stretch:normal;font-size:2.46944px;font-family:Orbitron;-inkscape-font-specification:'Orbitron Medium';stroke-width:0.521" x="22.495403" y="67.748367" sodipodi:role="line">out</tspan></text></g><g id="g787" inkscape:label="INOUTPATH" transform="translate(-19.630356,-2.2483671)"><g aria-label="in" id="text777" style="font-weight:500;font-size:2.46944px;font-family:Orbitron;-inkscape-font-specification:'Orbitron Medium';fill:#000001;stroke-width:0.520999;stroke-linecap:square;stroke-linejoin:bevel;paint-order:stroke fill markers" inkscape:label="text2740"><path d="m 23.706446,37.748367 v 0 -1.432275 h 0.2667 v 1.432275 z m 0,-1.634769 v 0 -0.266699 h 0.2667 v 0.266699 z" style="stroke-width:0.521" id="path789"/><path d="m 24.257298,37.748367 v 0 -1.432275 h 1.135942 q 0.0889,0 0.160514,0.04445 0.07408,0.04445 0.116064,0.116064 0.04445,0.07161 0.04445,0.160513 v 1.111248 h -0.266699 v -1.103839 q 0,-0.0247 -0.01976,-0.04198 -0.01729,-0.01976 -0.04198,-0.01976 h -0.800099 q -0.02469,0 -0.04445,0.01976 -0.01729,0.01729 -0.01729,0.04198 v 1.103839 z" style="stroke-width:0.521" id="path791"/></g><g aria-label="quant." id="text781" style="font-weight:500;font-size:2.46944px;font-family:Orbitron;-inkscape-font-specification:'Orbitron Medium';fill:#000001;stroke-width:0.520999;stroke-linecap:square;stroke-linejoin:bevel;paint-order:stroke fill markers"><path d="m 21.844872,53.280873 v 0 -0.567971 h -0.869243 q -0.0889,0 -0.162983,-0.04198 -0.07161,-0.04445 -0.116064,-0.118534 -0.04198,-0.07408 -0.04198,-0.160513 v -0.790221 q 0,-0.0889 0.04198,-0.160514 0.04445,-0.07161 0.116064,-0.116063 0.07408,-0.04445 0.162983,-0.04445 h 1.135943 v 2.000246 z m -0.859365,-0.83467 h 0.800098 q 0.0247,0 0.04198,-0.01729 0.01729,-0.01976 0.01729,-0.04445 v -0.775405 q 0,-0.02469 -0.01729,-0.04198 -0.01729,-0.01976 -0.04198,-0.01976 h -0.800098 q -0.02469,0 -0.04445,0.01976 -0.01729,0.01729 -0.01729,0.04198 v 0.775405 q 0,0.02469 0.01729,0.04445 0.01976,0.01729 0.04445,0.01729 z" style="stroke-width:0.521" id="path798"/><path d="m 22.642299,52.712902 q -0.0889,0 -0.162983,-0.04445 -0.07161,-0.04445 -0.116064,-0.116064 -0.04198,-0.07161 -0.04198,-0.160513 v -1.111248 h 0.266699 v 1.10384 q 0,0.02469 0.01729,0.04445 0.01976,0.01729 0.04445,0.01729 h 0.800099 q 0.02469,0 0.04198,-0.01729 0.01976,-0.01976 0.01976,-0.04445 v -1.10384 h 0.266699 v 1.111248 q 0,0.0889 -0.04445,0.160513 -0.04198,0.07161 -0.116064,0.116064 -0.07161,0.04445 -0.160514,0.04445 h -0.814915 z" style="stroke-width:0.521" id="path800"/><path d="m 24.35609,52.712902 q -0.0889,0 -0.162983,-0.04445 -0.07161,-0.04445 -0.116064,-0.116064 -0.04198,-0.07161 -0.04198,-0.160513 v -0.52846 h 1.187801 v -0.254353 q 0,-0.02469 -0.01729,-0.04198 -0.01729,-0.01976 -0.04198,-0.01976 h -1.128534 v -0.266699 h 1.135943 q 0.0889,0 0.160513,0.04445 0.07408,0.04198 0.116064,0.116063 0.04445,0.07408 0.04445,0.160514 v 1.111248 z m 0.0074,-0.266699 h 0.859365 v -0.333375 h -0.921101 v 0.271639 q 0,0.02469 0.01729,0.04445 0.01975,0.01729 0.04445,0.01729 z" style="stroke-width:0.521" id="path802"/><path d="m 25.722161,52.712902 v 0 -1.432275 h 1.135942 q 0.0889,0 0.160514,0.04445 0.07408,0.04445 0.116063,0.116063 0.04445,0.07161 0.04445,0.160514 v 1.111248 h -0.266699 v -1.10384 q 0,-0.02469 -0.01976,-0.04198 -0.01729,-0.01976 -0.04198,-0.01976 h -0.800099 q -0.02469,0 -0.04445,0.01976 -0.01729,0.01729 -0.01729,0.04198 v 1.10384 z" style="stroke-width:0.521" id="path804"/><path d="m 27.759447,52.712902 q -0.0889,0 -0.162984,-0.04445 -0.07161,-0.04445 -0.116063,-0.116064 -0.04198,-0.07161 -0.04198,-0.160513 v -1.563156 h 0.2667 v 0.451908 h 0.587727 v 0.266699 h -0.587727 v 0.837141 q 0,0.02469 0.01729,0.04445 0.01975,0.01729 0.04445,0.01729 h 0.525991 v 0.266699 h -0.533399 z" style="stroke-width:0.521" id="path806"/><path d="m 28.499409,52.712902 v 0 -0.266699 h 0.2667 v 0.266699 z" style="stroke-width:0.521" id="path808"/></g><g aria-label="out" id="text785" style="font-weight:500;font-size:2.46944px;font-family:Orbitron;-inkscape-font-specification:'Orbitron Medium';fill:#000001;stroke-width:0.520999;stroke-linecap:square;stroke-linejoin:bevel;paint-order:stroke fill markers"><path d="m 22.942372,67.748367 q -0.0889,0 -0.160514,-0.04445 -0.07161,-0.04445 -0.116063,-0.116063 -0.04445,-0.07161 -0.04445,-0.160514 v -0.790221 q 0,-0.0889 0.04445,-0.160513 0.04445,-0.07161 0.116063,-0.116064 0.07161,-0.04445 0.160514,-0.04445 h 0.814915 q 0.0889,0 0.160514,0.04445 0.07408,0.04198 0.116063,0.116064 0.04445,0.07408 0.04445,0.160513 v 0.790221 q 0,0.0889 -0.04445,0.160514 -0.04198,0.07161 -0.116063,0.116063 -0.07161,0.04445 -0.160514,0.04445 h -0.814915 z m 0.0074,-0.266699 h 0.800099 q 0.02469,0 0.04198,-0.01729 0.01729,-0.01976 0.01729,-0.04445 v -0.775404 q 0,-0.02469 -0.01729,-0.04198 -0.01729,-0.01976 -0.04198,-0.01976 H 22.94978 q -0.02469,0 -0.04445,0.01976 -0.01729,0.01729 -0.01729,0.04198 v 0.775404 q 0,0.02469 0.01729,0.04445 0.01976,0.01729 0.04445,0.01729 z" style="stroke-width:0.521" id="path823"/><path d="m 24.59576,67.748367 q -0.0889,0 -0.162983,-0.04445 -0.07161,-0.04445 -0.116064,-0.116063 -0.04198,-0.07161 -0.04198,-0.160514 v -1.111248 h 0.266699 v 1.10384 q 0,0.02469 0.01729,0.04445 0.01976,0.01729 0.04445,0.01729 h 0.800099 q 0.02469,0 0.04198,-0.01729 0.01976,-0.01976 0.01976,-0.04445 v -1.10384 h 0.266699 v 1.111248 q 0,0.0889 -0.04445,0.160514 -0.04198,0.07161 -0.116063,0.116063 -0.07161,0.04445 -0.160514,0.04445 H 24.59576 Z" style="stroke-width:0.521" id="path825"/><path d="m 26.265969,67.748367 q -0.0889,0 -0.162983,-0.04445 -0.07161,-0.04445 -0.116064,-0.116063 -0.04198,-0.07161 -0.04198,-0.160514 v -1.563155 h 0.266699 v 0.451907 h 0.587727 v 0.2667 h -0.587727 v 0.83714 q 0,0.02469 0.01729,0.04445 0.01975,0.01729 0.04445,0.01729 h 0.525991 v 0.266699 h -0.533399 z" style="stroke-width:0.521" id="path827"/></g></g></g><g id="g2323" inkscape:label="Title" style="display:inline;fill:#e9afaf" transform="rotate(90,5.8056253,3.9794534)"><text xml:space="preserve" style="font-weight:900;font-size:4.58611px;font-family:Orbitron;-inkscape-font-specification:'Orbitron Heavy';display:inline;fill:#000002;fill-opacity:1;stroke:#c3c3c4;stroke-width:0.921;stroke-linecap:round;stroke-linejoin:bevel;stroke-dasharray:none;stroke-opacity:1;paint-order:stroke markers fill;stop-color:#000000" x="4.623415" y="6.355906" id="text7134" inkscape:label="CoerceTXT"><tspan sodipodi:role="line" id="tspan7132" style="font-size:4.58611px;fill:#000002;fill-opacity:1;stroke:#c3c3c4;stroke-width:0.921;stroke-dasharray:none;stroke-opacity:1" x="4.623415" y="6.355906">COERCE</tspan></text><g aria-label="COERCE" id="text31013" style="font-weight:900;font-size:4.58611px;font-family:Orbitron;-inkscape-font-specification:'Orbitron Heavy';display:inline;fill:#000002;stroke:#c3c3c4;stroke-width:0.921;stroke-linecap:round;stroke-linejoin:bevel;paint-order:stroke markers fill" inkscape:label="CoercePATH"><g id="path31015"><path style="color:#000000;-inkscape-font-specification:'Orbitron Heavy';fill:#c3c3c4;stroke:none;stroke-linecap:butt;stroke-linejoin:miter;-inkscape-stroke:none" d="m 5.5585937,2.59375 c -0.2002313,0 -0.4024955,0.052135 -0.5761718,0.1542969 l -0.00586,0.00391 c -0.162562,0.098522 -0.3013457,0.2395325 -0.3984375,0.4023438 -3.299e-4,5.443e-4 3.289e-4,0.00141 0,0.00195 C 4.4738162,3.3290892 4.4199219,3.5328198 4.4199219,3.7324219 v 1.9453125 c 0,0.2002315 0.052134,0.4024955 0.1542968,0.5761718 l 0.00391,0.00586 c 0.097962,0.1616376 0.2368,0.3004752 0.3984375,0.3984375 l 0.00586,0.00195 c 0.1736763,0.1021624 0.3759405,0.1562501 0.5761718,0.15625 H 8.1738281 L 8.6328125,6.3554687 V 5.640625 L 8.1738281,5.1796875 H 6.0507812 V 4.2304687 H 8.1738281 L 8.6328125,3.7695313 V 3.0546875 L 8.1738281,2.59375 Z" id="path31030"/><path style="color:#000000;-inkscape-font-specification:'Orbitron Heavy';stroke:none;stroke-linecap:butt;stroke-linejoin:miter;-inkscape-stroke:none" d="m 5.5589815,6.355906 q -0.1880306,0 -0.3439583,-0.091722 Q 5.0636816,6.1724616 4.9719594,6.02112 4.8802372,5.8651922 4.8802372,5.6771617 V 3.732651 q 0,-0.1880305 0.091722,-0.3393721 0.091722,-0.1559278 0.2430638,-0.24765 0.1559277,-0.091722 0.3439583,-0.091722 h 2.6140829 v 0.715433 H 5.7424259 q -0.073378,0 -0.1146528,0.036689 -0.036689,0.036689 -0.036689,0.1146527 v 1.5684497 q 0,0.073378 0.036689,0.1146528 0.041275,0.036689 0.1146528,0.036689 H 8.1730642 V 6.355906 Z" id="path31032"/></g><g id="path31017"><path style="color:#000000;-inkscape-font-specification:'Orbitron Heavy';fill:#c3c3c4;stroke:none;stroke-linecap:butt;stroke-linejoin:miter;-inkscape-stroke:none" d="m 9.3203125,2.59375 c -0.1990459,0 -0.402243,0.053135 -0.5742187,0.1542969 -0.1682347,0.098962 -0.3111949,0.2438746 -0.4101563,0.4121094 -0.1028321,0.1720415 -0.15625,0.3740944 -0.15625,0.5722656 v 1.9453125 c 0,0.199046 0.055088,0.4002898 0.15625,0.5722656 0.098961,0.1682343 0.241922,0.3111947 0.4101563,0.4101562 0.1719757,0.101162 0.3751728,0.15625 0.5742187,0.15625 h 1.9433595 c 0.196985,10e-8 0.398068,-0.054446 0.568359,-0.15625 0.16584,-0.097551 0.307441,-0.2391448 0.40625,-0.4042968 0.106004,-0.1723127 0.166016,-0.3758714 0.166016,-0.578125 V 3.7324219 c 0,-0.2019134 -0.05956,-0.4073663 -0.167969,-0.5800781 -0.09756,-0.1621508 -0.235947,-0.3034487 -0.398437,-0.4003907 -5.42e-4,-3.284e-4 -0.0014,3.275e-4 -0.002,0 C 11.664857,2.6487003 11.462088,2.59375 11.263672,2.59375 Z M 9.8125,4.2304687 h 0.949219 V 5.1796875 H 9.8125 Z" id="path31036"/><path style="color:#000000;-inkscape-font-specification:'Orbitron Heavy';stroke:none;stroke-linecap:butt;stroke-linejoin:miter;-inkscape-stroke:none" d="m 9.3195942,6.355906 q -0.1834444,0 -0.3393722,-0.091722 Q 8.8242943,6.1724616 8.7325721,6.0165339 8.6408499,5.8606061 8.6408499,5.6771617 V 3.732651 q 0,-0.1880305 0.091722,-0.3393721 0.091722,-0.1559278 0.2476499,-0.24765 0.1559278,-0.091722 0.3393722,-0.091722 h 1.944511 q 0.183444,0 0.334786,0.091722 0.155928,0.091722 0.24765,0.24765 0.09631,0.1513416 0.09631,0.3393721 v 1.9445107 q 0,0.1834444 -0.09631,0.3393722 -0.09172,0.1559277 -0.24765,0.2476499 -0.151342,0.091722 -0.334786,0.091722 z M 9.3516969,5.6404728 H 11.22283 q 0,0 0,0 0,0 0,0 V 3.7693399 q 0,0 0,0 0,0 0,0 H 9.3516969 q 0,0 0,0 0,0 0,0 v 1.8711329 q 0,0 0,0 0,0 0,0 z" id="path31038"/></g><g id="path31019"><path style="color:#000000;-inkscape-font-specification:'Orbitron Heavy';fill:#c3c3c4;stroke:none;stroke-linecap:butt;stroke-linejoin:miter;-inkscape-stroke:none" d="m 12.457031,2.59375 -0.460937,0.4609375 v 3.3007812 l 0.460937,0.4609375 h 3.048828 L 15.966797,6.3554687 V 5.640625 L 15.505859,5.1796875 H 15.396484 L 15.513672,5.0625 V 4.3476562 L 15.396484,4.2304687 h 0.109375 L 15.966797,3.7695313 V 3.0546875 L 15.505859,2.59375 Z m 0.458985,0.9199219 h 0.05469 l -0.05469,0.056641 z m 0,1.0332031 0.15625,0.1582031 -0.15625,0.1582031 z m 0,1.2929687 0.05273,0.054687 h -0.05273 z" id="path31042"/><path style="color:#000000;-inkscape-font-specification:'Orbitron Heavy';stroke:none;stroke-linecap:butt;stroke-linejoin:miter;-inkscape-stroke:none" d="M 12.456489,6.355906 V 3.0539067 h 3.049764 v 0.7154332 h -2.329744 v 0.5778499 h 1.875719 V 5.062623 h -1.875719 v 0.5778498 h 2.329744 V 6.355906 Z" id="path31044"/></g><g id="path31021"><path style="color:#000000;-inkscape-font-specification:'Orbitron Heavy';fill:#c3c3c4;stroke:none;stroke-linecap:butt;stroke-linejoin:miter;-inkscape-stroke:none" d="M 15.960938,2.5976563 15.5,3.0585938 v 3.2968749 l 0.460938,0.4609375 h 0.710937 L 17.130859,6.3554687 V 5.7324219 h 0.269532 l 0.771484,0.9199218 0.351562,0.1640625 h 0.734375 L 19.71875,6.3554687 V 6.1132812 L 19.609375,5.8144531 19.289062,5.4375 c 0.0991,-0.083816 0.205699,-0.1602807 0.271485,-0.2714844 0.104572,-0.1715496 0.162109,-0.3753568 0.162109,-0.5761719 V 3.7363281 c 0,-0.2008085 -0.05754,-0.4026727 -0.162109,-0.5742187 C 19.462341,2.9961066 19.322138,2.8542759 19.15625,2.7558594 18.983063,2.6508982 18.778356,2.5976563 18.578125,2.5976563 Z m 0.458984,0.921875 h 0.04102 l -0.04102,0.041016 z m 0,1.2421874 0.15039,0.1503907 -0.15039,0.1523437 z" id="path31048"/><path style="color:#000000;-inkscape-font-specification:'Orbitron Heavy';stroke:none;stroke-linecap:butt;stroke-linejoin:miter;-inkscape-stroke:none" d="M 18.523917,6.355906 17.565419,5.2139646 H 18.4964 l 0.761294,0.8988776 V 6.355906 Z m -2.563636,0 V 3.0584928 h 2.618669 q 0.18803,0 0.339372,0.091722 0.155928,0.091722 0.24765,0.24765 0.09631,0.1559277 0.09631,0.3393721 v 0.8530165 q 0,0.1834444 -0.09631,0.3393722 -0.09172,0.1559277 -0.24765,0.2476499 -0.151342,0.091722 -0.339372,0.091722 l -1.907822,0.00459 v 1.082322 z m 0.710847,-1.8023413 h 1.871133 q 0,0 0,0 0,0 0,0 V 3.7693399 q 0,0 0,0 0,0 0,0 h -1.871133 q 0,0 0,0 0,0 0,0 v 0.7842248 q 0,0 0,0 0,0 0,0 z" id="path31050"/></g><g id="path31023"><path style="color:#000000;-inkscape-font-specification:'Orbitron Heavy';fill:#c3c3c4;stroke:none;stroke-linecap:butt;stroke-linejoin:miter;-inkscape-stroke:none" d="m 20.421875,2.59375 c -0.200231,0 -0.402495,0.052134 -0.576172,0.1542969 l -0.0059,0.00391 c -0.16455,0.099726 -0.30313,0.2428562 -0.400391,0.4082032 -0.10283,0.1720412 -0.15625,0.374096 -0.15625,0.5722656 v 1.9453125 c 0,0.2002321 0.05409,0.4024953 0.15625,0.5761718 l 0.002,0.00586 c 0.09796,0.1616381 0.2368,0.3004752 0.398438,0.3984375 l 0.0059,0.00195 c 0.173677,0.1021629 0.375941,0.1562501 0.576172,0.15625 h 2.615234 L 23.498047,6.3554687 V 5.640625 L 23.037109,5.1796875 H 20.916016 V 4.2304687 h 2.121093 L 23.498047,3.7695313 V 3.0546875 L 23.037109,2.59375 Z" id="path31054"/><path style="color:#000000;-inkscape-font-specification:'Orbitron Heavy';stroke:none;stroke-linecap:butt;stroke-linejoin:miter;-inkscape-stroke:none" d="m 20.42257,6.355906 q -0.188031,0 -0.343958,-0.091722 Q 19.92727,6.1724616 19.835548,6.02112 19.743825,5.8651922 19.743825,5.6771617 V 3.732651 q 0,-0.1880305 0.09172,-0.3393721 0.09172,-0.1559278 0.243064,-0.24765 0.155927,-0.091722 0.343958,-0.091722 h 2.614083 v 0.7154332 h -2.430639 q -0.07338,0 -0.114653,0.036689 -0.03669,0.036689 -0.03669,0.1146527 v 1.5684497 q 0,0.073378 0.03669,0.1146528 0.04127,0.036689 0.114653,0.036689 H 23.03665 V 6.355906 Z" id="path31056"/></g><g id="path31025"><path style="color:#000000;-inkscape-font-specification:'Orbitron Heavy';fill:#c3c3c4;stroke:none;stroke-linecap:butt;stroke-linejoin:miter;-inkscape-stroke:none" d="M 23.523437,2.59375 23.0625,3.0546875 v 3.3007812 l 0.460937,0.4609375 h 3.048829 L 27.033203,6.3554687 V 5.640625 L 26.572266,5.1796875 H 26.460937 L 26.578125,5.0625 V 4.3476562 L 26.460937,4.2304687 h 0.111329 L 27.033203,3.7695313 V 3.0546875 L 26.572266,2.59375 Z m 0.458985,0.9199219 h 0.05469 l -0.05469,0.056641 z m 0,1.0332031 0.15625,0.1582031 -0.15625,0.1582031 z m 0,1.2929687 0.05273,0.054687 h -0.05273 z" id="path31060"/><path style="color:#000000;-inkscape-font-specification:'Orbitron Heavy';stroke:none;stroke-linecap:butt;stroke-linejoin:miter;-inkscape-stroke:none" d="M 23.522783,6.355906 V 3.0539067 h 3.049763 v 0.7154332 h -2.329744 v 0.5778499 h 1.875719 V 5.062623 h -1.875719 v 0.5778498 h 2.329744 V 6.355906 Z" id="path31062"/></g></g></g><g id="g1851" inkscape:label="InOutLines"><path style="fill:none;stroke:#aaaaab;stroke-width:0.505964;stroke-linejoin:bevel;stroke-dasharray:none;stroke-opacity:1;paint-order:stroke fill markers;stop-color:#000000" d="M 0,40.252982 H 5.0800001" id="path8325"/><path style="fill:none;stroke:#747475;stroke-width:0.505964;stroke-linejoin:bevel;stroke-dasharray:none;stroke-opacity:1;paint-order:stroke fill markers;stop-color:#000000" d="M 0,55.252982 H 5.0800002" id="path8582"/><path style="fill:none;stroke:#020203;stroke-width:0.505964;stroke-linejoin:bevel;stroke-dasharray:none;stroke-opacity:1;paint-order:stroke fill markers;stop-color:#000000" d="m 5.08,70.252982 h 5.08" id="path8584"/></g><g inkscape:groupmode="layer" id="layer3" inkscape:label="fluff" style="display:none"><g id="g12357" inkscape:label="LOGO" style="display:inline;fill:#e9afaf" transform="rotate(90,11.668179,116.98077)"><g aria-label="SiM" transform="matrix(0.26458333,0,0,0.26458333,103.20316,55.958131)" id="g12351" style="font-weight:900;font-size:21.3333px;font-family:Orbitron;-inkscape-font-specification:'Orbitron Heavy';text-align:center;white-space:pre;display:inline;fill:url(#linearGradient468);stroke:#feeeff;stroke-width:3.64724;stroke-linecap:round;stroke-linejoin:round;paint-order:stroke fill markers" inkscape:label="SiM PATH"><g id="g12337" style="fill:url(#linearGradient458)"><path style="color:#000000;-inkscape-font-specification:'Orbitron Heavy';fill:#feeeff;stroke:none;stroke-linecap:butt;stroke-linejoin:miter;-inkscape-stroke:none" d="m -349.2168,247.16602 c -0.87282,0 -1.75097,0.23679 -2.5039,0.67968 -0.73411,0.43184 -1.35515,1.05616 -1.78907,1.78907 -0.45368,0.7533 -0.6875,1.63818 -0.6875,2.51367 v 3.02929 c 0,0.87964 0.23087,1.76377 0.67774,2.52344 a 1.8238023,1.8238023 0 0 0 0.0137,0.0215 c 0.16655,0.27479 0.46376,0.43166 0.67969,0.66992 a 1.8238023,1.8238023 0 0 0 -1.3711,1.37109 v 1.42969 c 0,0.87283 0.23483,1.75097 0.67774,2.50391 0.43419,0.73811 1.06071,1.36463 1.79883,1.79882 0.75293,0.4429 1.63108,0.67774 2.5039,0.67774 h 9.04493 c 0.86867,0 1.74586,-0.238 2.49218,-0.6875 0.7273,-0.4306 1.34397,-1.04857 1.77539,-1.77539 0.45981,-0.75185 0.71485,-1.63642 0.71485,-2.51758 v -3.0293 c 0,-0.88427 -0.25495,-1.7767 -0.72657,-2.52929 -0.16276,-0.27212 -0.45486,-0.42884 -0.66601,-0.66602 a 1.8238023,1.8238023 0 0 0 1.39258,-1.39258 v -1.42773 c 0,-0.88427 -0.25496,-1.7767 -0.72657,-2.5293 -0.43149,-0.72139 -1.04208,-1.33781 -1.76562,-1.76562 -0.74597,-0.44887 -1.62219,-0.6875 -2.49023,-0.6875 z m 9.22071,3.69531 c 0.15312,0.0206 0.30196,0.0331 0.4375,0.11523 a 1.8238023,1.8238023 0 0 0 0.0195,0.0117 c 0.22899,0.1347 0.37115,0.27687 0.50586,0.50586 a 1.8238023,1.8238023 0 0 0 0.0332,0.0547 c 0.0393,0.0618 0.0303,0.14486 0.0547,0.20508 h -0.15821 a 1.8238023,1.8238023 0 0 0 -0.89257,-0.89258 z m -9.45118,0.0137 a 1.8238023,1.8238023 0 0 0 -1.04492,1.04492 c 0.0244,-0.13868 0.0344,-0.28906 0.10547,-0.40625 a 1.8238023,1.8238023 0 0 0 0.0117,-0.0195 c 0.1347,-0.22899 0.27491,-0.37116 0.50391,-0.50586 0.13878,-0.0816 0.28282,-0.0887 0.42382,-0.11328 z m 11.75782,2.98633 0.0215,0.0117 c -0.004,-0.002 -0.01,-0.001 -0.0137,-0.004 -0.003,-0.002 -0.005,-0.006 -0.008,-0.008 z m -12.80274,1.54297 a 1.8238023,1.8238023 0 0 0 1.04492,1.04492 c -0.14087,-0.0246 -0.28514,-0.0317 -0.42382,-0.11328 -0.23629,-0.139 -0.37598,-0.285 -0.50586,-0.4961 -0.0774,-0.13365 -0.0911,-0.28629 -0.11524,-0.43554 z m 10.49414,1.4707 c 0.1543,0.0204 0.30321,0.0346 0.43946,0.11719 a 1.8238023,1.8238023 0 0 0 0.0195,0.0137 c 0.22899,0.1347 0.37115,0.27491 0.50586,0.50391 a 1.8238023,1.8238023 0 0 0 0.0332,0.0547 c 0.0813,0.1278 0.0942,0.27369 0.11523,0.42383 a 1.8238023,1.8238023 0 0 0 -1.11328,-1.11328 z m 1.10938,4.49609 c -0.0209,0.14932 -0.0319,0.29064 -0.125,0.44141 a 1.8238023,1.8238023 0 0 0 -0.0195,0.0352 c -0.13471,0.22899 -0.27687,0.3692 -0.50586,0.5039 a 1.8238023,1.8238023 0 0 0 -0.0195,0.0117 c -0.13614,0.0825 -0.28533,0.0968 -0.43946,0.11719 a 1.8238023,1.8238023 0 0 0 1.10938,-1.10938 z m -11.55664,0.2168 h 0.12109 a 1.8238023,1.8238023 0 0 0 0.87695,0.87695 c -0.14087,-0.0246 -0.28514,-0.0317 -0.42382,-0.11328 -0.229,-0.1347 -0.36921,-0.27491 -0.50391,-0.5039 -0.05,-0.0851 -0.0428,-0.17898 -0.0703,-0.25977 z" id="path12333"/><path style="color:#000000;-inkscape-font-specification:'Orbitron Heavy';fill:url(#linearGradient456);stroke:none;stroke-linecap:butt;stroke-linejoin:miter;-inkscape-stroke:none" d="m -349.2165,264.35037 q -0.85333,0 -1.57866,-0.42666 -0.72533,-0.42667 -1.152,-1.152 -0.42667,-0.72533 -0.42667,-1.57867 v -1.42933 h 3.30666 v 1.25867 q 0,0 0,0 0,0 0,0 h 8.70399 q 0,0 0,0 0,0 0,0 v -2.688 q 0,0 0,0 0,0 0,0 h -8.85332 q -0.85333,0 -1.57866,-0.42666 -0.72533,-0.42667 -1.152,-1.13067 -0.42667,-0.72533 -0.42667,-1.6 v -3.02933 q 0,-0.87466 0.42667,-1.57866 0.42667,-0.72533 1.152,-1.152 0.72533,-0.42666 1.57866,-0.42666 h 9.04532 q 0.85333,0 1.55733,0.42666 0.72533,0.42667 1.152,1.152 0.448,0.704 0.448,1.57866 v 1.42934 h -3.34933 v -1.25867 q 0,0 0,0 0,0 0,0 h -8.70399 q 0,0 0,0 0,0 0,0 v 2.688 q 0,0 0,0 0,0 0,0 h 8.89599 q 0.85333,0 1.55733,0.42666 0.72533,0.42667 1.152,1.152 0.448,0.704 0.448,1.57867 v 3.02932 q 0,0.85334 -0.448,1.57867 -0.42667,0.72533 -1.152,1.152 -0.704,0.42666 -1.55733,0.42666 z" id="path12335"/></g><g id="g12343" style="fill:url(#linearGradient462)"><path style="color:#000000;-inkscape-font-specification:'Orbitron Heavy';fill:#feeeff;stroke:none;stroke-linecap:butt;stroke-linejoin:miter;-inkscape-stroke:none" d="m -334.75195,246.09961 a 1.8238023,1.8238023 0 0 0 -1.82422,1.82422 v 3.28515 a 1.8238023,1.8238023 0 0 0 0.38476,0.38477 1.8238023,1.8238023 0 0 0 -0.38476,0.38281 v 12.37305 a 1.8238023,1.8238023 0 0 0 1.82422,1.82422 h 3.26367 a 1.8238023,1.8238023 0 0 0 1.82422,-1.82422 v -12.37305 a 1.8238023,1.8238023 0 0 0 -0.38477,-0.38281 1.8238023,1.8238023 0 0 0 0.38477,-0.38477 v -3.28515 a 1.8238023,1.8238023 0 0 0 -1.82422,-1.82422 z" id="path12339"/><path style="color:#000000;-inkscape-font-specification:'Orbitron Heavy';fill:url(#linearGradient460);stroke:none;stroke-linecap:butt;stroke-linejoin:miter;-inkscape-stroke:none" d="m -334.75254,264.35037 v 0 -12.37331 h 3.264 v 12.37331 z m 0,-13.14131 v 0 -3.28533 h 3.264 v 3.28533 z" id="path12341"/></g><g id="g12349" style="fill:url(#linearGradient466)"><path style="color:#000000;-inkscape-font-specification:'Orbitron Heavy';fill:#feeeff;stroke:none;stroke-linecap:butt;stroke-linejoin:miter;-inkscape-stroke:none" d="m -329.78125,247.16602 a 1.8238023,1.8238023 0 0 0 -1.82422,1.82421 v 15.35938 a 1.8238023,1.8238023 0 0 0 1.82422,1.82422 h 3.30664 a 1.8238023,1.8238023 0 0 0 1.82227,-1.82422 v -5.29492 l 2.0957,2.48242 a 1.8238023,1.8238023 0 0 0 2.79102,-0.006 l 2.07031,-2.4707 v 5.28906 a 1.8238023,1.8238023 0 0 0 1.82226,1.82422 h 3.32813 a 1.8238023,1.8238023 0 0 0 1.82422,-1.82422 v -15.35938 a 1.8238023,1.8238023 0 0 0 -1.82422,-1.82421 h -3.4336 a 1.8238023,1.8238023 0 0 0 -1.40039,0.65625 l -3.78711,4.53515 -3.80468,-4.53906 a 1.8238023,1.8238023 0 0 0 -1.39844,-0.65234 z m 1.82227,3.64843 h 0.74023 l 1.62891,1.94141 a 1.8238023,1.8238023 0 0 0 -2.36914,0.82617 z m 12.83203,0 h 0.75781 v 2.77539 a 1.8238023,1.8238023 0 0 0 -2.35547,-0.86132 z m -6.75,5.87305 a 1.8238023,1.8238023 0 0 0 1.40234,0.0117 l -0.69336,0.82812 z" id="path12345"/><path style="color:#000000;-inkscape-font-specification:'Orbitron Heavy';fill:url(#linearGradient464);stroke:none;stroke-linecap:butt;stroke-linejoin:miter;-inkscape-stroke:none" d="M -329.78188,264.35037 V 248.9904 h 3.41333 l 5.20532,6.20799 5.184,-6.20799 h 3.43466 v 15.35997 h -3.328 v -10.30398 l -5.29066,6.31466 -5.31199,-6.29333 v 10.28265 z" id="path12347"/></g></g><text xml:space="preserve" transform="matrix(0.26458333,0,0,0.26458333,103.20316,55.958131)" id="text12355" style="font-weight:900;font-size:21.3333px;font-family:Orbitron;-inkscape-font-specification:'Orbitron Heavy';text-align:center;white-space:pre;shape-inside:url(#rect12359);shape-padding:1.65062;display:none;fill:url(#linearGradient744);fill-opacity:1;stroke:#feeeff;stroke-width:3.64724;stroke-linecap:round;stroke-linejoin:round;stroke-opacity:1;paint-order:stroke fill markers" inkscape:label="SiM TEXT" x="19.914627" y="0"/></g><g id="g1" transform="translate(0,5.8135327)"><g id="g1857" inkscape:label="Curves"><path style="fill:none;stroke:#747475;stroke-width:0.5;stroke-linejoin:bevel;stroke-dasharray:none;stroke-opacity:1;paint-order:stroke fill markers;stop-color:#000000" d="m 8.7596285,93.880289 c 0,0 -5.8790234,-2.904669 -5.3230176,-4.920936 0.658747,-2.388843 3.9794793,-4.800845 4.0244631,-7.65992 -0.061527,-3.799908 -6.4398354,3.295309 -5.9381872,-3.144196" id="path5741" sodipodi:nodetypes="cscc"/><path style="fill:none;stroke:#aaaaab;stroke-width:0.5;stroke-linejoin:bevel;stroke-dasharray:none;stroke-opacity:1;paint-order:stroke fill markers;stop-color:#000000" d="m 2.8426574,93.888327 c 0,0 -1.4205222,-2.144065 -1.0236472,-6.575836 0.396875,-4.431771 7.7234154,-12.31998 7.7234154,-12.31998" id="path6142" sodipodi:nodetypes="csc"/><path style="fill:none;stroke:#020203;stroke-width:0.4985;stroke-linejoin:bevel;stroke-dasharray:none;stroke-opacity:1;paint-order:stroke fill markers;stop-color:#000000" d="m 3.3938296,93.613596 c 0,0 2.9312192,-2.496724 3.2188781,-4.250571 C 6.9806448,87.119725 5.2908381,86.272996 4.447958,82.895891 3.2428587,78.067509 3.7194735,74.822376 3.7194735,74.822376" id="path4732" sodipodi:nodetypes="casc"/></g><g id="g2179" inkscape:label="Arrows" style="display:inline;fill:#e9afaf" transform="rotate(90,10.845666,89.922758)"><g id="g29664"><g id="path16717"><path style="color:#000000;fill:#000001;stroke-linecap:square;stroke-linejoin:bevel;-inkscape-stroke:none;paint-order:stroke fill markers" d="m 14.980469,93.183594 v 0.519531 h 0.259765 11.019532 0.259765 V 93.183594 H 26.259766 15.240234 Z" id="path29693"/><g id="g29571"><g id="path29573"><path style="color:#000000;fill:#000001;fill-rule:evenodd;stroke-width:0.2605pt;-inkscape-stroke:none" d="m 27.762975,93.443564 -2.253321,1.302498 v -2.604996 z" id="path29690"/><path style="color:#000000;fill:#000001;fill-rule:evenodd;-inkscape-stroke:none" d="m 25.335937,91.839844 v 3.207031 l 2.773438,-1.603516 -0.259766,-0.15039 z m 0.347657,0.601562 1.732422,1.001953 -1.732422,1.001953 z" id="path29687"/></g></g></g></g><g id="path16763"><path style="color:#000000;fill:#000001;stroke-linecap:square;stroke-linejoin:bevel;-inkscape-stroke:none;paint-order:stroke fill markers" d="m 14.964844,97.431641 v 0.490234 h 0.246094 9.820312 0.246094 V 97.431641 H 25.03125 15.210938 Z" id="path29707"/><g id="g29697"><g id="path29699"><path style="color:#000000;fill:#000001;fill-rule:evenodd;stroke-width:0.245907pt;-inkscape-stroke:none" d="m 26.450373,97.6769 -2.127095,1.229535 v -2.45907 z" id="path29703"/><path style="color:#000000;fill:#000001;fill-rule:evenodd;-inkscape-stroke:none" d="m 24.160156,96.164062 v 3.027344 l 2.617188,-1.513672 -0.244141,-0.142578 z m 0.326172,0.566407 1.636719,0.945312 -1.636719,0.947266 z" id="path29705"/></g></g></g></g><path style="display:inline;fill:#000001;stroke:#000001;stroke-width:0.532;stroke-linejoin:bevel;stroke-dasharray:none;paint-order:stroke fill markers;stop-color:#000000" d="M 14.747866,99.926521 V 91.46076" id="path4321" transform="rotate(90,10.845666,89.922758)" inkscape:label="Stopline"/></g></g><g id="g3" inkscape:label="boring" style="display:inline"><text xml:space="preserve" transform="matrix(0,0.26458333,-0.26458333,0,72.849597,208.64804)" id="text2" style="font-weight:900;font-size:21.3333px;font-family:Orbitron;-inkscape-font-specification:'Orbitron Heavy';text-align:center;white-space:pre;shape-inside:url(#rect2);shape-padding:1.65062;display:inline;fill:#000000;fill-opacity:1;stroke:#9a9a9a;stroke-width:3.64724;stroke-linecap:round;stroke-linejoin:round;stroke-opacity:1;paint-order:stroke fill markers" inkscape:label="SiM TEXT" x="19.914627" y="0"><tspan x="-353.36581" y="264.35037" id="tspan1">SIM</tspan></text><g id="text5" inkscape:label="SiM TEXT" transform="matrix(0,0.26458333,-0.26458333,0,72.849597,208.64804)"><path style="color:#000000;-inkscape-font-specification:'Orbitron Heavy';fill:#9a9a9a;stroke-linecap:round;stroke-linejoin:round;-inkscape-stroke:none;paint-order:stroke fill markers" d="m -349.05664,247.16602 c -0.87282,0 -1.75097,0.23679 -2.50391,0.67968 -0.7349,0.43231 -1.35704,1.05708 -1.79101,1.79102 -0.45302,0.75294 -0.68555,1.63687 -0.68555,2.51172 v 3.02929 c 0,0.87963 0.23088,1.76377 0.67774,2.52344 a 1.8238023,1.8238023 0 0 0 0.0117,0.0215 c 0.1667,0.27504 0.46548,0.43148 0.68164,0.66992 a 1.8238023,1.8238023 0 0 0 -1.37109,1.37109 v 1.42969 c 0,0.87282 0.23484,1.75097 0.67774,2.50391 0.43418,0.73811 1.06071,1.36463 1.79882,1.79882 0.75294,0.4429 1.63109,0.67774 2.50391,0.67774 h 9.04492 c 0.86868,0 1.74586,-0.23799 2.49219,-0.6875 0.36726,-0.21743 0.59478,-0.59363 0.89648,-0.89649 a 1.8238023,1.8238023 0 0 0 1.58203,1.58399 h 3.26368 a 1.8238023,1.8238023 0 0 0 0.91797,-0.91797 1.8238023,1.8238023 0 0 0 0.91796,0.91797 h 3.30664 a 1.8238023,1.8238023 0 0 0 1.82227,-1.82422 v -5.29492 l 2.0957,2.48242 a 1.8238023,1.8238023 0 0 0 2.79102,-0.006 l 2.07031,-2.4707 v 5.28906 a 1.8238023,1.8238023 0 0 0 1.82227,1.82422 h 3.32812 a 1.8238023,1.8238023 0 0 0 1.82422,-1.82422 V 248.9901 a 1.8238023,1.8238023 0 0 0 -1.82422,-1.82421 h -3.43359 a 1.8238023,1.8238023 0 0 0 -1.40039,0.65625 l -3.78711,4.53515 -3.80469,-4.53906 a 1.8238023,1.8238023 0 0 0 -1.39844,-0.65234 h -3.41211 a 1.8238023,1.8238023 0 0 0 -0.91796,0.91796 1.8238023,1.8238023 0 0 0 -0.91797,-0.91796 h -3.26368 A 1.8238023,1.8238023 0 0 0 -336.625,248.75 c -0.30187,-0.30269 -0.52911,-0.67926 -0.89648,-0.89648 -0.74598,-0.44888 -1.62219,-0.6875 -2.49024,-0.6875 z m 13.29297,2.42382 0.0332,0.0547 c -0.006,-0.0104 -0.0192,-0.015 -0.0254,-0.0254 -0.005,-0.009 -0.002,-0.0207 -0.008,-0.0293 z m 7.64453,1.22461 h 0.74023 l 1.62891,1.94141 a 1.8238023,1.8238023 0 0 0 -2.36914,0.82617 z m 12.83203,0 h 0.75977 v 2.77735 a 1.8238023,1.8238023 0 0 0 -2.35743,-0.86328 z m -24.54883,0.0469 c 0.15313,0.0206 0.30198,0.0331 0.4375,0.11523 a 1.8238023,1.8238023 0 0 0 0.0195,0.0117 c 0.229,0.1347 0.37117,0.27688 0.50586,0.50586 a 1.8238023,1.8238023 0 0 0 0.0332,0.0547 c 0.0393,0.0618 0.0303,0.14486 0.0547,0.20508 h -0.1582 a 1.8238023,1.8238023 0 0 0 -0.89258,-0.89258 z m -9.45117,0.0137 a 1.8238023,1.8238023 0 0 0 -1.04492,1.04492 c 0.0244,-0.1386 0.0325,-0.28911 0.10351,-0.40625 a 1.8238023,1.8238023 0 0 0 0.0137,-0.0195 c 0.1347,-0.22899 0.27491,-0.37116 0.5039,-0.50586 0.13879,-0.0816 0.28282,-0.0887 0.42383,-0.11328 z m 11.75781,2.98633 0.0215,0.0117 c -0.004,-0.002 -0.01,-10e-4 -0.0137,-0.004 -0.003,-0.002 -0.005,-0.006 -0.008,-0.008 z m -12.80273,1.54297 a 1.8238023,1.8238023 0 0 0 1.04492,1.04492 c -0.14087,-0.0246 -0.28514,-0.0317 -0.42383,-0.11328 -0.23492,-0.1382 -0.37656,-0.2831 -0.50586,-0.49219 -0.0786,-0.13495 -0.0909,-0.28895 -0.11523,-0.43945 z m 14.56836,0.20117 0.0332,0.0547 c -0.006,-0.0104 -0.0192,-0.015 -0.0254,-0.0254 -0.005,-0.009 -0.002,-0.0207 -0.008,-0.0293 z m 13.72656,1.08203 a 1.8238023,1.8238023 0 0 0 1.40234,0.0117 l -0.69335,0.82812 z m -17.80078,0.1875 c 0.1543,0.0204 0.30321,0.0346 0.43945,0.11719 a 1.8238023,1.8238023 0 0 0 0.0195,0.0137 c 0.229,0.1347 0.37117,0.27493 0.50586,0.50391 a 1.8238023,1.8238023 0 0 0 0.0332,0.0547 c 0.0813,0.1278 0.0942,0.27369 0.11523,0.42383 a 1.8238023,1.8238023 0 0 0 -1.11328,-1.11328 z m 1.10937,4.49609 c -0.0209,0.14932 -0.0319,0.29064 -0.125,0.44141 a 1.8238023,1.8238023 0 0 0 -0.0195,0.0352 c -0.13469,0.22898 -0.27686,0.3692 -0.50586,0.5039 a 1.8238023,1.8238023 0 0 0 -0.0195,0.0117 c -0.13613,0.0825 -0.28533,0.0968 -0.43945,0.11719 a 1.8238023,1.8238023 0 0 0 1.10937,-1.10938 z m -11.55664,0.2168 h 0.1211 a 1.8238023,1.8238023 0 0 0 0.87695,0.87695 c -0.14087,-0.0246 -0.28514,-0.0317 -0.42383,-0.11328 -0.22899,-0.1347 -0.3692,-0.27491 -0.5039,-0.5039 -0.05,-0.0851 -0.0428,-0.17898 -0.0703,-0.25977 z m 14.55469,2.10938 -0.0195,0.0332 c 0.004,-0.006 0.002,-0.0137 0.006,-0.0195 0.003,-0.006 0.0104,-0.008 0.0137,-0.0137 z" id="path5"/><path style="color:#000000;-inkscape-font-specification:'Orbitron Heavy';fill:#000000;stroke-linecap:round;stroke-linejoin:round;-inkscape-stroke:none;paint-order:stroke fill markers" d="m -349.05649,264.35037 q -0.85333,0 -1.57866,-0.42666 -0.72533,-0.42667 -1.152,-1.152 -0.42666,-0.72533 -0.42666,-1.57867 v -1.42933 h 3.30666 v 1.25867 q 0,0 0,0 0,0 0,0 h 8.70398 q 0,0 0,0 0,0 0,0 v -2.688 q 0,0 0,0 0,0 0,0 h -8.85332 q -0.85333,0 -1.57866,-0.42666 -0.72533,-0.42667 -1.152,-1.13067 -0.42666,-0.72533 -0.42666,-1.6 v -3.02933 q 0,-0.87466 0.42666,-1.57866 0.42667,-0.72533 1.152,-1.152 0.72533,-0.42666 1.57866,-0.42666 h 9.04532 q 0.85334,0 1.55733,0.42666 0.72534,0.42667 1.152,1.152 0.448,0.704 0.448,1.57866 v 1.42934 h -3.34933 v -1.25867 q 0,0 0,0 0,0 0,0 h -8.70398 q 0,0 0,0 0,0 0,0 v 2.688 q 0,0 0,0 0,0 0,0 h 8.89598 q 0.85334,0 1.55733,0.42666 0.72534,0.42667 1.152,1.152 0.448,0.704 0.448,1.57867 v 3.02932 q 0,0.85334 -0.448,1.57867 -0.42666,0.72533 -1.152,1.152 -0.70399,0.42666 -1.55733,0.42666 z m 14.01596,0 V 248.9904 h 3.264 v 15.35997 z m 5.09864,0 V 248.9904 h 3.41332 l 5.20533,6.20799 5.18399,-6.20799 h 3.43466 v 15.35997 h -3.32799 v -10.30398 l -5.29066,6.31466 -5.31199,-6.29333 v 10.28265 z" id="path6"/></g></g></svg>