<?xml version="1.0" encoding="UTF-8" standalone="no"?>
<!-- Created with Inkscape (http://www.inkscape.org/) -->

<svg
   inkscape:version="1.2.2 (732a01da63, 2022-12-09)"
   sodipodi:docname="Coerce.svg"
   id="svg5"
   version="1.1"
   viewBox="0 0 30.48 128.5"
   height="128.5mm"
   width="30.48mm"
   xml:space="preserve"
   xmlns:inkscape="http://www.inkscape.org/namespaces/inkscape"
   xmlns:sodipodi="http://sodipodi.sourceforge.net/DTD/sodipodi-0.dtd"
   xmlns:xlink="http://www.w3.org/1999/xlink"
   xmlns="http://www.w3.org/2000/svg"
   xmlns:svg="http://www.w3.org/2000/svg"><sodipodi:namedview
     id="namedview7"
     pagecolor="#ffffff"
     bordercolor="#000000"
     borderopacity="0.25"
     inkscape:showpageshadow="2"
     inkscape:pageopacity="0.0"
     inkscape:pagecheckerboard="0"
     inkscape:deskcolor="#d1d1d1"
     inkscape:document-units="mm"
     showgrid="true"
     showguides="true"
     inkscape:zoom="1.4142137"
     inkscape:cx="-10.253047"
     inkscape:cy="242.5376"
     inkscape:window-width="1920"
     inkscape:window-height="1021"
     inkscape:window-x="-7"
     inkscape:window-y="-7"
     inkscape:window-maximized="1"
     inkscape:current-layer="svg5"><inkscape:grid
       type="xygrid"
       id="grid23806"
       spacingx="5.0800001"
       spacingy="10"
       units="mm"
       dotted="true" /><sodipodi:guide
       position="8.9958327,8.0319127"
       orientation="0,-1"
       id="guide803"
       inkscape:locked="false" /></sodipodi:namedview><defs
     id="defs2"><linearGradient
       id="linearGradient5269"
       inkscape:swatch="solid"><stop
         style="stop-color:#bc9051;stop-opacity:1;"
         offset="0"
         id="stop5267" /></linearGradient><inkscape:path-effect
       effect="bspline"
       id="path-effect28295"
       is_visible="true"
       lpeversion="1"
       weight="33.333333"
       steps="2"
       helper_size="0"
       apply_no_weight="true"
       apply_with_weight="true"
       only_selected="false" /><inkscape:path-effect
       effect="bspline"
       id="path-effect28279"
       is_visible="true"
       lpeversion="1"
       weight="33.333333"
       steps="2"
       helper_size="0"
       apply_no_weight="true"
       apply_with_weight="true"
       only_selected="false" /><inkscape:path-effect
       effect="bspline"
       id="path-effect27181"
       is_visible="true"
       lpeversion="1"
       weight="33.333333"
       steps="2"
       helper_size="0"
       apply_no_weight="true"
       apply_with_weight="true"
       only_selected="false" /><inkscape:path-effect
       effect="bspline"
       id="path-effect27171"
       is_visible="true"
       lpeversion="1"
       weight="33.333333"
       steps="2"
       helper_size="0"
       apply_no_weight="true"
       apply_with_weight="true"
       only_selected="false" /><inkscape:path-effect
       effect="bspline"
       id="path-effect27161"
       is_visible="true"
       lpeversion="1"
       weight="33.333333"
       steps="2"
       helper_size="0"
       apply_no_weight="true"
       apply_with_weight="true"
       only_selected="false" /><inkscape:path-effect
       effect="bspline"
       id="path-effect27151"
       is_visible="true"
       lpeversion="1"
       weight="33.333333"
       steps="2"
       helper_size="0"
       apply_no_weight="true"
       apply_with_weight="true"
       only_selected="false" /><inkscape:path-effect
       effect="bspline"
       id="path-effect27141"
       is_visible="true"
       lpeversion="1"
       weight="33.333333"
       steps="2"
       helper_size="0"
       apply_no_weight="true"
       apply_with_weight="true"
       only_selected="false" /><inkscape:path-effect
       effect="bspline"
       id="path-effect27131"
       is_visible="true"
       lpeversion="1"
       weight="33.333333"
       steps="2"
       helper_size="0"
       apply_no_weight="true"
       apply_with_weight="true"
       only_selected="false" /><inkscape:path-effect
       effect="bspline"
       id="path-effect16779"
       is_visible="true"
       lpeversion="1"
       weight="33.333333"
       steps="2"
       helper_size="0"
       apply_no_weight="true"
       apply_with_weight="true"
       only_selected="false" /><inkscape:path-effect
       effect="bspline"
       id="path-effect16767"
       is_visible="true"
       lpeversion="1"
       weight="33.333333"
       steps="2"
       helper_size="0"
       apply_no_weight="true"
       apply_with_weight="true"
       only_selected="false" /><inkscape:path-effect
       effect="bspline"
       id="path-effect16755"
       is_visible="true"
       lpeversion="1"
       weight="33.333333"
       steps="2"
       helper_size="0"
       apply_no_weight="true"
       apply_with_weight="true"
       only_selected="false" /><inkscape:path-effect
       effect="bspline"
       id="path-effect16729"
       is_visible="true"
       lpeversion="1"
       weight="33.333333"
       steps="2"
       helper_size="0"
       apply_no_weight="true"
       apply_with_weight="true"
       only_selected="false" /><inkscape:path-effect
       effect="bspline"
       id="path-effect16719"
       is_visible="true"
       lpeversion="1"
       weight="33.333333"
       steps="2"
       helper_size="0"
       apply_no_weight="true"
       apply_with_weight="true"
       only_selected="false" /><inkscape:path-effect
       effect="bspline"
       id="path-effect16493"
       is_visible="true"
       lpeversion="1"
       weight="33.333333"
       steps="2"
       helper_size="0"
       apply_no_weight="true"
       apply_with_weight="true"
       only_selected="false" /><inkscape:path-effect
       effect="bspline"
       id="path-effect15691"
       is_visible="true"
       lpeversion="1"
       weight="33.333333"
       steps="2"
       helper_size="0"
       apply_no_weight="true"
       apply_with_weight="true"
       only_selected="false" /><inkscape:path-effect
       effect="bspline"
       id="path-effect15681"
       is_visible="true"
       lpeversion="1"
       weight="33.333333"
       steps="2"
       helper_size="0"
       apply_no_weight="true"
       apply_with_weight="true"
       only_selected="false" /><inkscape:path-effect
       effect="bspline"
       id="path-effect15671"
       is_visible="true"
       lpeversion="1"
       weight="33.333333"
       steps="2"
       helper_size="0"
       apply_no_weight="true"
       apply_with_weight="true"
       only_selected="false" /><inkscape:path-effect
       effect="bspline"
       id="path-effect15661"
       is_visible="true"
       lpeversion="1"
       weight="33.333333"
       steps="2"
       helper_size="0"
       apply_no_weight="true"
       apply_with_weight="true"
       only_selected="false" /><inkscape:path-effect
       effect="bspline"
       id="path-effect15651"
       is_visible="true"
       lpeversion="1"
       weight="33.333333"
       steps="2"
       helper_size="0"
       apply_no_weight="true"
       apply_with_weight="true"
       only_selected="false" /><inkscape:path-effect
       effect="bspline"
       id="path-effect15587"
       is_visible="true"
       lpeversion="1"
       weight="33.333333"
       steps="2"
       helper_size="0"
       apply_no_weight="true"
       apply_with_weight="true"
       only_selected="false" /><linearGradient
       id="linearGradient7378"><stop
         style="stop-color:#bd91df;stop-opacity:1;"
         offset="0"
         id="stop12941" /><stop
         style="stop-color:#28c6ff;stop-opacity:1;"
         offset="1"
         id="stop12943" /></linearGradient><rect
       x="-362.74576"
       y="242.83466"
       width="272.94321"
       height="175.77255"
       id="rect2576" /><rect
       x="0"
       y="456.79095"
       width="76.799995"
       height="28.878334"
       id="rect405" /><linearGradient
       inkscape:collect="always"
       id="linearGradient1445"><stop
         style="stop-color:#e0e8f3;stop-opacity:1;"
         offset="0"
         id="stop1441" /><stop
         style="stop-color:#e0e8f3;stop-opacity:0;"
         offset="1"
         id="stop1443" /></linearGradient><rect
       x="7.0710678"
       y="69.296463"
       width="26.162951"
       height="19.091883"
       id="rect292" /><rect
       x="7.0710678"
       y="69.296463"
       width="26.162951"
       height="19.091883"
       id="rect374" /><linearGradient
       inkscape:collect="always"
       xlink:href="#linearGradient1445"
       id="linearGradient1451"
       x1="2.9572134"
       y1="5.5931401"
       x2="17.362785"
       y2="5.5931401"
       gradientUnits="userSpaceOnUse" /><rect
       x="-362.74576"
       y="242.83466"
       width="272.94321"
       height="175.77255"
       id="rect725" /><rect
       x="-362.74576"
       y="242.83466"
       width="272.94321"
       height="175.77255"
       id="rect806" /><rect
       x="-362.74576"
       y="242.83466"
       width="272.94321"
       height="175.77255"
       id="rect872" /><mask
       maskUnits="userSpaceOnUse"
       id="mask12356-9"><path
         style="fill:#ff00ff;stroke:#fe5aff;stroke-width:0.102442;stroke-linejoin:bevel;stroke-dasharray:none;stroke-opacity:1;paint-order:stroke fill markers"
         d="m 4.2467972,120.10164 1e-7,-40.771484 H 16.337802 v 40.771484 z"
         id="path12358-1"
         inkscape:label="mask" /></mask><mask
       maskUnits="userSpaceOnUse"
       id="mask12412-7"><path
         style="fill:#ff00ff;stroke:#fe5aff;stroke-width:0.102442;stroke-linejoin:bevel;stroke-dasharray:none;stroke-opacity:1;paint-order:stroke fill markers"
         d="m 4.2467972,120.10164 1e-7,-40.771484 H 16.337802 v 40.771484 z"
         id="path12414-0"
         inkscape:label="mask" /></mask><mask
       maskUnits="userSpaceOnUse"
       id="mask12412-8"><path
         style="fill:#ff00ff;stroke:#fe5aff;stroke-width:0.102442;stroke-linejoin:bevel;stroke-dasharray:none;stroke-opacity:1;paint-order:stroke fill markers"
         d="m 4.2467972,120.10164 1e-7,-40.771484 H 16.337802 v 40.771484 z"
         id="path12414-9"
         inkscape:label="mask" /></mask><mask
       maskUnits="userSpaceOnUse"
       id="mask12352-9"><path
         style="fill:#ff00ff;stroke:#fe5aff;stroke-width:0.102442;stroke-linejoin:bevel;stroke-dasharray:none;stroke-opacity:1;paint-order:stroke fill markers"
         d="m 4.2467972,120.10164 1e-7,-40.771484 H 16.337802 v 40.771484 z"
         id="path12354-1"
         inkscape:label="mask" /></mask><mask
       maskUnits="userSpaceOnUse"
       id="mask12428-3"><path
         style="fill:#ff00ff;stroke:#fe5aff;stroke-width:0.102442;stroke-linejoin:bevel;stroke-dasharray:none;stroke-opacity:1;paint-order:stroke fill markers"
         d="m 4.2467972,120.10164 1e-7,-40.771484 H 16.337802 v 40.771484 z"
         id="path12430-2"
         inkscape:label="mask" /></mask><mask
       maskUnits="userSpaceOnUse"
       id="mask12428-6"><path
         style="fill:#ff00ff;stroke:#fe5aff;stroke-width:0.102442;stroke-linejoin:bevel;stroke-dasharray:none;stroke-opacity:1;paint-order:stroke fill markers"
         d="m 4.2467972,120.10164 1e-7,-40.771484 H 16.337802 v 40.771484 z"
         id="path12430-5"
         inkscape:label="mask" /></mask><clipPath
       clipPathUnits="userSpaceOnUse"
       id="clipPath4444"><path
         style="display:inline;fill:#ff00ff;stroke:#fe5aff;stroke-width:0.102442;stroke-linejoin:bevel;stroke-dasharray:none;stroke-opacity:1;paint-order:stroke fill markers"
         d="m 4.2467972,120.10164 1e-7,-40.771484 H 16.337802 v 40.771484 z"
         id="path4446"
         inkscape:label="clip" /></clipPath><rect
       x="-362.74576"
       y="242.83466"
       width="272.94321"
       height="175.77255"
       id="rect30022" /><rect
       x="-362.74576"
       y="242.83466"
       width="272.94321"
       height="175.77255"
       id="rect2576-2" /><rect
       x="0"
       y="456.79095"
       width="76.799995"
       height="28.878334"
       id="rect405-8" /><rect
       x="7.0710678"
       y="69.296463"
       width="26.162951"
       height="19.091883"
       id="rect292-9" /><rect
       x="7.0710678"
       y="69.296463"
       width="26.162951"
       height="19.091883"
       id="rect374-2" /><rect
       x="-362.74576"
       y="242.83466"
       width="272.94321"
       height="175.77255"
       id="rect725-6" /><rect
       x="-362.74576"
       y="242.83466"
       width="272.94321"
       height="175.77255"
       id="rect806-0" /><rect
       x="-362.74576"
       y="242.83466"
       width="272.94321"
       height="175.77255"
       id="rect872-1" /><mask
       maskUnits="userSpaceOnUse"
       id="mask12356-9-6"><path
         style="fill:#ff00ff;stroke:#fe5aff;stroke-width:0.102442;stroke-linejoin:bevel;stroke-dasharray:none;stroke-opacity:1;paint-order:stroke fill markers"
         d="m 4.2467972,120.10164 1e-7,-40.771484 H 16.337802 v 40.771484 z"
         id="path12358-1-9"
         inkscape:label="mask" /></mask><mask
       maskUnits="userSpaceOnUse"
       id="mask12412-7-2"><path
         style="fill:#ff00ff;stroke:#fe5aff;stroke-width:0.102442;stroke-linejoin:bevel;stroke-dasharray:none;stroke-opacity:1;paint-order:stroke fill markers"
         d="m 4.2467972,120.10164 1e-7,-40.771484 H 16.337802 v 40.771484 z"
         id="path12414-0-3"
         inkscape:label="mask" /></mask><mask
       maskUnits="userSpaceOnUse"
       id="mask12412-8-4"><path
         style="fill:#ff00ff;stroke:#fe5aff;stroke-width:0.102442;stroke-linejoin:bevel;stroke-dasharray:none;stroke-opacity:1;paint-order:stroke fill markers"
         d="m 4.2467972,120.10164 1e-7,-40.771484 H 16.337802 v 40.771484 z"
         id="path12414-9-9"
         inkscape:label="mask" /></mask><mask
       maskUnits="userSpaceOnUse"
       id="mask12352-9-9"><path
         style="fill:#ff00ff;stroke:#fe5aff;stroke-width:0.102442;stroke-linejoin:bevel;stroke-dasharray:none;stroke-opacity:1;paint-order:stroke fill markers"
         d="m 4.2467972,120.10164 1e-7,-40.771484 H 16.337802 v 40.771484 z"
         id="path12354-1-9"
         inkscape:label="mask" /></mask><mask
       maskUnits="userSpaceOnUse"
       id="mask12428-3-6"><path
         style="fill:#ff00ff;stroke:#fe5aff;stroke-width:0.102442;stroke-linejoin:bevel;stroke-dasharray:none;stroke-opacity:1;paint-order:stroke fill markers"
         d="m 4.2467972,120.10164 1e-7,-40.771484 H 16.337802 v 40.771484 z"
         id="path12430-2-1"
         inkscape:label="mask" /></mask><mask
       maskUnits="userSpaceOnUse"
       id="mask12428-6-2"><path
         style="fill:#ff00ff;stroke:#fe5aff;stroke-width:0.102442;stroke-linejoin:bevel;stroke-dasharray:none;stroke-opacity:1;paint-order:stroke fill markers"
         d="m 4.2467972,120.10164 1e-7,-40.771484 H 16.337802 v 40.771484 z"
         id="path12430-5-8"
         inkscape:label="mask" /></mask><clipPath
       clipPathUnits="userSpaceOnUse"
       id="clipPath4444-4"><path
         style="display:inline;fill:#ff00ff;stroke:#fe5aff;stroke-width:0.102442;stroke-linejoin:bevel;stroke-dasharray:none;stroke-opacity:1;paint-order:stroke fill markers"
         d="m 4.2467972,120.10164 1e-7,-40.771484 H 16.337802 v 40.771484 z"
         id="path4446-9"
         inkscape:label="clip" /></clipPath><linearGradient
       inkscape:collect="always"
       xlink:href="#linearGradient5347"
       id="linearGradient744"
       gradientUnits="userSpaceOnUse"
       x1="-333.70743"
       y1="244.44972"
       x2="-333.70743"
       y2="264.52359" /><linearGradient
       inkscape:collect="always"
       id="linearGradient5347"><stop
         style="stop-color:#10ccd2;stop-opacity:1;"
         offset="0"
         id="stop5343" /><stop
         style="stop-color:#cd25cd;stop-opacity:1;"
         offset="1"
         id="stop5345" /></linearGradient><rect
       x="-362.74576"
       y="242.83466"
       width="60.787731"
       height="29.019567"
       id="rect2576-0" /><rect
       x="-362.74576"
       y="242.83466"
       width="60.787731"
       height="29.019567"
       id="rect2835" /><rect
       x="-362.74576"
       y="242.83466"
       width="60.787731"
       height="29.019567"
       id="rect12331" /><rect
       x="-362.74576"
       y="242.83466"
       width="60.787731"
       height="29.019567"
       id="rect12359" /></defs><rect
     style="display:inline;fill:#333333;opacity:1;fill-opacity:1;stroke-width:0.455649"
     id="rect338"
     width="30.48"
     height="128.5"
     x="1.7763568e-15"
     y="0"
     inkscape:label="background" /><g
     id="g2377"
     inkscape:label="LOGO"
     style="display:inline;fill:#e9afaf"><g
       aria-label="SiM"
       transform="matrix(0.26458333,0,0,0.26458333,103.20316,55.958131)"
       id="text2574-8"
       style="font-weight:900;font-size:21.3333px;font-family:Orbitron;-inkscape-font-specification:'Orbitron Heavy';text-align:center;white-space:pre;fill:url(#linearGradient744);stroke:#f8f8f8;stroke-width:3.64724;stroke-linecap:round;stroke-linejoin:round;paint-order:stroke fill markers"
       inkscape:label="SiM PATH"><g
         id="path2837"><path
           style="color:#000000;-inkscape-font-specification:'Orbitron Heavy';fill:#f8f8f8;stroke:none;stroke-linecap:butt;stroke-linejoin:miter;-inkscape-stroke:none"
           d="m -349.2168,247.16602 c -0.87282,0 -1.75097,0.23679 -2.5039,0.67968 -0.73411,0.43184 -1.35515,1.05616 -1.78907,1.78907 -0.45368,0.7533 -0.6875,1.63818 -0.6875,2.51367 v 3.02929 c 0,0.87964 0.23087,1.76377 0.67774,2.52344 a 1.8238023,1.8238023 0 0 0 0.0137,0.0215 c 0.16655,0.27479 0.46376,0.43166 0.67969,0.66992 a 1.8238023,1.8238023 0 0 0 -1.3711,1.37109 v 1.42969 c 0,0.87283 0.23483,1.75097 0.67774,2.50391 0.43419,0.73811 1.06071,1.36463 1.79883,1.79882 0.75293,0.4429 1.63108,0.67774 2.5039,0.67774 h 9.04493 c 0.86867,0 1.74586,-0.238 2.49218,-0.6875 0.7273,-0.4306 1.34397,-1.04857 1.77539,-1.77539 0.45981,-0.75185 0.71485,-1.63642 0.71485,-2.51758 v -3.0293 c 0,-0.88427 -0.25495,-1.7767 -0.72657,-2.52929 -0.16276,-0.27212 -0.45486,-0.42884 -0.66601,-0.66602 a 1.8238023,1.8238023 0 0 0 1.39258,-1.39258 v -1.42773 c 0,-0.88427 -0.25496,-1.7767 -0.72657,-2.5293 -0.43149,-0.72139 -1.04208,-1.33781 -1.76562,-1.76562 -0.74597,-0.44887 -1.62219,-0.6875 -2.49023,-0.6875 z m 9.22071,3.69531 c 0.15312,0.0206 0.30196,0.0331 0.4375,0.11523 a 1.8238023,1.8238023 0 0 0 0.0195,0.0117 c 0.22899,0.1347 0.37115,0.27687 0.50586,0.50586 a 1.8238023,1.8238023 0 0 0 0.0332,0.0547 c 0.0393,0.0618 0.0303,0.14486 0.0547,0.20508 h -0.15821 a 1.8238023,1.8238023 0 0 0 -0.89257,-0.89258 z m -9.45118,0.0137 a 1.8238023,1.8238023 0 0 0 -1.04492,1.04492 c 0.0244,-0.13868 0.0344,-0.28906 0.10547,-0.40625 a 1.8238023,1.8238023 0 0 0 0.0117,-0.0195 c 0.1347,-0.22899 0.27491,-0.37116 0.50391,-0.50586 0.13878,-0.0816 0.28282,-0.0887 0.42382,-0.11328 z m 11.75782,2.98633 0.0215,0.0117 c -0.004,-0.002 -0.01,-0.001 -0.0137,-0.004 -0.003,-0.002 -0.005,-0.006 -0.008,-0.008 z m -12.80274,1.54297 a 1.8238023,1.8238023 0 0 0 1.04492,1.04492 c -0.14087,-0.0246 -0.28514,-0.0317 -0.42382,-0.11328 -0.23629,-0.139 -0.37598,-0.285 -0.50586,-0.4961 -0.0774,-0.13365 -0.0911,-0.28629 -0.11524,-0.43554 z m 10.49414,1.4707 c 0.1543,0.0204 0.30321,0.0346 0.43946,0.11719 a 1.8238023,1.8238023 0 0 0 0.0195,0.0137 c 0.22899,0.1347 0.37115,0.27491 0.50586,0.50391 a 1.8238023,1.8238023 0 0 0 0.0332,0.0547 c 0.0813,0.1278 0.0942,0.27369 0.11523,0.42383 a 1.8238023,1.8238023 0 0 0 -1.11328,-1.11328 z m 1.10938,4.49609 c -0.0209,0.14932 -0.0319,0.29064 -0.125,0.44141 a 1.8238023,1.8238023 0 0 0 -0.0195,0.0352 c -0.13471,0.22899 -0.27687,0.3692 -0.50586,0.5039 a 1.8238023,1.8238023 0 0 0 -0.0195,0.0117 c -0.13614,0.0825 -0.28533,0.0968 -0.43946,0.11719 a 1.8238023,1.8238023 0 0 0 1.10938,-1.10938 z m -11.55664,0.2168 h 0.12109 a 1.8238023,1.8238023 0 0 0 0.87695,0.87695 c -0.14087,-0.0246 -0.28514,-0.0317 -0.42382,-0.11328 -0.229,-0.1347 -0.36921,-0.27491 -0.50391,-0.5039 -0.05,-0.0851 -0.0428,-0.17898 -0.0703,-0.25977 z"
           id="path2846" /><path
           style="color:#000000;-inkscape-font-specification:'Orbitron Heavy';stroke:none;stroke-linecap:butt;stroke-linejoin:miter;-inkscape-stroke:none"
           d="m -349.2165,264.35037 q -0.85333,0 -1.57866,-0.42666 -0.72533,-0.42667 -1.152,-1.152 -0.42667,-0.72533 -0.42667,-1.57867 v -1.42933 h 3.30666 v 1.25867 q 0,0 0,0 0,0 0,0 h 8.70399 q 0,0 0,0 0,0 0,0 v -2.688 q 0,0 0,0 0,0 0,0 h -8.85332 q -0.85333,0 -1.57866,-0.42666 -0.72533,-0.42667 -1.152,-1.13067 -0.42667,-0.72533 -0.42667,-1.6 v -3.02933 q 0,-0.87466 0.42667,-1.57866 0.42667,-0.72533 1.152,-1.152 0.72533,-0.42666 1.57866,-0.42666 h 9.04532 q 0.85333,0 1.55733,0.42666 0.72533,0.42667 1.152,1.152 0.448,0.704 0.448,1.57866 v 1.42934 h -3.34933 v -1.25867 q 0,0 0,0 0,0 0,0 h -8.70399 q 0,0 0,0 0,0 0,0 v 2.688 q 0,0 0,0 0,0 0,0 h 8.89599 q 0.85333,0 1.55733,0.42666 0.72533,0.42667 1.152,1.152 0.448,0.704 0.448,1.57867 v 3.02932 q 0,0.85334 -0.448,1.57867 -0.42667,0.72533 -1.152,1.152 -0.704,0.42666 -1.55733,0.42666 z"
           id="path2848" /></g><g
         id="path2839"><path
           style="color:#000000;-inkscape-font-specification:'Orbitron Heavy';fill:#f8f8f8;stroke:none;stroke-linecap:butt;stroke-linejoin:miter;-inkscape-stroke:none"
           d="m -334.75195,246.09961 a 1.8238023,1.8238023 0 0 0 -1.82422,1.82422 v 3.28515 a 1.8238023,1.8238023 0 0 0 0.38476,0.38477 1.8238023,1.8238023 0 0 0 -0.38476,0.38281 v 12.37305 a 1.8238023,1.8238023 0 0 0 1.82422,1.82422 h 3.26367 a 1.8238023,1.8238023 0 0 0 1.82422,-1.82422 v -12.37305 a 1.8238023,1.8238023 0 0 0 -0.38477,-0.38281 1.8238023,1.8238023 0 0 0 0.38477,-0.38477 v -3.28515 a 1.8238023,1.8238023 0 0 0 -1.82422,-1.82422 z"
           id="path2852" /><path
           style="color:#000000;-inkscape-font-specification:'Orbitron Heavy';stroke:none;stroke-linecap:butt;stroke-linejoin:miter;-inkscape-stroke:none"
           d="m -334.75254,264.35037 v 0 -12.37331 h 3.264 v 12.37331 z m 0,-13.14131 v 0 -3.28533 h 3.264 v 3.28533 z"
           id="path2854" /></g><g
         id="path2841"><path
           style="color:#000000;-inkscape-font-specification:'Orbitron Heavy';fill:#f8f8f8;stroke:none;stroke-linecap:butt;stroke-linejoin:miter;-inkscape-stroke:none"
           d="m -329.78125,247.16602 a 1.8238023,1.8238023 0 0 0 -1.82422,1.82421 v 15.35938 a 1.8238023,1.8238023 0 0 0 1.82422,1.82422 h 3.30664 a 1.8238023,1.8238023 0 0 0 1.82227,-1.82422 v -5.29492 l 2.0957,2.48242 a 1.8238023,1.8238023 0 0 0 2.79102,-0.006 l 2.07031,-2.4707 v 5.28906 a 1.8238023,1.8238023 0 0 0 1.82226,1.82422 h 3.32813 a 1.8238023,1.8238023 0 0 0 1.82422,-1.82422 v -15.35938 a 1.8238023,1.8238023 0 0 0 -1.82422,-1.82421 h -3.4336 a 1.8238023,1.8238023 0 0 0 -1.40039,0.65625 l -3.78711,4.53515 -3.80468,-4.53906 a 1.8238023,1.8238023 0 0 0 -1.39844,-0.65234 z m 1.82227,3.64843 h 0.74023 l 1.62891,1.94141 a 1.8238023,1.8238023 0 0 0 -2.36914,0.82617 z m 12.83203,0 h 0.75781 v 2.77539 a 1.8238023,1.8238023 0 0 0 -2.35547,-0.86132 z m -6.75,5.87305 a 1.8238023,1.8238023 0 0 0 1.40234,0.0117 l -0.69336,0.82812 z"
           id="path2858" /><path
           style="color:#000000;-inkscape-font-specification:'Orbitron Heavy';stroke:none;stroke-linecap:butt;stroke-linejoin:miter;-inkscape-stroke:none"
           d="M -329.78188,264.35037 V 248.9904 h 3.41333 l 5.20532,6.20799 5.184,-6.20799 h 3.43466 v 15.35997 h -3.328 v -10.30398 l -5.29066,6.31466 -5.31199,-6.29333 v 10.28265 z"
           id="path2860" /></g></g><text
       xml:space="preserve"
       transform="matrix(0.26458333,0,0,0.26458333,103.20316,55.958131)"
       id="text2833"
       style="font-weight:900;font-size:21.3333px;font-family:Orbitron;-inkscape-font-specification:'Orbitron Heavy';text-align:center;white-space:pre;shape-inside:url(#rect2835);shape-padding:1.65062;display:none;fill:url(#linearGradient744);fill-opacity:1;stroke:#f8f8f8;stroke-width:3.64724;stroke-linecap:round;stroke-linejoin:round;stroke-opacity:1;paint-order:stroke fill markers"
       inkscape:label="SiM TEXT"
       x="19.914627"
       y="0" /></g><g
     inkscape:groupmode="layer"
     id="g372"
     inkscape:label="Text"
     style="display:inline;fill:#e9afaf"><g
       id="g30639"
       inkscape:label="INOUTPATH"
       transform="translate(-1.0583333)"><g
         aria-label="input"
         transform="rotate(-45)"
         id="text30571"
         style="font-weight:500;font-size:2.46944px;font-family:Orbitron;-inkscape-font-specification:'Orbitron Medium';fill:#ffffff;stroke-width:0.520999;stroke-linecap:square;stroke-linejoin:bevel;paint-order:stroke fill markers"><path
           d="m -14.827664,20.315441 v 0 -1.432275 h 0.2667 v 1.432275 z m 0,-1.634769 v 0 -0.2667 h 0.2667 v 0.2667 z"
           style="stroke-width:0.521"
           id="path2752" /><path
           d="m -14.276812,20.315441 v 0 -1.432275 h 1.135942 q 0.0889,0 0.160514,0.04445 0.07408,0.04445 0.116063,0.116064 0.04445,0.07161 0.04445,0.160513 v 1.111248 h -0.266699 v -1.10384 q 0,-0.02469 -0.01976,-0.04198 -0.01729,-0.01976 -0.04198,-0.01976 h -0.800099 q -0.02469,0 -0.04445,0.01976 -0.01729,0.01729 -0.01729,0.04198 v 1.10384 z"
           style="stroke-width:0.521"
           id="path2754" /><path
           d="m -12.5999,20.883412 v 0 -2.000246 h 1.135942 q 0.0889,0 0.160514,0.04445 0.07408,0.04445 0.116063,0.116064 0.04445,0.07161 0.04445,0.160513 v 0.790221 q 0,0.0889 -0.04445,0.160514 -0.04198,0.07161 -0.116063,0.116063 -0.07161,0.04445 -0.160514,0.04445 h -0.869243 v 0.567971 z m 0.328435,-0.83467 h 0.800099 q 0.02469,0 0.04198,-0.01729 0.01976,-0.01976 0.01976,-0.04445 v -0.775405 q 0,-0.02469 -0.01976,-0.04198 -0.01729,-0.01976 -0.04198,-0.01976 h -0.800099 q -0.02469,0 -0.04445,0.01976 -0.01729,0.01729 -0.01729,0.04198 v 0.775405 q 0,0.02469 0.01729,0.04445 0.01976,0.01729 0.04445,0.01729 z"
           style="stroke-width:0.521"
           id="path2756" /><path
           d="m -10.641636,20.315441 q -0.0889,0 -0.162983,-0.04445 -0.07161,-0.04445 -0.116063,-0.116063 -0.04198,-0.07161 -0.04198,-0.160514 v -1.111248 h 0.2667 v 1.10384 q 0,0.02469 0.01729,0.04445 0.01975,0.01729 0.04445,0.01729 h 0.8000983 q 0.024694,0 0.041981,-0.01729 0.019756,-0.01976 0.019756,-0.04445 v -1.10384 h 0.2666996 v 1.111248 q 0,0.0889 -0.04445,0.160514 -0.04198,0.07161 -0.1160636,0.116063 -0.071614,0.04445 -0.1605136,0.04445 h -0.8149157 z"
           style="stroke-width:0.521"
           id="path2758" /><path
           d="m -8.9714257,20.315441 q -0.0889,0 -0.162983,-0.04445 -0.071614,-0.04445 -0.1160637,-0.116063 -0.04198,-0.07161 -0.04198,-0.160514 v -1.563156 h 0.2666995 v 0.451908 h 0.5877267 v 0.266699 h -0.5877267 v 0.837141 q 0,0.02469 0.017286,0.04445 0.019756,0.01729 0.04445,0.01729 h 0.5259907 v 0.266699 h -0.5333991 z"
           style="stroke-width:0.521"
           id="path2760" /></g><g
         aria-label="Quantize"
         transform="rotate(-45)"
         id="text30625"
         style="font-weight:500;font-size:2.46944px;font-family:Orbitron;-inkscape-font-specification:'Orbitron Medium';fill:#ffffff;stroke-width:0.520999;stroke-linecap:square;stroke-linejoin:bevel;paint-order:stroke fill markers"><path
           d="m -7.4421216,26.520639 v -0.185208 l 0.3383133,-0.148166 v 0.06668 h 0.2222496 v 0.266699 z m -1.1186563,0 q -0.0889,0 -0.162983,-0.04198 -0.071614,-0.04445 -0.1160637,-0.116064 -0.04198,-0.07408 -0.04198,-0.162983 V 25.06367 q 0,-0.0889 0.04198,-0.160514 0.04445,-0.07408 0.1160637,-0.116063 0.074083,-0.04445 0.162983,-0.04445 h 1.1359424 q 0.08643,0 0.1605136,0.04445 0.074083,0.04198 0.1160637,0.116063 0.04445,0.07161 0.04445,0.160514 v 1.135942 q 0,0.0889 -0.04445,0.162983 -0.041981,0.07161 -0.1160637,0.116064 -0.074083,0.04198 -0.1605136,0.04198 z m 0.00741,-0.266699 h 1.1211258 q 0.024694,0 0.041981,-0.01729 0.017286,-0.01976 0.017286,-0.04445 v -1.121126 q 0,-0.02469 -0.017286,-0.04198 -0.017286,-0.01976 -0.041981,-0.01976 h -1.1211258 q -0.024694,0 -0.04445,0.01976 -0.017286,0.01729 -0.017286,0.04198 v 1.121126 q 0,0.02469 0.017286,0.04445 0.019756,0.01729 0.04445,0.01729 z"
           style="stroke-width:0.521"
           id="path2773" /><path
           d="m -6.3802603,26.520639 q -0.0889,0 -0.1629831,-0.04445 -0.071614,-0.04445 -0.1160637,-0.116063 -0.04198,-0.07161 -0.04198,-0.160514 v -1.111248 h 0.2666995 v 1.10384 q 0,0.02469 0.017286,0.04445 0.019755,0.01729 0.04445,0.01729 h 0.8000985 q 0.024694,0 0.041981,-0.01729 0.019755,-0.01976 0.019755,-0.04445 v -1.10384 h 0.2666995 v 1.111248 q 0,0.0889 -0.04445,0.160514 -0.041981,0.07161 -0.1160637,0.116063 -0.071614,0.04445 -0.1605136,0.04445 h -0.8149151 z"
           style="stroke-width:0.521"
           id="path2775" /><path
           d="m -4.6664696,26.520639 q -0.0889,0 -0.162983,-0.04445 -0.071614,-0.04445 -0.1160637,-0.116063 -0.04198,-0.07161 -0.04198,-0.160514 v -0.52846 h 1.1878006 V 25.4168 q 0,-0.02469 -0.017286,-0.04198 -0.017286,-0.01975 -0.041981,-0.01975 h -1.1285341 v -0.2667 h 1.1359424 q 0.0889,0 0.1605136,0.04445 0.074083,0.04198 0.1160637,0.116064 0.04445,0.07408 0.04445,0.160513 v 1.111248 z m 0.00741,-0.266699 h 0.8593651 v -0.333374 h -0.9211011 v 0.271638 q 0,0.02469 0.017286,0.04445 0.019756,0.01729 0.04445,0.01729 z"
           style="stroke-width:0.521"
           id="path2777" /><path
           d="m -3.300399,26.520639 v 0 -1.432275 h 1.1359424 q 0.0889,0 0.1605136,0.04445 0.074083,0.04445 0.1160637,0.116064 0.04445,0.07161 0.04445,0.160513 v 1.111248 H -2.1101289 V 25.4168 q 0,-0.02469 -0.019756,-0.04198 -0.017286,-0.01975 -0.041981,-0.01975 h -0.8000985 q -0.024694,0 -0.04445,0.01975 -0.017286,0.01729 -0.017286,0.04198 v 1.103839 z"
           style="stroke-width:0.521"
           id="path2779" /><path
           d="m -1.2631131,26.520639 q -0.0889,0 -0.1629831,-0.04445 -0.071614,-0.04445 -0.1160637,-0.116063 -0.04198,-0.07161 -0.04198,-0.160514 v -1.563155 h 0.2666995 v 0.451907 h 0.5877267 v 0.2667 h -0.5877267 v 0.83714 q 0,0.02469 0.017286,0.04445 0.019756,0.01729 0.04445,0.01729 h 0.5259907 v 0.266699 h -0.533399 z"
           style="stroke-width:0.521"
           id="path2781" /><path
           d="m -0.52925723,26.520639 v 0 -1.432275 h 0.26669951 v 1.432275 z m 0,-1.634769 v 0 -0.266699 h 0.26669951 v 0.266699 z"
           style="stroke-width:0.521"
           id="path2783" /><path
           d="m 0.01808963,26.520639 v 0 -0.316088 L 1.1194599,25.355064 H 0.01808963 v -0.2667 H 1.4750592 v 0.316089 L 0.37368899,26.25394 H 1.4750592 v 0.266699 z"
           style="stroke-width:0.521"
           id="path2785" /><path
           d="m 1.9936424,26.520639 q -0.0889,0 -0.1605136,-0.04445 -0.071614,-0.04445 -0.1160637,-0.116063 -0.04445,-0.07161 -0.04445,-0.160514 v -0.790221 q 0,-0.0889 0.04445,-0.160513 0.04445,-0.07161 0.1160637,-0.116064 0.071614,-0.04445 0.1605136,-0.04445 h 0.8149152 q 0.0889,0 0.1605136,0.04445 0.074083,0.04198 0.1160637,0.116064 0.04445,0.07408 0.04445,0.160513 v 0.528461 H 1.9393147 v 0.254352 q 0,0.02469 0.017286,0.04445 0.019756,0.01729 0.04445,0.01729 h 1.1285341 v 0.266699 H 1.9936424 Z M 1.9393147,25.688438 H 2.8604158 V 25.4168 q 0,-0.02469 -0.017286,-0.04198 -0.017286,-0.01975 -0.04198,-0.01975 H 2.0010507 q -0.024694,0 -0.04445,0.01975 -0.017286,0.01729 -0.017286,0.04198 z"
           style="stroke-width:0.521"
           id="path2787" /></g><g
         aria-label="output"
         transform="rotate(-45)"
         id="text30629"
         style="font-weight:500;font-size:2.46944px;font-family:Orbitron;-inkscape-font-specification:'Orbitron Medium';fill:#ffffff;stroke-width:0.520999;stroke-linecap:square;stroke-linejoin:bevel;paint-order:stroke fill markers"><path
           d="m -0.41060732,34.411823 q -0.0888998,0 -0.16051359,-0.04445 -0.0716138,-0.04445 -0.11606368,-0.116063 -0.0444499,-0.07161 -0.0444499,-0.160514 v -0.790221 q 0,-0.0889 0.0444499,-0.160513 0.0444499,-0.07161 0.11606368,-0.116064 0.0716137,-0.04445 0.16051359,-0.04445 h 0.8149152 q 0.0888998,0 0.1605136,0.04445 0.0740832,0.04198 0.11606368,0.116064 0.0444499,0.07408 0.0444499,0.160513 v 0.790221 q 0,0.0889 -0.0444499,0.160514 -0.0419805,0.07161 -0.11606368,0.116063 -0.0716138,0.04445 -0.1605136,0.04445 h -0.8149152 z m 0.007408,-0.266699 h 0.80009856 q 0.0246944,0 0.0419805,-0.01729 0.0172861,-0.01976 0.0172861,-0.04445 v -0.775404 q 0,-0.02469 -0.0172861,-0.04198 -0.0172861,-0.01975 -0.0419805,-0.01975 H -0.403199 q -0.0246944,0 -0.0444499,0.01975 -0.0172861,0.01729 -0.0172861,0.04198 v 0.775404 q 0,0.02469 0.0172861,0.04445 0.0197555,0.01729 0.0444499,0.01729 z"
           style="stroke-width:0.521"
           id="path2806" /><path
           d="m 1.2427805,34.411823 q -0.0889,0 -0.162983,-0.04445 -0.071614,-0.04445 -0.11606371,-0.116063 -0.0419805,-0.07161 -0.0419805,-0.160514 V 32.979548 H 1.1884528 v 1.10384 q 0,0.02469 0.017286,0.04445 0.019756,0.01729 0.04445,0.01729 h 0.8000986 q 0.024694,0 0.04198,-0.01729 0.019756,-0.01976 0.019756,-0.04445 v -1.10384 h 0.2666995 v 1.111248 q 0,0.0889 -0.04445,0.160514 -0.041981,0.07161 -0.1160637,0.116063 -0.071614,0.04445 -0.1605136,0.04445 H 1.2427805 Z"
           style="stroke-width:0.521"
           id="path2808" /><path
           d="m 2.9129899,34.411823 q -0.0889,0 -0.162983,-0.04445 -0.071614,-0.04445 -0.1160637,-0.116063 -0.041981,-0.07161 -0.041981,-0.160514 v -1.563155 h 0.2666995 v 0.451907 H 3.446389 v 0.2667 H 2.8586622 v 0.83714 q 0,0.02469 0.017286,0.04445 0.019756,0.01729 0.04445,0.01729 H 3.446389 v 0.266699 H 2.9129899 Z"
           style="stroke-width:0.521"
           id="path2810" /><path
           d="m 3.6439426,34.979794 v 0 -2.000246 H 4.779885 q 0.0889,0 0.1605136,0.04445 0.074083,0.04445 0.1160637,0.116064 0.04445,0.07161 0.04445,0.160513 v 0.790221 q 0,0.0889 -0.04445,0.160514 -0.04198,0.07161 -0.1160637,0.116063 -0.071614,0.04445 -0.1605136,0.04445 H 3.9106422 v 0.567971 z m 0.3284356,-0.83467 h 0.8000985 q 0.024694,0 0.04198,-0.01729 0.019756,-0.01976 0.019756,-0.04445 v -0.775404 q 0,-0.02469 -0.019756,-0.04198 -0.017286,-0.01975 -0.04198,-0.01975 H 3.9723782 q -0.024694,0 -0.04445,0.01975 -0.017286,0.01729 -0.017286,0.04198 v 0.775404 q 0,0.02469 0.017286,0.04445 0.019756,0.01729 0.04445,0.01729 z"
           style="stroke-width:0.521"
           id="path2812" /><path
           d="m 5.602207,34.411823 q -0.0889,0 -0.162983,-0.04445 -0.071614,-0.04445 -0.1160637,-0.116063 -0.04198,-0.07161 -0.04198,-0.160514 v -1.111248 h 0.2666995 v 1.10384 q 0,0.02469 0.017286,0.04445 0.019756,0.01729 0.04445,0.01729 h 0.8000986 q 0.024694,0 0.041981,-0.01729 0.019755,-0.01976 0.019755,-0.04445 v -1.10384 h 0.2666995 v 1.111248 q 0,0.0889 -0.04445,0.160514 -0.041981,0.07161 -0.1160637,0.116063 -0.071614,0.04445 -0.1605136,0.04445 H 5.602207 Z"
           style="stroke-width:0.521"
           id="path2814" /><path
           d="m 7.2724169,34.411823 q -0.0889,0 -0.162983,-0.04445 -0.071614,-0.04445 -0.1160637,-0.116063 -0.041981,-0.07161 -0.041981,-0.160514 v -1.563155 h 0.2666995 v 0.451907 h 0.5877267 v 0.2667 H 7.2180892 v 0.83714 q 0,0.02469 0.017286,0.04445 0.019755,0.01729 0.04445,0.01729 h 0.5259907 v 0.266699 h -0.533399 z"
           style="stroke-width:0.521"
           id="path2816" /></g></g><g
       id="g2750"
       inkscape:label="INOUTTEXT"
       transform="translate(-1.0583333)"
       style="display:none"><text
         xml:space="preserve"
         style="font-style:normal;font-variant:normal;font-weight:500;font-stretch:normal;font-size:2.46944px;font-family:Orbitron;-inkscape-font-specification:'Orbitron Medium';fill:#ffffff;fill-opacity:1;stroke:none;stroke-width:0.520999;stroke-linecap:square;stroke-linejoin:bevel;stroke-dasharray:none;stroke-opacity:1;paint-order:stroke fill markers;stop-color:#000000"
         x="-14.956075"
         y="20.315441"
         id="text2740"
         transform="rotate(-45)"><tspan
           sodipodi:role="line"
           id="tspan2738"
           style="font-style:normal;font-variant:normal;font-weight:500;font-stretch:normal;font-size:2.46944px;font-family:Orbitron;-inkscape-font-specification:'Orbitron Medium';stroke-width:0.521"
           x="-14.956075"
           y="20.315441">input</tspan></text><text
         xml:space="preserve"
         style="font-style:normal;font-variant:normal;font-weight:500;font-stretch:normal;font-size:2.46944px;font-family:Orbitron;-inkscape-font-specification:'Orbitron Medium';fill:#ffffff;fill-opacity:1;stroke:none;stroke-width:0.520999;stroke-linecap:square;stroke-linejoin:bevel;stroke-dasharray:none;stroke-opacity:1;paint-order:stroke fill markers;stop-color:#000000"
         x="-9.0151548"
         y="26.520639"
         id="text2744"
         transform="rotate(-45)"><tspan
           sodipodi:role="line"
           id="tspan2742"
           style="font-style:normal;font-variant:normal;font-weight:500;font-stretch:normal;font-size:2.46944px;font-family:Orbitron;-inkscape-font-specification:'Orbitron Medium';stroke-width:0.521"
           x="-9.0151548"
           y="26.520639">Quantize</tspan></text><text
         xml:space="preserve"
         style="font-style:normal;font-variant:normal;font-weight:500;font-stretch:normal;font-size:2.46944px;font-family:Orbitron;-inkscape-font-specification:'Orbitron Medium';fill:#ffffff;fill-opacity:1;stroke:none;stroke-width:0.520999;stroke-linecap:square;stroke-linejoin:bevel;stroke-dasharray:none;stroke-opacity:1;paint-order:stroke fill markers;stop-color:#000000"
         x="-0.85757595"
         y="34.411823"
         id="text2748"
         transform="rotate(-45)"><tspan
           sodipodi:role="line"
           id="tspan2746"
           style="font-style:normal;font-variant:normal;font-weight:500;font-stretch:normal;font-size:2.46944px;font-family:Orbitron;-inkscape-font-specification:'Orbitron Medium';stroke-width:0.521"
           x="-0.85757595"
           y="34.411823">output</tspan></text></g></g><g
     id="g2214"
     inkscape:label="Curves"
     style="display:inline;fill:#e9afaf"><path
       style="display:inline;fill:none;fill-opacity:1;stroke:#ee7eff;stroke-width:0.520999;stroke-linecap:square;stroke-linejoin:bevel;stroke-dasharray:none;stroke-opacity:1;paint-order:stroke fill markers;stop-color:#000000"
       d="m 3.5634382,111.67215 c 1.3411171,-0.39693 2.6820646,-0.7938 4.3073277,-0.95914 1.6252631,-0.16533 3.5346651,-0.0992 4.7784901,-0.73855 1.243826,-0.63937 1.822342,-1.98431 2.400924,-3.3294"
       id="path15585"
       inkscape:path-effect="#path-effect15587"
       inkscape:original-d="m 3.5634382,111.67215 c 1.341211,-0.39661 2.6821576,-0.79349 4.0228397,-1.19063 1.9097427,0.0664 3.8191441,0.13256 5.7283191,0.19844 0.578804,-1.34473 1.15732,-2.68967 1.735583,-4.0349" /><path
       style="display:inline;fill:none;fill-opacity:1;stroke:#94dce9;stroke-width:0.520999;stroke-linecap:square;stroke-linejoin:bevel;stroke-dasharray:none;stroke-opacity:1;paint-order:stroke fill markers;stop-color:#000000"
       d="m 3.3517368,101.97477 c 2.535899,0.57333 5.0714885,1.1466 6.9853172,0.904 1.913828,-0.24259 3.206122,-1.3009 4.498416,-2.35921"
       id="path15649"
       inkscape:path-effect="#path-effect15651"
       inkscape:original-d="m 3.3517368,101.97477 c 2.5358545,0.57353 5.0714447,1.14679 7.6067702,1.71979 1.292611,-1.05809 2.584906,-2.1164 3.876963,-3.175" /><path
       style="fill:none;fill-opacity:1;stroke:#dfa858;stroke-width:0.520999;stroke-linecap:square;stroke-linejoin:bevel;stroke-dasharray:none;stroke-opacity:1;paint-order:stroke fill markers;stop-color:#000000"
       d="m 4.3834246,94.459565 c 1.8022096,-0.13231 3.6041752,-0.264601 4.6403002,-1.047229 1.0361252,-0.782628 1.3066812,-2.21576 2.1544352,-1.995211 0.847754,0.22055 2.272379,2.094644 3.69681,3.968482"
       id="path15659"
       inkscape:path-effect="#path-effect15661"
       inkscape:original-d="m 4.3834246,94.459565 c 1.8022303,-0.132027 3.6041959,-0.264319 5.405897,-0.396875 0.2708314,-1.432925 0.5413884,-2.866057 0.8116854,-4.299479 1.424947,1.874433 2.849573,3.748527 4.273963,5.622396" /><path
       style="fill:none;fill-opacity:1;stroke:#ee7eff;stroke-width:0.520999;stroke-linecap:square;stroke-linejoin:bevel;stroke-dasharray:none;stroke-opacity:1;paint-order:stroke fill markers;stop-color:#000000"
       d="m 4.2035664,87.246345 c 1.449807,3.770631 2.8994915,7.540944 4.6982486,9.42594 1.798757,1.884995 3.94636,1.884995 6.093741,1.884995"
       id="path15669"
       inkscape:path-effect="#path-effect15671"
       inkscape:original-d="m 4.2035664,87.246345 c 1.4499486,3.770577 2.8996327,7.54089 4.3490522,11.310935 2.1479534,2.64e-4 4.2955564,2.64e-4 6.4429374,0" /><path
       style="fill:none;fill-opacity:1;stroke:#94dce9;stroke-width:0.520999;stroke-linecap:square;stroke-linejoin:bevel;stroke-dasharray:none;stroke-opacity:1;paint-order:stroke fill markers;stop-color:#000000"
       d="m 4.1045509,91.136495 c 2.2206579,-2.670619 4.441338,-5.341265 6.2971411,-4.625881 1.855803,0.715385 3.346531,4.816344 4.837174,8.917067"
       id="path15679"
       inkscape:path-effect="#path-effect15681"
       inkscape:original-d="m 4.1045509,91.136495 c 2.2209447,-2.670381 4.4416247,-5.341027 6.6620401,-8.011938 1.491053,4.101388 2.981781,8.202347 4.472275,12.303124"
       sodipodi:nodetypes="ccc" /><path
       style="fill:none;fill-opacity:1;stroke:#dfa858;stroke-width:0.520999;stroke-linecap:square;stroke-linejoin:bevel;stroke-dasharray:none;stroke-opacity:1;paint-order:stroke fill markers;stop-color:#000000"
       d="m 4.4226983,116.22328 c 1.2450238,-3.02605 2.4901008,-6.05223 4.2059064,-8.15348 1.7158053,-2.10125 3.9020993,-3.27732 6.0883423,-4.45336"
       id="path15689"
       inkscape:path-effect="#path-effect15691"
       inkscape:original-d="m 4.4226983,116.22328 c 1.2453437,-3.02592 2.4904231,-6.0521 3.735238,-9.07856 2.1866447,-1.17585 4.3729387,-2.35192 6.5590107,-3.52828" /></g><g
     id="g2143"
     inkscape:label="Straight Lines"
     style="display:inline;fill:#e9afaf"><g
       id="g6004"
       inkscape:label="Flow Down Path"
       style="display:inline;fill:#e9afaf;stroke:#dfa858;stroke-opacity:1"
       transform="translate(-0.02753505,9.7498777)"><g
         id="g5990"
         transform="matrix(0,0.57492347,-0.57492347,0,55.484667,23.641112)"
         style="stroke:#dfa858;stroke-opacity:1"><path
           style="color:#000000;fill:#94dce9;stroke:#dfa858;stroke-linecap:round;stroke-linejoin:round;-inkscape-stroke:none;paint-order:stroke fill markers;stroke-opacity:1"
           d="M 19.894531,69.744141 A 0.25549999,0.25549999 0 0 0 19.640625,70 0.25549999,0.25549999 0 0 0 19.894531,70.255859 0.25549999,0.25549999 0 0 0 20.150391,70 0.25549999,0.25549999 0 0 0 19.894531,69.744141 Z"
           id="path5980" /><g
           id="g5988"
           transform="translate(-0.24826805)"
           style="stroke:#dfa858;stroke-opacity:1"><g
             id="g5986"
             style="stroke:#dfa858;stroke-opacity:1"><path
               style="color:#000000;fill:#94dce9;fill-rule:evenodd;stroke:#dfa858;stroke-width:0.166033pt;-inkscape-stroke:none;stroke-opacity:1"
               d="m 20.853167,69.999996 -1.436189,0.830167 v -1.660334 z"
               id="path5982" /><path
               style="color:#000000;fill:#94dce9;fill-rule:evenodd;stroke:#dfa858;-inkscape-stroke:none;stroke-opacity:1"
               d="m 19.306641,68.978516 v 2.042968 L 21.074219,70 20.908203,69.904297 Z M 19.527344,69.361328 20.630859,70 19.527344,70.638672 Z"
               id="path5984" /></g></g></g><g
         id="g6002"
         transform="matrix(0,0.57492347,-0.57492347,0,55.484667,23.641112)"
         style="stroke:#dfa858;stroke-opacity:1"><path
           style="color:#000000;fill:#94dce9;stroke:#dfa858;stroke-linecap:round;stroke-linejoin:round;-inkscape-stroke:none;paint-order:stroke fill markers;stroke-opacity:1"
           d="M 19.894531,69.744141 A 0.25549999,0.25549999 0 0 0 19.640625,70 0.25549999,0.25549999 0 0 0 19.894531,70.255859 0.25549999,0.25549999 0 0 0 20.150391,70 0.25549999,0.25549999 0 0 0 19.894531,69.744141 Z"
           id="path5992" /><g
           id="g6000"
           transform="translate(-0.24826805)"
           style="stroke:#dfa858;stroke-opacity:1"><g
             id="g5998"
             style="stroke:#dfa858;stroke-opacity:1"><path
               style="color:#000000;fill:#94dce9;fill-rule:evenodd;stroke:#dfa858;stroke-width:0.166033pt;-inkscape-stroke:none;stroke-opacity:1"
               d="m 20.853167,69.999996 -1.436189,0.830167 v -1.660334 z"
               id="path5994" /><path
               style="color:#000000;fill:#94dce9;fill-rule:evenodd;stroke:#dfa858;-inkscape-stroke:none;stroke-opacity:1"
               d="m 19.306641,68.978516 v 2.042968 L 21.074219,70 20.908203,69.904297 Z M 19.527344,69.361328 20.630859,70 19.527344,70.638672 Z"
               id="path5996" /></g></g></g><g
         id="g6046"
         transform="matrix(0,0.57492347,-0.57492347,0,55.484667,33.641113)"
         style="stroke:#dfa858;stroke-opacity:1"><path
           style="color:#000000;fill:#94dce9;stroke:#dfa858;stroke-linecap:round;stroke-linejoin:round;-inkscape-stroke:none;paint-order:stroke fill markers;stroke-opacity:1"
           d="M 19.894531,69.744141 A 0.25549999,0.25549999 0 0 0 19.640625,70 0.25549999,0.25549999 0 0 0 19.894531,70.255859 0.25549999,0.25549999 0 0 0 20.150391,70 0.25549999,0.25549999 0 0 0 19.894531,69.744141 Z"
           id="path6036" /><g
           id="g6044"
           transform="translate(-0.24826805)"
           style="stroke:#dfa858;stroke-opacity:1"><g
             id="g6042"
             style="stroke:#dfa858;stroke-opacity:1"><path
               style="color:#000000;fill:#94dce9;fill-rule:evenodd;stroke:#dfa858;stroke-width:0.166033pt;-inkscape-stroke:none;stroke-opacity:1"
               d="m 20.853167,69.999996 -1.436189,0.830167 v -1.660334 z"
               id="path6038" /><path
               style="color:#000000;fill:#94dce9;fill-rule:evenodd;stroke:#dfa858;-inkscape-stroke:none;stroke-opacity:1"
               d="m 19.306641,68.978516 v 2.042968 L 21.074219,70 20.908203,69.904297 Z M 19.527344,69.361328 20.630859,70 19.527344,70.638672 Z"
               id="path6040" /></g></g></g><g
         id="g6076"
         transform="matrix(0,0.57492347,-0.57492347,0,55.484667,43.641108)"
         style="stroke:#dfa858;stroke-opacity:1"><path
           style="color:#000000;fill:#94dce9;stroke:#dfa858;stroke-linecap:round;stroke-linejoin:round;-inkscape-stroke:none;paint-order:stroke fill markers;stroke-opacity:1"
           d="M 19.894531,69.744141 A 0.25549999,0.25549999 0 0 0 19.640625,70 0.25549999,0.25549999 0 0 0 19.894531,70.255859 0.25549999,0.25549999 0 0 0 20.150391,70 0.25549999,0.25549999 0 0 0 19.894531,69.744141 Z"
           id="path6066" /><g
           id="g6074"
           transform="translate(-0.24826805)"
           style="stroke:#dfa858;stroke-opacity:1"><g
             id="g6072"
             style="stroke:#dfa858;stroke-opacity:1"><path
               style="color:#000000;fill:#94dce9;fill-rule:evenodd;stroke:#dfa858;stroke-width:0.166033pt;-inkscape-stroke:none;stroke-opacity:1"
               d="m 20.853167,69.999996 -1.436189,0.830167 v -1.660334 z"
               id="path6068" /><path
               style="color:#000000;fill:#94dce9;fill-rule:evenodd;stroke:#dfa858;-inkscape-stroke:none;stroke-opacity:1"
               d="m 19.306641,68.978516 v 2.042968 L 21.074219,70 20.908203,69.904297 Z M 19.527344,69.361328 20.630859,70 19.527344,70.638672 Z"
               id="path6070" /></g></g></g><g
         id="g6106"
         transform="matrix(0,0.57492347,-0.57492347,0,55.484667,53.641115)"
         style="stroke:#dfa858;stroke-opacity:1"><path
           style="color:#000000;fill:#94dce9;stroke:#dfa858;stroke-linecap:round;stroke-linejoin:round;-inkscape-stroke:none;paint-order:stroke fill markers;stroke-opacity:1"
           d="M 19.894531,69.744141 A 0.25549999,0.25549999 0 0 0 19.640625,70 0.25549999,0.25549999 0 0 0 19.894531,70.255859 0.25549999,0.25549999 0 0 0 20.150391,70 0.25549999,0.25549999 0 0 0 19.894531,69.744141 Z"
           id="path6096" /><g
           id="g6104"
           transform="translate(-0.24826805)"
           style="stroke:#dfa858;stroke-opacity:1"><g
             id="g6102"
             style="stroke:#dfa858;stroke-opacity:1"><path
               style="color:#000000;fill:#94dce9;fill-rule:evenodd;stroke:#dfa858;stroke-width:0.166033pt;-inkscape-stroke:none;stroke-opacity:1"
               d="m 20.853167,69.999996 -1.436189,0.830167 v -1.660334 z"
               id="path6098" /><path
               style="color:#000000;fill:#94dce9;fill-rule:evenodd;stroke:#dfa858;-inkscape-stroke:none;stroke-opacity:1"
               d="m 19.306641,68.978516 v 2.042968 L 21.074219,70 20.908203,69.904297 Z M 19.527344,69.361328 20.630859,70 19.527344,70.638672 Z"
               id="path6100" /></g></g></g><g
         id="g5950"
         transform="matrix(0,0.57492347,-0.57492347,0,55.512203,13.891234)"
         style="display:inline;fill:#e9afaf;stroke:#dfa858;stroke-opacity:1"><path
           style="color:#000000;fill:#94dce9;stroke:#dfa858;stroke-linecap:round;stroke-linejoin:round;-inkscape-stroke:none;paint-order:stroke fill markers;stroke-opacity:1"
           d="M 19.894531,69.744141 A 0.25549999,0.25549999 0 0 0 19.640625,70 0.25549999,0.25549999 0 0 0 19.894531,70.255859 0.25549999,0.25549999 0 0 0 20.150391,70 0.25549999,0.25549999 0 0 0 19.894531,69.744141 Z"
           id="path5940" /><g
           id="g5948"
           transform="translate(-0.24826805)"
           style="stroke:#dfa858;stroke-opacity:1"><g
             id="g5946"
             style="stroke:#dfa858;stroke-opacity:1"><path
               style="color:#000000;fill:#94dce9;fill-rule:evenodd;stroke:#dfa858;stroke-width:0.166033pt;-inkscape-stroke:none;stroke-opacity:1"
               d="m 20.853167,69.999996 -1.436189,0.830167 v -1.660334 z"
               id="path5942" /><path
               style="color:#000000;fill:#94dce9;fill-rule:evenodd;stroke:#dfa858;-inkscape-stroke:none;stroke-opacity:1"
               d="m 19.306641,68.978516 v 2.042968 L 21.074219,70 20.908203,69.904297 Z M 19.527344,69.361328 20.630859,70 19.527344,70.638672 Z"
               id="path5944" /></g></g></g></g><g
       inkscape:groupmode="layer"
       id="g4859"
       inkscape:label="Flow LTR Path"><g
         id="path4839"><path
           style="color:#000000;fill:#94dce9;stroke-linecap:round;stroke-linejoin:round;-inkscape-stroke:none;paint-order:stroke fill markers"
           d="M 9.9941406,29.744141 A 0.25549999,0.25549999 0 0 0 9.7382813,30 0.25549999,0.25549999 0 0 0 9.9941406,30.255859 0.25549999,0.25549999 0 0 0 10.25,30 0.25549999,0.25549999 0 0 0 9.9941406,29.744141 Z"
           id="path4873" /><g
           id="g4863"><g
             id="path4865"><path
               style="color:#000000;fill:#94dce9;fill-rule:evenodd;stroke-width:0.166033pt;-inkscape-stroke:none"
               d="M 10.95253,30 9.5163406,30.830167 V 29.169833 Z"
               id="path4869" /><path
               style="color:#000000;fill:#94dce9;fill-rule:evenodd;-inkscape-stroke:none"
               d="m 9.40625,28.978516 v 2.042968 L 11.173828,30 11.007813,29.904297 Z M 9.6269531,29.361328 10.730469,30 9.6269531,30.638672 Z"
               id="path4871" /></g></g></g><g
         id="path4841"><path
           style="color:#000000;fill:#94dce9;stroke-linecap:round;stroke-linejoin:round;-inkscape-stroke:none;paint-order:stroke fill markers"
           d="M 19.894531,29.744141 A 0.25549999,0.25549999 0 0 0 19.640625,30 0.25549999,0.25549999 0 0 0 19.894531,30.255859 0.25549999,0.25549999 0 0 0 20.150391,30 0.25549999,0.25549999 0 0 0 19.894531,29.744141 Z"
           id="path4887" /><g
           id="g4877"><g
             id="path4879"><path
               style="color:#000000;fill:#94dce9;fill-rule:evenodd;stroke-width:0.166033pt;-inkscape-stroke:none"
               d="m 20.853167,30 -1.436189,0.830167 v -1.660334 z"
               id="path4883" /><path
               style="color:#000000;fill:#94dce9;fill-rule:evenodd;-inkscape-stroke:none"
               d="m 19.306641,28.978516 v 2.042968 L 21.074219,30 20.908203,29.904297 Z M 19.527344,29.361328 20.630859,30 19.527344,30.638672 Z"
               id="path4885" /></g></g></g><g
         id="path4843"><path
           style="color:#000000;fill:#94dce9;stroke-linecap:round;stroke-linejoin:round;-inkscape-stroke:none;paint-order:stroke fill markers"
           d="M 9.9941406,39.744141 A 0.25549999,0.25549999 0 0 0 9.7382813,40 0.25549999,0.25549999 0 0 0 9.9941406,40.255859 0.25549999,0.25549999 0 0 0 10.25,40 0.25549999,0.25549999 0 0 0 9.9941406,39.744141 Z"
           id="path4901" /><g
           id="g4891"><g
             id="path4893"><path
               style="color:#000000;fill:#94dce9;fill-rule:evenodd;stroke-width:0.166033pt;-inkscape-stroke:none"
               d="M 10.95253,39.999999 9.5163406,40.830166 V 39.169832 Z"
               id="path4897" /><path
               style="color:#000000;fill:#94dce9;fill-rule:evenodd;-inkscape-stroke:none"
               d="m 9.40625,38.978516 v 2.042968 L 11.173828,40 11.007813,39.904297 Z M 9.6269531,39.361328 10.730469,40 9.6269531,40.638672 Z"
               id="path4899" /></g></g></g><g
         id="path4845"><path
           style="color:#000000;fill:#94dce9;stroke-linecap:round;stroke-linejoin:round;-inkscape-stroke:none;paint-order:stroke fill markers"
           d="M 19.894531,39.744141 A 0.25549999,0.25549999 0 0 0 19.640625,40 0.25549999,0.25549999 0 0 0 19.894531,40.255859 0.25549999,0.25549999 0 0 0 20.150391,40 0.25549999,0.25549999 0 0 0 19.894531,39.744141 Z"
           id="path4915" /><g
           id="g4905"><g
             id="path4907"><path
               style="color:#000000;fill:#94dce9;fill-rule:evenodd;stroke-width:0.166033pt;-inkscape-stroke:none"
               d="m 20.853167,39.999999 -1.436189,0.830167 v -1.660334 z"
               id="path4911" /><path
               style="color:#000000;fill:#94dce9;fill-rule:evenodd;-inkscape-stroke:none"
               d="m 19.306641,38.978516 v 2.042968 L 21.074219,40 20.908203,39.904297 Z M 19.527344,39.361328 20.630859,40 19.527344,40.638672 Z"
               id="path4913" /></g></g></g><g
         id="path4847"><path
           style="color:#000000;fill:#94dce9;stroke-linecap:round;stroke-linejoin:round;-inkscape-stroke:none;paint-order:stroke fill markers"
           d="M 9.9941406,49.744141 A 0.25549999,0.25549999 0 0 0 9.7382813,50 0.25549999,0.25549999 0 0 0 9.9941406,50.255859 0.25549999,0.25549999 0 0 0 10.25,50 0.25549999,0.25549999 0 0 0 9.9941406,49.744141 Z"
           id="path4929" /><g
           id="g4919"><g
             id="path4921"><path
               style="color:#000000;fill:#94dce9;fill-rule:evenodd;stroke-width:0.166033pt;-inkscape-stroke:none"
               d="M 10.95253,49.999998 9.5163406,50.830165 V 49.169831 Z"
               id="path4925" /><path
               style="color:#000000;fill:#94dce9;fill-rule:evenodd;-inkscape-stroke:none"
               d="m 9.40625,48.978516 v 2.042968 L 11.173828,50 11.007813,49.904297 Z M 9.6269531,49.361328 10.730469,50 9.6269531,50.638672 Z"
               id="path4927" /></g></g></g><g
         id="path4849"><path
           style="color:#000000;fill:#94dce9;stroke-linecap:round;stroke-linejoin:round;-inkscape-stroke:none;paint-order:stroke fill markers"
           d="M 19.894531,49.744141 A 0.25549999,0.25549999 0 0 0 19.640625,50 0.25549999,0.25549999 0 0 0 19.894531,50.255859 0.25549999,0.25549999 0 0 0 20.150391,50 0.25549999,0.25549999 0 0 0 19.894531,49.744141 Z"
           id="path4943" /><g
           id="g4933"><g
             id="path4935"><path
               style="color:#000000;fill:#94dce9;fill-rule:evenodd;stroke-width:0.166033pt;-inkscape-stroke:none"
               d="m 20.853167,49.999998 -1.436189,0.830167 v -1.660334 z"
               id="path4939" /><path
               style="color:#000000;fill:#94dce9;fill-rule:evenodd;-inkscape-stroke:none"
               d="m 19.306641,48.978516 v 2.042968 L 21.074219,50 20.908203,49.904297 Z M 19.527344,49.361328 20.630859,50 19.527344,50.638672 Z"
               id="path4941" /></g></g></g><g
         id="path4851"><path
           style="color:#000000;fill:#94dce9;stroke-linecap:round;stroke-linejoin:round;-inkscape-stroke:none;paint-order:stroke fill markers"
           d="M 9.9941406,59.744141 A 0.25549999,0.25549999 0 0 0 9.7382813,60 0.25549999,0.25549999 0 0 0 9.9941406,60.255859 0.25549999,0.25549999 0 0 0 10.25,60 0.25549999,0.25549999 0 0 0 9.9941406,59.744141 Z"
           id="path4957" /><g
           id="g4947"><g
             id="path4949"><path
               style="color:#000000;fill:#94dce9;fill-rule:evenodd;stroke-width:0.166033pt;-inkscape-stroke:none"
               d="M 10.95253,59.999997 9.5163406,60.830164 V 59.16983 Z"
               id="path4953" /><path
               style="color:#000000;fill:#94dce9;fill-rule:evenodd;-inkscape-stroke:none"
               d="m 9.40625,58.978516 v 2.042968 L 11.173828,60 11.007813,59.904297 Z M 9.6269531,59.361328 10.730469,60 9.6269531,60.638672 Z"
               id="path4955" /></g></g></g><g
         id="path4853"><path
           style="color:#000000;fill:#94dce9;stroke-linecap:round;stroke-linejoin:round;-inkscape-stroke:none;paint-order:stroke fill markers"
           d="M 19.894531,59.744141 A 0.25549999,0.25549999 0 0 0 19.640625,60 0.25549999,0.25549999 0 0 0 19.894531,60.255859 0.25549999,0.25549999 0 0 0 20.150391,60 0.25549999,0.25549999 0 0 0 19.894531,59.744141 Z"
           id="path4971" /><g
           id="g4961"><g
             id="path4963"><path
               style="color:#000000;fill:#94dce9;fill-rule:evenodd;stroke-width:0.166033pt;-inkscape-stroke:none"
               d="m 20.853167,59.999997 -1.436189,0.830167 V 59.16983 Z"
               id="path4967" /><path
               style="color:#000000;fill:#94dce9;fill-rule:evenodd;-inkscape-stroke:none"
               d="m 19.306641,58.978516 v 2.042968 L 21.074219,60 20.908203,59.904297 Z M 19.527344,59.361328 20.630859,60 19.527344,60.638672 Z"
               id="path4969" /></g></g></g><g
         id="path4855"><path
           style="color:#000000;fill:#94dce9;stroke-linecap:round;stroke-linejoin:round;-inkscape-stroke:none;paint-order:stroke fill markers"
           d="M 9.9941406,69.744141 A 0.25549999,0.25549999 0 0 0 9.7382813,70 0.25549999,0.25549999 0 0 0 9.9941406,70.255859 0.25549999,0.25549999 0 0 0 10.25,70 0.25549999,0.25549999 0 0 0 9.9941406,69.744141 Z"
           id="path4985" /><g
           id="g4975"><g
             id="path4977"><path
               style="color:#000000;fill:#94dce9;fill-rule:evenodd;stroke-width:0.166033pt;-inkscape-stroke:none"
               d="M 10.95253,69.999996 9.5163406,70.830163 V 69.169829 Z"
               id="path4981" /><path
               style="color:#000000;fill:#94dce9;fill-rule:evenodd;-inkscape-stroke:none"
               d="m 9.40625,68.978516 v 2.042968 L 11.173828,70 11.007813,69.904297 Z M 9.6269531,69.361328 10.730469,70 9.6269531,70.638672 Z"
               id="path4983" /></g></g></g><g
         id="g10094"
         transform="translate(-0.29589835,9.999998)"><path
           style="color:#000000;fill:#94dce9;stroke-linecap:round;stroke-linejoin:round;-inkscape-stroke:none;paint-order:stroke fill markers"
           d="M 9.9941406,69.744141 A 0.25549999,0.25549999 0 0 0 9.7382813,70 0.25549999,0.25549999 0 0 0 9.9941406,70.255859 0.25549999,0.25549999 0 0 0 10.25,70 0.25549999,0.25549999 0 0 0 9.9941406,69.744141 Z"
           id="path10084" /><g
           id="g10092"><g
             id="g10090"><path
               style="color:#000000;fill:#94dce9;fill-rule:evenodd;stroke-width:0.166033pt;-inkscape-stroke:none"
               d="M 10.95253,69.999996 9.5163406,70.830163 V 69.169829 Z"
               id="path10086" /><path
               style="color:#000000;fill:#94dce9;fill-rule:evenodd;-inkscape-stroke:none"
               d="m 9.40625,68.978516 v 2.042968 L 11.173828,70 11.007813,69.904297 Z M 9.6269531,69.361328 10.730469,70 9.6269531,70.638672 Z"
               id="path10088" /></g></g></g><g
         id="g10858"
         transform="translate(-4.69e-4,19.999999)"><path
           style="color:#000000;fill:#94dce9;stroke-linecap:round;stroke-linejoin:round;-inkscape-stroke:none;paint-order:stroke fill markers"
           d="M 19.894531,49.744141 A 0.25549999,0.25549999 0 0 0 19.640625,50 0.25549999,0.25549999 0 0 0 19.894531,50.255859 0.25549999,0.25549999 0 0 0 20.150391,50 0.25549999,0.25549999 0 0 0 19.894531,49.744141 Z"
           id="path10848" /><g
           id="g10856"><g
             id="g10854"><path
               style="color:#000000;fill:#94dce9;fill-rule:evenodd;stroke-width:0.166033pt;-inkscape-stroke:none"
               d="m 20.853167,49.999998 -1.436189,0.830167 v -1.660334 z"
               id="path10850" /><path
               style="color:#000000;fill:#94dce9;fill-rule:evenodd;-inkscape-stroke:none"
               d="m 19.306641,48.978516 v 2.042968 L 21.074219,50 20.908203,49.904297 Z M 19.527344,49.361328 20.630859,50 19.527344,50.638672 Z"
               id="path10852" /></g></g></g><g
         id="g10870"
         transform="translate(-0.04050775,19.999998)"><path
           style="color:#000000;fill:#94dce9;stroke-linecap:round;stroke-linejoin:round;-inkscape-stroke:none;paint-order:stroke fill markers"
           d="M 19.894531,59.744141 A 0.25549999,0.25549999 0 0 0 19.640625,60 0.25549999,0.25549999 0 0 0 19.894531,60.255859 0.25549999,0.25549999 0 0 0 20.150391,60 0.25549999,0.25549999 0 0 0 19.894531,59.744141 Z"
           id="path10860" /><g
           id="g10868"><g
             id="g10866"><path
               style="color:#000000;fill:#94dce9;fill-rule:evenodd;stroke-width:0.166033pt;-inkscape-stroke:none"
               d="m 20.853167,59.999997 -1.436189,0.830167 V 59.16983 Z"
               id="path10862" /><path
               style="color:#000000;fill:#94dce9;fill-rule:evenodd;-inkscape-stroke:none"
               d="m 19.306641,58.978516 v 2.042968 L 21.074219,60 20.908203,59.904297 Z M 19.527344,59.361328 20.630859,60 19.527344,60.638672 Z"
               id="path10864" /></g></g></g></g><g
       id="g5919"
       inkscape:label="Flow Down Path"
       style="display:inline;fill:#e9afaf" /><path
       style="fill:none;fill-opacity:1;stroke:#ee7eff;stroke-width:0.520999;stroke-linecap:square;stroke-linejoin:bevel;stroke-dasharray:none;stroke-opacity:1;paint-order:stroke fill markers;stop-color:#000000"
       d="M 5.0800003,30 C 11.853598,30 18.626931,30 25.4,30"
       id="path27139"
       inkscape:path-effect="#path-effect27141"
       inkscape:original-d="M 5.0800003,30 C 11.853598,30.000265 18.626931,30.000265 25.4,30" /><path
       style="fill:none;fill-opacity:1;stroke:#ee7eff;stroke-width:0.520999;stroke-linecap:square;stroke-linejoin:bevel;stroke-dasharray:none;stroke-opacity:1;paint-order:stroke fill markers;stop-color:#000000"
       d="m 5.0799999,39.999999 c 6.8617911,0 13.5469311,0 20.3200001,0"
       id="path27149"
       inkscape:path-effect="#path-effect27151"
       inkscape:original-d="m 5.0799999,39.999999 c 6.8617911,0.160681 13.5469311,2.64e-4 20.3200001,0" /><path
       style="display:inline;fill:none;fill-opacity:1;stroke:#ee7eff;stroke-width:0.520999;stroke-linecap:square;stroke-linejoin:bevel;stroke-dasharray:none;stroke-opacity:1;paint-order:stroke fill markers;stop-color:#000000"
       d="M 5.0799999,50 C 11.853598,50 18.626931,50 25.4,50"
       id="path27159"
       inkscape:path-effect="#path-effect27161"
       inkscape:original-d="M 5.0799999,50 C 11.853598,50.000264 18.626931,50.000264 25.4,50" /><path
       style="fill:none;fill-opacity:1;stroke:#ee7eff;stroke-width:0.520999;stroke-linecap:square;stroke-linejoin:bevel;stroke-dasharray:none;stroke-opacity:1;paint-order:stroke fill markers;stop-color:#000000"
       d="m 5.0799999,59.999998 c 6.7735981,0 13.5469311,0 20.3200001,0"
       id="path27169"
       inkscape:path-effect="#path-effect27171"
       inkscape:original-d="m 5.0799999,59.999998 c 6.7735981,2.65e-4 13.5469311,2.65e-4 20.3200001,0" /><path
       style="fill:none;fill-opacity:1;stroke:#ee7eff;stroke-width:0.520999;stroke-linecap:square;stroke-linejoin:bevel;stroke-dasharray:none;stroke-opacity:1;paint-order:stroke fill markers;stop-color:#000000"
       d="m 5.0799999,69.999999 c 6.7735981,0 13.5469311,0 20.3200001,0"
       id="path27179"
       inkscape:path-effect="#path-effect27181"
       inkscape:original-d="m 5.0799999,69.999999 c 6.7735981,2.65e-4 13.5469311,2.65e-4 20.3200001,0" /><path
       style="display:inline;fill:none;fill-opacity:1;stroke:#ffffff;stroke-width:0.601598;stroke-linecap:square;stroke-linejoin:bevel;stroke-dasharray:none;stroke-opacity:1;paint-order:stroke fill markers;stop-color:#000000"
       d="m 15.24,30.561299 c 0,26.667019 0,53.333685 0,80.000001"
       id="path28277"
       inkscape:path-effect="#path-effect28279"
       inkscape:original-d="m 15.24,30.561299 c 2.65e-4,26.667019 2.65e-4,53.333685 0,80.000001" /><path
       style="fill:none;fill-opacity:1;stroke:#ee7eff;stroke-width:0.520999;stroke-linecap:square;stroke-linejoin:bevel;stroke-dasharray:none;stroke-opacity:1;paint-order:stroke fill markers;stop-color:#000000"
       d="m 5.0799999,79.999998 c 6.7735981,0 13.5469311,0 20.3200001,0"
       id="path28293"
       inkscape:path-effect="#path-effect28295"
       inkscape:original-d="m 5.0799999,79.999998 c 6.7735981,2.64e-4 13.5469311,2.64e-4 20.3200001,0" /></g><g
     id="g2179"
     inkscape:label="Arrows"
     style="display:inline;fill:#e9afaf"><g
       id="g29664"><g
         id="path16717"><path
           style="color:#000000;fill:#ffffff;stroke-linecap:square;stroke-linejoin:bevel;-inkscape-stroke:none;paint-order:stroke fill markers"
           d="m 14.980469,93.183594 v 0.519531 h 0.259765 11.019532 0.259765 V 93.183594 H 26.259766 15.240234 Z"
           id="path29693" /><g
           id="g29571"><g
             id="path29573"><path
               style="color:#000000;fill:#ffffff;fill-rule:evenodd;stroke-width:0.2605pt;-inkscape-stroke:none"
               d="m 27.762975,93.443564 -2.253321,1.302498 v -2.604996 z"
               id="path29690" /><path
               style="color:#000000;fill:#ffffff;fill-rule:evenodd;-inkscape-stroke:none"
               d="m 25.335937,91.839844 v 3.207031 l 2.773438,-1.603516 -0.259766,-0.15039 z m 0.347657,0.601562 1.732422,1.001953 -1.732422,1.001953 z"
               id="path29687" /></g></g></g></g><g
       id="path16763"><path
         style="color:#000000;fill:#ffffff;stroke-linecap:square;stroke-linejoin:bevel;-inkscape-stroke:none;paint-order:stroke fill markers"
         d="m 14.964844,97.431641 v 0.490234 h 0.246094 9.820312 0.246094 V 97.431641 H 25.03125 15.210938 Z"
         id="path29707" /><g
         id="g29697"><g
           id="path29699"><path
             style="color:#000000;fill:#ffffff;fill-rule:evenodd;stroke-width:0.245907pt;-inkscape-stroke:none"
             d="m 26.450373,97.6769 -2.127095,1.229535 v -2.45907 z"
             id="path29703" /><path
             style="color:#000000;fill:#ffffff;fill-rule:evenodd;-inkscape-stroke:none"
             d="m 24.160156,96.164062 v 3.027344 l 2.617188,-1.513672 -0.244141,-0.142578 z m 0.326172,0.566407 1.636719,0.945312 -1.636719,0.947266 z"
             id="path29705" /></g></g></g><g
       id="path16775"><path
         style="color:#000000;fill:#ffffff;stroke-linecap:square;stroke-linejoin:bevel;-inkscape-stroke:none;paint-order:stroke fill markers"
         d="m 15.025391,106.28906 v 0.52149 h 0.261718 11.019532 0.259765 v -0.52149 H 26.306641 15.287109 Z"
         id="path29735" /><g
         id="g29725"><g
           id="path29727"><path
             style="color:#000000;fill:#ffffff;fill-rule:evenodd;stroke-width:0.2605pt;-inkscape-stroke:none"
             d="m 27.809747,106.55034 -2.253321,1.3025 v -2.605 z"
             id="path29731" /><path
             style="color:#000000;fill:#ffffff;fill-rule:evenodd;-inkscape-stroke:none"
             d="m 25.382812,104.94727 v 3.20703 l 2.773438,-1.60352 -0.259766,-0.15039 z m 0.347657,0.60156 1.732422,1.00195 -1.732422,1.00195 z"
             id="path29733" /></g></g></g><g
       id="g29962"
       transform="translate(3.8550784,6.5566404)"
       style="display:inline"><g
         id="g29960"
         transform="translate(-3.6950009,2.2583258)"
         style="display:inline"><path
           style="color:#000000;fill:#ffffff;stroke-linecap:square;stroke-linejoin:bevel;-inkscape-stroke:none;paint-order:stroke fill markers"
           d="m 14.980469,93.183594 v 0.519531 h 0.259765 11.019532 0.259765 V 93.183594 H 26.259766 15.240234 Z"
           id="path29950" /><g
           id="g29958"><g
             id="g29956"><path
               style="color:#000000;fill:#ffffff;fill-rule:evenodd;stroke-width:0.2605pt;-inkscape-stroke:none"
               d="m 27.762975,93.443564 -2.253321,1.302498 v -2.604996 z"
               id="path29952" /><path
               style="color:#000000;fill:#ffffff;fill-rule:evenodd;-inkscape-stroke:none"
               d="m 25.335937,91.839844 v 3.207031 l 2.773438,-1.603516 -0.259766,-0.15039 z m 0.347657,0.601562 1.732422,1.001953 -1.732422,1.001953 z"
               id="path29954" /></g></g></g></g></g><g
     id="g2323"
     inkscape:label="Title"
     style="display:inline;fill:#e9afaf"
     transform="translate(-0.48656268)"><text
       xml:space="preserve"
       style="font-weight:900;font-size:4.58611px;font-family:Orbitron;-inkscape-font-specification:'Orbitron Heavy';display:none;fill:#ac30a1;fill-opacity:1;stroke:#0af1ff;stroke-width:0.921;stroke-linecap:round;stroke-linejoin:bevel;stroke-dasharray:none;stroke-opacity:1;paint-order:stroke markers fill;stop-color:#000000"
       x="4.623415"
       y="6.355906"
       id="text7134"
       inkscape:label="CoerceTXT"><tspan
         sodipodi:role="line"
         id="tspan7132"
         style="font-size:4.58611px;fill:#ac30a1;fill-opacity:1;stroke:#0af1ff;stroke-width:0.921;stroke-dasharray:none;stroke-opacity:1"
         x="4.623415"
         y="6.355906">COERCE</tspan></text><g
       aria-label="COERCE"
       id="text31013"
       style="font-weight:900;font-size:4.58611px;font-family:Orbitron;-inkscape-font-specification:'Orbitron Heavy';display:inline;fill:#ac30a1;stroke:#0af1ff;stroke-width:0.921;stroke-linecap:round;stroke-linejoin:bevel;paint-order:stroke markers fill"
       inkscape:label="CoercePATH"><g
         id="path31015"><path
           style="color:#000000;-inkscape-font-specification:'Orbitron Heavy';fill:#0af1ff;stroke:none;stroke-linecap:butt;stroke-linejoin:miter;-inkscape-stroke:none"
           d="m 5.5585937,2.59375 c -0.2002313,0 -0.4024955,0.052135 -0.5761718,0.1542969 l -0.00586,0.00391 c -0.162562,0.098522 -0.3013457,0.2395325 -0.3984375,0.4023438 -3.299e-4,5.443e-4 3.289e-4,0.00141 0,0.00195 C 4.4738162,3.3290892 4.4199219,3.5328198 4.4199219,3.7324219 v 1.9453125 c 0,0.2002315 0.052134,0.4024955 0.1542968,0.5761718 l 0.00391,0.00586 c 0.097962,0.1616376 0.2368,0.3004752 0.3984375,0.3984375 l 0.00586,0.00195 c 0.1736763,0.1021624 0.3759405,0.1562501 0.5761718,0.15625 H 8.1738281 L 8.6328125,6.3554687 V 5.640625 L 8.1738281,5.1796875 H 6.0507812 V 4.2304687 H 8.1738281 L 8.6328125,3.7695313 V 3.0546875 L 8.1738281,2.59375 Z"
           id="path31030" /><path
           style="color:#000000;-inkscape-font-specification:'Orbitron Heavy';stroke:none;stroke-linecap:butt;stroke-linejoin:miter;-inkscape-stroke:none"
           d="m 5.5589815,6.355906 q -0.1880306,0 -0.3439583,-0.091722 Q 5.0636816,6.1724616 4.9719594,6.02112 4.8802372,5.8651922 4.8802372,5.6771617 V 3.732651 q 0,-0.1880305 0.091722,-0.3393721 0.091722,-0.1559278 0.2430638,-0.24765 0.1559277,-0.091722 0.3439583,-0.091722 h 2.6140829 v 0.715433 H 5.7424259 q -0.073378,0 -0.1146528,0.036689 -0.036689,0.036689 -0.036689,0.1146527 v 1.5684497 q 0,0.073378 0.036689,0.1146528 0.041275,0.036689 0.1146528,0.036689 H 8.1730642 V 6.355906 Z"
           id="path31032" /></g><g
         id="path31017"><path
           style="color:#000000;-inkscape-font-specification:'Orbitron Heavy';fill:#0af1ff;stroke:none;stroke-linecap:butt;stroke-linejoin:miter;-inkscape-stroke:none"
           d="m 9.3203125,2.59375 c -0.1990459,0 -0.402243,0.053135 -0.5742187,0.1542969 -0.1682347,0.098962 -0.3111949,0.2438746 -0.4101563,0.4121094 -0.1028321,0.1720415 -0.15625,0.3740944 -0.15625,0.5722656 v 1.9453125 c 0,0.199046 0.055088,0.4002898 0.15625,0.5722656 0.098961,0.1682343 0.241922,0.3111947 0.4101563,0.4101562 0.1719757,0.101162 0.3751728,0.15625 0.5742187,0.15625 h 1.9433595 c 0.196985,10e-8 0.398068,-0.054446 0.568359,-0.15625 0.16584,-0.097551 0.307441,-0.2391448 0.40625,-0.4042968 0.106004,-0.1723127 0.166016,-0.3758714 0.166016,-0.578125 V 3.7324219 c 0,-0.2019134 -0.05956,-0.4073663 -0.167969,-0.5800781 -0.09756,-0.1621508 -0.235947,-0.3034487 -0.398437,-0.4003907 -5.42e-4,-3.284e-4 -0.0014,3.275e-4 -0.002,0 C 11.664857,2.6487003 11.462088,2.59375 11.263672,2.59375 Z M 9.8125,4.2304687 h 0.949219 V 5.1796875 H 9.8125 Z"
           id="path31036" /><path
           style="color:#000000;-inkscape-font-specification:'Orbitron Heavy';stroke:none;stroke-linecap:butt;stroke-linejoin:miter;-inkscape-stroke:none"
           d="m 9.3195942,6.355906 q -0.1834444,0 -0.3393722,-0.091722 Q 8.8242943,6.1724616 8.7325721,6.0165339 8.6408499,5.8606061 8.6408499,5.6771617 V 3.732651 q 0,-0.1880305 0.091722,-0.3393721 0.091722,-0.1559278 0.2476499,-0.24765 0.1559278,-0.091722 0.3393722,-0.091722 h 1.944511 q 0.183444,0 0.334786,0.091722 0.155928,0.091722 0.24765,0.24765 0.09631,0.1513416 0.09631,0.3393721 v 1.9445107 q 0,0.1834444 -0.09631,0.3393722 -0.09172,0.1559277 -0.24765,0.2476499 -0.151342,0.091722 -0.334786,0.091722 z M 9.3516969,5.6404728 H 11.22283 q 0,0 0,0 0,0 0,0 V 3.7693399 q 0,0 0,0 0,0 0,0 H 9.3516969 q 0,0 0,0 0,0 0,0 v 1.8711329 q 0,0 0,0 0,0 0,0 z"
           id="path31038" /></g><g
         id="path31019"><path
           style="color:#000000;-inkscape-font-specification:'Orbitron Heavy';fill:#0af1ff;stroke:none;stroke-linecap:butt;stroke-linejoin:miter;-inkscape-stroke:none"
           d="m 12.457031,2.59375 -0.460937,0.4609375 v 3.3007812 l 0.460937,0.4609375 h 3.048828 L 15.966797,6.3554687 V 5.640625 L 15.505859,5.1796875 H 15.396484 L 15.513672,5.0625 V 4.3476562 L 15.396484,4.2304687 h 0.109375 L 15.966797,3.7695313 V 3.0546875 L 15.505859,2.59375 Z m 0.458985,0.9199219 h 0.05469 l -0.05469,0.056641 z m 0,1.0332031 0.15625,0.1582031 -0.15625,0.1582031 z m 0,1.2929687 0.05273,0.054687 h -0.05273 z"
           id="path31042" /><path
           style="color:#000000;-inkscape-font-specification:'Orbitron Heavy';stroke:none;stroke-linecap:butt;stroke-linejoin:miter;-inkscape-stroke:none"
           d="M 12.456489,6.355906 V 3.0539067 h 3.049764 v 0.7154332 h -2.329744 v 0.5778499 h 1.875719 V 5.062623 h -1.875719 v 0.5778498 h 2.329744 V 6.355906 Z"
           id="path31044" /></g><g
         id="path31021"><path
           style="color:#000000;-inkscape-font-specification:'Orbitron Heavy';fill:#0af1ff;stroke:none;stroke-linecap:butt;stroke-linejoin:miter;-inkscape-stroke:none"
           d="M 15.960938,2.5976563 15.5,3.0585938 v 3.2968749 l 0.460938,0.4609375 h 0.710937 L 17.130859,6.3554687 V 5.7324219 h 0.269532 l 0.771484,0.9199218 0.351562,0.1640625 h 0.734375 L 19.71875,6.3554687 V 6.1132812 L 19.609375,5.8144531 19.289062,5.4375 c 0.0991,-0.083816 0.205699,-0.1602807 0.271485,-0.2714844 0.104572,-0.1715496 0.162109,-0.3753568 0.162109,-0.5761719 V 3.7363281 c 0,-0.2008085 -0.05754,-0.4026727 -0.162109,-0.5742187 C 19.462341,2.9961066 19.322138,2.8542759 19.15625,2.7558594 18.983063,2.6508982 18.778356,2.5976563 18.578125,2.5976563 Z m 0.458984,0.921875 h 0.04102 l -0.04102,0.041016 z m 0,1.2421874 0.15039,0.1503907 -0.15039,0.1523437 z"
           id="path31048" /><path
           style="color:#000000;-inkscape-font-specification:'Orbitron Heavy';stroke:none;stroke-linecap:butt;stroke-linejoin:miter;-inkscape-stroke:none"
           d="M 18.523917,6.355906 17.565419,5.2139646 H 18.4964 l 0.761294,0.8988776 V 6.355906 Z m -2.563636,0 V 3.0584928 h 2.618669 q 0.18803,0 0.339372,0.091722 0.155928,0.091722 0.24765,0.24765 0.09631,0.1559277 0.09631,0.3393721 v 0.8530165 q 0,0.1834444 -0.09631,0.3393722 -0.09172,0.1559277 -0.24765,0.2476499 -0.151342,0.091722 -0.339372,0.091722 l -1.907822,0.00459 v 1.082322 z m 0.710847,-1.8023413 h 1.871133 q 0,0 0,0 0,0 0,0 V 3.7693399 q 0,0 0,0 0,0 0,0 h -1.871133 q 0,0 0,0 0,0 0,0 v 0.7842248 q 0,0 0,0 0,0 0,0 z"
           id="path31050" /></g><g
         id="path31023"><path
           style="color:#000000;-inkscape-font-specification:'Orbitron Heavy';fill:#0af1ff;stroke:none;stroke-linecap:butt;stroke-linejoin:miter;-inkscape-stroke:none"
           d="m 20.421875,2.59375 c -0.200231,0 -0.402495,0.052134 -0.576172,0.1542969 l -0.0059,0.00391 c -0.16455,0.099726 -0.30313,0.2428562 -0.400391,0.4082032 -0.10283,0.1720412 -0.15625,0.374096 -0.15625,0.5722656 v 1.9453125 c 0,0.2002321 0.05409,0.4024953 0.15625,0.5761718 l 0.002,0.00586 c 0.09796,0.1616381 0.2368,0.3004752 0.398438,0.3984375 l 0.0059,0.00195 c 0.173677,0.1021629 0.375941,0.1562501 0.576172,0.15625 h 2.615234 L 23.498047,6.3554687 V 5.640625 L 23.037109,5.1796875 H 20.916016 V 4.2304687 h 2.121093 L 23.498047,3.7695313 V 3.0546875 L 23.037109,2.59375 Z"
           id="path31054" /><path
           style="color:#000000;-inkscape-font-specification:'Orbitron Heavy';stroke:none;stroke-linecap:butt;stroke-linejoin:miter;-inkscape-stroke:none"
           d="m 20.42257,6.355906 q -0.188031,0 -0.343958,-0.091722 Q 19.92727,6.1724616 19.835548,6.02112 19.743825,5.8651922 19.743825,5.6771617 V 3.732651 q 0,-0.1880305 0.09172,-0.3393721 0.09172,-0.1559278 0.243064,-0.24765 0.155927,-0.091722 0.343958,-0.091722 h 2.614083 v 0.7154332 h -2.430639 q -0.07338,0 -0.114653,0.036689 -0.03669,0.036689 -0.03669,0.1146527 v 1.5684497 q 0,0.073378 0.03669,0.1146528 0.04127,0.036689 0.114653,0.036689 H 23.03665 V 6.355906 Z"
           id="path31056" /></g><g
         id="path31025"><path
           style="color:#000000;-inkscape-font-specification:'Orbitron Heavy';fill:#0af1ff;stroke:none;stroke-linecap:butt;stroke-linejoin:miter;-inkscape-stroke:none"
           d="M 23.523437,2.59375 23.0625,3.0546875 v 3.3007812 l 0.460937,0.4609375 h 3.048829 L 27.033203,6.3554687 V 5.640625 L 26.572266,5.1796875 H 26.460937 L 26.578125,5.0625 V 4.3476562 L 26.460937,4.2304687 h 0.111329 L 27.033203,3.7695313 V 3.0546875 L 26.572266,2.59375 Z m 0.458985,0.9199219 h 0.05469 l -0.05469,0.056641 z m 0,1.0332031 0.15625,0.1582031 -0.15625,0.1582031 z m 0,1.2929687 0.05273,0.054687 h -0.05273 z"
           id="path31060" /><path
           style="color:#000000;-inkscape-font-specification:'Orbitron Heavy';stroke:none;stroke-linecap:butt;stroke-linejoin:miter;-inkscape-stroke:none"
           d="M 23.522783,6.355906 V 3.0539067 h 3.049763 v 0.7154332 h -2.329744 v 0.5778499 h 1.875719 V 5.062623 h -1.875719 v 0.5778498 h 2.329744 V 6.355906 Z"
           id="path31062" /></g></g></g><g
     id="g12329"
     inkscape:label="LOGO"
     style="display:inline;fill:#e9afaf"><g
       aria-label="SiM"
       transform="matrix(0.26458333,0,0,0.26458333,103.20316,55.958131)"
       id="g12323"
       style="font-weight:900;font-size:21.3333px;font-family:Orbitron;-inkscape-font-specification:'Orbitron Heavy';text-align:center;white-space:pre;fill:url(#linearGradient744);stroke:#f8f8f8;stroke-width:3.64724;stroke-linecap:round;stroke-linejoin:round;paint-order:stroke fill markers"
       inkscape:label="SiM PATH"><g
         id="g12309"><path
           style="color:#000000;-inkscape-font-specification:'Orbitron Heavy';fill:#f8f8f8;stroke:none;stroke-linecap:butt;stroke-linejoin:miter;-inkscape-stroke:none"
           d="m -349.2168,247.16602 c -0.87282,0 -1.75097,0.23679 -2.5039,0.67968 -0.73411,0.43184 -1.35515,1.05616 -1.78907,1.78907 -0.45368,0.7533 -0.6875,1.63818 -0.6875,2.51367 v 3.02929 c 0,0.87964 0.23087,1.76377 0.67774,2.52344 a 1.8238023,1.8238023 0 0 0 0.0137,0.0215 c 0.16655,0.27479 0.46376,0.43166 0.67969,0.66992 a 1.8238023,1.8238023 0 0 0 -1.3711,1.37109 v 1.42969 c 0,0.87283 0.23483,1.75097 0.67774,2.50391 0.43419,0.73811 1.06071,1.36463 1.79883,1.79882 0.75293,0.4429 1.63108,0.67774 2.5039,0.67774 h 9.04493 c 0.86867,0 1.74586,-0.238 2.49218,-0.6875 0.7273,-0.4306 1.34397,-1.04857 1.77539,-1.77539 0.45981,-0.75185 0.71485,-1.63642 0.71485,-2.51758 v -3.0293 c 0,-0.88427 -0.25495,-1.7767 -0.72657,-2.52929 -0.16276,-0.27212 -0.45486,-0.42884 -0.66601,-0.66602 a 1.8238023,1.8238023 0 0 0 1.39258,-1.39258 v -1.42773 c 0,-0.88427 -0.25496,-1.7767 -0.72657,-2.5293 -0.43149,-0.72139 -1.04208,-1.33781 -1.76562,-1.76562 -0.74597,-0.44887 -1.62219,-0.6875 -2.49023,-0.6875 z m 9.22071,3.69531 c 0.15312,0.0206 0.30196,0.0331 0.4375,0.11523 a 1.8238023,1.8238023 0 0 0 0.0195,0.0117 c 0.22899,0.1347 0.37115,0.27687 0.50586,0.50586 a 1.8238023,1.8238023 0 0 0 0.0332,0.0547 c 0.0393,0.0618 0.0303,0.14486 0.0547,0.20508 h -0.15821 a 1.8238023,1.8238023 0 0 0 -0.89257,-0.89258 z m -9.45118,0.0137 a 1.8238023,1.8238023 0 0 0 -1.04492,1.04492 c 0.0244,-0.13868 0.0344,-0.28906 0.10547,-0.40625 a 1.8238023,1.8238023 0 0 0 0.0117,-0.0195 c 0.1347,-0.22899 0.27491,-0.37116 0.50391,-0.50586 0.13878,-0.0816 0.28282,-0.0887 0.42382,-0.11328 z m 11.75782,2.98633 0.0215,0.0117 c -0.004,-0.002 -0.01,-0.001 -0.0137,-0.004 -0.003,-0.002 -0.005,-0.006 -0.008,-0.008 z m -12.80274,1.54297 a 1.8238023,1.8238023 0 0 0 1.04492,1.04492 c -0.14087,-0.0246 -0.28514,-0.0317 -0.42382,-0.11328 -0.23629,-0.139 -0.37598,-0.285 -0.50586,-0.4961 -0.0774,-0.13365 -0.0911,-0.28629 -0.11524,-0.43554 z m 10.49414,1.4707 c 0.1543,0.0204 0.30321,0.0346 0.43946,0.11719 a 1.8238023,1.8238023 0 0 0 0.0195,0.0137 c 0.22899,0.1347 0.37115,0.27491 0.50586,0.50391 a 1.8238023,1.8238023 0 0 0 0.0332,0.0547 c 0.0813,0.1278 0.0942,0.27369 0.11523,0.42383 a 1.8238023,1.8238023 0 0 0 -1.11328,-1.11328 z m 1.10938,4.49609 c -0.0209,0.14932 -0.0319,0.29064 -0.125,0.44141 a 1.8238023,1.8238023 0 0 0 -0.0195,0.0352 c -0.13471,0.22899 -0.27687,0.3692 -0.50586,0.5039 a 1.8238023,1.8238023 0 0 0 -0.0195,0.0117 c -0.13614,0.0825 -0.28533,0.0968 -0.43946,0.11719 a 1.8238023,1.8238023 0 0 0 1.10938,-1.10938 z m -11.55664,0.2168 h 0.12109 a 1.8238023,1.8238023 0 0 0 0.87695,0.87695 c -0.14087,-0.0246 -0.28514,-0.0317 -0.42382,-0.11328 -0.229,-0.1347 -0.36921,-0.27491 -0.50391,-0.5039 -0.05,-0.0851 -0.0428,-0.17898 -0.0703,-0.25977 z"
           id="path12305" /><path
           style="color:#000000;-inkscape-font-specification:'Orbitron Heavy';stroke:none;stroke-linecap:butt;stroke-linejoin:miter;-inkscape-stroke:none"
           d="m -349.2165,264.35037 q -0.85333,0 -1.57866,-0.42666 -0.72533,-0.42667 -1.152,-1.152 -0.42667,-0.72533 -0.42667,-1.57867 v -1.42933 h 3.30666 v 1.25867 q 0,0 0,0 0,0 0,0 h 8.70399 q 0,0 0,0 0,0 0,0 v -2.688 q 0,0 0,0 0,0 0,0 h -8.85332 q -0.85333,0 -1.57866,-0.42666 -0.72533,-0.42667 -1.152,-1.13067 -0.42667,-0.72533 -0.42667,-1.6 v -3.02933 q 0,-0.87466 0.42667,-1.57866 0.42667,-0.72533 1.152,-1.152 0.72533,-0.42666 1.57866,-0.42666 h 9.04532 q 0.85333,0 1.55733,0.42666 0.72533,0.42667 1.152,1.152 0.448,0.704 0.448,1.57866 v 1.42934 h -3.34933 v -1.25867 q 0,0 0,0 0,0 0,0 h -8.70399 q 0,0 0,0 0,0 0,0 v 2.688 q 0,0 0,0 0,0 0,0 h 8.89599 q 0.85333,0 1.55733,0.42666 0.72533,0.42667 1.152,1.152 0.448,0.704 0.448,1.57867 v 3.02932 q 0,0.85334 -0.448,1.57867 -0.42667,0.72533 -1.152,1.152 -0.704,0.42666 -1.55733,0.42666 z"
           id="path12307" /></g><g
         id="g12315"><path
           style="color:#000000;-inkscape-font-specification:'Orbitron Heavy';fill:#f8f8f8;stroke:none;stroke-linecap:butt;stroke-linejoin:miter;-inkscape-stroke:none"
           d="m -334.75195,246.09961 a 1.8238023,1.8238023 0 0 0 -1.82422,1.82422 v 3.28515 a 1.8238023,1.8238023 0 0 0 0.38476,0.38477 1.8238023,1.8238023 0 0 0 -0.38476,0.38281 v 12.37305 a 1.8238023,1.8238023 0 0 0 1.82422,1.82422 h 3.26367 a 1.8238023,1.8238023 0 0 0 1.82422,-1.82422 v -12.37305 a 1.8238023,1.8238023 0 0 0 -0.38477,-0.38281 1.8238023,1.8238023 0 0 0 0.38477,-0.38477 v -3.28515 a 1.8238023,1.8238023 0 0 0 -1.82422,-1.82422 z"
           id="path12311" /><path
           style="color:#000000;-inkscape-font-specification:'Orbitron Heavy';stroke:none;stroke-linecap:butt;stroke-linejoin:miter;-inkscape-stroke:none"
           d="m -334.75254,264.35037 v 0 -12.37331 h 3.264 v 12.37331 z m 0,-13.14131 v 0 -3.28533 h 3.264 v 3.28533 z"
           id="path12313" /></g><g
         id="g12321"><path
           style="color:#000000;-inkscape-font-specification:'Orbitron Heavy';fill:#f8f8f8;stroke:none;stroke-linecap:butt;stroke-linejoin:miter;-inkscape-stroke:none"
           d="m -329.78125,247.16602 a 1.8238023,1.8238023 0 0 0 -1.82422,1.82421 v 15.35938 a 1.8238023,1.8238023 0 0 0 1.82422,1.82422 h 3.30664 a 1.8238023,1.8238023 0 0 0 1.82227,-1.82422 v -5.29492 l 2.0957,2.48242 a 1.8238023,1.8238023 0 0 0 2.79102,-0.006 l 2.07031,-2.4707 v 5.28906 a 1.8238023,1.8238023 0 0 0 1.82226,1.82422 h 3.32813 a 1.8238023,1.8238023 0 0 0 1.82422,-1.82422 v -15.35938 a 1.8238023,1.8238023 0 0 0 -1.82422,-1.82421 h -3.4336 a 1.8238023,1.8238023 0 0 0 -1.40039,0.65625 l -3.78711,4.53515 -3.80468,-4.53906 a 1.8238023,1.8238023 0 0 0 -1.39844,-0.65234 z m 1.82227,3.64843 h 0.74023 l 1.62891,1.94141 a 1.8238023,1.8238023 0 0 0 -2.36914,0.82617 z m 12.83203,0 h 0.75781 v 2.77539 a 1.8238023,1.8238023 0 0 0 -2.35547,-0.86132 z m -6.75,5.87305 a 1.8238023,1.8238023 0 0 0 1.40234,0.0117 l -0.69336,0.82812 z"
           id="path12317" /><path
           style="color:#000000;-inkscape-font-specification:'Orbitron Heavy';stroke:none;stroke-linecap:butt;stroke-linejoin:miter;-inkscape-stroke:none"
           d="M -329.78188,264.35037 V 248.9904 h 3.41333 l 5.20532,6.20799 5.184,-6.20799 h 3.43466 v 15.35997 h -3.328 v -10.30398 l -5.29066,6.31466 -5.31199,-6.29333 v 10.28265 z"
           id="path12319" /></g></g><text
       xml:space="preserve"
       transform="matrix(0.26458333,0,0,0.26458333,103.20316,55.958131)"
       id="text12327"
       style="font-weight:900;font-size:21.3333px;font-family:Orbitron;-inkscape-font-specification:'Orbitron Heavy';text-align:center;white-space:pre;shape-inside:url(#rect12331);shape-padding:1.65062;display:none;fill:url(#linearGradient744);fill-opacity:1;stroke:#f8f8f8;stroke-width:3.64724;stroke-linecap:round;stroke-linejoin:round;stroke-opacity:1;paint-order:stroke fill markers"
       inkscape:label="SiM TEXT"
       x="19.914627"
       y="0" /></g><g
     id="g12357"
     inkscape:label="LOGO"
     style="display:inline;fill:#e9afaf"><g
       aria-label="SiM"
       transform="matrix(0.26458333,0,0,0.26458333,103.20316,55.958131)"
       id="g12351"
       style="font-weight:900;font-size:21.3333px;font-family:Orbitron;-inkscape-font-specification:'Orbitron Heavy';text-align:center;white-space:pre;fill:url(#linearGradient744);stroke:#f8f8f8;stroke-width:3.64724;stroke-linecap:round;stroke-linejoin:round;paint-order:stroke fill markers"
       inkscape:label="SiM PATH"><g
         id="g12337"><path
           style="color:#000000;-inkscape-font-specification:'Orbitron Heavy';fill:#f8f8f8;stroke:none;stroke-linecap:butt;stroke-linejoin:miter;-inkscape-stroke:none"
           d="m -349.2168,247.16602 c -0.87282,0 -1.75097,0.23679 -2.5039,0.67968 -0.73411,0.43184 -1.35515,1.05616 -1.78907,1.78907 -0.45368,0.7533 -0.6875,1.63818 -0.6875,2.51367 v 3.02929 c 0,0.87964 0.23087,1.76377 0.67774,2.52344 a 1.8238023,1.8238023 0 0 0 0.0137,0.0215 c 0.16655,0.27479 0.46376,0.43166 0.67969,0.66992 a 1.8238023,1.8238023 0 0 0 -1.3711,1.37109 v 1.42969 c 0,0.87283 0.23483,1.75097 0.67774,2.50391 0.43419,0.73811 1.06071,1.36463 1.79883,1.79882 0.75293,0.4429 1.63108,0.67774 2.5039,0.67774 h 9.04493 c 0.86867,0 1.74586,-0.238 2.49218,-0.6875 0.7273,-0.4306 1.34397,-1.04857 1.77539,-1.77539 0.45981,-0.75185 0.71485,-1.63642 0.71485,-2.51758 v -3.0293 c 0,-0.88427 -0.25495,-1.7767 -0.72657,-2.52929 -0.16276,-0.27212 -0.45486,-0.42884 -0.66601,-0.66602 a 1.8238023,1.8238023 0 0 0 1.39258,-1.39258 v -1.42773 c 0,-0.88427 -0.25496,-1.7767 -0.72657,-2.5293 -0.43149,-0.72139 -1.04208,-1.33781 -1.76562,-1.76562 -0.74597,-0.44887 -1.62219,-0.6875 -2.49023,-0.6875 z m 9.22071,3.69531 c 0.15312,0.0206 0.30196,0.0331 0.4375,0.11523 a 1.8238023,1.8238023 0 0 0 0.0195,0.0117 c 0.22899,0.1347 0.37115,0.27687 0.50586,0.50586 a 1.8238023,1.8238023 0 0 0 0.0332,0.0547 c 0.0393,0.0618 0.0303,0.14486 0.0547,0.20508 h -0.15821 a 1.8238023,1.8238023 0 0 0 -0.89257,-0.89258 z m -9.45118,0.0137 a 1.8238023,1.8238023 0 0 0 -1.04492,1.04492 c 0.0244,-0.13868 0.0344,-0.28906 0.10547,-0.40625 a 1.8238023,1.8238023 0 0 0 0.0117,-0.0195 c 0.1347,-0.22899 0.27491,-0.37116 0.50391,-0.50586 0.13878,-0.0816 0.28282,-0.0887 0.42382,-0.11328 z m 11.75782,2.98633 0.0215,0.0117 c -0.004,-0.002 -0.01,-0.001 -0.0137,-0.004 -0.003,-0.002 -0.005,-0.006 -0.008,-0.008 z m -12.80274,1.54297 a 1.8238023,1.8238023 0 0 0 1.04492,1.04492 c -0.14087,-0.0246 -0.28514,-0.0317 -0.42382,-0.11328 -0.23629,-0.139 -0.37598,-0.285 -0.50586,-0.4961 -0.0774,-0.13365 -0.0911,-0.28629 -0.11524,-0.43554 z m 10.49414,1.4707 c 0.1543,0.0204 0.30321,0.0346 0.43946,0.11719 a 1.8238023,1.8238023 0 0 0 0.0195,0.0137 c 0.22899,0.1347 0.37115,0.27491 0.50586,0.50391 a 1.8238023,1.8238023 0 0 0 0.0332,0.0547 c 0.0813,0.1278 0.0942,0.27369 0.11523,0.42383 a 1.8238023,1.8238023 0 0 0 -1.11328,-1.11328 z m 1.10938,4.49609 c -0.0209,0.14932 -0.0319,0.29064 -0.125,0.44141 a 1.8238023,1.8238023 0 0 0 -0.0195,0.0352 c -0.13471,0.22899 -0.27687,0.3692 -0.50586,0.5039 a 1.8238023,1.8238023 0 0 0 -0.0195,0.0117 c -0.13614,0.0825 -0.28533,0.0968 -0.43946,0.11719 a 1.8238023,1.8238023 0 0 0 1.10938,-1.10938 z m -11.55664,0.2168 h 0.12109 a 1.8238023,1.8238023 0 0 0 0.87695,0.87695 c -0.14087,-0.0246 -0.28514,-0.0317 -0.42382,-0.11328 -0.229,-0.1347 -0.36921,-0.27491 -0.50391,-0.5039 -0.05,-0.0851 -0.0428,-0.17898 -0.0703,-0.25977 z"
           id="path12333" /><path
           style="color:#000000;-inkscape-font-specification:'Orbitron Heavy';stroke:none;stroke-linecap:butt;stroke-linejoin:miter;-inkscape-stroke:none"
           d="m -349.2165,264.35037 q -0.85333,0 -1.57866,-0.42666 -0.72533,-0.42667 -1.152,-1.152 -0.42667,-0.72533 -0.42667,-1.57867 v -1.42933 h 3.30666 v 1.25867 q 0,0 0,0 0,0 0,0 h 8.70399 q 0,0 0,0 0,0 0,0 v -2.688 q 0,0 0,0 0,0 0,0 h -8.85332 q -0.85333,0 -1.57866,-0.42666 -0.72533,-0.42667 -1.152,-1.13067 -0.42667,-0.72533 -0.42667,-1.6 v -3.02933 q 0,-0.87466 0.42667,-1.57866 0.42667,-0.72533 1.152,-1.152 0.72533,-0.42666 1.57866,-0.42666 h 9.04532 q 0.85333,0 1.55733,0.42666 0.72533,0.42667 1.152,1.152 0.448,0.704 0.448,1.57866 v 1.42934 h -3.34933 v -1.25867 q 0,0 0,0 0,0 0,0 h -8.70399 q 0,0 0,0 0,0 0,0 v 2.688 q 0,0 0,0 0,0 0,0 h 8.89599 q 0.85333,0 1.55733,0.42666 0.72533,0.42667 1.152,1.152 0.448,0.704 0.448,1.57867 v 3.02932 q 0,0.85334 -0.448,1.57867 -0.42667,0.72533 -1.152,1.152 -0.704,0.42666 -1.55733,0.42666 z"
           id="path12335" /></g><g
         id="g12343"><path
           style="color:#000000;-inkscape-font-specification:'Orbitron Heavy';fill:#f8f8f8;stroke:none;stroke-linecap:butt;stroke-linejoin:miter;-inkscape-stroke:none"
           d="m -334.75195,246.09961 a 1.8238023,1.8238023 0 0 0 -1.82422,1.82422 v 3.28515 a 1.8238023,1.8238023 0 0 0 0.38476,0.38477 1.8238023,1.8238023 0 0 0 -0.38476,0.38281 v 12.37305 a 1.8238023,1.8238023 0 0 0 1.82422,1.82422 h 3.26367 a 1.8238023,1.8238023 0 0 0 1.82422,-1.82422 v -12.37305 a 1.8238023,1.8238023 0 0 0 -0.38477,-0.38281 1.8238023,1.8238023 0 0 0 0.38477,-0.38477 v -3.28515 a 1.8238023,1.8238023 0 0 0 -1.82422,-1.82422 z"
           id="path12339" /><path
           style="color:#000000;-inkscape-font-specification:'Orbitron Heavy';stroke:none;stroke-linecap:butt;stroke-linejoin:miter;-inkscape-stroke:none"
           d="m -334.75254,264.35037 v 0 -12.37331 h 3.264 v 12.37331 z m 0,-13.14131 v 0 -3.28533 h 3.264 v 3.28533 z"
           id="path12341" /></g><g
         id="g12349"><path
           style="color:#000000;-inkscape-font-specification:'Orbitron Heavy';fill:#f8f8f8;stroke:none;stroke-linecap:butt;stroke-linejoin:miter;-inkscape-stroke:none"
           d="m -329.78125,247.16602 a 1.8238023,1.8238023 0 0 0 -1.82422,1.82421 v 15.35938 a 1.8238023,1.8238023 0 0 0 1.82422,1.82422 h 3.30664 a 1.8238023,1.8238023 0 0 0 1.82227,-1.82422 v -5.29492 l 2.0957,2.48242 a 1.8238023,1.8238023 0 0 0 2.79102,-0.006 l 2.07031,-2.4707 v 5.28906 a 1.8238023,1.8238023 0 0 0 1.82226,1.82422 h 3.32813 a 1.8238023,1.8238023 0 0 0 1.82422,-1.82422 v -15.35938 a 1.8238023,1.8238023 0 0 0 -1.82422,-1.82421 h -3.4336 a 1.8238023,1.8238023 0 0 0 -1.40039,0.65625 l -3.78711,4.53515 -3.80468,-4.53906 a 1.8238023,1.8238023 0 0 0 -1.39844,-0.65234 z m 1.82227,3.64843 h 0.74023 l 1.62891,1.94141 a 1.8238023,1.8238023 0 0 0 -2.36914,0.82617 z m 12.83203,0 h 0.75781 v 2.77539 a 1.8238023,1.8238023 0 0 0 -2.35547,-0.86132 z m -6.75,5.87305 a 1.8238023,1.8238023 0 0 0 1.40234,0.0117 l -0.69336,0.82812 z"
           id="path12345" /><path
           style="color:#000000;-inkscape-font-specification:'Orbitron Heavy';stroke:none;stroke-linecap:butt;stroke-linejoin:miter;-inkscape-stroke:none"
           d="M -329.78188,264.35037 V 248.9904 h 3.41333 l 5.20532,6.20799 5.184,-6.20799 h 3.43466 v 15.35997 h -3.328 v -10.30398 l -5.29066,6.31466 -5.31199,-6.29333 v 10.28265 z"
           id="path12347" /></g></g><text
       xml:space="preserve"
       transform="matrix(0.26458333,0,0,0.26458333,103.20316,55.958131)"
       id="text12355"
       style="font-weight:900;font-size:21.3333px;font-family:Orbitron;-inkscape-font-specification:'Orbitron Heavy';text-align:center;white-space:pre;shape-inside:url(#rect12359);shape-padding:1.65062;display:none;fill:url(#linearGradient744);fill-opacity:1;stroke:#f8f8f8;stroke-width:3.64724;stroke-linecap:round;stroke-linejoin:round;stroke-opacity:1;paint-order:stroke fill markers"
       inkscape:label="SiM TEXT"
       x="19.914627"
       y="0" /></g></svg>
