<?xml version="1.0" encoding="UTF-8" standalone="no"?>
<!-- Created with Inkscape (http://www.inkscape.org/) -->

<svg
   inkscape:version="1.3.1 (9b9bdc1480, 2023-11-25, custom)"
   sodipodi:docname="Legato.svg"
   id="svg5"
   version="1.1"
   viewBox="0 0 10.16 128.5"
   height="128.5mm"
   width="10.16mm"
   xml:space="preserve"
   xmlns:inkscape="http://www.inkscape.org/namespaces/inkscape"
   xmlns:sodipodi="http://sodipodi.sourceforge.net/DTD/sodipodi-0.dtd"
   xmlns:xlink="http://www.w3.org/1999/xlink"
   xmlns="http://www.w3.org/2000/svg"
   xmlns:svg="http://www.w3.org/2000/svg"><sodipodi:namedview
     id="namedview7"
     pagecolor="#ffffff"
     bordercolor="#000000"
     borderopacity="0.25"
     inkscape:showpageshadow="2"
     inkscape:pageopacity="0.0"
     inkscape:pagecheckerboard="0"
     inkscape:deskcolor="#d1d1d1"
     inkscape:document-units="mm"
     showgrid="true"
     showguides="true"
     inkscape:zoom="5.656855"
     inkscape:cx="-101.46981"
     inkscape:cy="327.92073"
     inkscape:window-width="3770"
     inkscape:window-height="2096"
     inkscape:window-x="0"
     inkscape:window-y="0"
     inkscape:window-maximized="1"
     inkscape:current-layer="g2750"><inkscape:grid
       type="xygrid"
       id="grid23806"
       spacingx="5.0800001"
       spacingy="10"
       units="mm"
       dotted="true"
       originx="0"
       originy="0"
       visible="true" /><sodipodi:guide
       position="8.9958328,8.0319128"
       orientation="0,-1"
       id="guide803"
       inkscape:locked="false" /><sodipodi:guide
       position="10.16,92.999999"
       orientation="0,1"
       id="guide628"
       inkscape:locked="false"
       inkscape:label=""
       inkscape:color="rgb(0,134,229)" /><sodipodi:guide
       position="32.742183,77.999999"
       orientation="0,1"
       id="guide691"
       inkscape:locked="false"
       inkscape:label=""
       inkscape:color="rgb(0,134,229)" /><sodipodi:guide
       position="30.479999,62.999999"
       orientation="0,1"
       id="guide693"
       inkscape:locked="false"
       inkscape:label=""
       inkscape:color="rgb(0,134,229)" /></sodipodi:namedview><defs
     id="defs2"><linearGradient
       id="linearGradient5269"
       inkscape:swatch="solid"><stop
         style="stop-color:#bc9051;stop-opacity:1;"
         offset="0"
         id="stop5267" /></linearGradient><inkscape:path-effect
       effect="bspline"
       id="path-effect28295"
       is_visible="true"
       lpeversion="1"
       weight="33.333333"
       steps="2"
       helper_size="0"
       apply_no_weight="true"
       apply_with_weight="true"
       only_selected="false" /><inkscape:path-effect
       effect="bspline"
       id="path-effect28279"
       is_visible="true"
       lpeversion="1"
       weight="33.333333"
       steps="2"
       helper_size="0"
       apply_no_weight="true"
       apply_with_weight="true"
       only_selected="false" /><inkscape:path-effect
       effect="bspline"
       id="path-effect27181"
       is_visible="true"
       lpeversion="1"
       weight="33.333333"
       steps="2"
       helper_size="0"
       apply_no_weight="true"
       apply_with_weight="true"
       only_selected="false" /><inkscape:path-effect
       effect="bspline"
       id="path-effect27171"
       is_visible="true"
       lpeversion="1"
       weight="33.333333"
       steps="2"
       helper_size="0"
       apply_no_weight="true"
       apply_with_weight="true"
       only_selected="false" /><inkscape:path-effect
       effect="bspline"
       id="path-effect27161"
       is_visible="true"
       lpeversion="1"
       weight="33.333333"
       steps="2"
       helper_size="0"
       apply_no_weight="true"
       apply_with_weight="true"
       only_selected="false" /><inkscape:path-effect
       effect="bspline"
       id="path-effect27151"
       is_visible="true"
       lpeversion="1"
       weight="33.333333"
       steps="2"
       helper_size="0"
       apply_no_weight="true"
       apply_with_weight="true"
       only_selected="false" /><inkscape:path-effect
       effect="bspline"
       id="path-effect27141"
       is_visible="true"
       lpeversion="1"
       weight="33.333333"
       steps="2"
       helper_size="0"
       apply_no_weight="true"
       apply_with_weight="true"
       only_selected="false" /><inkscape:path-effect
       effect="bspline"
       id="path-effect27131"
       is_visible="true"
       lpeversion="1"
       weight="33.333333"
       steps="2"
       helper_size="0"
       apply_no_weight="true"
       apply_with_weight="true"
       only_selected="false" /><inkscape:path-effect
       effect="bspline"
       id="path-effect16779"
       is_visible="true"
       lpeversion="1"
       weight="33.333333"
       steps="2"
       helper_size="0"
       apply_no_weight="true"
       apply_with_weight="true"
       only_selected="false" /><inkscape:path-effect
       effect="bspline"
       id="path-effect16767"
       is_visible="true"
       lpeversion="1"
       weight="33.333333"
       steps="2"
       helper_size="0"
       apply_no_weight="true"
       apply_with_weight="true"
       only_selected="false" /><inkscape:path-effect
       effect="bspline"
       id="path-effect16755"
       is_visible="true"
       lpeversion="1"
       weight="33.333333"
       steps="2"
       helper_size="0"
       apply_no_weight="true"
       apply_with_weight="true"
       only_selected="false" /><inkscape:path-effect
       effect="bspline"
       id="path-effect16729"
       is_visible="true"
       lpeversion="1"
       weight="33.333333"
       steps="2"
       helper_size="0"
       apply_no_weight="true"
       apply_with_weight="true"
       only_selected="false" /><inkscape:path-effect
       effect="bspline"
       id="path-effect16719"
       is_visible="true"
       lpeversion="1"
       weight="33.333333"
       steps="2"
       helper_size="0"
       apply_no_weight="true"
       apply_with_weight="true"
       only_selected="false" /><inkscape:path-effect
       effect="bspline"
       id="path-effect16493"
       is_visible="true"
       lpeversion="1"
       weight="33.333333"
       steps="2"
       helper_size="0"
       apply_no_weight="true"
       apply_with_weight="true"
       only_selected="false" /><inkscape:path-effect
       effect="bspline"
       id="path-effect15691"
       is_visible="true"
       lpeversion="1"
       weight="33.333333"
       steps="2"
       helper_size="0"
       apply_no_weight="true"
       apply_with_weight="true"
       only_selected="false" /><inkscape:path-effect
       effect="bspline"
       id="path-effect15681"
       is_visible="true"
       lpeversion="1"
       weight="33.333333"
       steps="2"
       helper_size="0"
       apply_no_weight="true"
       apply_with_weight="true"
       only_selected="false" /><inkscape:path-effect
       effect="bspline"
       id="path-effect15671"
       is_visible="true"
       lpeversion="1"
       weight="33.333333"
       steps="2"
       helper_size="0"
       apply_no_weight="true"
       apply_with_weight="true"
       only_selected="false" /><inkscape:path-effect
       effect="bspline"
       id="path-effect15661"
       is_visible="true"
       lpeversion="1"
       weight="33.333333"
       steps="2"
       helper_size="0"
       apply_no_weight="true"
       apply_with_weight="true"
       only_selected="false" /><inkscape:path-effect
       effect="bspline"
       id="path-effect15651"
       is_visible="true"
       lpeversion="1"
       weight="33.333333"
       steps="2"
       helper_size="0"
       apply_no_weight="true"
       apply_with_weight="true"
       only_selected="false" /><inkscape:path-effect
       effect="bspline"
       id="path-effect15587"
       is_visible="true"
       lpeversion="1"
       weight="33.333333"
       steps="2"
       helper_size="0"
       apply_no_weight="true"
       apply_with_weight="true"
       only_selected="false" /><linearGradient
       id="linearGradient7378"><stop
         style="stop-color:#bd91df;stop-opacity:1;"
         offset="0"
         id="stop12941" /><stop
         style="stop-color:#28c6ff;stop-opacity:1;"
         offset="1"
         id="stop12943" /></linearGradient><rect
       x="-362.74576"
       y="242.83466"
       width="272.94321"
       height="175.77255"
       id="rect2576" /><rect
       x="0"
       y="456.79095"
       width="76.799995"
       height="28.878334"
       id="rect405" /><linearGradient
       inkscape:collect="always"
       id="linearGradient1445"><stop
         style="stop-color:#e0e8f3;stop-opacity:1;"
         offset="0"
         id="stop1441" /><stop
         style="stop-color:#e0e8f3;stop-opacity:0;"
         offset="1"
         id="stop1443" /></linearGradient><rect
       x="7.0710678"
       y="69.296463"
       width="26.162951"
       height="19.091883"
       id="rect292" /><rect
       x="7.0710678"
       y="69.296463"
       width="26.162951"
       height="19.091883"
       id="rect374" /><linearGradient
       inkscape:collect="always"
       xlink:href="#linearGradient1445"
       id="linearGradient1451"
       x1="2.9572134"
       y1="5.5931401"
       x2="17.362785"
       y2="5.5931401"
       gradientUnits="userSpaceOnUse" /><rect
       x="-362.74576"
       y="242.83466"
       width="272.94321"
       height="175.77255"
       id="rect725" /><rect
       x="-362.74576"
       y="242.83466"
       width="272.94321"
       height="175.77255"
       id="rect806" /><rect
       x="-362.74576"
       y="242.83466"
       width="272.94321"
       height="175.77255"
       id="rect872" /><mask
       maskUnits="userSpaceOnUse"
       id="mask12356-9"><path
         style="fill:#ff00ff;stroke:#fe5aff;stroke-width:0.102442;stroke-linejoin:bevel;stroke-dasharray:none;stroke-opacity:1;paint-order:stroke fill markers"
         d="m 4.2467972,120.10164 1e-7,-40.771484 H 16.337802 v 40.771484 z"
         id="path12358-1"
         inkscape:label="mask" /></mask><mask
       maskUnits="userSpaceOnUse"
       id="mask12412-7"><path
         style="fill:#ff00ff;stroke:#fe5aff;stroke-width:0.102442;stroke-linejoin:bevel;stroke-dasharray:none;stroke-opacity:1;paint-order:stroke fill markers"
         d="m 4.2467972,120.10164 1e-7,-40.771484 H 16.337802 v 40.771484 z"
         id="path12414-0"
         inkscape:label="mask" /></mask><mask
       maskUnits="userSpaceOnUse"
       id="mask12412-8"><path
         style="fill:#ff00ff;stroke:#fe5aff;stroke-width:0.102442;stroke-linejoin:bevel;stroke-dasharray:none;stroke-opacity:1;paint-order:stroke fill markers"
         d="m 4.2467972,120.10164 1e-7,-40.771484 H 16.337802 v 40.771484 z"
         id="path12414-9"
         inkscape:label="mask" /></mask><mask
       maskUnits="userSpaceOnUse"
       id="mask12352-9"><path
         style="fill:#ff00ff;stroke:#fe5aff;stroke-width:0.102442;stroke-linejoin:bevel;stroke-dasharray:none;stroke-opacity:1;paint-order:stroke fill markers"
         d="m 4.2467972,120.10164 1e-7,-40.771484 H 16.337802 v 40.771484 z"
         id="path12354-1"
         inkscape:label="mask" /></mask><mask
       maskUnits="userSpaceOnUse"
       id="mask12428-3"><path
         style="fill:#ff00ff;stroke:#fe5aff;stroke-width:0.102442;stroke-linejoin:bevel;stroke-dasharray:none;stroke-opacity:1;paint-order:stroke fill markers"
         d="m 4.2467972,120.10164 1e-7,-40.771484 H 16.337802 v 40.771484 z"
         id="path12430-2"
         inkscape:label="mask" /></mask><mask
       maskUnits="userSpaceOnUse"
       id="mask12428-6"><path
         style="fill:#ff00ff;stroke:#fe5aff;stroke-width:0.102442;stroke-linejoin:bevel;stroke-dasharray:none;stroke-opacity:1;paint-order:stroke fill markers"
         d="m 4.2467972,120.10164 1e-7,-40.771484 H 16.337802 v 40.771484 z"
         id="path12430-5"
         inkscape:label="mask" /></mask><clipPath
       clipPathUnits="userSpaceOnUse"
       id="clipPath4444"><path
         style="display:inline;fill:#ff00ff;stroke:#fe5aff;stroke-width:0.102442;stroke-linejoin:bevel;stroke-dasharray:none;stroke-opacity:1;paint-order:stroke fill markers"
         d="m 4.2467972,120.10164 1e-7,-40.771484 H 16.337802 v 40.771484 z"
         id="path4446"
         inkscape:label="clip" /></clipPath><rect
       x="-362.74576"
       y="242.83466"
       width="272.94321"
       height="175.77255"
       id="rect30022" /><rect
       x="-362.74576"
       y="242.83466"
       width="272.94321"
       height="175.77255"
       id="rect2576-2" /><rect
       x="0"
       y="456.79095"
       width="76.799995"
       height="28.878334"
       id="rect405-8" /><rect
       x="7.0710678"
       y="69.296463"
       width="26.162951"
       height="19.091883"
       id="rect292-9" /><rect
       x="7.0710678"
       y="69.296463"
       width="26.162951"
       height="19.091883"
       id="rect374-2" /><rect
       x="-362.74576"
       y="242.83466"
       width="272.94321"
       height="175.77255"
       id="rect725-6" /><rect
       x="-362.74576"
       y="242.83466"
       width="272.94321"
       height="175.77255"
       id="rect806-0" /><rect
       x="-362.74576"
       y="242.83466"
       width="272.94321"
       height="175.77255"
       id="rect872-1" /><mask
       maskUnits="userSpaceOnUse"
       id="mask12356-9-6"><path
         style="fill:#ff00ff;stroke:#fe5aff;stroke-width:0.102442;stroke-linejoin:bevel;stroke-dasharray:none;stroke-opacity:1;paint-order:stroke fill markers"
         d="m 4.2467972,120.10164 1e-7,-40.771484 H 16.337802 v 40.771484 z"
         id="path12358-1-9"
         inkscape:label="mask" /></mask><mask
       maskUnits="userSpaceOnUse"
       id="mask12412-7-2"><path
         style="fill:#ff00ff;stroke:#fe5aff;stroke-width:0.102442;stroke-linejoin:bevel;stroke-dasharray:none;stroke-opacity:1;paint-order:stroke fill markers"
         d="m 4.2467972,120.10164 1e-7,-40.771484 H 16.337802 v 40.771484 z"
         id="path12414-0-3"
         inkscape:label="mask" /></mask><mask
       maskUnits="userSpaceOnUse"
       id="mask12412-8-4"><path
         style="fill:#ff00ff;stroke:#fe5aff;stroke-width:0.102442;stroke-linejoin:bevel;stroke-dasharray:none;stroke-opacity:1;paint-order:stroke fill markers"
         d="m 4.2467972,120.10164 1e-7,-40.771484 H 16.337802 v 40.771484 z"
         id="path12414-9-9"
         inkscape:label="mask" /></mask><mask
       maskUnits="userSpaceOnUse"
       id="mask12352-9-9"><path
         style="fill:#ff00ff;stroke:#fe5aff;stroke-width:0.102442;stroke-linejoin:bevel;stroke-dasharray:none;stroke-opacity:1;paint-order:stroke fill markers"
         d="m 4.2467972,120.10164 1e-7,-40.771484 H 16.337802 v 40.771484 z"
         id="path12354-1-9"
         inkscape:label="mask" /></mask><mask
       maskUnits="userSpaceOnUse"
       id="mask12428-3-6"><path
         style="fill:#ff00ff;stroke:#fe5aff;stroke-width:0.102442;stroke-linejoin:bevel;stroke-dasharray:none;stroke-opacity:1;paint-order:stroke fill markers"
         d="m 4.2467972,120.10164 1e-7,-40.771484 H 16.337802 v 40.771484 z"
         id="path12430-2-1"
         inkscape:label="mask" /></mask><mask
       maskUnits="userSpaceOnUse"
       id="mask12428-6-2"><path
         style="fill:#ff00ff;stroke:#fe5aff;stroke-width:0.102442;stroke-linejoin:bevel;stroke-dasharray:none;stroke-opacity:1;paint-order:stroke fill markers"
         d="m 4.2467972,120.10164 1e-7,-40.771484 H 16.337802 v 40.771484 z"
         id="path12430-5-8"
         inkscape:label="mask" /></mask><clipPath
       clipPathUnits="userSpaceOnUse"
       id="clipPath4444-4"><path
         style="display:inline;fill:#ff00ff;stroke:#fe5aff;stroke-width:0.102442;stroke-linejoin:bevel;stroke-dasharray:none;stroke-opacity:1;paint-order:stroke fill markers"
         d="m 4.2467972,120.10164 1e-7,-40.771484 H 16.337802 v 40.771484 z"
         id="path4446-9"
         inkscape:label="clip" /></clipPath><linearGradient
       inkscape:collect="always"
       id="linearGradient5347"><stop
         style="stop-color:#10ccd2;stop-opacity:1;"
         offset="0"
         id="stop5343" /><stop
         style="stop-color:#cd25cd;stop-opacity:1;"
         offset="1"
         id="stop5345" /></linearGradient><rect
       x="-362.74576"
       y="242.83466"
       width="60.787731"
       height="29.019567"
       id="rect2576-0" /><rect
       x="-362.74576"
       y="242.83466"
       width="60.787731"
       height="29.019567"
       id="rect2835" /><rect
       x="-362.74576"
       y="242.83466"
       width="60.787731"
       height="29.019567"
       id="rect12331" /><rect
       x="-362.74576"
       y="242.83466"
       width="60.787731"
       height="29.019567"
       id="rect12359" /><linearGradient
       inkscape:collect="always"
       xlink:href="#linearGradient5347"
       id="linearGradient440"
       gradientUnits="userSpaceOnUse"
       x1="-333.70743"
       y1="244.44972"
       x2="-333.70743"
       y2="264.52359" /><linearGradient
       inkscape:collect="always"
       xlink:href="#linearGradient5347"
       id="linearGradient442"
       gradientUnits="userSpaceOnUse"
       x1="-333.70743"
       y1="244.44972"
       x2="-333.70743"
       y2="264.52359" /><linearGradient
       inkscape:collect="always"
       xlink:href="#linearGradient5347"
       id="linearGradient444"
       gradientUnits="userSpaceOnUse"
       x1="-333.70743"
       y1="244.44972"
       x2="-333.70743"
       y2="264.52359" /><linearGradient
       inkscape:collect="always"
       xlink:href="#linearGradient5347"
       id="linearGradient446"
       gradientUnits="userSpaceOnUse"
       x1="-333.70743"
       y1="244.44972"
       x2="-333.70743"
       y2="264.52359" /><linearGradient
       inkscape:collect="always"
       xlink:href="#linearGradient5347"
       id="linearGradient448"
       gradientUnits="userSpaceOnUse"
       x1="-333.70743"
       y1="244.44972"
       x2="-333.70743"
       y2="264.52359" /><linearGradient
       inkscape:collect="always"
       xlink:href="#linearGradient5347"
       id="linearGradient450"
       gradientUnits="userSpaceOnUse"
       x1="-333.70743"
       y1="244.44972"
       x2="-333.70743"
       y2="264.52359" /><linearGradient
       inkscape:collect="always"
       xlink:href="#linearGradient5347"
       id="linearGradient452"
       gradientUnits="userSpaceOnUse"
       x1="-333.70743"
       y1="244.44972"
       x2="-333.70743"
       y2="264.52359" /><linearGradient
       inkscape:collect="always"
       xlink:href="#linearGradient5347"
       id="linearGradient454"
       gradientUnits="userSpaceOnUse"
       x1="-333.70743"
       y1="244.44972"
       x2="-333.70743"
       y2="264.52359" /><linearGradient
       inkscape:collect="always"
       xlink:href="#linearGradient5347"
       id="linearGradient456"
       gradientUnits="userSpaceOnUse"
       x1="-333.70743"
       y1="244.44972"
       x2="-333.70743"
       y2="264.52359" /><linearGradient
       inkscape:collect="always"
       xlink:href="#linearGradient5347"
       id="linearGradient458"
       gradientUnits="userSpaceOnUse"
       x1="-333.70743"
       y1="244.44972"
       x2="-333.70743"
       y2="264.52359" /><linearGradient
       inkscape:collect="always"
       xlink:href="#linearGradient5347"
       id="linearGradient460"
       gradientUnits="userSpaceOnUse"
       x1="-333.70743"
       y1="244.44972"
       x2="-333.70743"
       y2="264.52359" /><linearGradient
       inkscape:collect="always"
       xlink:href="#linearGradient5347"
       id="linearGradient462"
       gradientUnits="userSpaceOnUse"
       x1="-333.70743"
       y1="244.44972"
       x2="-333.70743"
       y2="264.52359" /><linearGradient
       inkscape:collect="always"
       xlink:href="#linearGradient5347"
       id="linearGradient464"
       gradientUnits="userSpaceOnUse"
       x1="-333.70743"
       y1="244.44972"
       x2="-333.70743"
       y2="264.52359" /><linearGradient
       inkscape:collect="always"
       xlink:href="#linearGradient5347"
       id="linearGradient466"
       gradientUnits="userSpaceOnUse"
       x1="-333.70743"
       y1="244.44972"
       x2="-333.70743"
       y2="264.52359" /><linearGradient
       inkscape:collect="always"
       xlink:href="#linearGradient5347"
       id="linearGradient468"
       gradientUnits="userSpaceOnUse"
       x1="-333.70743"
       y1="244.44972"
       x2="-333.70743"
       y2="264.52359" /><inkscape:path-effect
       effect="bspline"
       id="path-effect15587-8"
       is_visible="true"
       lpeversion="1"
       weight="33.333333"
       steps="2"
       helper_size="0"
       apply_no_weight="true"
       apply_with_weight="true"
       only_selected="false" /><inkscape:path-effect
       effect="bspline"
       id="path-effect15651-0"
       is_visible="true"
       lpeversion="1"
       weight="33.333333"
       steps="2"
       helper_size="0"
       apply_no_weight="true"
       apply_with_weight="true"
       only_selected="false" /><inkscape:path-effect
       effect="bspline"
       id="path-effect15661-3"
       is_visible="true"
       lpeversion="1"
       weight="33.333333"
       steps="2"
       helper_size="0"
       apply_no_weight="true"
       apply_with_weight="true"
       only_selected="false" /><inkscape:path-effect
       effect="bspline"
       id="path-effect15671-9"
       is_visible="true"
       lpeversion="1"
       weight="33.333333"
       steps="2"
       helper_size="0"
       apply_no_weight="true"
       apply_with_weight="true"
       only_selected="false" /><inkscape:path-effect
       effect="bspline"
       id="path-effect15681-3"
       is_visible="true"
       lpeversion="1"
       weight="33.333333"
       steps="2"
       helper_size="0"
       apply_no_weight="true"
       apply_with_weight="true"
       only_selected="false" /><inkscape:path-effect
       effect="bspline"
       id="path-effect15691-1"
       is_visible="true"
       lpeversion="1"
       weight="33.333333"
       steps="2"
       helper_size="0"
       apply_no_weight="true"
       apply_with_weight="true"
       only_selected="false" /><clipPath
       id="clip89"><rect
         y="0"
         x="0"
         width="18"
         height="19"
         id="rect4864" /></clipPath><clipPath
       id="clip90"><path
         inkscape:connector-curvature="0"
         d="m 0.898438,0.128906 h 16.25 v 17.882813 h -16.25 z m 0,0"
         id="path4861" /></clipPath><mask
       id="mask44"><g
         style="filter:url(#alpha)"
         id="g4858"
         transform="matrix(0.26458333,0,0,0.26458333,89.358789,128.57765)"><rect
           x="0"
           y="0"
           width="3052.8701"
           height="3351.5"
           style="fill:#000000;fill-opacity:0.14999402;stroke:none"
           id="rect4856" /></g></mask><filter
       id="alpha"
       filterUnits="objectBoundingBox"
       x="0"
       y="0"
       width="1"
       height="1"><feColorMatrix
         type="matrix"
         in="SourceGraphic"
         values="0 0 0 0 1 0 0 0 0 1 0 0 0 0 1 0 0 0 1 0"
         id="feColorMatrix4149" /></filter><clipPath
       id="clipPath17821"><rect
         y="0"
         x="0"
         width="18"
         height="19"
         id="rect17819" /></clipPath><clipPath
       id="clipPath17825"><path
         inkscape:connector-curvature="0"
         d="m 0.898438,0.128906 h 16.25 v 17.882813 h -16.25 z m 0,0"
         id="path17823" /></clipPath><clipPath
       id="clip87"><rect
         y="0"
         x="0"
         width="24"
         height="26"
         id="rect4848" /></clipPath><clipPath
       id="clip88"><path
         inkscape:connector-curvature="0"
         d="m 0.683594,0.921875 h 22.679687 v 24.9375 H 0.683594 Z m 0,0"
         id="path4845" /></clipPath><mask
       id="mask43"><g
         style="filter:url(#alpha)"
         id="g4842"
         transform="matrix(0.26458333,0,0,0.26458333,89.358789,128.57765)"><rect
           x="0"
           y="0"
           width="3052.8701"
           height="3351.5"
           style="fill:#000000;fill-opacity:0.14999402;stroke:none"
           id="rect4840" /></g></mask><filter
       id="filter17836"
       filterUnits="objectBoundingBox"
       x="0"
       y="0"
       width="1"
       height="1"><feColorMatrix
         type="matrix"
         in="SourceGraphic"
         values="0 0 0 0 1 0 0 0 0 1 0 0 0 0 1 0 0 0 1 0"
         id="feColorMatrix17834" /></filter><clipPath
       id="clipPath17840"><rect
         y="0"
         x="0"
         width="24"
         height="26"
         id="rect17838" /></clipPath><clipPath
       id="clipPath17844"><path
         inkscape:connector-curvature="0"
         d="m 0.683594,0.921875 h 22.679687 v 24.9375 H 0.683594 Z m 0,0"
         id="path17842" /></clipPath></defs><rect
     style="display:inline;opacity:1;fill:#333333;fill-opacity:1;stroke-width:0.263069"
     id="rect338"
     width="10.16"
     height="128.5"
     x="1.7763568e-15"
     y="0"
     inkscape:label="background" /><g
     id="g2377"
     inkscape:label="LOGO"
     style="display:inline;fill:#e9afaf"
     transform="rotate(90,11.66818,117.11306)"><g
       aria-label="SiM"
       transform="matrix(0.26458333,0,0,0.26458333,103.20316,55.931732)"
       id="text2574-8"
       style="font-weight:900;font-size:21.3333px;font-family:Orbitron;-inkscape-font-specification:'Orbitron Heavy';text-align:center;white-space:pre;fill:url(#linearGradient452);stroke:#f8f8f8;stroke-width:3.64724;stroke-linecap:round;stroke-linejoin:round;paint-order:stroke fill markers"
       inkscape:label="SiM PATH"><g
         id="path2837"
         style="fill:url(#linearGradient442)"><path
           style="color:#000000;-inkscape-font-specification:'Orbitron Heavy';fill:#f8f8f8;stroke:none;stroke-linecap:butt;stroke-linejoin:miter;-inkscape-stroke:none"
           d="m -349.2168,247.16602 c -0.87282,0 -1.75097,0.23679 -2.5039,0.67968 -0.73411,0.43184 -1.35515,1.05616 -1.78907,1.78907 -0.45368,0.7533 -0.6875,1.63818 -0.6875,2.51367 v 3.02929 c 0,0.87964 0.23087,1.76377 0.67774,2.52344 a 1.8238023,1.8238023 0 0 0 0.0137,0.0215 c 0.16655,0.27479 0.46376,0.43166 0.67969,0.66992 a 1.8238023,1.8238023 0 0 0 -1.3711,1.37109 v 1.42969 c 0,0.87283 0.23483,1.75097 0.67774,2.50391 0.43419,0.73811 1.06071,1.36463 1.79883,1.79882 0.75293,0.4429 1.63108,0.67774 2.5039,0.67774 h 9.04493 c 0.86867,0 1.74586,-0.238 2.49218,-0.6875 0.7273,-0.4306 1.34397,-1.04857 1.77539,-1.77539 0.45981,-0.75185 0.71485,-1.63642 0.71485,-2.51758 v -3.0293 c 0,-0.88427 -0.25495,-1.7767 -0.72657,-2.52929 -0.16276,-0.27212 -0.45486,-0.42884 -0.66601,-0.66602 a 1.8238023,1.8238023 0 0 0 1.39258,-1.39258 v -1.42773 c 0,-0.88427 -0.25496,-1.7767 -0.72657,-2.5293 -0.43149,-0.72139 -1.04208,-1.33781 -1.76562,-1.76562 -0.74597,-0.44887 -1.62219,-0.6875 -2.49023,-0.6875 z m 9.22071,3.69531 c 0.15312,0.0206 0.30196,0.0331 0.4375,0.11523 a 1.8238023,1.8238023 0 0 0 0.0195,0.0117 c 0.22899,0.1347 0.37115,0.27687 0.50586,0.50586 a 1.8238023,1.8238023 0 0 0 0.0332,0.0547 c 0.0393,0.0618 0.0303,0.14486 0.0547,0.20508 h -0.15821 a 1.8238023,1.8238023 0 0 0 -0.89257,-0.89258 z m -9.45118,0.0137 a 1.8238023,1.8238023 0 0 0 -1.04492,1.04492 c 0.0244,-0.13868 0.0344,-0.28906 0.10547,-0.40625 a 1.8238023,1.8238023 0 0 0 0.0117,-0.0195 c 0.1347,-0.22899 0.27491,-0.37116 0.50391,-0.50586 0.13878,-0.0816 0.28282,-0.0887 0.42382,-0.11328 z m 11.75782,2.98633 0.0215,0.0117 c -0.004,-0.002 -0.01,-0.001 -0.0137,-0.004 -0.003,-0.002 -0.005,-0.006 -0.008,-0.008 z m -12.80274,1.54297 a 1.8238023,1.8238023 0 0 0 1.04492,1.04492 c -0.14087,-0.0246 -0.28514,-0.0317 -0.42382,-0.11328 -0.23629,-0.139 -0.37598,-0.285 -0.50586,-0.4961 -0.0774,-0.13365 -0.0911,-0.28629 -0.11524,-0.43554 z m 10.49414,1.4707 c 0.1543,0.0204 0.30321,0.0346 0.43946,0.11719 a 1.8238023,1.8238023 0 0 0 0.0195,0.0137 c 0.22899,0.1347 0.37115,0.27491 0.50586,0.50391 a 1.8238023,1.8238023 0 0 0 0.0332,0.0547 c 0.0813,0.1278 0.0942,0.27369 0.11523,0.42383 a 1.8238023,1.8238023 0 0 0 -1.11328,-1.11328 z m 1.10938,4.49609 c -0.0209,0.14932 -0.0319,0.29064 -0.125,0.44141 a 1.8238023,1.8238023 0 0 0 -0.0195,0.0352 c -0.13471,0.22899 -0.27687,0.3692 -0.50586,0.5039 a 1.8238023,1.8238023 0 0 0 -0.0195,0.0117 c -0.13614,0.0825 -0.28533,0.0968 -0.43946,0.11719 a 1.8238023,1.8238023 0 0 0 1.10938,-1.10938 z m -11.55664,0.2168 h 0.12109 a 1.8238023,1.8238023 0 0 0 0.87695,0.87695 c -0.14087,-0.0246 -0.28514,-0.0317 -0.42382,-0.11328 -0.229,-0.1347 -0.36921,-0.27491 -0.50391,-0.5039 -0.05,-0.0851 -0.0428,-0.17898 -0.0703,-0.25977 z"
           id="path2846" /><path
           style="color:#000000;-inkscape-font-specification:'Orbitron Heavy';fill:url(#linearGradient440);stroke:none;stroke-linecap:butt;stroke-linejoin:miter;-inkscape-stroke:none"
           d="m -349.2165,264.35037 q -0.85333,0 -1.57866,-0.42666 -0.72533,-0.42667 -1.152,-1.152 -0.42667,-0.72533 -0.42667,-1.57867 v -1.42933 h 3.30666 v 1.25867 q 0,0 0,0 0,0 0,0 h 8.70399 q 0,0 0,0 0,0 0,0 v -2.688 q 0,0 0,0 0,0 0,0 h -8.85332 q -0.85333,0 -1.57866,-0.42666 -0.72533,-0.42667 -1.152,-1.13067 -0.42667,-0.72533 -0.42667,-1.6 v -3.02933 q 0,-0.87466 0.42667,-1.57866 0.42667,-0.72533 1.152,-1.152 0.72533,-0.42666 1.57866,-0.42666 h 9.04532 q 0.85333,0 1.55733,0.42666 0.72533,0.42667 1.152,1.152 0.448,0.704 0.448,1.57866 v 1.42934 h -3.34933 v -1.25867 q 0,0 0,0 0,0 0,0 h -8.70399 q 0,0 0,0 0,0 0,0 v 2.688 q 0,0 0,0 0,0 0,0 h 8.89599 q 0.85333,0 1.55733,0.42666 0.72533,0.42667 1.152,1.152 0.448,0.704 0.448,1.57867 v 3.02932 q 0,0.85334 -0.448,1.57867 -0.42667,0.72533 -1.152,1.152 -0.704,0.42666 -1.55733,0.42666 z"
           id="path2848" /></g><g
         id="path2839"
         style="fill:url(#linearGradient446)"><path
           style="color:#000000;-inkscape-font-specification:'Orbitron Heavy';fill:#f8f8f8;stroke:none;stroke-linecap:butt;stroke-linejoin:miter;-inkscape-stroke:none"
           d="m -334.75195,246.09961 a 1.8238023,1.8238023 0 0 0 -1.82422,1.82422 v 3.28515 a 1.8238023,1.8238023 0 0 0 0.38476,0.38477 1.8238023,1.8238023 0 0 0 -0.38476,0.38281 v 12.37305 a 1.8238023,1.8238023 0 0 0 1.82422,1.82422 h 3.26367 a 1.8238023,1.8238023 0 0 0 1.82422,-1.82422 v -12.37305 a 1.8238023,1.8238023 0 0 0 -0.38477,-0.38281 1.8238023,1.8238023 0 0 0 0.38477,-0.38477 v -3.28515 a 1.8238023,1.8238023 0 0 0 -1.82422,-1.82422 z"
           id="path2852" /><path
           style="color:#000000;-inkscape-font-specification:'Orbitron Heavy';fill:url(#linearGradient444);stroke:none;stroke-linecap:butt;stroke-linejoin:miter;-inkscape-stroke:none"
           d="m -334.75254,264.35037 v 0 -12.37331 h 3.264 v 12.37331 z m 0,-13.14131 v 0 -3.28533 h 3.264 v 3.28533 z"
           id="path2854" /></g><g
         id="path2841"
         style="fill:url(#linearGradient450)"><path
           style="color:#000000;-inkscape-font-specification:'Orbitron Heavy';fill:#f8f8f8;stroke:none;stroke-linecap:butt;stroke-linejoin:miter;-inkscape-stroke:none"
           d="m -329.78125,247.16602 a 1.8238023,1.8238023 0 0 0 -1.82422,1.82421 v 15.35938 a 1.8238023,1.8238023 0 0 0 1.82422,1.82422 h 3.30664 a 1.8238023,1.8238023 0 0 0 1.82227,-1.82422 v -5.29492 l 2.0957,2.48242 a 1.8238023,1.8238023 0 0 0 2.79102,-0.006 l 2.07031,-2.4707 v 5.28906 a 1.8238023,1.8238023 0 0 0 1.82226,1.82422 h 3.32813 a 1.8238023,1.8238023 0 0 0 1.82422,-1.82422 v -15.35938 a 1.8238023,1.8238023 0 0 0 -1.82422,-1.82421 h -3.4336 a 1.8238023,1.8238023 0 0 0 -1.40039,0.65625 l -3.78711,4.53515 -3.80468,-4.53906 a 1.8238023,1.8238023 0 0 0 -1.39844,-0.65234 z m 1.82227,3.64843 h 0.74023 l 1.62891,1.94141 a 1.8238023,1.8238023 0 0 0 -2.36914,0.82617 z m 12.83203,0 h 0.75781 v 2.77539 a 1.8238023,1.8238023 0 0 0 -2.35547,-0.86132 z m -6.75,5.87305 a 1.8238023,1.8238023 0 0 0 1.40234,0.0117 l -0.69336,0.82812 z"
           id="path2858" /><path
           style="color:#000000;-inkscape-font-specification:'Orbitron Heavy';fill:url(#linearGradient448);stroke:none;stroke-linecap:butt;stroke-linejoin:miter;-inkscape-stroke:none"
           d="M -329.78188,264.35037 V 248.9904 h 3.41333 l 5.20532,6.20799 5.184,-6.20799 h 3.43466 v 15.35997 h -3.328 v -10.30398 l -5.29066,6.31466 -5.31199,-6.29333 v 10.28265 z"
           id="path2860" /></g></g><text
       xml:space="preserve"
       transform="matrix(0.26458333,0,0,0.26458333,103.20316,55.958131)"
       id="text2833"
       style="font-weight:900;font-size:21.3333px;font-family:Orbitron;-inkscape-font-specification:'Orbitron Heavy';text-align:center;white-space:pre;shape-inside:url(#rect2835);shape-padding:1.65062;display:none;fill:url(#linearGradient454);fill-opacity:1;stroke:#f8f8f8;stroke-width:3.64724;stroke-linecap:round;stroke-linejoin:round;stroke-opacity:1;paint-order:stroke fill markers"
       inkscape:label="SiM TEXT"
       x="19.914627"
       y="0" /></g><g
     inkscape:groupmode="layer"
     id="g372"
     inkscape:label="Text"
     style="display:inline;fill:#e9afaf"><g
       id="g2750"
       inkscape:label="INOUTTEXT"
       transform="translate(-19.630356,-2.2483671)"
       style="display:inline"><text
         xml:space="preserve"
         style="font-style:normal;font-variant:normal;font-weight:500;font-stretch:normal;font-size:2.46944px;font-family:Orbitron;-inkscape-font-specification:'Orbitron Medium';fill:#ffffff;fill-opacity:1;stroke:none;stroke-width:0.520999;stroke-linecap:square;stroke-linejoin:bevel;stroke-dasharray:none;stroke-opacity:1;paint-order:stroke fill markers;stop-color:#000000"
         x="21.667072"
         y="49.632549"
         id="text2740"
         inkscape:label="gate"><tspan
           sodipodi:role="line"
           id="tspan2738"
           style="font-style:normal;font-variant:normal;font-weight:500;font-stretch:normal;font-size:2.46944px;font-family:Orbitron;-inkscape-font-specification:'Orbitron Medium';stroke-width:0.521"
           x="21.667072"
           y="49.632549">gate</tspan></text><text
         xml:space="preserve"
         style="font-style:normal;font-variant:normal;font-weight:500;font-stretch:normal;font-size:2.46944px;font-family:Orbitron;-inkscape-font-specification:'Orbitron Medium';fill:#ffffff;fill-opacity:1;stroke:none;stroke-width:0.520999;stroke-linecap:square;stroke-linejoin:bevel;stroke-dasharray:none;stroke-opacity:1;paint-order:stroke fill markers;stop-color:#000000"
         x="20.8929"
         y="38.132549"
         id="text2748"
         inkscape:label="voct"><tspan
           id="tspan2746"
           style="font-style:normal;font-variant:normal;font-weight:500;font-stretch:normal;font-size:2.46944px;font-family:Orbitron;-inkscape-font-specification:'Orbitron Medium';stroke-width:0.521"
           x="20.8929"
           y="38.132549"
           sodipodi:role="line">v/oct</tspan></text><path
         style="font-weight:500;font-size:2.46944px;font-family:Orbitron;-inkscape-font-specification:'Orbitron Medium';fill:#ffffff;stroke-width:0.521;stroke-linecap:square;stroke-linejoin:bevel;paint-order:stroke fill markers"
         d="m 21.73498,38.132553 v 0 l -0.790221,-1.432275 h 0.30868 l 0.61489,1.131003 0.614891,-1.131003 h 0.30868 l -0.790221,1.432275 z m 1.123592,0 v 0 -0.306211 l 1.197679,-1.459439 0.06174,-0.01235 v 0.301272 l -1.197679,1.461908 z m 1.71873,0 q -0.0889,0 -0.160513,-0.04445 -0.07161,-0.04445 -0.116064,-0.116064 -0.04445,-0.07161 -0.04445,-0.160513 v -0.790221 q 0,-0.0889 0.04445,-0.160514 0.04445,-0.07161 0.116064,-0.116063 0.07161,-0.04445 0.160513,-0.04445 h 0.814915 q 0.0889,0 0.160514,0.04445 0.07408,0.04198 0.116064,0.116063 0.04445,0.07408 0.04445,0.160514 v 0.790221 q 0,0.0889 -0.04445,0.160513 -0.04198,0.07161 -0.116064,0.116064 -0.07161,0.04445 -0.160514,0.04445 z m 0.0074,-0.2667 H 25.3848 q 0.02469,0 0.04198,-0.01729 0.01729,-0.01975 0.01729,-0.04445 v -0.775404 q 0,-0.02469 -0.01729,-0.04198 -0.01729,-0.01976 -0.04198,-0.01976 h -0.800098 q -0.02469,0 -0.04445,0.01976 -0.01729,0.01729 -0.01729,0.04198 v 0.775404 q 0,0.0247 0.01729,0.04445 0.01975,0.01729 0.04445,0.01729 z m 1.701442,0.2667 q -0.0889,0 -0.160513,-0.04445 -0.07161,-0.04445 -0.116064,-0.116064 -0.04445,-0.07161 -0.04445,-0.160513 v -0.790221 q 0,-0.0889 0.04445,-0.160514 0.04445,-0.07161 0.116064,-0.116063 0.07161,-0.04445 0.160513,-0.04445 h 1.131004 v 0.266699 h -1.123595 q -0.0247,0 -0.04445,0.01976 -0.01729,0.01729 -0.01729,0.04198 v 0.775404 q 0,0.0247 0.01729,0.04445 0.01975,0.01729 0.04445,0.01729 h 1.128534 v 0.2667 h -1.135943 z m 1.656991,0 q -0.0889,0 -0.162983,-0.04445 -0.07161,-0.04445 -0.116064,-0.116064 -0.04198,-0.07161 -0.04198,-0.160513 V 36.24837 h 0.2667 v 0.451908 h 0.587726 v 0.266699 h -0.587726 v 0.83714 q 0,0.0247 0.01729,0.04445 0.01975,0.01729 0.04445,0.01729 h 0.52599 v 0.2667 h -0.533399 z"
         id="text4"
         inkscape:label="voct"
         aria-label="v/oct" /><path
         style="font-weight:500;font-size:2.46944px;font-family:Orbitron;-inkscape-font-specification:'Orbitron Medium';fill:#ffffff;stroke-width:0.521;stroke-linecap:square;stroke-linejoin:bevel;paint-order:stroke fill markers"
         d="m 22.020202,50.198052 v 0 -0.269169 h 0.876651 q 0.0247,0 0.04198,-0.01976 0.01975,-0.01729 0.01975,-0.04198 V 49.63255 h -0.869242 q -0.08643,0 -0.160514,-0.04198 -0.07408,-0.04445 -0.118533,-0.118533 -0.04198,-0.07408 -0.04198,-0.160514 v -0.790221 q 0,-0.0889 0.04445,-0.160513 0.04445,-0.07161 0.116064,-0.116064 0.07408,-0.04445 0.160514,-0.04445 h 0.814915 q 0.0889,0 0.160513,0.04445 0.07408,0.04445 0.116064,0.116064 0.04445,0.07161 0.04445,0.160513 v 1.355723 q 0,0.0889 -0.04445,0.160513 -0.04198,0.07408 -0.116064,0.116064 -0.07161,0.04445 -0.160513,0.04445 z m 0.07655,-0.832201 h 0.800098 q 0.0247,0 0.04198,-0.01729 0.01975,-0.01976 0.01975,-0.04445 v -0.775404 q 0,-0.0247 -0.01975,-0.04198 -0.01729,-0.01976 -0.04198,-0.01976 h -0.800098 q -0.0247,0 -0.04445,0.01976 -0.01729,0.01729 -0.01729,0.04198 v 0.775404 q 0,0.02469 0.01729,0.04445 0.01975,0.01729 0.04445,0.01729 z m 1.659458,0.266699 q -0.0889,0 -0.162983,-0.04445 -0.07161,-0.04445 -0.116064,-0.116063 -0.04198,-0.07161 -0.04198,-0.160514 v -0.52846 h 1.187801 v -0.254352 q 0,-0.0247 -0.01729,-0.04198 -0.01729,-0.01976 -0.04198,-0.01976 h -1.128535 v -0.2667 h 1.135943 q 0.0889,0 0.160513,0.04445 0.07408,0.04198 0.116064,0.116064 0.04445,0.07408 0.04445,0.160513 v 1.111248 z m 0.0074,-0.266699 h 0.859365 v -0.333375 h -0.921101 v 0.271639 q 0,0.02469 0.01729,0.04445 0.01976,0.01729 0.04445,0.01729 z m 1.708848,0.266699 q -0.0889,0 -0.162983,-0.04445 -0.07161,-0.04445 -0.116064,-0.116063 -0.04198,-0.07161 -0.04198,-0.160514 v -1.563156 h 0.2667 v 0.451908 h 0.587726 v 0.2667 h -0.587726 v 0.83714 q 0,0.02469 0.01729,0.04445 0.01975,0.01729 0.04445,0.01729 h 0.52599 v 0.266699 h -0.533399 z m 1.044572,0 q -0.0889,0 -0.160514,-0.04445 -0.07161,-0.04445 -0.116063,-0.116063 -0.04445,-0.07161 -0.04445,-0.160514 v -0.790221 q 0,-0.0889 0.04445,-0.160513 0.04445,-0.07161 0.116063,-0.116064 0.07161,-0.04445 0.160514,-0.04445 h 0.814915 q 0.0889,0 0.160514,0.04445 0.07408,0.04198 0.116063,0.116064 0.04445,0.07408 0.04445,0.160513 v 0.52846 h -1.19027 v 0.254353 q 0,0.02469 0.01729,0.04445 0.01976,0.01729 0.04445,0.01729 h 1.128534 v 0.266699 H 26.517034 Z M 26.4627,48.800349 h 0.921101 v -0.271638 q 0,-0.0247 -0.01729,-0.04198 -0.01729,-0.01976 -0.04198,-0.01976 h -0.800099 q -0.02469,0 -0.04445,0.01976 -0.01729,0.01729 -0.01729,0.04198 z"
         id="text5"
         inkscape:label="gate"
         aria-label="gate" /><text
         xml:space="preserve"
         style="font-style:normal;font-variant:normal;font-weight:500;font-stretch:normal;font-size:2.46944px;font-family:Orbitron;-inkscape-font-specification:'Orbitron Medium';fill:#ffffff;fill-opacity:1;stroke:none;stroke-width:0.520999;stroke-linecap:square;stroke-linejoin:bevel;stroke-dasharray:none;stroke-opacity:1;paint-order:stroke fill markers;stop-color:#000000"
         x="22.207582"
         y="61.149837"
         id="text2"
         inkscape:label="SLEWTIME"><tspan
           id="tspan1"
           style="font-style:normal;font-variant:normal;font-weight:500;font-stretch:normal;font-size:2.46944px;font-family:Orbitron;-inkscape-font-specification:'Orbitron Medium';stroke-width:0.521"
           x="22.207582"
           y="61.149837"
           sodipodi:role="line">dur.</tspan></text><path
         style="font-weight:500;font-size:2.46944px;font-family:Orbitron;-inkscape-font-specification:'Orbitron Medium';fill:#ffffff;stroke-width:0.521;stroke-linecap:square;stroke-linejoin:bevel;paint-order:stroke fill markers"
         d="m 22.585407,61.149837 q -0.0889,0 -0.162983,-0.04198 -0.07161,-0.04445 -0.116064,-0.118533 -0.04198,-0.07408 -0.04198,-0.160514 v -0.79022 q 0,-0.0889 0.04198,-0.160514 0.04445,-0.07161 0.116064,-0.116064 0.07408,-0.04445 0.162983,-0.04445 h 0.869243 v -0.469193 h 0.266699 v 1.901468 h -1.135942 z m 0.0099,-0.266699 h 0.800098 q 0.0247,0 0.04198,-0.01729 0.01729,-0.01976 0.01729,-0.04445 v -0.775404 q 0,-0.02469 -0.01729,-0.04198 -0.01729,-0.01975 -0.04198,-0.01975 h -0.800098 q -0.0247,0 -0.04445,0.01975 -0.01729,0.01729 -0.01729,0.04198 v 0.775404 q 0,0.02469 0.01729,0.04445 0.01975,0.01729 0.04445,0.01729 z m 1.652054,0.266699 q -0.0889,0 -0.162983,-0.04445 -0.07161,-0.04445 -0.116064,-0.116064 -0.04198,-0.07161 -0.04198,-0.160514 v -1.111248 h 0.266699 v 1.10384 q 0,0.02469 0.01729,0.04445 0.01976,0.01729 0.04445,0.01729 h 0.800099 q 0.02469,0 0.04198,-0.01729 0.01976,-0.01976 0.01976,-0.04445 v -1.10384 h 0.266699 v 1.111248 q 0,0.0889 -0.04445,0.160514 -0.04198,0.07161 -0.116063,0.116064 -0.07161,0.04445 -0.160514,0.04445 h -0.814915 z m 1.392763,0 v 0 -1.111247 q 0,-0.0889 0.04445,-0.160514 0.04445,-0.07161 0.116064,-0.116064 0.07408,-0.04445 0.160514,-0.04445 h 0.800098 v 0.2667 h -0.79269 q -0.02469,0 -0.04445,0.01975 -0.01729,0.01729 -0.01729,0.04198 v 1.103839 z m 1.249532,0 v 0 -0.266699 h 0.266699 v 0.266699 z"
         id="text3"
         inkscape:label="SLEWTIME"
         aria-label="dur." /><text
         xml:space="preserve"
         style="font-style:normal;font-variant:normal;font-weight:500;font-stretch:normal;font-size:2.46944px;font-family:Orbitron;-inkscape-font-specification:'Orbitron Medium';fill:#ffffff;fill-opacity:1;stroke:none;stroke-width:0.520999;stroke-linecap:square;stroke-linejoin:bevel;stroke-dasharray:none;stroke-opacity:1;paint-order:stroke fill markers;stop-color:#000000"
         x="22.495272"
         y="91.632553"
         id="text6"
         inkscape:label="OUT"><tspan
           id="tspan3"
           style="font-style:normal;font-variant:normal;font-weight:500;font-stretch:normal;font-size:2.46944px;font-family:Orbitron;-inkscape-font-specification:'Orbitron Medium';stroke-width:0.521"
           x="22.495272"
           y="91.632553"
           sodipodi:role="line">out</tspan></text><path
         style="font-weight:500;font-size:2.46944px;font-family:Orbitron;-inkscape-font-specification:'Orbitron Medium';fill:#ffffff;stroke-width:0.521;stroke-linecap:square;stroke-linejoin:bevel;paint-order:stroke fill markers"
         d="m 22.94224,91.63255 q -0.0889,0 -0.160513,-0.04445 -0.07161,-0.04445 -0.116064,-0.116064 -0.04445,-0.07161 -0.04445,-0.160514 v -0.79022 q 0,-0.0889 0.04445,-0.160514 0.04445,-0.07161 0.116064,-0.116064 0.07161,-0.04445 0.160513,-0.04445 h 0.814916 q 0.0889,0 0.160513,0.04445 0.07408,0.04198 0.116064,0.116064 0.04445,0.07408 0.04445,0.160514 v 0.79022 q 0,0.0889 -0.04445,0.160514 -0.04198,0.07161 -0.116064,0.116064 -0.07161,0.04445 -0.160513,0.04445 z m 0.0074,-0.2667 h 0.800098 q 0.0247,0 0.04198,-0.01729 0.01729,-0.01976 0.01729,-0.04445 v -0.775404 q 0,-0.02469 -0.01729,-0.04198 -0.01729,-0.01976 -0.04198,-0.01976 H 22.94964 q -0.0247,0 -0.04445,0.01976 -0.01729,0.01729 -0.01729,0.04198 v 0.775404 q 0,0.02469 0.01729,0.04445 0.01975,0.01729 0.04445,0.01729 z m 1.647114,0.2667 q -0.0889,0 -0.162983,-0.04445 -0.07161,-0.04445 -0.116063,-0.116064 -0.04198,-0.07161 -0.04198,-0.160514 v -1.111248 h 0.2667 v 1.10384 q 0,0.02469 0.01729,0.04445 0.01975,0.01729 0.04445,0.01729 h 0.800098 q 0.0247,0 0.04198,-0.01729 0.01975,-0.01976 0.01975,-0.04445 v -1.10384 h 0.2667 v 1.111248 q 0,0.0889 -0.04445,0.160514 -0.04198,0.07161 -0.116064,0.116064 -0.07161,0.04445 -0.160514,0.04445 h -0.814915 z m 1.669338,0 q -0.0889,0 -0.162983,-0.04445 -0.07161,-0.04445 -0.116063,-0.116064 -0.04198,-0.07161 -0.04198,-0.160514 v -1.563155 h 0.2667 v 0.451907 h 0.587727 v 0.2667 h -0.587727 v 0.83714 q 0,0.02469 0.01729,0.04445 0.01975,0.01729 0.04445,0.01729 h 0.525991 v 0.2667 h -0.5334 z"
         id="text7"
         inkscape:label="OUT"
         aria-label="out" /><path
         style="display:inline;fill:#94dce9;fill-opacity:1;stroke:#ee7eff;stroke-width:5;stroke-linecap:butt;stroke-linejoin:bevel;stroke-dasharray:none;stroke-opacity:1;paint-order:stroke fill markers;stop-color:#000000"
         d="m 24.706256,68.377894 0.0041,4.874334"
         id="path8958-3"
         sodipodi:nodetypes="cc" /><path
         style="display:inline;fill:none;stroke:#ee7eff;stroke-width:0.505964;stroke-linejoin:bevel;stroke-dasharray:none;stroke-opacity:1;paint-order:stroke fill markers;stop-color:#000000"
         d="m 19.628306,73.001349 h 5.08"
         id="path8960" /><g
         id="g1"
         transform="translate(-0.14637408,6.3500003)"><path
           style="display:inline;fill:#ee7eff;stroke:#94dce9;stroke-width:0.506;stroke-linejoin:bevel;stroke-opacity:1;paint-order:stroke fill markers;stop-color:#000000"
           d="M 23.198505,95.730297 V 107.8885"
           id="path1122"
           sodipodi:nodetypes="cc" /><path
           style="display:inline;fill:none;stroke:#94dce9;stroke-width:0.506;stroke-linejoin:bevel;stroke-opacity:1;paint-order:stroke fill markers;stop-color:#000000"
           d="m 26.433465,97.567652 v 2.059994 c -1.107411,0.0076 -0.982489,1.502094 -0.982489,8.482714"
           id="path11"
           sodipodi:nodetypes="ccc" /><path
           style="display:inline;fill:none;stroke:#dfa858;stroke-width:0.506;stroke-linejoin:bevel;stroke-opacity:1;paint-order:stroke fill markers;stop-color:#000000"
           d="m 24.689263,96.663045 -0.01165,4.466695 h 1.788898 v 1.0521 h -1.788898 l 0.01165,5.70666"
           id="path1124"
           sodipodi:nodetypes="cccccc" /><path
           style="display:inline;fill:none;stroke:#ee7eff;stroke-width:0.506;stroke-linejoin:bevel;paint-order:stroke fill markers;stop-color:#000000"
           d="m 23.942355,96.279312 -0.01569,3.844198 -0.0087,3.39005 c 1.436246,0.73408 0.165732,1.98238 2.238759,2.63527 0.654622,0.20617 0.573174,1.7311 0.574274,1.96032"
           id="path1126"
           sodipodi:nodetypes="cccsc" /><path
           style="display:inline;fill:#ffffff;fill-opacity:1;stroke:#ffffff;stroke-width:0.506;stroke-linejoin:round;stroke-opacity:1;paint-order:stroke fill markers;stop-color:#000000"
           d="m 22.515611,108.11036 h 4.682238"
           id="path3658"
           sodipodi:nodetypes="cc" /></g><text
         xml:space="preserve"
         style="font-style:normal;font-variant:normal;font-weight:500;font-stretch:normal;font-size:2.46944px;font-family:Orbitron;-inkscape-font-specification:'Orbitron Medium';fill:#ffffff;fill-opacity:1;stroke:none;stroke-width:0.520999;stroke-linecap:square;stroke-linejoin:bevel;stroke-dasharray:none;stroke-opacity:1;paint-order:stroke fill markers;stop-color:#000000"
         x="20.507376"
         y="80.649834"
         id="text8"
         inkscape:label="SHAPE"><tspan
           id="tspan2"
           style="font-style:normal;font-variant:normal;font-weight:500;font-stretch:normal;font-size:2.46944px;font-family:Orbitron;-inkscape-font-specification:'Orbitron Medium';stroke-width:0.521"
           x="20.507376"
           y="80.649834"
           sodipodi:role="line">shape</tspan></text><path
         style="font-weight:500;font-size:2.46944px;font-family:Orbitron;-inkscape-font-specification:'Orbitron Medium';fill:#ffffff;stroke-width:0.521;stroke-linecap:square;stroke-linejoin:bevel;paint-order:stroke fill markers"
         d="m 20.946936,80.649834 q -0.0889,0 -0.160514,-0.04445 -0.07161,-0.04445 -0.116063,-0.116064 -0.04445,-0.07161 -0.04445,-0.160514 v -0.03704 h 0.266699 v 0.02963 q 0,0.02469 0.01729,0.04445 0.01976,0.01729 0.04445,0.01729 h 0.800099 q 0.02469,0 0.04198,-0.01729 0.01729,-0.01976 0.01729,-0.04445 v -0.192616 q 0,-0.02469 -0.01729,-0.04198 -0.01729,-0.01975 -0.04198,-0.01975 h -0.807507 q -0.0889,0 -0.160514,-0.04198 -0.07161,-0.04445 -0.116063,-0.116063 -0.04445,-0.07408 -0.04445,-0.162983 v -0.207433 q 0,-0.0889 0.04445,-0.160514 0.04445,-0.07161 0.116063,-0.116064 0.07161,-0.04445 0.160514,-0.04445 h 0.814915 q 0.0889,0 0.160514,0.04445 0.07408,0.04445 0.116064,0.116064 0.04445,0.07161 0.04445,0.160514 v 0.03704 h -0.269169 v -0.02963 q 0,-0.02469 -0.01729,-0.04198 -0.01729,-0.01976 -0.04198,-0.01976 h -0.800099 q -0.02469,0 -0.04445,0.01976 -0.01729,0.01729 -0.01729,0.04198 v 0.192616 q 0,0.0247 0.01729,0.04445 0.01976,0.01729 0.04445,0.01729 h 0.807507 q 0.0889,0 0.160514,0.04445 0.07408,0.04198 0.116064,0.116064 0.04445,0.07161 0.04445,0.160514 v 0.207432 q 0,0.0889 -0.04445,0.160514 -0.04198,0.07161 -0.116064,0.116064 -0.07161,0.04445 -0.160514,0.04445 h -0.814915 z m 1.387823,0 v 0 -1.901469 h 0.266699 v 0.469193 h 0.869243 q 0.08643,0 0.158044,0.04445 0.07408,0.04445 0.118533,0.116064 0.04445,0.07161 0.04445,0.160514 v 1.111248 h -0.266699 v -1.10384 q 0,-0.02469 -0.01976,-0.04198 -0.01729,-0.01976 -0.04198,-0.01976 h -0.800099 q -0.02469,0 -0.04445,0.01976 -0.01729,0.01729 -0.01729,0.04198 v 1.10384 z m 1.973076,0 q -0.0889,0 -0.162983,-0.04445 -0.07161,-0.04445 -0.116063,-0.116064 -0.04198,-0.07161 -0.04198,-0.160514 v -0.52846 h 1.187801 v -0.254352 q 0,-0.02469 -0.01729,-0.04198 -0.01729,-0.01976 -0.04198,-0.01976 h -1.128534 v -0.2667 h 1.135943 q 0.0889,0 0.160513,0.04445 0.07408,0.04198 0.116064,0.116064 0.04445,0.07408 0.04445,0.160514 v 1.111248 z m 0.0074,-0.2667 h 0.859365 V 80.04976 h -0.921101 v 0.271638 q 0,0.02469 0.01729,0.04445 0.01975,0.01729 0.04445,0.01729 z m 1.39029,0.834671 v 0 -2.000247 h 1.135943 q 0.0889,0 0.160513,0.04445 0.07408,0.04445 0.116064,0.116064 0.04445,0.07161 0.04445,0.160514 v 0.79022 q 0,0.0889 -0.04445,0.160514 -0.04198,0.07161 -0.116064,0.116064 -0.07161,0.04445 -0.160513,0.04445 h -0.869243 v 0.567971 z m 0.328436,-0.834671 h 0.800098 q 0.0247,0 0.04198,-0.01729 0.01975,-0.01976 0.01975,-0.04445 v -0.775404 q 0,-0.02469 -0.01975,-0.04198 -0.01729,-0.01976 -0.04198,-0.01976 H 26.03397 q -0.0247,0 -0.04445,0.01976 -0.01729,0.01729 -0.01729,0.04198 v 0.775404 q 0,0.02469 0.01729,0.04445 0.01975,0.01729 0.04445,0.01729 z m 1.62489,0.2667 q -0.0889,0 -0.160513,-0.04445 -0.07161,-0.04445 -0.116064,-0.116064 -0.04445,-0.07161 -0.04445,-0.160514 v -0.79022 q 0,-0.0889 0.04445,-0.160514 0.04445,-0.07161 0.116064,-0.116064 0.07161,-0.04445 0.160513,-0.04445 h 0.814915 q 0.0889,0 0.160514,0.04445 0.07408,0.04198 0.116064,0.116064 0.04445,0.07408 0.04445,0.160514 v 0.52846 h -1.19027 v 0.254352 q 0,0.02469 0.01729,0.04445 0.01975,0.01729 0.04445,0.01729 h 1.128534 v 0.2667 H 27.65886 Z m -0.05433,-0.832202 h 0.921101 v -0.271638 q 0,-0.02469 -0.01729,-0.04198 -0.01729,-0.01976 -0.04198,-0.01976 h -0.800098 q -0.0247,0 -0.04445,0.01976 -0.01729,0.01729 -0.01729,0.04198 z"
         id="text9"
         inkscape:label="SHAPE"
         aria-label="shape" /><g
         id="g10"
         transform="translate(-0.01112826,0.52916667)"><path
           style="fill:none;stroke:#fdfefe;stroke-width:0.25;stroke-dasharray:none;stroke-opacity:1"
           id="path9"
           transform="scale(-1,1)"
           sodipodi:type="arc"
           sodipodi:cx="-28.233768"
           sodipodi:cy="85.166412"
           sodipodi:rx="1.268"
           sodipodi:ry="1.2680513"
           sodipodi:start="0"
           sodipodi:end="1.5707963"
           sodipodi:arc-type="arc"
           d="m -26.965768,85.166412 a 1.268,1.2680513 0 0 1 -1.268,1.268052"
           sodipodi:open="true" /><path
           style="fill:none;stroke:#fdfefe;stroke-width:0.25;stroke-dasharray:none;stroke-opacity:1"
           id="path10"
           sodipodi:type="arc"
           sodipodi:cx="21.2092"
           sodipodi:cy="85.166412"
           sodipodi:rx="1.268"
           sodipodi:ry="1.2680513"
           sodipodi:start="0"
           sodipodi:end="1.5707963"
           sodipodi:arc-type="arc"
           d="m 22.4772,85.166412 a 1.268,1.2680513 0 0 1 -1.268,1.268052"
           sodipodi:open="true" /></g></g></g><g
     id="g2323"
     inkscape:label="Title"
     style="display:inline;fill:#e9afaf"
     transform="rotate(90,5.8056253,3.9794534)"><g
       id="text1"
       inkscape:label="LEGATO PATH"><path
         style="color:#000000;-inkscape-font-specification:'Orbitron Heavy';fill:#0af1ff;stroke-linecap:round;stroke-linejoin:bevel;-inkscape-stroke:none;paint-order:stroke markers fill"
         d="M 4.8847656,2.5878906 4.4238281,3.0488281 V 6.3554687 L 4.8847656,6.8164062 H 8.1875 L 8.3242188,6.6777344 8.4628906,6.8164062 h 3.0488284 l 0.357422,-0.3574218 c 0.0685,0.067936 0.120405,0.1525136 0.203125,0.2011718 0.171975,0.1011618 0.373219,0.15625 0.572265,0.15625 h 1.939453 c 0.199602,10e-8 0.403333,-0.053895 0.576172,-0.1582031 h 0.002 c 0.09434,-0.055967 0.153297,-0.1518268 0.228516,-0.2324219 l 0.390625,0.390625 h 0.710937 L 16.953125,6.3554687 V 5.7519531 h 0.949219 v 0.6035156 l 0.460937,0.4609375 h 0.720703 l 0.458985,-0.4609375 v -2.125 h 0.730468 v 2.125 l 0.460938,0.4609375 h 0.714844 l 0.460937,-0.4609375 v -2.125 h 0.707031 v 1.4472657 c 0,0.1990442 0.05509,0.4002902 0.15625,0.5722656 0.09896,0.168235 0.241922,0.3111949 0.410157,0.4101562 0.171975,0.1011618 0.37322,0.1562501 0.572265,0.15625 h 1.945313 c 0.196985,10e-8 0.398068,-0.054446 0.568359,-0.15625 0.167436,-0.09849 0.309288,-0.2409976 0.408203,-0.4082031 0.104566,-0.1715461 0.16211,-0.3734102 0.16211,-0.5742187 V 3.7324219 c 0,-0.2012835 -0.05827,-0.405741 -0.166016,-0.578125 C 26.575971,2.9907408 26.437222,2.8493956 26.273437,2.7519531 26.102357,2.6487003 25.899588,2.59375 25.701172,2.59375 h -1.945313 c -0.199045,0 -0.40029,0.053135 -0.572265,0.1542969 -0.05874,0.034555 -0.09065,0.099897 -0.142578,0.1445312 L 22.742187,2.59375 h -3.300781 l -0.3125,0.3125 c -0.05422,-0.048149 -0.08841,-0.1173215 -0.15039,-0.1542969 -5.45e-4,-3.299e-4 -0.0014,3.289e-4 -0.002,0 C 18.803723,2.6476439 18.599993,2.59375 18.400391,2.59375 h -1.939454 c -0.199046,0 -0.402242,0.053134 -0.574218,0.1542969 -0.149056,0.087679 -0.266763,0.2213332 -0.363281,0.3652344 C 15.427873,2.9704296 15.309555,2.8396746 15.162109,2.7519531 14.988923,2.646992 14.784216,2.59375 14.583984,2.59375 h -1.939453 c -0.199046,0 -0.40029,0.053135 -0.572265,0.1542969 -0.08292,0.048777 -0.134496,0.1349812 -0.203125,0.203125 L 11.511719,2.59375 H 8.4628906 L 8.0019531,3.0546875 v 2.125 H 6.0566406 V 3.0488281 L 5.5957031,2.5878906 Z m 10.6757814,0.5585938 0.0078,0.013672 c -0.0014,-0.0024 -0.0044,-0.00347 -0.0059,-0.00586 -0.0014,-0.00231 -4.93e-4,-0.00552 -0.002,-0.00781 z m 3.814453,0 0.0098,0.013672 c -0.0019,-0.00319 -0.0059,-0.00464 -0.0078,-0.00781 -0.0011,-0.00177 -8.33e-4,-0.0041 -0.002,-0.00586 z M 8.921875,3.5136719 h 0.054687 l -0.054687,0.054687 z m 12.017578,0 h 0.304688 l -0.152344,0.1523437 z m -9.539062,0.7167968 h 0.105468 v 0.1054688 z m 1.736328,0 h 0.433594 l -0.199219,0.1992188 v 0.7148437 l 0.03516,0.035156 h -0.269531 z m 11.113281,0 h 0.949219 V 5.1796875 H 24.25 Z m -15.328125,0.3183594 0.15625,0.15625 -0.15625,0.15625 z m 9.701172,0.2285156 v 0.3125 l -0.15625,-0.15625 z m -2.38086,0.00977 0.146485,0.1464843 -0.146485,0.1464844 z M 14.751953,4.890625 h 0.05469 V 4.943359 Z M 11.505859,5.0742187 V 5.1796875 H 11.400391 Z M 8.921875,5.8417969 8.974609,5.8945309 H 8.921875 Z m -3.5761719,0.00977 0.042969,0.042969 h -0.042969 z"
         id="path1" /><path
         style="color:#000000;-inkscape-font-specification:'Orbitron Heavy';fill:#ac30a1;stroke-linecap:round;stroke-linejoin:bevel;-inkscape-stroke:none;paint-order:stroke markers fill"
         d="M 4.8848233,6.355906 V 3.0493206 h 0.710847 V 5.6404728 H 8.1868226 V 6.355906 Z m 3.5771628,0 V 3.0539067 H 11.511749 V 3.7693399 H 9.1820054 V 4.3471898 H 11.057724 V 5.062623 H 9.1820054 V 5.6404728 H 11.511749 V 6.355906 Z m 4.1825269,0 q -0.183444,0 -0.339372,-0.091722 -0.155928,-0.091722 -0.24765,-0.2476499 -0.09172,-0.1559278 -0.09172,-0.3393722 V 3.732651 q 0,-0.1880305 0.09172,-0.3393721 0.09172,-0.1559278 0.24765,-0.24765 0.155928,-0.091722 0.339372,-0.091722 h 1.939925 q 0.18803,0 0.339372,0.091722 0.155928,0.091722 0.24765,0.24765 0.09631,0.1513416 0.09631,0.3393721 V 4.0445065 H 14.547749 V 3.7693399 q 0,0 0,0 0,0 0,0 h -1.871133 q 0,0 0,0 0,0 0,0 v 1.8711329 q 0,0 0,0 0,0 0,0 h 1.871133 q 0,0 0,0 0,0 0,0 V 5.1451729 H 13.832316 V 4.4297398 h 1.435452 v 1.2474219 q 0,0.1834444 -0.09631,0.3393722 -0.09172,0.1559277 -0.24765,0.2476499 -0.151342,0.091722 -0.339372,0.091722 z m 3.136899,0 V 3.732651 q 0,-0.1880305 0.09172,-0.3393721 0.09172,-0.1559278 0.24765,-0.24765 0.155927,-0.091722 0.339372,-0.091722 h 1.939924 q 0.188031,0 0.339372,0.091722 0.155928,0.091722 0.24765,0.24765 0.09631,0.1513416 0.09631,0.3393721 V 6.355906 H 18.36339 V 5.2919285 H 16.49226 V 6.355906 Z M 16.49226,4.5764953 h 1.871132 V 3.7693399 q 0,0 0,0 0,0 0,0 H 16.49226 q 0,0 0,0 0,0 0,0 z m 4.242145,1.7794107 v 0 -2.5865661 H 19.441122 V 3.0539067 h 3.301999 V 3.7693399 H 21.449838 V 6.355906 Z m 3.022241,0 q -0.183444,0 -0.339372,-0.091722 -0.155928,-0.091722 -0.24765,-0.2476499 -0.09172,-0.1559278 -0.09172,-0.3393722 V 3.732651 q 0,-0.1880305 0.09172,-0.3393721 0.09172,-0.1559278 0.24765,-0.24765 0.155928,-0.091722 0.339372,-0.091722 h 1.944511 q 0.183444,0 0.334786,0.091722 0.155927,0.091722 0.24765,0.24765 0.09631,0.1513416 0.09631,0.3393721 v 1.9445107 q 0,0.1834444 -0.09631,0.3393722 -0.09172,0.1559277 -0.24765,0.2476499 -0.151342,0.091722 -0.334786,0.091722 z m 0.0321,-0.7154332 h 1.871133 q 0,0 0,0 0,0 0,0 V 3.7693399 q 0,0 0,0 0,0 0,0 h -1.871133 q 0,0 0,0 0,0 0,0 z"
         id="path2" /></g><text
       xml:space="preserve"
       style="font-weight:900;font-size:4.58611px;font-family:Orbitron;-inkscape-font-specification:'Orbitron Heavy';display:inline;fill:#ac30a1;fill-opacity:1;stroke:#0af1ff;stroke-width:0.921;stroke-linecap:round;stroke-linejoin:bevel;stroke-dasharray:none;stroke-opacity:1;paint-order:stroke markers fill;stop-color:#000000"
       x="4.623415"
       y="6.355906"
       id="text1017"
       inkscape:label="LEGATO TXT"><tspan
         sodipodi:role="line"
         id="tspan1015"
         style="font-size:4.58611px;fill:#ac30a1;fill-opacity:1;stroke:#0af1ff;stroke-width:0.921;stroke-dasharray:none;stroke-opacity:1"
         x="4.623415"
         y="6.355906">LEGATO</tspan></text></g><g
     id="g12357"
     inkscape:label="LOGO"
     style="display:inline;fill:#e9afaf"
     transform="rotate(90,11.66818,116.98077)"><g
       aria-label="SiM"
       transform="matrix(0.26458333,0,0,0.26458333,103.20316,55.958131)"
       id="g12351"
       style="font-weight:900;font-size:21.3333px;font-family:Orbitron;-inkscape-font-specification:'Orbitron Heavy';text-align:center;white-space:pre;display:inline;fill:url(#linearGradient468);stroke:#f8f8f8;stroke-width:3.64724;stroke-linecap:round;stroke-linejoin:round;paint-order:stroke fill markers"
       inkscape:label="SiM PATH"><g
         id="g12337"
         style="fill:url(#linearGradient458)"><path
           style="color:#000000;-inkscape-font-specification:'Orbitron Heavy';fill:#f8f8f8;stroke:none;stroke-linecap:butt;stroke-linejoin:miter;-inkscape-stroke:none"
           d="m -349.2168,247.16602 c -0.87282,0 -1.75097,0.23679 -2.5039,0.67968 -0.73411,0.43184 -1.35515,1.05616 -1.78907,1.78907 -0.45368,0.7533 -0.6875,1.63818 -0.6875,2.51367 v 3.02929 c 0,0.87964 0.23087,1.76377 0.67774,2.52344 a 1.8238023,1.8238023 0 0 0 0.0137,0.0215 c 0.16655,0.27479 0.46376,0.43166 0.67969,0.66992 a 1.8238023,1.8238023 0 0 0 -1.3711,1.37109 v 1.42969 c 0,0.87283 0.23483,1.75097 0.67774,2.50391 0.43419,0.73811 1.06071,1.36463 1.79883,1.79882 0.75293,0.4429 1.63108,0.67774 2.5039,0.67774 h 9.04493 c 0.86867,0 1.74586,-0.238 2.49218,-0.6875 0.7273,-0.4306 1.34397,-1.04857 1.77539,-1.77539 0.45981,-0.75185 0.71485,-1.63642 0.71485,-2.51758 v -3.0293 c 0,-0.88427 -0.25495,-1.7767 -0.72657,-2.52929 -0.16276,-0.27212 -0.45486,-0.42884 -0.66601,-0.66602 a 1.8238023,1.8238023 0 0 0 1.39258,-1.39258 v -1.42773 c 0,-0.88427 -0.25496,-1.7767 -0.72657,-2.5293 -0.43149,-0.72139 -1.04208,-1.33781 -1.76562,-1.76562 -0.74597,-0.44887 -1.62219,-0.6875 -2.49023,-0.6875 z m 9.22071,3.69531 c 0.15312,0.0206 0.30196,0.0331 0.4375,0.11523 a 1.8238023,1.8238023 0 0 0 0.0195,0.0117 c 0.22899,0.1347 0.37115,0.27687 0.50586,0.50586 a 1.8238023,1.8238023 0 0 0 0.0332,0.0547 c 0.0393,0.0618 0.0303,0.14486 0.0547,0.20508 h -0.15821 a 1.8238023,1.8238023 0 0 0 -0.89257,-0.89258 z m -9.45118,0.0137 a 1.8238023,1.8238023 0 0 0 -1.04492,1.04492 c 0.0244,-0.13868 0.0344,-0.28906 0.10547,-0.40625 a 1.8238023,1.8238023 0 0 0 0.0117,-0.0195 c 0.1347,-0.22899 0.27491,-0.37116 0.50391,-0.50586 0.13878,-0.0816 0.28282,-0.0887 0.42382,-0.11328 z m 11.75782,2.98633 0.0215,0.0117 c -0.004,-0.002 -0.01,-0.001 -0.0137,-0.004 -0.003,-0.002 -0.005,-0.006 -0.008,-0.008 z m -12.80274,1.54297 a 1.8238023,1.8238023 0 0 0 1.04492,1.04492 c -0.14087,-0.0246 -0.28514,-0.0317 -0.42382,-0.11328 -0.23629,-0.139 -0.37598,-0.285 -0.50586,-0.4961 -0.0774,-0.13365 -0.0911,-0.28629 -0.11524,-0.43554 z m 10.49414,1.4707 c 0.1543,0.0204 0.30321,0.0346 0.43946,0.11719 a 1.8238023,1.8238023 0 0 0 0.0195,0.0137 c 0.22899,0.1347 0.37115,0.27491 0.50586,0.50391 a 1.8238023,1.8238023 0 0 0 0.0332,0.0547 c 0.0813,0.1278 0.0942,0.27369 0.11523,0.42383 a 1.8238023,1.8238023 0 0 0 -1.11328,-1.11328 z m 1.10938,4.49609 c -0.0209,0.14932 -0.0319,0.29064 -0.125,0.44141 a 1.8238023,1.8238023 0 0 0 -0.0195,0.0352 c -0.13471,0.22899 -0.27687,0.3692 -0.50586,0.5039 a 1.8238023,1.8238023 0 0 0 -0.0195,0.0117 c -0.13614,0.0825 -0.28533,0.0968 -0.43946,0.11719 a 1.8238023,1.8238023 0 0 0 1.10938,-1.10938 z m -11.55664,0.2168 h 0.12109 a 1.8238023,1.8238023 0 0 0 0.87695,0.87695 c -0.14087,-0.0246 -0.28514,-0.0317 -0.42382,-0.11328 -0.229,-0.1347 -0.36921,-0.27491 -0.50391,-0.5039 -0.05,-0.0851 -0.0428,-0.17898 -0.0703,-0.25977 z"
           id="path12333" /><path
           style="color:#000000;-inkscape-font-specification:'Orbitron Heavy';fill:url(#linearGradient456);stroke:none;stroke-linecap:butt;stroke-linejoin:miter;-inkscape-stroke:none"
           d="m -349.2165,264.35037 q -0.85333,0 -1.57866,-0.42666 -0.72533,-0.42667 -1.152,-1.152 -0.42667,-0.72533 -0.42667,-1.57867 v -1.42933 h 3.30666 v 1.25867 q 0,0 0,0 0,0 0,0 h 8.70399 q 0,0 0,0 0,0 0,0 v -2.688 q 0,0 0,0 0,0 0,0 h -8.85332 q -0.85333,0 -1.57866,-0.42666 -0.72533,-0.42667 -1.152,-1.13067 -0.42667,-0.72533 -0.42667,-1.6 v -3.02933 q 0,-0.87466 0.42667,-1.57866 0.42667,-0.72533 1.152,-1.152 0.72533,-0.42666 1.57866,-0.42666 h 9.04532 q 0.85333,0 1.55733,0.42666 0.72533,0.42667 1.152,1.152 0.448,0.704 0.448,1.57866 v 1.42934 h -3.34933 v -1.25867 q 0,0 0,0 0,0 0,0 h -8.70399 q 0,0 0,0 0,0 0,0 v 2.688 q 0,0 0,0 0,0 0,0 h 8.89599 q 0.85333,0 1.55733,0.42666 0.72533,0.42667 1.152,1.152 0.448,0.704 0.448,1.57867 v 3.02932 q 0,0.85334 -0.448,1.57867 -0.42667,0.72533 -1.152,1.152 -0.704,0.42666 -1.55733,0.42666 z"
           id="path12335" /></g><g
         id="g12343"
         style="fill:url(#linearGradient462)"><path
           style="color:#000000;-inkscape-font-specification:'Orbitron Heavy';fill:#f8f8f8;stroke:none;stroke-linecap:butt;stroke-linejoin:miter;-inkscape-stroke:none"
           d="m -334.75195,246.09961 a 1.8238023,1.8238023 0 0 0 -1.82422,1.82422 v 3.28515 a 1.8238023,1.8238023 0 0 0 0.38476,0.38477 1.8238023,1.8238023 0 0 0 -0.38476,0.38281 v 12.37305 a 1.8238023,1.8238023 0 0 0 1.82422,1.82422 h 3.26367 a 1.8238023,1.8238023 0 0 0 1.82422,-1.82422 v -12.37305 a 1.8238023,1.8238023 0 0 0 -0.38477,-0.38281 1.8238023,1.8238023 0 0 0 0.38477,-0.38477 v -3.28515 a 1.8238023,1.8238023 0 0 0 -1.82422,-1.82422 z"
           id="path12339" /><path
           style="color:#000000;-inkscape-font-specification:'Orbitron Heavy';fill:url(#linearGradient460);stroke:none;stroke-linecap:butt;stroke-linejoin:miter;-inkscape-stroke:none"
           d="m -334.75254,264.35037 v 0 -12.37331 h 3.264 v 12.37331 z m 0,-13.14131 v 0 -3.28533 h 3.264 v 3.28533 z"
           id="path12341" /></g><g
         id="g12349"
         style="fill:url(#linearGradient466)"><path
           style="color:#000000;-inkscape-font-specification:'Orbitron Heavy';fill:#f8f8f8;stroke:none;stroke-linecap:butt;stroke-linejoin:miter;-inkscape-stroke:none"
           d="m -329.78125,247.16602 a 1.8238023,1.8238023 0 0 0 -1.82422,1.82421 v 15.35938 a 1.8238023,1.8238023 0 0 0 1.82422,1.82422 h 3.30664 a 1.8238023,1.8238023 0 0 0 1.82227,-1.82422 v -5.29492 l 2.0957,2.48242 a 1.8238023,1.8238023 0 0 0 2.79102,-0.006 l 2.07031,-2.4707 v 5.28906 a 1.8238023,1.8238023 0 0 0 1.82226,1.82422 h 3.32813 a 1.8238023,1.8238023 0 0 0 1.82422,-1.82422 v -15.35938 a 1.8238023,1.8238023 0 0 0 -1.82422,-1.82421 h -3.4336 a 1.8238023,1.8238023 0 0 0 -1.40039,0.65625 l -3.78711,4.53515 -3.80468,-4.53906 a 1.8238023,1.8238023 0 0 0 -1.39844,-0.65234 z m 1.82227,3.64843 h 0.74023 l 1.62891,1.94141 a 1.8238023,1.8238023 0 0 0 -2.36914,0.82617 z m 12.83203,0 h 0.75781 v 2.77539 a 1.8238023,1.8238023 0 0 0 -2.35547,-0.86132 z m -6.75,5.87305 a 1.8238023,1.8238023 0 0 0 1.40234,0.0117 l -0.69336,0.82812 z"
           id="path12345" /><path
           style="color:#000000;-inkscape-font-specification:'Orbitron Heavy';fill:url(#linearGradient464);stroke:none;stroke-linecap:butt;stroke-linejoin:miter;-inkscape-stroke:none"
           d="M -329.78188,264.35037 V 248.9904 h 3.41333 l 5.20532,6.20799 5.184,-6.20799 h 3.43466 v 15.35997 h -3.328 v -10.30398 l -5.29066,6.31466 -5.31199,-6.29333 v 10.28265 z"
           id="path12347" /></g></g></g><g
     id="g1851"
     inkscape:label="InOutLines"
     style="display:inline"><path
       style="fill:none;stroke:#94dce9;stroke-width:0.505964;stroke-linejoin:bevel;stroke-dasharray:none;stroke-opacity:1;paint-order:stroke fill markers;stop-color:#000000"
       d="m 0,40.253155 5.0802865,-1.73e-4"
       id="path8325"
       sodipodi:nodetypes="cc" /><path
       style="fill:none;stroke:#94dce9;stroke-width:0.505964;stroke-linejoin:bevel;stroke-dasharray:none;stroke-opacity:1;paint-order:stroke fill markers;stop-color:#000000"
       d="m 0,51.747018 5.0802865,-1.73e-4"
       id="path3"
       sodipodi:nodetypes="cc" /><path
       style="fill:none;stroke:#dfa858;stroke-width:0.506;stroke-linejoin:bevel;stroke-dasharray:none;stroke-opacity:1;paint-order:stroke fill markers;stop-color:#000000"
       d="M 5.5464695,93.752982 10.16,93.753155"
       id="path4"
       sodipodi:nodetypes="cc" /></g></svg>
